<svg contentScriptType="text/ecmascript" width="200.0" xmlns:xlink="http://www.w3.org/1999/xlink" zoomAndPan="magnify" contentStyleType="text/css" height="200.0" viewBox="0.0 0.0 200.0 200.0" preserveAspectRatio="xMidYMid meet" xmlns="http://www.w3.org/2000/svg" version="1.0"><g id="TTVF_Symbol_Exhaust"><g id="_C1166B_SYMBOLS_ECT_C1166B_ECT_TTVF_2_EXHAUST_SVG" transform="translate(0.0 0.0)scale(1.0 1.0)"><rect x="20.0" fill="red" width="160.0" height="120.0" y="40.0" opacity="0"/><g id="ECT/C1166B_ECT_TTVF_2_Exhaust" transform="matrix(1.000000, 0, 0, 1.000000, 100.000000, 100.000000)">

  
  <text x="0px" font-size="8" y="8px" transform="matrix(3.750000,0.000000,0.000000,3.750000,-69.000000,-59.750000)" text-decoration="none" fill="#000000" font-family="Arial" class="AnText" font-style="normal" font-weight="normal">In</text>

  
  <text x="0px" font-size="8" y="8px" transform="matrix(3.750000,0.000000,0.000000,3.750000,42.000000,-59.750000)" text-decoration="none" fill="#000000" font-family="Arial" class="AnText" font-style="normal" font-weight="normal">Ex </text>

  
  <line fill="none" x1="-31px" x2="-31px" y1="-39px" y2="40px" class="AnLine" stroke="#218A21" stroke-width="2px"/>

  
  <line fill="none" x1="30px" x2="30px" y1="-39px" y2="40px" class="AnLine" stroke="#218A21" stroke-width="2px"/>

  
  <line fill="none" x1="-31px" x2="30px" y1="-29px" y2="-29px" class="AnLine" stroke="#218A21" stroke-width="2px"/>

  
  <line fill="none" x1="-31px" x2="30px" y1="32px" y2="32px" class="AnLine" stroke="#218A21" stroke-width="2px"/>

  
  <polygon fill="#218A21" class="AnPolygon" fill-rule="evenodd" points="-21,-27 20,-27 -21,28 20,28 -21,-27 "/>

  
  <polygon fill="#218A21" class="AnPolygon" fill-rule="evenodd" points="33,-29 33,32 54,1 33,-29 "/>

  
  <polygon fill="#FF0000" class="AnPolygon" fill-rule="evenodd" points="-34,32 -34,-29 -55,1 -34,32 "/>

</g></g></g><rect rx="0.0" ry="0.0" width="200.0" height="200.0" style="fill-opacity: 0.0;stroke-opacity: 0.0;stroke-width:1;stroke:rgb(0,0,0)"/></svg>