<svg contentScriptType="text/ecmascript" xmlns:xlink="http://www.w3.org/1999/xlink" zoomAndPan="magnify" contentStyleType="text/css" preserveAspectRatio="xMidYMid meet" xmlns="http://www.w3.org/2000/svg" version="1.0">
  <g id="TrainRotationByTrackPointRange">
    <g id="_PRJ_GZ_COCC_SYMBOLS_SIGNAL_SIG_TRAIN_RIGHT_SVG" transform="translate(-19.81982 1.6842098)scale(1.8018018 1.7894737)">
      <title>Ani2Svg: "Sub/Symbol/SIG/SIG_Train_Right" [03/23/2015, 03:46:56 PM]</title>
      <desc>Generated from image "Sub/Symbol/SIG/SIG_Train_Right", on 03/23/2015 (03:46:56 PM)</desc>
      <g id="AnDefaultLayer">
        <circle r="4.00px" style="fill:#FF0000; fill-rule:evenodd; fill-opacity:1; stroke:#FF0000; stroke-width:0px; stroke-dashoffset:0" cx="-38px" cy="14px" />
        <circle r="3.00px" style="fill:#557D9B; fill-rule:evenodd; fill-opacity:1; stroke:#557D9B; stroke-width:0px; stroke-dashoffset:0" cx="-38px" cy="14px" />
        <circle r="4.00px" style="fill:#FF0000; fill-rule:evenodd; fill-opacity:1; stroke:#FF0000; stroke-width:0px; stroke-dashoffset:0" cx="-17px" cy="14px" />
        <circle r="3.00px" style="fill:#557D9B; fill-rule:evenodd; fill-opacity:1; stroke:#557D9B; stroke-width:0px; stroke-dashoffset:0" cx="-17px" cy="14px" />
        <circle r="4.00px" style="fill:#FF0000; fill-rule:evenodd; fill-opacity:1; stroke:#FF0000; stroke-width:0px; stroke-dashoffset:0" cx="23px" cy="14px" />
        <circle r="3.00px" style="fill:#557D9B; fill-rule:evenodd; fill-opacity:1; stroke:#557D9B; stroke-width:0px; stroke-dashoffset:0" cx="23px" cy="14px" />
        <circle r="4.00px" style="fill:#FF0000; fill-rule:evenodd; fill-opacity:1; stroke:#FF0000; stroke-width:0px; stroke-dashoffset:0" cx="43px" cy="14px" />
        <circle r="3.00px" style="fill:#557D9B; fill-rule:evenodd; fill-opacity:1; stroke:#557D9B; stroke-width:0px; stroke-dashoffset:0" cx="43px" cy="14px" />
        <polygon style="fill:#FF0000; fill-rule:evenodd; fill-opacity:1; stroke:#FF0000; stroke-width:1px; stroke-dashoffset:0" points="-42,-19 -44,-19 -44,-14 -44,9 -31,9 -32,10 -31,11 -44,11 -44,14 -37,14 -32,15 -21,15 -17,14 -10,14 -10,11 -24,11 -23,10 -24,9 30,9 29,10 30,11 17,11 17,14 24,14 29,15 39,15 44,14 65,14 65,12 53,12 48,11 37,11 38,10 37,9 44,9 45,10 52,11 65,11 66,9 67,9 67,7 59,-10 58,-12 57,-14 55,-16 52,-18 49,-19 44,-19 42,-19 42,-20 38,-20 38,-19 37,-19 37,-20 33,-20 33,-19 25,-19 -31,-19 -31,-20 -35,-20 -35,-19 -36,-19 -36,-20 -40,-20 -40,-19 -42,-19 " />
        <rect x="-44px" width="28px" y="-19px" height="2px" style="fill:none; fill-rule:evenodd; fill-opacity:0; stroke:#000000; stroke-width:1px; stroke-dashoffset:0" />
        <rect x="-14px" width="28px" y="-19px" height="2px" style="fill:none; fill-rule:evenodd; fill-opacity:0; stroke:#000000; stroke-width:1px; stroke-dashoffset:0" />
        <rect x="16px" width="28px" y="-19px" height="2px" style="fill:none; fill-rule:evenodd; fill-opacity:0; stroke:#000000; stroke-width:1px; stroke-dashoffset:0" />
        <rect x="-44px" width="88px" y="-19px" height="28px" style="fill:none; fill-rule:evenodd; fill-opacity:0; stroke:#000000; stroke-width:1px; stroke-dashoffset:0" />
        <polyline style="fill:none; fill-rule:evenodd; fill-opacity:0; stroke:#000000; stroke-width:1px; stroke-dashoffset:0" points="-31,9 -32,10 -31,11 " />
        <polyline style="fill:none; fill-rule:evenodd; fill-opacity:0; stroke:#000000; stroke-width:1px; stroke-dashoffset:0" points="-24,9 -23,10 -24,11 " />
        <polyline style="fill:none; fill-rule:evenodd; fill-opacity:0; stroke:#000000; stroke-width:1px; stroke-dashoffset:0" points="59,-10 67,7 67,9 44,9 44,-19 " />
        <polyline style="fill:none; fill-rule:evenodd; fill-opacity:0; stroke:#000000; stroke-width:1px; stroke-dashoffset:0" points="44,-19 49,-19 53,-17 59,-10 " />
        <polyline style="fill:none; fill-rule:evenodd; fill-opacity:0; stroke:#000000; stroke-width:1px; stroke-dashoffset:0" points="44,-17 47,-17 " />
        <polyline style="fill:none; fill-rule:evenodd; fill-opacity:0; stroke:#000000; stroke-width:1px; stroke-dashoffset:0" points="47,-17 54,-15 59,-10 " />
        <polyline style="fill:none; fill-rule:evenodd; fill-opacity:0; stroke:#000000; stroke-width:1px; stroke-dashoffset:0" points="44,9 45,10 52,11 65,11 66,9 44,9 " />
        <polyline style="fill:none; fill-rule:evenodd; fill-opacity:0; stroke:#000000; stroke-width:1px; stroke-dashoffset:0" points="57,-10 59,-8 60,-6 62,-3 " />
        <polyline style="fill:none; fill-rule:evenodd; fill-opacity:0; stroke:#000000; stroke-width:1px; stroke-dashoffset:0" points="48,-14 53,-13 57,-10 " />
        <line y2="-14px" style="fill:none; fill-rule:evenodd; fill-opacity:0; stroke:#000000; stroke-width:1px; stroke-dashoffset:0" x1="44px" x2="48px" y1="-14px" />
        <polyline style="fill:none; fill-rule:evenodd; fill-opacity:0; stroke:#000000; stroke-width:1px; stroke-dashoffset:0" points="47,-11 47,-1 " />
        <polyline style="fill:none; fill-rule:evenodd; fill-opacity:0; stroke:#000000; stroke-width:1px; stroke-dashoffset:0" points="47,-11 52,-10 56,-6 " />
        <polyline style="fill:none; fill-rule:evenodd; fill-opacity:0; stroke:#000000; stroke-width:1px; stroke-dashoffset:0" points="63,4 59,-1 56,-6 " />
        <polyline style="fill:none; fill-rule:evenodd; fill-opacity:0; stroke:#000000; stroke-width:1px; stroke-dashoffset:0" points="63,4 55,2 47,-1 " />
        <polyline style="fill:none; fill-rule:evenodd; fill-opacity:0; stroke:#000000; stroke-width:1px; stroke-dashoffset:0" points="44,1 47,2 49,2 " />
        <polyline style="fill:none; fill-rule:evenodd; fill-opacity:0; stroke:#000000; stroke-width:1px; stroke-dashoffset:0" points="60,6 55,4 49,2 " />
        <polyline style="fill:none; fill-rule:evenodd; fill-opacity:0; stroke:#000000; stroke-width:1px; stroke-dashoffset:0" points="67,7 64,7 60,6 " />
        <polyline style="fill:none; fill-rule:evenodd; fill-opacity:0; stroke:#000000; stroke-width:1px; stroke-dashoffset:0" points="17,11 48,11 53,12 65,12 65,14 44,14 39,15 29,15 24,14 17,14 17,11 " />
        <rect x="-40px" width="4px" y="-20px" height="1px" style="fill:none; fill-rule:evenodd; fill-opacity:0; stroke:#000000; stroke-width:1px; stroke-dashoffset:0" />
        <rect x="-35px" width="4px" y="-20px" height="1px" style="fill:none; fill-rule:evenodd; fill-opacity:0; stroke:#000000; stroke-width:1px; stroke-dashoffset:0" />
        <rect x="33px" width="4px" y="-20px" height="1px" style="fill:none; fill-rule:evenodd; fill-opacity:0; stroke:#000000; stroke-width:1px; stroke-dashoffset:0" />
        <rect x="38px" width="4px" y="-20px" height="1px" style="fill:none; fill-rule:evenodd; fill-opacity:0; stroke:#000000; stroke-width:1px; stroke-dashoffset:0" />
        <polyline style="fill:none; fill-rule:evenodd; fill-opacity:0; stroke:#000000; stroke-width:1px; stroke-dashoffset:0" points="30,9 29,10 30,11 " />
        <polyline style="fill:none; fill-rule:evenodd; fill-opacity:0; stroke:#000000; stroke-width:1px; stroke-dashoffset:0" points="37,9 38,10 37,11 " />
        <line y2="-17px" style="fill:none; fill-rule:evenodd; fill-opacity:0; stroke:#000000; stroke-width:1px; stroke-dashoffset:0" x1="-44px" x2="44px" y1="-17px" />
        <polyline style="fill:none; fill-rule:evenodd; fill-opacity:0; stroke:#000000; stroke-width:1px; stroke-dashoffset:0" points="-44,11 -10,11 -10,14 -17,14 -21,15 -32,15 -37,14 -44,14 -44,11 " />
      </g>
    </g>
  </g>
</svg>
