<svg contentScriptType="text/ecmascript" xmlns:xlink="http://www.w3.org/1999/xlink" zoomAndPan="magnify" contentStyleType="text/css" preserveAspectRatio="xMidYMid meet" xmlns="http://www.w3.org/2000/svg" version="1.0">
  <g id="TTVF_D_Symbol_Alarm">
    <g id="_SCADAGEN_SYMBOLS_ECT_SCADAGEN_ECT_TTVF_5_ALARM_DOWN_SVG" transform="translate(-101.0 -101.0)scale(1.0 1.0)">
      <rect x="23.0" fill="red" width="154.0" height="112.0" y="44.0" opacity="0" />
      <g id="ECT/SCADAgen_ECT_TTVF_5_Alarm_Down" transform="matrix(1.000000, 0, 0, 1.000000, 100.000000, 100.000000)">
        <text x="0px" font-size="12" y="13px" transform="matrix(2.700000,0.000000,0.000000,2.700000,-76.800003,-52.120001)" text-decoration="none" fill="#000000" class="AnText" font-style="normal" font-weight="normal">Ex</text>
        <text x="0px" font-size="12" y="13px" transform="matrix(2.700000,0.000000,0.000000,2.700000,-76.800003,-2.120000)" text-decoration="none" fill="#000000" class="AnText" font-style="normal" font-weight="normal">In</text>
        <line fill="none" x1="-40px" x2="39px" y1="30px" y2="30px" class="AnLine" stroke="#FF0000" stroke-width="2px" />
        <line fill="none" x1="-40px" x2="39px" y1="-31px" y2="-31px" class="AnLine" stroke="#FF0000" stroke-width="2px" />
        <line fill="none" x1="-32px" x2="-32px" y1="30px" y2="-31px" class="AnLine" stroke="#FF0000" stroke-width="2px" />
        <line fill="none" x1="31px" x2="31px" y1="30px" y2="-31px" class="AnLine" stroke="#FF0000" stroke-width="2px" />
        <polygon fill="#FF0000" class="AnPolygon" fill-rule="evenodd" points="-28,20 -28,-21 27,20 27,-21 -28,20 " />
        <polygon fill="#FF0000" class="AnPolygon" fill-rule="evenodd" points="-30,-34 31,-34 0,-55 -30,-34 " />
        <polygon fill="#FF0000" class="AnPolygon" fill-rule="evenodd" points="31,34 -30,34 0,55 31,34 " />
      </g>
    </g>
  </g>
</svg>
