<svg contentScriptType="text/ecmascript" xmlns:xlink="http://www.w3.org/1999/xlink" zoomAndPan="magnify" xmlns:svg="http://www.w3.org/2000/svg" contentStyleType="text/css" preserveAspectRatio="xMidYMid meet" xmlns="http://www.w3.org/2000/svg" version="1.0"><g id="_STRESSTEST_SYMBOLS_STRESSTEST_OSA_OSA_DRIVE-HARDDISK_SVG">
  <defs id="defs3">
    <radialGradient gradientTransform="matrix(-2.774389,0,0,1.969706,112.7623,-872.8854)" xmlns:xlink="http://www.w3.org/1999/xlink" id="radialGradient6719" gradientUnits="userSpaceOnUse" xlink:show="other" xlink:type="simple" r="117.14286" cx="605.71429" fx="605.71429" cy="486.64789" fy="486.64789" xlink:href="#linearGradient5060" xlink:actuate="onLoad"/>
    <linearGradient xlink:actuate="onLoad" xlink:type="simple" id="linearGradient5060" xlink:show="other" xmlns:xlink="http://www.w3.org/1999/xlink">
      <stop style="stop-color:#000000;stop-opacity:1" offset="0" id="stop5062"/>
      <stop style="stop-color:#000000;stop-opacity:0" offset="1" id="stop5064"/>
    </linearGradient>
    <radialGradient gradientTransform="matrix(2.774389,0,0,1.969706,-1891.633,-872.8854)" xmlns:xlink="http://www.w3.org/1999/xlink" id="radialGradient6717" gradientUnits="userSpaceOnUse" xlink:show="other" xlink:type="simple" r="117.14286" cx="605.71429" fx="605.71429" cy="486.64789" fy="486.64789" xlink:href="#linearGradient5060" xlink:actuate="onLoad"/>
    <linearGradient xlink:actuate="onLoad" xlink:type="simple" id="linearGradient5048" xlink:show="other" xmlns:xlink="http://www.w3.org/1999/xlink">
      <stop style="stop-color:#000000;stop-opacity:0" offset="0" id="stop5050"/>
      <stop style="stop-color:#000000;stop-opacity:1" offset="0.5" id="stop5056"/>
      <stop style="stop-color:#000000;stop-opacity:0" offset="1" id="stop5052"/>
    </linearGradient>
    <linearGradient gradientTransform="matrix(2.774389,0,0,1.969706,-1892.179,-872.8854)" x1="302.85715" xmlns:xlink="http://www.w3.org/1999/xlink" y1="366.64789" x2="302.85715" xlink:href="#linearGradient5048" gradientUnits="userSpaceOnUse" y2="609.50507" xlink:type="simple" xlink:actuate="onLoad" id="linearGradient6715" xlink:show="other"/>
    <linearGradient xlink:actuate="onLoad" xlink:type="simple" id="linearGradient2555" xlink:show="other" xmlns:xlink="http://www.w3.org/1999/xlink">
      <stop style="stop-color:#ffffff;stop-opacity:1" offset="0" id="stop2557"/>
      <stop style="stop-color:#e6e6e6;stop-opacity:1" offset="0.5" id="stop2561"/>
      <stop style="stop-color:#ffffff;stop-opacity:1" offset="0.75" id="stop2563"/>
      <stop style="stop-color:#e1e1e1;stop-opacity:1" offset="0.84166664" id="stop2565"/>
      <stop style="stop-color:#ffffff;stop-opacity:1" offset="1" id="stop2559"/>
    </linearGradient>
    <linearGradient xlink:actuate="onLoad" xlink:type="simple" id="linearGradient4274" xlink:show="other" xmlns:xlink="http://www.w3.org/1999/xlink">
      <stop style="stop-color:#ffffff;stop-opacity:0.25490198" offset="0" id="stop4276"/>
      <stop style="stop-color:#ffffff;stop-opacity:1" offset="1" id="stop4278"/>
    </linearGradient>
    <linearGradient xlink:actuate="onLoad" xlink:type="simple" id="linearGradient4254" xlink:show="other" xmlns:xlink="http://www.w3.org/1999/xlink">
      <stop style="stop-color:#ffffff;stop-opacity:1" offset="0" id="stop4256"/>
      <stop style="stop-color:#ffffff;stop-opacity:0" offset="1" id="stop4258"/>
    </linearGradient>
    <linearGradient xlink:actuate="onLoad" xlink:type="simple" id="linearGradient4244" xlink:show="other" xmlns:xlink="http://www.w3.org/1999/xlink">
      <stop style="stop-color:#e4e4e4;stop-opacity:1" offset="0" id="stop4246"/>
      <stop style="stop-color:#d3d3d3;stop-opacity:1" offset="1" id="stop4248"/>
    </linearGradient>
    <linearGradient xlink:actuate="onLoad" xlink:type="simple" id="linearGradient4236" xlink:show="other" xmlns:xlink="http://www.w3.org/1999/xlink">
      <stop style="stop-color:#eeeeee;stop-opacity:1" offset="0" id="stop4238"/>
      <stop style="stop-color:#eeeeee;stop-opacity:0" offset="1" id="stop4240"/>
    </linearGradient>
    <linearGradient xlink:actuate="onLoad" xlink:type="simple" id="linearGradient4228" xlink:show="other" xmlns:xlink="http://www.w3.org/1999/xlink">
      <stop style="stop-color:#bbbbbb;stop-opacity:1" offset="0" id="stop4230"/>
      <stop style="stop-color:#9f9f9f;stop-opacity:1" offset="1" id="stop4232"/>
    </linearGradient>
    <linearGradient xlink:actuate="onLoad" xlink:type="simple" id="linearGradient4184" xlink:show="other" xmlns:xlink="http://www.w3.org/1999/xlink">
      <stop style="stop-color:#838383;stop-opacity:1" offset="0" id="stop4186"/>
      <stop style="stop-color:#bbbbbb;stop-opacity:0" offset="1" id="stop4188"/>
    </linearGradient>
    <linearGradient gradientTransform="translate(0.795493,-1.325821)" x1="7.0625" xmlns:xlink="http://www.w3.org/1999/xlink" y1="35.28125" x2="24.6875" xlink:href="#linearGradient4184" gradientUnits="userSpaceOnUse" y2="35.28125" xlink:type="simple" xlink:actuate="onLoad" id="linearGradient4209" xlink:show="other"/>
    <linearGradient x1="7.6046205" xmlns:xlink="http://www.w3.org/1999/xlink" y1="28.481176" x2="36.183067" xlink:href="#linearGradient4228" gradientUnits="userSpaceOnUse" y2="40.943935" xlink:type="simple" xlink:actuate="onLoad" id="linearGradient4234" xlink:show="other"/>
    <linearGradient x1="12.277412" xmlns:xlink="http://www.w3.org/1999/xlink" y1="37.205811" x2="12.221823" xlink:href="#linearGradient4236" gradientUnits="userSpaceOnUse" y2="33.758667" xlink:type="simple" xlink:actuate="onLoad" id="linearGradient4242" xlink:show="other"/>
    <radialGradient gradientTransform="matrix(1.286242,0.781698,-0.710782,1.169552,-2.354348,-4.876862)" xmlns:xlink="http://www.w3.org/1999/xlink" id="radialGradient4250" gradientUnits="userSpaceOnUse" xlink:show="other" xlink:type="simple" r="20.935818" cx="15.571491" fx="15.571491" cy="2.958519" fy="2.958519" xlink:href="#linearGradient4244" xlink:actuate="onLoad"/>
    <linearGradient x1="12.378357" xmlns:xlink="http://www.w3.org/1999/xlink" y1="4.433136" x2="44.0961" xlink:href="#linearGradient4254" gradientUnits="userSpaceOnUse" y2="47.620636" xlink:type="simple" xlink:actuate="onLoad" id="linearGradient4260" xlink:show="other"/>
    <linearGradient x1="23.688078" xmlns:xlink="http://www.w3.org/1999/xlink" y1="11.318835" x2="23.688078" xlink:href="#linearGradient4274" gradientUnits="userSpaceOnUse" y2="26.357183" xlink:type="simple" xlink:actuate="onLoad" id="linearGradient4272" xlink:show="other"/>
    <linearGradient x1="33.431175" xmlns:xlink="http://www.w3.org/1999/xlink" y1="31.964777" x2="21.747974" xlink:href="#linearGradient2555" gradientUnits="userSpaceOnUse" y2="11.780679" xlink:type="simple" xlink:actuate="onLoad" id="linearGradient2553" xlink:show="other"/>
  </defs>
  <g id="layer2">
    <g id="g2452" transform="matrix(2.6063849,0,0,2.6063849,0.6475626,-6.18466)">
      <g id="g6707" transform="matrix(0.0245274,0,0,0.02086758,45.69054,36.1536)">
        <rect x="-1559.2523" width="1339.6335" height="478.35718" y="-150.69685" id="rect6709" style="opacity:0.40206185;fill:url(#linearGradient6715);fill-opacity:1;fill-rule:nonzero;stroke:none;stroke-width:1;marker:none;visibility:visible;display:inline;overflow:visible"/>
        <path style="opacity:0.40206185;fill:url(#radialGradient6717);fill-opacity:1;fill-rule:nonzero;stroke:none;stroke-width:1;marker:none;visibility:visible;display:inline;overflow:visible" d="m -219.61876,-150.68038 c 0,0 0,478.33079 0,478.33079 142.874166,0.90045 345.40022,-107.16966 345.40014,-239.196175 0,-132.026537 -159.436816,-239.134595 -345.40014,-239.134615 z" id="path6711"/>
        <path style="opacity:0.40206185;fill:url(#radialGradient6719);fill-opacity:1;fill-rule:nonzero;stroke:none;stroke-width:1;marker:none;visibility:visible;display:inline;overflow:visible" d="m -1559.2523,-150.68038 c 0,0 0,478.33079 0,478.33079 -142.8742,0.90045 -345.4002,-107.16966 -345.4002,-239.196175 0,-132.026537 159.4368,-239.134595 345.4002,-239.134615 z" id="path6713"/>
      </g>
      <path style="fill:none;stroke:#535353;stroke-width:2;stroke-linecap:round;stroke-linejoin:round;stroke-miterlimit:4;stroke-opacity:1;stroke-dasharray:none" d="m 11.28569,7.9626278 c -0.625,0 -1.031249,0.2901802 -1.281248,0.843753 -10e-7,0 -6.4687505,17.1035572 -6.4687505,17.1035572 0,0 -0.25,0.671559 -0.25,1.78125 0,0 0,9.649968 0,9.649968 0,1.082613 0.6577855,1.625002 1.65625,1.625 l 38.5624985,0 c 0.984853,0 1.59375,-0.71818 1.59375,-1.84375 l 0,-9.649968 c 0,0 0.105963,-0.770423 -0.09375,-1.3125 L 38.28569,8.9626314 C 38.101165,8.4507246 37.648785,7.9745331 37.16069,7.9626278 l -25.875,0 z" id="path4196"/>
      <path style="fill:url(#linearGradient4234);fill-opacity:1;fill-rule:evenodd;stroke:none" d="m 3.2735915,26.996812 0.7646021,-0.692215 37.6096894,0.0625 3.462407,0.317298 0,10.438532 c 0,1.125569 -0.607018,1.843331 -1.591871,1.843331 l -38.5829876,0 c -0.9984647,0 -1.6618399,-0.542051 -1.6618399,-1.624664 l 0,-10.344782 z" id="path4170"/>
      <path style="fill:url(#radialGradient4250);fill-opacity:1;fill-rule:evenodd;stroke:none" d="m 3.5490842,25.914404 c -0.7142857,1.464286 -6.156e-4,2.392857 1.0357143,2.392857 0,0 38.9999985,0 38.9999985,0 1.119047,-0.02381 1.845238,-1.011905 1.428571,-2.142858 L 38.299082,8.9537044 C 38.114558,8.4417976 37.64432,7.9656058 37.156225,7.9537008 l -25.857142,0 c -0.625,0 -1.035714,0.3035732 -1.285713,0.857146 0,0 -6.4642858,17.1035572 -6.4642858,17.1035572 z" id="path3093"/>
      <rect x="7.857996" width="17.625" height="5.5625" y="31.174183" id="rect4174" style="fill:url(#linearGradient4209);fill-opacity:1;fill-rule:evenodd;stroke:none;stroke-width:2.40899992;marker:none;visibility:visible;display:inline;overflow:visible"/>
      <path style="opacity:0.81142853;fill:url(#linearGradient4242);fill-opacity:1;fill-rule:evenodd;stroke:none" d="m 7.8579947,36.73668 c 0,0 0,-4.011485 0,-4.011485 1.8355274,3.179226 8.2964903,4.011485 12.9374973,4.011485 0,0 -12.9374973,0 -12.9374973,0 z" id="path4194"/>
      <path style="fill:#ffffff;fill-opacity:1;fill-rule:evenodd;stroke:none" d="m 44.796162,25.628688 c 0.06352,1.249974 -0.414003,2.31584 -1.322116,2.34375 0,0 -38.1187164,-1e-6 -38.1187163,0 -1.2892319,0 -1.867736,-0.324947 -2.0840507,-0.868056 0.091761,0.944332 0.8258174,1.649306 2.0840507,1.649306 -1e-7,-1e-6 38.1187163,0 38.1187163,0 1.076007,-0.03307 1.752805,-1.424024 1.352164,-2.994791 l -0.03005,-0.130209 z" id="path4201"/>
      <path style="opacity:0.69142857;fill:url(#linearGradient4272);fill-opacity:1;fill-rule:evenodd;stroke:none;stroke-width:2;marker:none;visibility:visible;display:inline;overflow:visible" d="m 10.96875,10.15625 c -0.04608,0.200321 -0.1875,0.386797 -0.1875,0.59375 0,0.948605 0.59098,1.789474 1.34375,2.59375 0.240268,-0.154075 0.365117,-0.354408 0.625,-0.5 -0.940309,-0.816004 -1.553396,-1.716582 -1.78125,-2.6875 z m 26.65625,0 c -0.228727,0.969616 -0.842012,1.872426 -1.78125,2.6875 0.274144,0.153582 0.403988,0.36824 0.65625,0.53125 0.757262,-0.806656 1.3125,-1.673044 1.3125,-2.625 0,-0.206953 -0.141594,-0.393429 -0.1875,-0.59375 z m 2.1875,8.4375 c -0.613791,4.040111 -7.298613,7.25 -15.53125,7.25 -8.212254,1e-6 -14.8601499,-3.192786 -15.5,-7.21875 -0.032357,0.197132 -0.125,0.391882 -0.125,0.59375 3e-7,4.317947 6.989104,7.843751 15.625,7.84375 8.635896,0 15.656249,-3.525802 15.65625,-7.84375 0,-0.212924 -0.08905,-0.417356 -0.125,-0.625 z" id="path4211"/>
      <path d="m 8.5736699,25.593554 c 0,0.561379 -0.6133786,1.016466 -1.3700194,1.016466 -0.7566409,0 -1.3700195,-0.455087 -1.3700195,-1.016466 0,-0.561379 0.6133786,-1.016466 1.3700195,-1.016466 0.7566408,0 1.3700194,0.455087 1.3700194,1.016466 z" id="path4224" style="fill:#ffffff;fill-opacity:0.45762706;fill-rule:evenodd;stroke:none;stroke-width:2;marker:none;visibility:visible;display:inline;overflow:visible" transform="translate(0.08838843,0.176776)"/>
      <path d="m 8.5736699,25.593554 c 0,0.561379 -0.6133786,1.016466 -1.3700194,1.016466 -0.7566409,0 -1.3700195,-0.455087 -1.3700195,-1.016466 0,-0.561379 0.6133786,-1.016466 1.3700195,-1.016466 0.7566408,0 1.3700194,0.455087 1.3700194,1.016466 z" id="path4226" style="fill:#ffffff;fill-opacity:0.45762706;fill-rule:evenodd;stroke:none;stroke-width:2;marker:none;visibility:visible;display:inline;overflow:visible" transform="translate(33.96705,0.08838804)"/>
      <path style="fill:none;stroke:url(#linearGradient4260);stroke-width:1.00000024;stroke-linecap:round;stroke-linejoin:round;stroke-miterlimit:4;stroke-opacity:1;stroke-dasharray:none" d="m 11.642515,8.4157227 c -0.601692,0 -0.992791,0.2793586 -1.233466,0.8122873 -10e-7,0 -6.4150149,16.590722 -6.4150149,16.590722 0,0 -0.2406768,0.646515 -0.2406768,1.714823 0,0 0,9.290096 0,9.290096 0,1.35474 0.4440561,1.626899 1.5944841,1.626899 l 37.6869046,0 c 1.323126,0 1.534316,-0.316397 1.534316,-1.837492 l 0,-9.290096 c 0,0 0.10201,-0.741691 -0.09025,-1.263553 L 37.885616,9.2534336 C 37.707973,8.7606171 37.334964,8.427184 36.865071,8.4157227 l -25.222556,0 z" id="path4252"/>
      <path style="fill:none;stroke:#ffffff;stroke-width:1.00000048px;stroke-linecap:square;stroke-linejoin:miter;stroke-opacity:0.42372885" d="m 40.5,31.429166 0,5.020935" id="path4282"/>
      <path style="fill:none;stroke:#ffffff;stroke-width:1.00000048px;stroke-linecap:square;stroke-linejoin:miter;stroke-opacity:0.42372885" d="m 38.5,31.488943 0,5.020935" id="path4284"/>
      <path style="fill:none;stroke:#ffffff;stroke-width:1.00000048px;stroke-linecap:square;stroke-linejoin:miter;stroke-opacity:0.42372885" d="m 36.5,31.488943 0,5.020935" id="path4286"/>
      <path style="fill:none;stroke:#ffffff;stroke-width:1.00000048px;stroke-linecap:square;stroke-linejoin:miter;stroke-opacity:0.42372885" d="m 34.5,31.488943 0,5.020935" id="path4288"/>
      <path style="fill:none;stroke:#ffffff;stroke-width:1.00000048px;stroke-linecap:square;stroke-linejoin:miter;stroke-opacity:0.42372885" d="m 32.5,31.488943 0,5.020935" id="path4290"/>
      <path style="fill:none;stroke:#ffffff;stroke-width:1.00000048px;stroke-linecap:square;stroke-linejoin:miter;stroke-opacity:0.42372885" d="m 30.5,31.488943 0,5.020935" id="path4292"/>
      <path style="opacity:0.09714284;fill:none;stroke:#000000;stroke-width:1.00000048px;stroke-linecap:square;stroke-linejoin:miter;stroke-opacity:1" d="M 39.5,31.479065 39.5,36.5" id="path4294"/>
      <path style="opacity:0.09714284;fill:none;stroke:#000000;stroke-width:1.00000048px;stroke-linecap:square;stroke-linejoin:miter;stroke-opacity:1" d="m 37.5,31.538842 0,5.020935" id="path4296"/>
      <path style="opacity:0.09714284;fill:none;stroke:#000000;stroke-width:1.00000048px;stroke-linecap:square;stroke-linejoin:miter;stroke-opacity:1" d="m 35.5,31.538842 0,5.020935" id="path4298"/>
      <path style="opacity:0.09714284;fill:none;stroke:#000000;stroke-width:1.00000048px;stroke-linecap:square;stroke-linejoin:miter;stroke-opacity:1" d="m 33.5,31.538842 0,5.020935" id="path4300"/>
      <path style="opacity:0.09714284;fill:none;stroke:#000000;stroke-width:1.00000048px;stroke-linecap:square;stroke-linejoin:miter;stroke-opacity:1" d="m 31.5,31.538842 0,5.020935" id="path4302"/>
      <path style="opacity:0.43999999;fill:#ffffff;fill-opacity:1;fill-rule:evenodd;stroke:none" d="m 7.875,31.1875 0,5.53125 12.5625,0 L 8.21875,36.375 7.875,31.1875 z" id="path4572"/>
      <path d="m 39.875,19.5625 c 0,3.693404 -6.659764,6.6875 -14.875,6.6875 -8.215236,0 -14.875,-2.994096 -14.875,-6.6875 0,-3.693404 6.659764,-6.6875 14.875,-6.6875 8.215236,0 14.875,2.994096 14.875,6.6875 z" id="path2545" style="opacity:0.20571427;fill:url(#linearGradient2553);fill-opacity:1;fill-rule:evenodd;stroke:none;stroke-width:0.93365198;marker:none;visibility:visible;display:inline;overflow:visible" transform="matrix(1.037815,0,0,1.060747,-1.632878,-2.094626)"/>
    </g>
  </g>
</g></svg>