<svg contentScriptType="text/ecmascript" xmlns:xlink="http://www.w3.org/1999/xlink" zoomAndPan="magnify" xmlns:svg="http://www.w3.org/2000/svg" contentStyleType="text/css" preserveAspectRatio="xMidYMid meet" xmlns="http://www.w3.org/2000/svg" version="1.0"><g id="_STRESSTEST_SYMBOLS_STRESSTEST_OSA_OSA_USER_GREEN_BUSINESS_MANAGER_SVG">
  <defs id="defs3">
    <linearGradient xlink:actuate="onLoad" xlink:type="simple" id="linearGradient4356" xlink:show="other" xmlns:xlink="http://www.w3.org/1999/xlink">
      <stop style="stop-color:#000000;stop-opacity:1" offset="0" id="stop4358"/>
      <stop style="stop-color:#000000;stop-opacity:0" offset="1" id="stop4360"/>
    </linearGradient>
    <linearGradient xlink:actuate="onLoad" xlink:type="simple" id="linearGradient4344" xlink:show="other" xmlns:xlink="http://www.w3.org/1999/xlink">
      <stop style="stop-color:#727e0a;stop-opacity:1" offset="0" id="stop4346"/>
      <stop style="stop-color:#5b6508;stop-opacity:1" offset="1" id="stop4348"/>
    </linearGradient>
    <linearGradient xlink:actuate="onLoad" xlink:type="simple" id="linearGradient4338" xlink:show="other" xmlns:xlink="http://www.w3.org/1999/xlink">
      <stop style="stop-color:#e9b15e;stop-opacity:1" offset="0" id="stop4340"/>
      <stop style="stop-color:#966416;stop-opacity:1" offset="1" id="stop4342"/>
    </linearGradient>
    <linearGradient xlink:actuate="onLoad" xlink:type="simple" id="linearGradient3816" xlink:show="other" xmlns:xlink="http://www.w3.org/1999/xlink">
      <stop style="stop-color:#000000;stop-opacity:1" offset="0" id="stop3818"/>
      <stop style="stop-color:#000000;stop-opacity:0" offset="1" id="stop3820"/>
    </linearGradient>
    <linearGradient xlink:actuate="onLoad" xlink:type="simple" id="linearGradient15662" xlink:show="other" xmlns:xlink="http://www.w3.org/1999/xlink">
      <stop style="stop-color:#ffffff;stop-opacity:1" offset="0" id="stop15664"/>
      <stop style="stop-color:#f8f8f8;stop-opacity:1" offset="1" id="stop15666"/>
    </linearGradient>
    <linearGradient xlink:actuate="onLoad" xlink:type="simple" id="linearGradient259" xlink:show="other" xmlns:xlink="http://www.w3.org/1999/xlink">
      <stop style="stop-color:#fafafa;stop-opacity:1" offset="0" id="stop260"/>
      <stop style="stop-color:#bbbbbb;stop-opacity:1" offset="1" id="stop261"/>
    </linearGradient>
    <linearGradient xlink:actuate="onLoad" xlink:type="simple" id="linearGradient269" xlink:show="other" xmlns:xlink="http://www.w3.org/1999/xlink">
      <stop style="stop-color:#a3a3a3;stop-opacity:1" offset="0" id="stop270"/>
      <stop style="stop-color:#4c4c4c;stop-opacity:1" offset="1" id="stop271"/>
    </linearGradient>
    <linearGradient xlink:actuate="onLoad" xlink:type="simple" id="linearGradient2456" xlink:show="other" xmlns:xlink="http://www.w3.org/1999/xlink">
      <stop style="stop-color:#000000;stop-opacity:1" offset="0" id="stop2458"/>
      <stop style="stop-color:#000000;stop-opacity:0" offset="1" id="stop2460"/>
    </linearGradient>
    <linearGradient xlink:actuate="onLoad" xlink:type="simple" id="linearGradient6699" xlink:show="other" xmlns:xlink="http://www.w3.org/1999/xlink">
      <stop style="stop-color:#ff7171;stop-opacity:1" offset="0" id="stop6701"/>
      <stop style="stop-color:#cc0000;stop-opacity:1" offset="1" id="stop6703"/>
    </linearGradient>
    <linearGradient xlink:actuate="onLoad" xlink:type="simple" id="linearGradient6711" xlink:show="other" xmlns:xlink="http://www.w3.org/1999/xlink">
      <stop style="stop-color:#5b8ccb;stop-opacity:1" offset="0" id="stop6713"/>
      <stop style="stop-color:#3465a4;stop-opacity:1" offset="1" id="stop6715"/>
    </linearGradient>
    <linearGradient xlink:actuate="onLoad" xlink:type="simple" id="linearGradient6719" xlink:show="other" xmlns:xlink="http://www.w3.org/1999/xlink">
      <stop style="stop-color:#73d216;stop-opacity:1" offset="0" id="stop6721"/>
      <stop style="stop-color:#d5f7b3;stop-opacity:1" offset="1" id="stop6723"/>
    </linearGradient>
    <linearGradient xlink:actuate="onLoad" xlink:type="simple" id="linearGradient6687" xlink:show="other" xmlns:xlink="http://www.w3.org/1999/xlink">
      <stop style="stop-color:#ffffff;stop-opacity:1" offset="0" id="stop6689"/>
      <stop style="stop-color:#ffffff;stop-opacity:0" offset="1" id="stop6691"/>
    </linearGradient>
    <linearGradient xlink:actuate="onLoad" xlink:type="simple" id="linearGradient5048" xlink:show="other" xmlns:xlink="http://www.w3.org/1999/xlink">
      <stop style="stop-color:#000000;stop-opacity:0" offset="0" id="stop5050"/>
      <stop style="stop-color:#000000;stop-opacity:1" offset="0.5" id="stop5056"/>
      <stop style="stop-color:#000000;stop-opacity:0" offset="1" id="stop5052"/>
    </linearGradient>
    <linearGradient xlink:actuate="onLoad" xlink:type="simple" id="linearGradient5060" xlink:show="other" xmlns:xlink="http://www.w3.org/1999/xlink">
      <stop style="stop-color:#000000;stop-opacity:1" offset="0" id="stop5062"/>
      <stop style="stop-color:#000000;stop-opacity:0" offset="1" id="stop5064"/>
    </linearGradient>
    <radialGradient gradientTransform="scale(1.164226,0.85894)" xmlns:xlink="http://www.w3.org/1999/xlink" id="radialGradient2663" gradientUnits="userSpaceOnUse" xlink:show="other" xlink:type="simple" r="13.804391" cx="28.283663" fx="28.283663" cy="47.400623" fy="47.400623" xlink:href="#linearGradient2456" xlink:actuate="onLoad"/>
    <linearGradient x1="-22.976406" xmlns:xlink="http://www.w3.org/1999/xlink" y1="18.516047" x2="-14.360273" xlink:href="#linearGradient6699" gradientUnits="userSpaceOnUse" y2="33.016045" xlink:type="simple" xlink:actuate="onLoad" id="linearGradient2665" xlink:show="other"/>
    <linearGradient x1="-16.387411" xmlns:xlink="http://www.w3.org/1999/xlink" y1="24.453547" x2="-9.7352734" xlink:href="#linearGradient6711" gradientUnits="userSpaceOnUse" y2="28.195539" xlink:type="simple" xlink:actuate="onLoad" id="linearGradient2667" xlink:show="other"/>
    <linearGradient x1="-17.863041" xmlns:xlink="http://www.w3.org/1999/xlink" y1="30.827509" x2="-20.821646" xlink:href="#linearGradient6719" gradientUnits="userSpaceOnUse" y2="25.015009" xlink:type="simple" xlink:actuate="onLoad" id="linearGradient2669" xlink:show="other"/>
    <linearGradient x1="-20.75" xmlns:xlink="http://www.w3.org/1999/xlink" y1="29" x2="-19.5" xlink:href="#linearGradient6687" gradientUnits="userSpaceOnUse" y2="18.75" xlink:type="simple" xlink:actuate="onLoad" id="linearGradient2671" xlink:show="other"/>
    <linearGradient x1="-20.75" xmlns:xlink="http://www.w3.org/1999/xlink" y1="29" x2="-19.5" xlink:href="#linearGradient6687" gradientUnits="userSpaceOnUse" y2="18.75" xlink:type="simple" xlink:actuate="onLoad" id="linearGradient2673" xlink:show="other"/>
    <linearGradient gradientTransform="matrix(-2.8512357,0.5265033,0.5265033,2.8512357,132.68393,-28.630424)" x1="20.661695" xmlns:xlink="http://www.w3.org/1999/xlink" y1="35.817974" x2="22.626925" xlink:href="#linearGradient4356" gradientUnits="userSpaceOnUse" y2="36.217758" xlink:type="simple" xlink:actuate="onLoad" id="linearGradient2534" xlink:show="other"/>
    <linearGradient gradientTransform="matrix(2.8512357,0.5265033,-0.5265033,2.8512357,-9.6167636,-29.900472)" x1="20.661695" xmlns:xlink="http://www.w3.org/1999/xlink" y1="35.817974" x2="22.626925" xlink:href="#linearGradient4356" gradientUnits="userSpaceOnUse" y2="36.217758" xlink:type="simple" xlink:actuate="onLoad" id="linearGradient2537" xlink:show="other"/>
    <radialGradient gradientTransform="matrix(2.2847521,0,0,2.2847521,-9.1287401,-11.220701)" xmlns:xlink="http://www.w3.org/1999/xlink" id="radialGradient2541" gradientUnits="userSpaceOnUse" xlink:show="other" xlink:type="simple" r="9.1620579" cx="29.344931" fx="29.344931" cy="17.064077" fy="17.064077" xlink:href="#linearGradient4338" xlink:actuate="onLoad"/>
    <radialGradient gradientTransform="matrix(2.8994389,0,0,2.8994389,-27.529154,-11.561753)" xmlns:xlink="http://www.w3.org/1999/xlink" id="radialGradient2544" gradientUnits="userSpaceOnUse" xlink:show="other" xlink:type="simple" r="8.6620579" cx="31.112698" fx="31.112698" cy="19.008621" fy="19.008621" xlink:href="#linearGradient3816" xlink:actuate="onLoad"/>
    <radialGradient gradientTransform="matrix(2.8994389,0,0,1.9771767,10.888406,22.459605)" xmlns:xlink="http://www.w3.org/1999/xlink" id="radialGradient2550" gradientUnits="userSpaceOnUse" xlink:show="other" xlink:type="simple" r="13.56536" cx="16.214741" fx="16.214741" cy="19.836468" fy="19.836468" xlink:href="#linearGradient4344" xlink:actuate="onLoad"/>
    <linearGradient gradientTransform="matrix(2.774389,0,0,1.969706,-1892.179,-872.8854)" x1="302.85715" xmlns:xlink="http://www.w3.org/1999/xlink" y1="366.64789" x2="302.85715" xlink:href="#linearGradient5048" gradientUnits="userSpaceOnUse" y2="609.50507" xlink:type="simple" xlink:actuate="onLoad" id="linearGradient2592" xlink:show="other"/>
    <radialGradient gradientTransform="matrix(2.774389,0,0,1.969706,-1891.633,-872.8854)" xmlns:xlink="http://www.w3.org/1999/xlink" id="radialGradient2594" gradientUnits="userSpaceOnUse" xlink:show="other" xlink:type="simple" r="117.14286" cx="605.71429" fx="605.71429" cy="486.64789" fy="486.64789" xlink:href="#linearGradient5060" xlink:actuate="onLoad"/>
    <radialGradient gradientTransform="matrix(-2.774389,0,0,1.969706,112.7623,-872.8854)" xmlns:xlink="http://www.w3.org/1999/xlink" id="radialGradient2596" gradientUnits="userSpaceOnUse" xlink:show="other" xlink:type="simple" r="117.14286" cx="605.71429" fx="605.71429" cy="486.64789" fy="486.64789" xlink:href="#linearGradient5060" xlink:actuate="onLoad"/>
    <radialGradient gradientTransform="matrix(1.2438304,0,0,1.3195159,2.3705757,65.346093)" xmlns:xlink="http://www.w3.org/1999/xlink" id="radialGradient2623" gradientUnits="userSpaceOnUse" xlink:show="other" xlink:type="simple" r="38.158695" cx="8.1435566" fx="8.1435566" cy="7.2678967" fy="7.2678967" xlink:href="#linearGradient15662" xlink:actuate="onLoad"/>
    <radialGradient gradientTransform="matrix(1.2298733,0,0,1.3309962,-1.8233012,64.438535)" xmlns:xlink="http://www.w3.org/1999/xlink" id="radialGradient2626" gradientUnits="userSpaceOnUse" xlink:show="other" xlink:type="simple" r="86.70845" cx="33.966679" fx="33.966679" cy="35.736916" fy="35.736916" xlink:href="#linearGradient259" xlink:actuate="onLoad"/>
    <radialGradient gradientTransform="matrix(1.2398352,0,0,1.320302,2.4707876,65.264951)" xmlns:xlink="http://www.w3.org/1999/xlink" id="radialGradient2628" gradientUnits="userSpaceOnUse" xlink:show="other" xlink:type="simple" r="37.751713" cx="8.824419" fx="8.824419" cy="3.7561285" fy="3.7561285" xlink:href="#linearGradient269" xlink:actuate="onLoad"/>
    <linearGradient gradientTransform="matrix(2.774389,0,0,1.969706,-1892.179,-872.8854)" x1="302.85715" xmlns:xlink="http://www.w3.org/1999/xlink" y1="366.64789" x2="302.85715" xlink:href="#linearGradient5048" gradientUnits="userSpaceOnUse" y2="609.50507" xlink:type="simple" xlink:actuate="onLoad" id="linearGradient2642" xlink:show="other"/>
    <radialGradient gradientTransform="matrix(2.774389,0,0,1.969706,-1891.633,-872.8854)" xmlns:xlink="http://www.w3.org/1999/xlink" id="radialGradient2644" gradientUnits="userSpaceOnUse" xlink:show="other" xlink:type="simple" r="117.14286" cx="605.71429" fx="605.71429" cy="486.64789" fy="486.64789" xlink:href="#linearGradient5060" xlink:actuate="onLoad"/>
    <radialGradient gradientTransform="matrix(-2.774389,0,0,1.969706,112.7623,-872.8854)" xmlns:xlink="http://www.w3.org/1999/xlink" id="radialGradient2646" gradientUnits="userSpaceOnUse" xlink:show="other" xlink:type="simple" r="117.14286" cx="605.71429" fx="605.71429" cy="486.64789" fy="486.64789" xlink:href="#linearGradient5060" xlink:actuate="onLoad"/>
  </defs>
  <g id="g2687">
    <path style="fill:url(#radialGradient2550);fill-opacity:1;fill-rule:evenodd;stroke:#404604;stroke-width:2.89943886px;stroke-linecap:round;stroke-linejoin:round;stroke-miterlimit:4;stroke-opacity:1;stroke-dasharray:none;stroke-dashoffset:0;marker:none;visibility:visible;display:inline;overflow:visible" d="m 48.178596,99.011359 30.7532,0 c 8.7134,0 17.34004,-3.194983 20.50212,-12.301276 3.002784,-8.647507 0.51256,-25.115108 -18.96446,-38.441492 l -36.39128,0 c -19.47703,12.301276 -21.91104,29.124374 -17.42681,38.954043 4.56834,10.014052 12.30127,11.788725 21.52723,11.788725 z" id="path2502"/>
    <path style="fill:#9db029;fill-opacity:1;fill-rule:evenodd;stroke:none;stroke-width:1px;marker:none;visibility:visible;display:inline;overflow:visible" d="m 62.882216,55.956891 c 0,0 -6.23763,4.81404 -5.70028,10.613492 -5.91841,-5.221292 -6.08845,-15.226473 -6.08845,-15.226473 l 11.78873,4.612981 z" id="path2504"/>
    <path style="opacity:0.21518986;fill:none;stroke:#ffffff;stroke-width:2.89943814px;stroke-linecap:round;stroke-linejoin:round;stroke-miterlimit:4;stroke-opacity:1;stroke-dasharray:none;stroke-dashoffset:0;marker:none;visibility:visible;display:inline;overflow:visible" d="m 48.484386,95.925769 29.91256,0 c 7.65371,0 15.23122,-2.806422 18.00874,-10.805243 2.63758,-7.595834 -0.27465,-22.060711 -17.38295,-33.766392 l -33.41524,0 c -17.1083,10.805243 -19.97116,25.582384 -16.03229,34.216608 4.01276,8.796185 10.80525,10.355027 18.90918,10.355027 z" id="path2506"/>
    <path style="fill:#9db029;fill-opacity:1;fill-rule:evenodd;stroke:none;stroke-width:1px;marker:none;visibility:visible;display:inline;overflow:visible" d="m 63.719106,56.956891 c 0,0 6.23763,4.81404 5.70027,10.613492 5.91841,-5.221292 6.08845,-15.226473 6.08845,-15.226473 l -11.78872,4.612981 z" id="path2508"/>
    <path style="fill:url(#radialGradient2544);fill-opacity:1;fill-rule:evenodd;stroke:none;stroke-width:1px;marker:none;visibility:visible;display:inline;overflow:visible" d="m 87.795318,43.552582 c 0.0042,13.87367 -11.241435,25.122739 -25.115108,25.122739 -13.87367,0 -25.119321,-11.249069 -25.115105,-25.122739 -0.0042,-13.87367 11.241435,-25.122739 25.115105,-25.122739 13.873673,0 25.119324,11.249069 25.115108,25.122739 l 0,0 z" id="path2510"/>
    <path style="fill:url(#radialGradient2541);fill-opacity:1;fill-rule:evenodd;stroke:#6f4709;stroke-width:2.89943886px;stroke-linecap:round;stroke-linejoin:round;stroke-miterlimit:4;stroke-opacity:1;stroke-dasharray:none;stroke-dashoffset:0;marker:none;visibility:visible;display:inline;overflow:visible" d="m 88.157748,33.404546 c 0.0042,13.87367 -11.241435,25.122739 -25.115108,25.122739 -13.87367,0 -25.119321,-11.249069 -25.115105,-25.122739 -0.0042,-13.87367 11.241435,-25.1227393 25.115105,-25.1227393 13.873673,0 25.119324,11.2490693 25.115108,25.1227393 l 0,0 z" id="path2512"/>
    <path style="opacity:0.12658231;fill:none;stroke:#ffffff;stroke-width:2.89944124px;stroke-linecap:round;stroke-linejoin:round;stroke-miterlimit:4;stroke-opacity:1;stroke-dasharray:none;stroke-dashoffset:0;marker:none;visibility:visible;display:inline;overflow:visible" d="m 85.071031,33.404581 c 0.0037,12.168526 -9.859806,22.035028 -22.028335,22.035028 -12.168526,0 -22.03203,-9.866502 -22.028332,-22.035028 -0.0037,-12.168527 9.859806,-22.035029 22.028332,-22.035029 12.168529,0 22.032033,9.866502 22.028335,22.035029 l 0,0 z" id="path2514"/>
    <path style="opacity:0.22784807;fill:url(#linearGradient2534);fill-opacity:1;fill-rule:evenodd;stroke:none;stroke-width:1px;marker:none;visibility:visible;display:inline;overflow:visible" d="m 87.394483,97.282539 c 3.61736,-1.5801 5.23637,-5.38796 5.23637,-5.38796 -2.43925,-11.79821 -10.7857,-20.43007 -10.7857,-20.43007 0,0 6.60875,18.58979 5.54933,25.81803 z" id="path2518"/>
    <g style="display:inline" id="g2634" transform="matrix(0.04408683,0,0,0.03475232,101.00997,99.661892)">
      <rect x="-1559.2523" width="1339.6335" height="478.35718" y="-150.69685" id="rect2636" style="opacity:0.40206185;fill:url(#linearGradient2642);fill-opacity:1;fill-rule:nonzero;stroke:none;stroke-width:1;marker:none;visibility:visible;display:inline;overflow:visible"/>
      <path style="opacity:0.40206185;fill:url(#radialGradient2644);fill-opacity:1;fill-rule:nonzero;stroke:none;stroke-width:1;marker:none;visibility:visible;display:inline;overflow:visible" d="m -219.61876,-150.68038 c 0,0 0,478.33079 0,478.33079 142.874166,0.90045 345.40022,-107.16966 345.40014,-239.196175 0,-132.026537 -159.436816,-239.134595 -345.40014,-239.134615 z" id="path2638"/>
      <path style="opacity:0.40206185;fill:url(#radialGradient2646);fill-opacity:1;fill-rule:nonzero;stroke:none;stroke-width:1;marker:none;visibility:visible;display:inline;overflow:visible" d="m -1559.2523,-150.68038 c 0,0 0,478.33079 0,478.33079 -142.8742,0.90045 -345.4002,-107.16966 -345.4002,-239.196175 0,-132.026537 159.4368,-239.134595 345.4002,-239.134615 z" id="path2640"/>
    </g>
  </g>
  <g style="display:inline" id="layer1"/>
  <g id="g2648">
    <path style="opacity:0.22784807;fill:url(#linearGradient2537);fill-opacity:1;fill-rule:evenodd;stroke:none;stroke-width:1px;marker:none;visibility:visible;display:inline;overflow:visible" d="m 35.672676,96.012494 c -3.61736,-1.580104 -5.23637,-5.38796 -5.23637,-5.38796 2.43925,-11.798211 10.7857,-20.430073 10.7857,-20.430073 0,0 -6.60875,18.589793 -5.54933,25.818033 z" id="path2516"/>
    <g style="display:inline" id="g2579" transform="matrix(0.02736956,0,0,0.02662735,53.622811,117.14507)">
      <rect x="-1559.2523" width="1339.6335" height="478.35718" y="-150.69685" id="rect2581" style="opacity:0.40206185;fill:url(#linearGradient2592);fill-opacity:1;fill-rule:nonzero;stroke:none;stroke-width:1;marker:none;visibility:visible;display:inline;overflow:visible"/>
      <path style="opacity:0.40206185;fill:url(#radialGradient2594);fill-opacity:1;fill-rule:nonzero;stroke:none;stroke-width:1;marker:none;visibility:visible;display:inline;overflow:visible" d="m -219.61876,-150.68038 c 0,0 0,478.33079 0,478.33079 142.874166,0.90045 345.40022,-107.16966 345.40014,-239.196175 0,-132.026537 -159.436816,-239.134595 -345.40014,-239.134615 z" id="path2583"/>
      <path style="opacity:0.40206185;fill:url(#radialGradient2596);fill-opacity:1;fill-rule:nonzero;stroke:none;stroke-width:1;marker:none;visibility:visible;display:inline;overflow:visible" d="m -1559.2523,-150.68038 c 0,0 0,478.33079 0,478.33079 -142.8742,0.90045 -345.4002,-107.16966 -345.4002,-239.196175 0,-132.026537 159.4368,-239.134595 345.4002,-239.134615 z" id="path2585"/>
    </g>
    <rect x="6.6322975" y="69.100189" width="44.656078" style="fill:url(#radialGradient2626);fill-opacity:1;fill-rule:nonzero;stroke:url(#radialGradient2628);stroke-width:1.27601492;stroke-linecap:round;stroke-linejoin:round;stroke-miterlimit:4;stroke-opacity:1;stroke-dashoffset:0;marker:none;visibility:visible;display:block;overflow:visible" rx="1.4662031" height="52.31324" ry="1.466203" id="rect2587"/>
    <rect x="7.9103684" y="70.376854" width="42.103474" style="fill:none;stroke:url(#radialGradient2623);stroke-width:1.27601492;stroke-linecap:round;stroke-linejoin:round;stroke-miterlimit:4;stroke-opacity:1;stroke-dashoffset:0;marker:none;visibility:visible;display:block;overflow:visible" rx="0.19018812" height="49.759911" ry="0.19018823" id="rect2589"/>
    <path style="fill:#000000;fill-opacity:0.21052629;fill-rule:evenodd;stroke:none;stroke-width:0.60787594;marker:none;visibility:visible;display:inline;overflow:visible" d="m 11.09613,72.291354 0,6.33426 0,38.326276 12.760153,-0.003 0,-38.280461 22.968276,0 0,-6.377265 -35.728429,0 z" id="path2591"/>
    <path style="fill:#000000;fill-opacity:0.15789466;fill-rule:evenodd;stroke:#000000;stroke-width:1.2760154px;stroke-linecap:square;stroke-linejoin:miter;stroke-opacity:0.19298245" d="m 46.187081,78.033423 -34.453475,0" id="path2593"/>
    <path style="fill:#000000;fill-opacity:0.15789466;fill-rule:evenodd;stroke:#000000;stroke-width:1.27601492px;stroke-linecap:square;stroke-linejoin:miter;stroke-opacity:0.19298245" d="m 46.187515,85.686703 -34.454359,0" id="path2595"/>
    <path style="fill:#000000;fill-opacity:0.15789466;fill-rule:evenodd;stroke:#000000;stroke-width:1.27601492px;stroke-linecap:square;stroke-linejoin:miter;stroke-opacity:0.19298245" d="m 46.187515,93.342795 -34.454359,0" id="path2597"/>
    <path style="fill:#000000;fill-opacity:0.15789466;fill-rule:evenodd;stroke:#000000;stroke-width:1.27601492px;stroke-linecap:square;stroke-linejoin:miter;stroke-opacity:0.19298245" d="m 46.187515,100.99889 -34.454359,0" id="path2599"/>
    <path style="fill:#000000;fill-opacity:0.15789466;fill-rule:evenodd;stroke:#000000;stroke-width:1.2760148px;stroke-linecap:square;stroke-linejoin:miter;stroke-opacity:0.19298245" d="m 46.188251,108.65498 -34.454339,0" id="path2601"/>
    <path style="fill:#000000;fill-opacity:0.15789466;fill-rule:evenodd;stroke:#000000;stroke-width:1.27601492px;stroke-linecap:square;stroke-linejoin:miter;stroke-opacity:0.19298245" d="m 46.187515,116.31107 -34.454359,0" id="path2603"/>
    <path style="fill:#000000;fill-opacity:0.15789466;fill-rule:evenodd;stroke:#000000;stroke-width:1.2760154px;stroke-linecap:square;stroke-linejoin:miter;stroke-opacity:0.19298245" d="m 46.201409,81.858658 -34.467271,0" id="path2605"/>
    <path style="fill:none;stroke:#000000;stroke-width:1.27601492px;stroke-linecap:square;stroke-linejoin:miter;stroke-opacity:0.19298245" d="m 46.187515,89.514749 -34.454359,0" id="path2607"/>
    <path style="fill:#000000;fill-opacity:0.15789466;fill-rule:evenodd;stroke:#000000;stroke-width:1.27601492px;stroke-linecap:square;stroke-linejoin:miter;stroke-opacity:0.19298245" d="m 46.187515,97.170841 -34.454359,0" id="path2609"/>
    <path style="fill:#000000;fill-opacity:0.15789466;fill-rule:evenodd;stroke:#000000;stroke-width:1.27601492px;stroke-linecap:square;stroke-linejoin:miter;stroke-opacity:0.19298245" d="m 46.187515,104.82693 -34.454359,0" id="path2611"/>
    <path style="fill:#000000;fill-opacity:0.15789466;fill-rule:evenodd;stroke:#000000;stroke-width:1.27601492px;stroke-linecap:square;stroke-linejoin:miter;stroke-opacity:0.19298245" d="m 46.187515,112.48302 -34.454359,0" id="path2613"/>
    <path style="fill:none;stroke:#000000;stroke-width:1.27601504px;stroke-linecap:square;stroke-linejoin:miter;stroke-opacity:0.15789466" d="m 46.186551,72.926217 0,43.385233" id="path2615"/>
    <path style="fill:none;stroke:#000000;stroke-width:1.27601528px;stroke-linecap:square;stroke-linejoin:miter;stroke-opacity:0.15789466" d="m 38.530459,72.926151 0,43.385319" id="path2617"/>
    <path style="fill:none;stroke:#000000;stroke-width:1.27601528px;stroke-linecap:square;stroke-linejoin:miter;stroke-opacity:0.15789466" d="m 30.874368,72.92615 0,43.38532" id="path2619"/>
    <path style="fill:none;stroke:#000000;stroke-width:1.27601528px;stroke-linecap:square;stroke-linejoin:miter;stroke-opacity:0.15789466" d="m 23.218276,72.926151 0,43.385319" id="path2621"/>
    <path style="fill:none;stroke:#000000;stroke-width:1.27601528px;stroke-linecap:square;stroke-linejoin:miter;stroke-opacity:0.15789466" d="m 11.734138,72.926151 0,43.385319" id="path2623"/>
    <path style="fill:#000000;fill-opacity:0.15789466;fill-rule:evenodd;stroke:#000000;stroke-width:1.27601528px;stroke-linecap:square;stroke-linejoin:miter;stroke-opacity:0.19298245" d="m 46.186841,72.929362 -34.453392,0" id="path2625"/>
    <g style="display:inline" id="g2627" transform="matrix(1.2760153,0,0,1.2760153,-1.6640226,64.632451)">
      <path d="m 48.999998,40.714287 c 0,6.548519 -7.195424,11.857142 -16.071428,11.857142 -8.876005,0 -16.071429,-5.308623 -16.071429,-11.857142 0,-6.548519 7.195424,-11.857142 16.071428,-11.857142 8.876005,0 16.071429,5.308623 16.071429,11.857142 l 0,0 z" id="path2629" style="fill:url(#radialGradient2663);fill-opacity:1;fill-rule:evenodd;stroke:none" transform="matrix(0.861667,0,0,0.851476,3.760476,2.091696)"/>
      <g id="g2631" transform="translate(51,9.12499)">
        <path style="fill:#670000;fill-opacity:1;fill-rule:nonzero;stroke:none" d="m -27.528542,18.092794 c -2.569034,1.698331 -3.982933,4.005039 -3.982933,6.497902 l 0,2.069292 c 0,2.49084 1.413899,4.798223 3.982933,6.496553 2.426489,1.603904 5.633126,2.487468 9.029183,2.487468 3.394772,0 6.601409,-0.883564 9.0291816,-2.487468 2.5677499,-1.69833 3.9816497,-4.005038 3.9816497,-6.496553 l 0,-2.069292 c 0,-2.492863 -1.4145419,-4.800246 -3.9816497,-6.497902 -2.4271306,-1.602555 -5.6337676,-2.486793 -9.0291816,-2.486793 -3.396057,0 -6.602694,0.884238 -9.029183,2.486793 z" id="path2633"/>
        <path style="fill:#a40000;fill-rule:nonzero;stroke:none" d="m -7.0244261,24.453547 c -1.3785844,-3.386544 -6.0530579,-5.880082 -11.6123419,-5.880082 -5.559285,0 -10.233758,2.493538 -11.612343,5.880082 l -0.414795,0 0,2.069967 c 0,4.390164 5.385276,7.948699 12.027138,7.948699 6.642503,0 12.0264951,-3.558535 12.0264951,-7.948699 l 0,-2.069967 -0.4141532,0 0,0 z" id="path2635"/>
        <path style="fill:url(#linearGradient2665);fill-opacity:1;fill-rule:nonzero;stroke:none" d="m -6.6102729,24.453547 c 0,4.390838 -5.3839921,7.949374 -12.0264951,7.949374 -6.642504,0 -12.027138,-3.558536 -12.027138,-7.949374 0,-4.390839 5.385276,-7.949374 12.027138,-7.949374 6.642503,0 12.0264951,3.558535 12.0264951,7.949374 l 0,0 z" id="path2637"/>
        <path style="fill:#204a87;fill-rule:nonzero;stroke:none" d="m -6.6102729,26.833098 -0.01541,-2.166417 c -1.304101,4.500778 -4.2365627,6.407522 -7.9234897,7.340997 l 0,1.994425 c 3.990639,-1.00362 7.5619886,-3.288745 7.9389001,-7.169005 l 0,0 z" id="path2639"/>
        <path style="fill:url(#linearGradient2667);fill-opacity:1;fill-rule:nonzero;stroke:none" d="m -6.6102729,24.453547 c -0.27546,5.079478 -6.5577471,7.395629 -7.9613731,7.483985 l -4.065765,-7.483985 12.026496,0 6.421e-4,0 z" id="path2641"/>
        <path style="fill:#4e9a06;fill-rule:nonzero;stroke:none" d="m -21.154435,34.298198 0,-2.069292 c 2.263396,0.294746 4.339941,0.346681 6.582789,-0.213809 l 0.02247,1.987681 c -1.87942,0.616471 -4.819587,0.645473 -6.605262,0.296095 l 0,-6.75e-4 z" id="path2643"/>
        <path style="fill:url(#linearGradient2669);fill-opacity:1;fill-rule:nonzero;stroke:none" d="m -18.637411,24.454221 4.065765,7.483311 c -2.489414,0.948988 -6.582789,0.291374 -6.582789,0.291374 l 2.517024,-7.774685 z" id="path2645"/>
        <path d="m -6.875,24.375 c 0,4.280207 -5.260654,7.75 -11.75,7.75 -6.489346,0 -11.75,-3.469793 -11.75,-7.75 0,-4.280207 5.260654,-7.75 11.75,-7.75 6.489346,0 11.75,3.469793 11.75,7.75 l 0,0 z" id="path2647" style="opacity:0.31111115;fill:none;stroke:url(#linearGradient2671);stroke-width:1.02083337;stroke-linecap:butt;stroke-linejoin:miter;stroke-miterlimit:4;stroke-opacity:1;stroke-dasharray:none;stroke-dashoffset:0;marker:none;visibility:visible;display:block;overflow:visible" transform="matrix(0.979592,0,0,0.979592,-0.380102,0.497449)"/>
        <path d="m -6.875,24.375 c 0,4.280207 -5.260654,7.75 -11.75,7.75 -6.489346,0 -11.75,-3.469793 -11.75,-7.75 0,-4.280207 5.260654,-7.75 11.75,-7.75 6.489346,0 11.75,3.469793 11.75,7.75 l 0,0 z" id="path2649" style="opacity:0.13333327;fill:none;stroke:url(#linearGradient2673);stroke-width:1.02083337;stroke-linecap:butt;stroke-linejoin:miter;stroke-miterlimit:4;stroke-opacity:1;stroke-dasharray:none;stroke-dashoffset:0;marker:none;visibility:visible;display:block;overflow:visible" transform="matrix(0.979592,0,0,0.979592,-0.380102,2.497449)"/>
      </g>
    </g>
  </g>
</g></svg>