<svg contentScriptType="text/ecmascript" xmlns:xlink="http://www.w3.org/1999/xlink" zoomAndPan="magnify" xmlns:svg="http://www.w3.org/2000/svg" contentStyleType="text/css" preserveAspectRatio="xMidYMid meet" xmlns="http://www.w3.org/2000/svg" version="1.0"><g id="_STRESSTEST_SYMBOLS_STRESSTEST_OSA_OSA_SITE-FACTORY_SVG">
  <defs id="defs3">
    <linearGradient xlink:actuate="onLoad" xlink:type="simple" id="linearGradient20210" xlink:show="other" xmlns:xlink="http://www.w3.org/1999/xlink">
      <stop style="stop-color:#000000;stop-opacity:0.51546389" offset="0" id="stop20212"/>
      <stop style="stop-color:#000000;stop-opacity:0.14432989" offset="0.55172414" id="stop20218"/>
      <stop style="stop-color:#000000;stop-opacity:0" offset="1" id="stop20214"/>
    </linearGradient>
    <linearGradient xlink:actuate="onLoad" xlink:type="simple" id="linearGradient2254" xlink:show="other" xmlns:xlink="http://www.w3.org/1999/xlink">
      <stop style="stop-color:#ffffff;stop-opacity:1" offset="0" id="stop2256"/>
      <stop style="stop-color:#ffffff;stop-opacity:0" offset="1" id="stop2258"/>
    </linearGradient>
    <linearGradient xlink:actuate="onLoad" xlink:type="simple" id="linearGradient5060" xlink:show="other" xmlns:xlink="http://www.w3.org/1999/xlink">
      <stop style="stop-color:#000000;stop-opacity:1" offset="0" id="stop5062"/>
      <stop style="stop-color:#000000;stop-opacity:0" offset="1" id="stop5064"/>
    </linearGradient>
    <linearGradient xlink:actuate="onLoad" xlink:type="simple" id="linearGradient5048" xlink:show="other" xmlns:xlink="http://www.w3.org/1999/xlink">
      <stop style="stop-color:#000000;stop-opacity:0" offset="0" id="stop5050"/>
      <stop style="stop-color:#000000;stop-opacity:1" offset="0.5" id="stop5056"/>
      <stop style="stop-color:#000000;stop-opacity:0" offset="1" id="stop5052"/>
    </linearGradient>
    <linearGradient gradientTransform="matrix(2.774389,0,0,1.969706,-1892.179,-872.8854)" x1="302.85715" xmlns:xlink="http://www.w3.org/1999/xlink" y1="366.64789" x2="302.85715" xlink:href="#linearGradient5048" gradientUnits="userSpaceOnUse" y2="609.50507" xlink:type="simple" xlink:actuate="onLoad" id="linearGradient8238" xlink:show="other"/>
    <radialGradient gradientTransform="matrix(2.774389,0,0,1.969706,-1891.633,-872.8854)" xmlns:xlink="http://www.w3.org/1999/xlink" id="radialGradient8240" gradientUnits="userSpaceOnUse" xlink:show="other" xlink:type="simple" r="117.14286" cx="605.71429" fx="605.71429" cy="486.64789" fy="486.64789" xlink:href="#linearGradient5060" xlink:actuate="onLoad"/>
    <radialGradient gradientTransform="matrix(-2.774389,0,0,1.969706,112.7623,-872.8854)" xmlns:xlink="http://www.w3.org/1999/xlink" id="radialGradient8242" gradientUnits="userSpaceOnUse" xlink:show="other" xlink:type="simple" r="117.14286" cx="605.71429" fx="605.71429" cy="486.64789" fy="486.64789" xlink:href="#linearGradient5060" xlink:actuate="onLoad"/>
    <linearGradient xlink:actuate="onLoad" xlink:type="simple" id="linearGradient8397" xlink:show="other" xmlns:xlink="http://www.w3.org/1999/xlink">
      <stop style="stop-color:#ffffff;stop-opacity:1" offset="0" id="stop8400"/>
      <stop style="stop-color:#ffffff;stop-opacity:0" offset="1" id="stop8402"/>
    </linearGradient>
    <linearGradient xlink:actuate="onLoad" xlink:type="simple" id="linearGradient8315" xlink:show="other" xmlns:xlink="http://www.w3.org/1999/xlink">
      <stop style="stop-color:#ffffff;stop-opacity:1" offset="0" id="stop8317"/>
      <stop style="stop-color:#ffffff;stop-opacity:0" offset="1" id="stop8319"/>
    </linearGradient>
    <linearGradient xlink:actuate="onLoad" xlink:type="simple" id="linearGradient8381" xlink:show="other" xmlns:xlink="http://www.w3.org/1999/xlink">
      <stop style="stop-color:#ffffff;stop-opacity:1" offset="0" id="stop8383"/>
      <stop style="stop-color:#ffffff;stop-opacity:0" offset="1" id="stop8385"/>
    </linearGradient>
    <linearGradient xlink:actuate="onLoad" xlink:type="simple" id="linearGradient8331" xlink:show="other" xmlns:xlink="http://www.w3.org/1999/xlink">
      <stop style="stop-color:#ffffff;stop-opacity:1" offset="0" id="stop8333"/>
      <stop style="stop-color:#ffffff;stop-opacity:0" offset="1" id="stop8335"/>
    </linearGradient>
    <linearGradient xlink:actuate="onLoad" xlink:type="simple" id="linearGradient8302" xlink:show="other" xmlns:xlink="http://www.w3.org/1999/xlink">
      <stop style="stop-color:#ffffff;stop-opacity:1" offset="0" id="stop8304"/>
      <stop style="stop-color:#ffffff;stop-opacity:0" offset="1" id="stop8306"/>
    </linearGradient>
    <radialGradient gradientTransform="matrix(3.0708221,0,0,2.5766766,46.58453,-43.148563)" xmlns:xlink="http://www.w3.org/1999/xlink" id="radialGradient6218" gradientUnits="userSpaceOnUse" xlink:show="other" xlink:type="simple" r="4.001883" cx="29.913452" fx="29.913452" cy="30.442923" fy="30.442923" xlink:href="#linearGradient2254" xlink:actuate="onLoad"/>
    <radialGradient gradientTransform="matrix(3.0708221,0,0,2.5766766,46.58453,-43.148563)" xmlns:xlink="http://www.w3.org/1999/xlink" id="radialGradient6238" gradientUnits="userSpaceOnUse" xlink:show="other" xlink:type="simple" r="4.001883" cx="29.913452" fx="29.913452" cy="30.442923" fy="30.442923" xlink:href="#linearGradient2254" xlink:actuate="onLoad"/>
    <radialGradient gradientTransform="matrix(3.0708221,0,0,2.5766766,46.58453,-43.148563)" xmlns:xlink="http://www.w3.org/1999/xlink" id="radialGradient6248" gradientUnits="userSpaceOnUse" xlink:show="other" xlink:type="simple" r="4.001883" cx="29.913452" fx="29.913452" cy="30.442923" fy="30.442923" xlink:href="#linearGradient2254" xlink:actuate="onLoad"/>
    <radialGradient gradientTransform="matrix(3.0708221,0,0,2.5766766,46.58453,-43.148563)" xmlns:xlink="http://www.w3.org/1999/xlink" id="radialGradient7023" gradientUnits="userSpaceOnUse" xlink:show="other" xlink:type="simple" r="4.001883" cx="29.913452" fx="29.913452" cy="30.442923" fy="30.442923" xlink:href="#linearGradient2254" xlink:actuate="onLoad"/>
    <radialGradient gradientTransform="matrix(3.0708221,0,0,2.5766766,46.58453,-43.148563)" xmlns:xlink="http://www.w3.org/1999/xlink" id="radialGradient7033" gradientUnits="userSpaceOnUse" xlink:show="other" xlink:type="simple" r="4.001883" cx="29.913452" fx="29.913452" cy="30.442923" fy="30.442923" xlink:href="#linearGradient2254" xlink:actuate="onLoad"/>
    <radialGradient gradientTransform="matrix(2.2573819,0,0,1.8941322,-39.161484,0.8403122)" xmlns:xlink="http://www.w3.org/1999/xlink" id="radialGradient7040" gradientUnits="userSpaceOnUse" xlink:show="other" xlink:type="simple" r="4.001883" cx="29.913452" fx="29.913452" cy="30.442923" fy="30.442923" xlink:href="#linearGradient2254" xlink:actuate="onLoad"/>
    <linearGradient gradientTransform="translate(69,155)" x1="228.50261" xmlns:xlink="http://www.w3.org/1999/xlink" y1="-392.30591" x2="266.36395" xlink:href="#linearGradient8302" gradientUnits="userSpaceOnUse" y2="-379.26862" xlink:type="simple" xlink:actuate="onLoad" id="linearGradient7237" xlink:show="other"/>
    <linearGradient x1="240.07379" xmlns:xlink="http://www.w3.org/1999/xlink" y1="-393.4072" x2="245.82706" xlink:href="#linearGradient8331" gradientUnits="userSpaceOnUse" y2="-388.55029" xlink:type="simple" xlink:actuate="onLoad" id="linearGradient7239" xlink:show="other"/>
    <linearGradient x1="246.74042" xmlns:xlink="http://www.w3.org/1999/xlink" y1="-391.31381" x2="252.69785" xlink:href="#linearGradient8381" gradientUnits="userSpaceOnUse" y2="-385.35165" xlink:type="simple" xlink:actuate="onLoad" id="linearGradient7241" xlink:show="other"/>
    <linearGradient x1="230.87598" xmlns:xlink="http://www.w3.org/1999/xlink" y1="-390.43951" x2="235.25652" xlink:href="#linearGradient8315" gradientUnits="userSpaceOnUse" y2="-386.95901" xlink:type="simple" xlink:actuate="onLoad" id="linearGradient7243" xlink:show="other"/>
    <linearGradient x1="238.00478" xmlns:xlink="http://www.w3.org/1999/xlink" y1="-388.47476" x2="245.65462" xlink:href="#linearGradient8397" gradientUnits="userSpaceOnUse" y2="-382.64539" xlink:type="simple" xlink:actuate="onLoad" id="linearGradient7245" xlink:show="other"/>
    <linearGradient gradientTransform="translate(69,155)" x1="228.50261" xmlns:xlink="http://www.w3.org/1999/xlink" y1="-392.30591" x2="266.36395" xlink:href="#linearGradient8302" gradientUnits="userSpaceOnUse" y2="-379.26862" xlink:type="simple" xlink:actuate="onLoad" id="linearGradient7283" xlink:show="other"/>
    <linearGradient x1="240.07379" xmlns:xlink="http://www.w3.org/1999/xlink" y1="-393.4072" x2="245.82706" xlink:href="#linearGradient8331" gradientUnits="userSpaceOnUse" y2="-388.55029" xlink:type="simple" xlink:actuate="onLoad" id="linearGradient7285" xlink:show="other"/>
    <linearGradient x1="246.74042" xmlns:xlink="http://www.w3.org/1999/xlink" y1="-391.31381" x2="252.69785" xlink:href="#linearGradient8381" gradientUnits="userSpaceOnUse" y2="-385.35165" xlink:type="simple" xlink:actuate="onLoad" id="linearGradient7287" xlink:show="other"/>
    <linearGradient x1="230.87598" xmlns:xlink="http://www.w3.org/1999/xlink" y1="-390.43951" x2="235.25652" xlink:href="#linearGradient8315" gradientUnits="userSpaceOnUse" y2="-386.95901" xlink:type="simple" xlink:actuate="onLoad" id="linearGradient7289" xlink:show="other"/>
    <linearGradient x1="238.00478" xmlns:xlink="http://www.w3.org/1999/xlink" y1="-388.47476" x2="245.65462" xlink:href="#linearGradient8397" gradientUnits="userSpaceOnUse" y2="-382.64539" xlink:type="simple" xlink:actuate="onLoad" id="linearGradient7291" xlink:show="other"/>
    <linearGradient gradientTransform="translate(69,155)" x1="228.50261" xmlns:xlink="http://www.w3.org/1999/xlink" y1="-392.30591" x2="266.36395" xlink:href="#linearGradient8302" gradientUnits="userSpaceOnUse" y2="-379.26862" xlink:type="simple" xlink:actuate="onLoad" id="linearGradient7329" xlink:show="other"/>
    <linearGradient x1="240.07379" xmlns:xlink="http://www.w3.org/1999/xlink" y1="-393.4072" x2="245.82706" xlink:href="#linearGradient8331" gradientUnits="userSpaceOnUse" y2="-388.55029" xlink:type="simple" xlink:actuate="onLoad" id="linearGradient7331" xlink:show="other"/>
    <linearGradient x1="246.74042" xmlns:xlink="http://www.w3.org/1999/xlink" y1="-391.31381" x2="252.69785" xlink:href="#linearGradient8381" gradientUnits="userSpaceOnUse" y2="-385.35165" xlink:type="simple" xlink:actuate="onLoad" id="linearGradient7333" xlink:show="other"/>
    <linearGradient x1="230.87598" xmlns:xlink="http://www.w3.org/1999/xlink" y1="-390.43951" x2="235.25652" xlink:href="#linearGradient8315" gradientUnits="userSpaceOnUse" y2="-386.95901" xlink:type="simple" xlink:actuate="onLoad" id="linearGradient7335" xlink:show="other"/>
    <linearGradient x1="238.00478" xmlns:xlink="http://www.w3.org/1999/xlink" y1="-388.47476" x2="245.65462" xlink:href="#linearGradient8397" gradientUnits="userSpaceOnUse" y2="-382.64539" xlink:type="simple" xlink:actuate="onLoad" id="linearGradient7337" xlink:show="other"/>
    <linearGradient gradientTransform="translate(69,155)" x1="228.50261" xmlns:xlink="http://www.w3.org/1999/xlink" y1="-392.30591" x2="266.36395" xlink:href="#linearGradient8302" gradientUnits="userSpaceOnUse" y2="-379.26862" xlink:type="simple" xlink:actuate="onLoad" id="linearGradient7339" xlink:show="other"/>
    <linearGradient x1="240.07379" xmlns:xlink="http://www.w3.org/1999/xlink" y1="-393.4072" x2="245.82706" xlink:href="#linearGradient8331" gradientUnits="userSpaceOnUse" y2="-388.55029" xlink:type="simple" xlink:actuate="onLoad" id="linearGradient7341" xlink:show="other"/>
    <linearGradient x1="246.74042" xmlns:xlink="http://www.w3.org/1999/xlink" y1="-391.31381" x2="252.69785" xlink:href="#linearGradient8381" gradientUnits="userSpaceOnUse" y2="-385.35165" xlink:type="simple" xlink:actuate="onLoad" id="linearGradient7343" xlink:show="other"/>
    <linearGradient x1="230.87598" xmlns:xlink="http://www.w3.org/1999/xlink" y1="-390.43951" x2="235.25652" xlink:href="#linearGradient8315" gradientUnits="userSpaceOnUse" y2="-386.95901" xlink:type="simple" xlink:actuate="onLoad" id="linearGradient7345" xlink:show="other"/>
    <linearGradient x1="238.00478" xmlns:xlink="http://www.w3.org/1999/xlink" y1="-388.47476" x2="245.65462" xlink:href="#linearGradient8397" gradientUnits="userSpaceOnUse" y2="-382.64539" xlink:type="simple" xlink:actuate="onLoad" id="linearGradient7347" xlink:show="other"/>
    <radialGradient gradientTransform="matrix(2.6128161,0,0,3.7962665,-4.2794288,-43.623949)" xmlns:xlink="http://www.w3.org/1999/xlink" id="radialGradient2559" gradientUnits="userSpaceOnUse" xlink:show="other" xlink:type="simple" r="4.001883" cx="29.913452" fx="29.913452" cy="30.442923" fy="30.442923" xlink:href="#linearGradient2254" xlink:actuate="onLoad"/>
    <radialGradient gradientTransform="matrix(2.6128161,0,0,3.7962665,3.2350837,-43.539517)" xmlns:xlink="http://www.w3.org/1999/xlink" id="radialGradient2562" gradientUnits="userSpaceOnUse" xlink:show="other" xlink:type="simple" r="4.001883" cx="29.913452" fx="29.913452" cy="30.442923" fy="30.442923" xlink:href="#linearGradient2254" xlink:actuate="onLoad"/>
    <radialGradient gradientTransform="matrix(2.6128161,0,0,3.7962665,-42.274152,-43.370651)" xmlns:xlink="http://www.w3.org/1999/xlink" id="radialGradient2565" gradientUnits="userSpaceOnUse" xlink:show="other" xlink:type="simple" r="4.001883" cx="29.913452" fx="29.913452" cy="30.442923" fy="30.442923" xlink:href="#linearGradient2254" xlink:actuate="onLoad"/>
    <radialGradient gradientTransform="matrix(2.6128161,0,0,3.7962665,-49.873097,-43.412868)" xmlns:xlink="http://www.w3.org/1999/xlink" id="radialGradient2568" gradientUnits="userSpaceOnUse" xlink:show="other" xlink:type="simple" r="4.001883" cx="29.913452" fx="29.913452" cy="30.442923" fy="30.442923" xlink:href="#linearGradient2254" xlink:actuate="onLoad"/>
    <radialGradient gradientTransform="matrix(8.434833,0,0,1.6573179,-62.896089,-18.583678)" xmlns:xlink="http://www.w3.org/1999/xlink" id="radialGradient2609" gradientUnits="userSpaceOnUse" xlink:show="other" xlink:type="simple" r="7.8289828" cx="14.772334" fx="14.772334" cy="74.20993" fy="74.20993" xlink:href="#linearGradient20210" xlink:actuate="onLoad"/>
  </defs>
  <g id="g3469">
    <g style="display:inline" id="layer1"/>
    <g style="display:inline" id="g15805" transform="translate(129.25553,-1.5605821)"/>
    <rect x="28.031662" width="2.7018471" height="0" y="77.34037" id="rect7035" style="fill:#000000;fill-opacity:1;fill-rule:nonzero;stroke:#a0f000;stroke-width:2;stroke-linecap:round;stroke-linejoin:round;stroke-miterlimit:4;stroke-opacity:1;stroke-dasharray:none;stroke-dashoffset:0;marker:none;visibility:visible;display:inline;overflow:visible;enable-background:accumulate"/>
    <g id="g12825" transform="matrix(0.7280566,0,0,0.8686193,-208.89126,220.14512)">
      <path style="fill:#555753;fill-opacity:1;stroke:none" d="m 311.5,-242.99998 c -2.77242,0 -5.10823,1.57371 -6.40625,3.8125 -0.94436,-0.47504 -1.96519,-0.8125 -3.09375,-0.8125 -3.864,0 -7,3.136 -7,7 0,3.864 3.136,7 7,7 2.41967,0 4.43009,-1.31932 5.6875,-3.1875 1.1342,0.68962 2.38898,1.1875 3.8125,1.1875 0.91312,0 1.75295,-0.23202 2.5625,-0.53125 0.50994,0.86773 1.17912,1.57972 2,2.15625 -0.007,0.13038 -0.0625,0.24282 -0.0625,0.375 0,3.864 3.13599,7 7,7 3.864,0 7,-3.136 7,-7 0,-2.36969 -1.25898,-4.35834 -3.0625,-5.625 0.007,-0.13038 0.0625,-0.24282 0.0625,-0.375 0,-3.864 -3.13599,-7 -7,-7 -0.6227,0 -1.17519,0.22219 -1.75,0.375 -1.19453,-2.55884 -3.74134,-4.375 -6.75,-4.375 z" id="path12827"/>
      <path style="fill:url(#linearGradient7339);fill-opacity:1;stroke:none" d="m 311.5,-241.99998 c -2.78048,0 -5.13451,1.76185 -6.0625,4.21875 -0.98542,-0.70944 -2.13143,-1.21875 -3.4375,-1.21875 -3.312,0 -6,2.688 -6,6 0,3.312 2.688,6 6,6 2.42775,0 4.49324,-1.45558 5.4375,-3.53125 1.12076,0.91756 2.50214,1.53125 4.0625,1.53125 1.07454,0 2.04428,-0.31896 2.9375,-0.78125 0.3984,0.99976 1.10114,1.78632 1.9375,2.4375 -0.18001,0.59562 -0.375,1.18965 -0.375,1.84375 0,3.588 2.912,6.5 6.5,6.5 3.588,0 6.5,-2.912 6.5,-6.5 0,-2.36079 -1.33433,-4.33019 -3.21875,-5.46875 0.0626,-0.34723 0.21875,-0.66608 0.21875,-1.03125 0,-3.312 -2.688,-6 -6,-6 -0.85298,0 -1.6713,0.17868 -2.40625,0.5 -0.85377,-2.59388 -3.21524,-4.49999 -6.09375,-4.5 z" id="path12829"/>
      <path d="m 248.54804,-383.6666 c 0,3.72219 -3.01743,6.73961 -6.73962,6.73961 -3.72218,0 -6.73961,-3.01742 -6.73961,-6.73961 0,-3.72219 3.01743,-6.73962 6.73961,-6.73962 3.72219,0 6.73962,3.01743 6.73962,6.73962 z" id="path12831" style="fill:#888a85;fill-opacity:1;stroke:none" transform="matrix(0.964447,0,0,0.964447,89.28852,144.5262)"/>
      <g id="g12833">
        <path d="m 250.18322,-389.30136 c 0,3.4415 -2.78988,6.23138 -6.23138,6.23138 -3.4415,0 -6.23138,-2.78988 -6.23138,-6.23138 0,-3.4415 2.78988,-6.23138 6.23138,-6.23138 3.4415,0 6.23138,2.78988 6.23138,6.23138 l 0,0 z" id="path12835" style="fill:#888a85;fill-opacity:1;stroke:none" transform="matrix(0.88263,0,0,0.88263,96.18078,108.1091)"/>
        <path d="m 250.18322,-389.30136 c 0,3.4415 -2.78988,6.23138 -6.23138,6.23138 -3.4415,0 -6.23138,-2.78988 -6.23138,-6.23138 0,-3.4415 2.78988,-6.23138 6.23138,-6.23138 3.4415,0 6.23138,2.78988 6.23138,6.23138 l 0,0 z" id="path12837" style="opacity:0.49444442;fill:url(#linearGradient7341);fill-opacity:1;stroke:none" transform="matrix(0.88263,0,0,0.88263,96.18078,108.1091)"/>
      </g>
      <g id="g12839">
        <path d="m 257.25429,-385.7879 c 0,3.33166 -2.70084,6.03251 -6.03251,6.03251 -3.33166,0 -6.0325,-2.70085 -6.0325,-6.03251 0,-3.33166 2.70084,-6.0325 6.0325,-6.0325 3.33167,0 6.03251,2.70084 6.03251,6.0325 z" id="path12841" style="fill:#888a85;fill-opacity:1;stroke:none" transform="matrix(0.911728,0,0,0.911728,90.45407,120.2336)"/>
        <path d="m 257.25429,-385.7879 c 0,3.33166 -2.70084,6.03251 -6.03251,6.03251 -3.33166,0 -6.0325,-2.70085 -6.0325,-6.03251 0,-3.33166 2.70084,-6.0325 6.0325,-6.0325 3.33167,0 6.03251,2.70084 6.03251,6.0325 z" id="path12843" style="opacity:0.49444442;fill:url(#linearGradient7343);fill-opacity:1;stroke:none" transform="matrix(0.911728,0,0,0.911728,90.45407,120.2336)"/>
      </g>
      <g id="g12845">
        <path d="m 237.80885,-387.88715 c 0,2.41637 -1.95885,4.37522 -4.37522,4.37522 -2.41638,0 -4.37523,-1.95885 -4.37523,-4.37522 0,-2.41637 1.95885,-4.37523 4.37523,-4.37523 2.41637,0 4.37522,1.95886 4.37522,4.37523 z" id="path12847" style="fill:#888a85;fill-opacity:1;stroke:none" transform="matrix(1.142799,0,0,1.142799,35.23229,210.277)"/>
        <path d="m 237.80885,-387.88715 c 0,2.41637 -1.95885,4.37522 -4.37522,4.37522 -2.41638,0 -4.37523,-1.95885 -4.37523,-4.37522 0,-2.41637 1.95885,-4.37523 4.37523,-4.37523 2.41637,0 4.37522,1.95886 4.37522,4.37523 z" id="path12849" style="opacity:0.49444442;fill:url(#linearGradient7345);fill-opacity:1;stroke:none" transform="matrix(1.142799,0,0,1.142799,35.23229,210.277)"/>
      </g>
      <g id="g12851">
        <path d="m 248.54804,-383.6666 c 0,3.72219 -3.01743,6.73961 -6.73962,6.73961 -3.72218,0 -6.73961,-3.01742 -6.73961,-6.73961 0,-3.72219 3.01743,-6.73962 6.73961,-6.73962 3.72219,0 6.73962,3.01743 6.73962,6.73962 z" id="path12853" style="fill:#888a85;fill-opacity:1;stroke:none" transform="matrix(1.038636,0,0,1.038636,59.84906,169.4899)"/>
        <path d="m 248.54804,-383.6666 c 0,3.72219 -3.01743,6.73961 -6.73962,6.73961 -3.72218,0 -6.73961,-3.01742 -6.73961,-6.73961 0,-3.72219 3.01743,-6.73962 6.73961,-6.73962 3.72219,0 6.73962,3.01743 6.73962,6.73962 z" id="path12855" style="opacity:0.49444442;fill:url(#linearGradient7347);fill-opacity:1;stroke:none" transform="matrix(1.038636,0,0,1.038636,59.84907,169.4899)"/>
      </g>
    </g>
    <rect x="21.870617" y="28.552485" width="8.5541973" style="fill:#816647;fill-opacity:1;fill-rule:nonzero;stroke:#565248;stroke-width:1.5;stroke-linecap:round;stroke-linejoin:round;stroke-miterlimit:4;stroke-opacity:1;stroke-dasharray:none;stroke-dashoffset:0;marker:none;visibility:visible;display:inline;overflow:visible;enable-background:accumulate" rx="0" height="15.915673" ry="0" id="rect15901"/>
    <g id="g7065" transform="matrix(0.7280566,0,0,0.8686193,-182.92818,220.09083)">
      <path style="fill:#555753;fill-opacity:1;stroke:none" d="m 311.5,-242.99998 c -2.77242,0 -5.10823,1.57371 -6.40625,3.8125 -0.94436,-0.47504 -1.96519,-0.8125 -3.09375,-0.8125 -3.864,0 -7,3.136 -7,7 0,3.864 3.136,7 7,7 2.41967,0 4.43009,-1.31932 5.6875,-3.1875 1.1342,0.68962 2.38898,1.1875 3.8125,1.1875 0.91312,0 1.75295,-0.23202 2.5625,-0.53125 0.50994,0.86773 1.17912,1.57972 2,2.15625 -0.007,0.13038 -0.0625,0.24282 -0.0625,0.375 0,3.864 3.13599,7 7,7 3.864,0 7,-3.136 7,-7 0,-2.36969 -1.25898,-4.35834 -3.0625,-5.625 0.007,-0.13038 0.0625,-0.24282 0.0625,-0.375 0,-3.864 -3.13599,-7 -7,-7 -0.6227,0 -1.17519,0.22219 -1.75,0.375 -1.19453,-2.55884 -3.74134,-4.375 -6.75,-4.375 z" id="path7067"/>
      <path style="fill:url(#linearGradient7237);fill-opacity:1;stroke:none" d="m 311.5,-241.99998 c -2.78048,0 -5.13451,1.76185 -6.0625,4.21875 -0.98542,-0.70944 -2.13143,-1.21875 -3.4375,-1.21875 -3.312,0 -6,2.688 -6,6 0,3.312 2.688,6 6,6 2.42775,0 4.49324,-1.45558 5.4375,-3.53125 1.12076,0.91756 2.50214,1.53125 4.0625,1.53125 1.07454,0 2.04428,-0.31896 2.9375,-0.78125 0.3984,0.99976 1.10114,1.78632 1.9375,2.4375 -0.18001,0.59562 -0.375,1.18965 -0.375,1.84375 0,3.588 2.912,6.5 6.5,6.5 3.588,0 6.5,-2.912 6.5,-6.5 0,-2.36079 -1.33433,-4.33019 -3.21875,-5.46875 0.0626,-0.34723 0.21875,-0.66608 0.21875,-1.03125 0,-3.312 -2.688,-6 -6,-6 -0.85298,0 -1.6713,0.17868 -2.40625,0.5 -0.85377,-2.59388 -3.21524,-4.49999 -6.09375,-4.5 z" id="path7069"/>
      <path d="m 248.54804,-383.6666 c 0,3.72219 -3.01743,6.73961 -6.73962,6.73961 -3.72218,0 -6.73961,-3.01742 -6.73961,-6.73961 0,-3.72219 3.01743,-6.73962 6.73961,-6.73962 3.72219,0 6.73962,3.01743 6.73962,6.73962 z" id="path7071" style="fill:#888a85;fill-opacity:1;stroke:none" transform="matrix(0.964447,0,0,0.964447,89.28852,144.5262)"/>
      <g id="g7073">
        <path d="m 250.18322,-389.30136 c 0,3.4415 -2.78988,6.23138 -6.23138,6.23138 -3.4415,0 -6.23138,-2.78988 -6.23138,-6.23138 0,-3.4415 2.78988,-6.23138 6.23138,-6.23138 3.4415,0 6.23138,2.78988 6.23138,6.23138 l 0,0 z" id="path7075" style="fill:#888a85;fill-opacity:1;stroke:none" transform="matrix(0.88263,0,0,0.88263,96.18078,108.1091)"/>
        <path d="m 250.18322,-389.30136 c 0,3.4415 -2.78988,6.23138 -6.23138,6.23138 -3.4415,0 -6.23138,-2.78988 -6.23138,-6.23138 0,-3.4415 2.78988,-6.23138 6.23138,-6.23138 3.4415,0 6.23138,2.78988 6.23138,6.23138 l 0,0 z" id="path7077" style="opacity:0.49444442;fill:url(#linearGradient7239);fill-opacity:1;stroke:none" transform="matrix(0.88263,0,0,0.88263,96.18078,108.1091)"/>
      </g>
      <g id="g7079">
        <path d="m 257.25429,-385.7879 c 0,3.33166 -2.70084,6.03251 -6.03251,6.03251 -3.33166,0 -6.0325,-2.70085 -6.0325,-6.03251 0,-3.33166 2.70084,-6.0325 6.0325,-6.0325 3.33167,0 6.03251,2.70084 6.03251,6.0325 z" id="path7081" style="fill:#888a85;fill-opacity:1;stroke:none" transform="matrix(0.911728,0,0,0.911728,90.45407,120.2336)"/>
        <path d="m 257.25429,-385.7879 c 0,3.33166 -2.70084,6.03251 -6.03251,6.03251 -3.33166,0 -6.0325,-2.70085 -6.0325,-6.03251 0,-3.33166 2.70084,-6.0325 6.0325,-6.0325 3.33167,0 6.03251,2.70084 6.03251,6.0325 z" id="path7083" style="opacity:0.49444442;fill:url(#linearGradient7241);fill-opacity:1;stroke:none" transform="matrix(0.911728,0,0,0.911728,90.45407,120.2336)"/>
      </g>
      <g id="g7085">
        <path d="m 237.80885,-387.88715 c 0,2.41637 -1.95885,4.37522 -4.37522,4.37522 -2.41638,0 -4.37523,-1.95885 -4.37523,-4.37522 0,-2.41637 1.95885,-4.37523 4.37523,-4.37523 2.41637,0 4.37522,1.95886 4.37522,4.37523 z" id="path7087" style="fill:#888a85;fill-opacity:1;stroke:none" transform="matrix(1.142799,0,0,1.142799,35.23229,210.277)"/>
        <path d="m 237.80885,-387.88715 c 0,2.41637 -1.95885,4.37522 -4.37522,4.37522 -2.41638,0 -4.37523,-1.95885 -4.37523,-4.37522 0,-2.41637 1.95885,-4.37523 4.37523,-4.37523 2.41637,0 4.37522,1.95886 4.37522,4.37523 z" id="path7089" style="opacity:0.49444442;fill:url(#linearGradient7243);fill-opacity:1;stroke:none" transform="matrix(1.142799,0,0,1.142799,35.23229,210.277)"/>
      </g>
      <g id="g7091">
        <path d="m 248.54804,-383.6666 c 0,3.72219 -3.01743,6.73961 -6.73962,6.73961 -3.72218,0 -6.73961,-3.01742 -6.73961,-6.73961 0,-3.72219 3.01743,-6.73962 6.73961,-6.73962 3.72219,0 6.73962,3.01743 6.73962,6.73962 z" id="path7093" style="fill:#888a85;fill-opacity:1;stroke:none" transform="matrix(1.038636,0,0,1.038636,59.84906,169.4899)"/>
        <path d="m 248.54804,-383.6666 c 0,3.72219 -3.01743,6.73961 -6.73962,6.73961 -3.72218,0 -6.73961,-3.01742 -6.73961,-6.73961 0,-3.72219 3.01743,-6.73962 6.73961,-6.73962 3.72219,0 6.73962,3.01743 6.73962,6.73962 z" id="path7095" style="opacity:0.49444442;fill:url(#linearGradient7245);fill-opacity:1;stroke:none" transform="matrix(1.038636,0,0,1.038636,59.84907,169.4899)"/>
      </g>
    </g>
    <rect x="47.833717" y="28.606768" width="8.5541973" style="fill:#816647;fill-opacity:1;fill-rule:nonzero;stroke:#565248;stroke-width:1.5;stroke-linecap:round;stroke-linejoin:round;stroke-miterlimit:4;stroke-opacity:1;stroke-dasharray:none;stroke-dashoffset:0;marker:none;visibility:visible;display:inline;overflow:visible;enable-background:accumulate" rx="0" height="15.915673" ry="0" id="rect7097"/>
    <g id="g7249" transform="matrix(0.7280566,0,0,0.8686193,-156.96508,220.09083)">
      <path style="fill:#555753;fill-opacity:1;stroke:none" d="m 311.5,-242.99998 c -2.77242,0 -5.10823,1.57371 -6.40625,3.8125 -0.94436,-0.47504 -1.96519,-0.8125 -3.09375,-0.8125 -3.864,0 -7,3.136 -7,7 0,3.864 3.136,7 7,7 2.41967,0 4.43009,-1.31932 5.6875,-3.1875 1.1342,0.68962 2.38898,1.1875 3.8125,1.1875 0.91312,0 1.75295,-0.23202 2.5625,-0.53125 0.50994,0.86773 1.17912,1.57972 2,2.15625 -0.007,0.13038 -0.0625,0.24282 -0.0625,0.375 0,3.864 3.13599,7 7,7 3.864,0 7,-3.136 7,-7 0,-2.36969 -1.25898,-4.35834 -3.0625,-5.625 0.007,-0.13038 0.0625,-0.24282 0.0625,-0.375 0,-3.864 -3.13599,-7 -7,-7 -0.6227,0 -1.17519,0.22219 -1.75,0.375 -1.19453,-2.55884 -3.74134,-4.375 -6.75,-4.375 z" id="path7251"/>
      <path style="fill:url(#linearGradient7283);fill-opacity:1;stroke:none" d="m 311.5,-241.99998 c -2.78048,0 -5.13451,1.76185 -6.0625,4.21875 -0.98542,-0.70944 -2.13143,-1.21875 -3.4375,-1.21875 -3.312,0 -6,2.688 -6,6 0,3.312 2.688,6 6,6 2.42775,0 4.49324,-1.45558 5.4375,-3.53125 1.12076,0.91756 2.50214,1.53125 4.0625,1.53125 1.07454,0 2.04428,-0.31896 2.9375,-0.78125 0.3984,0.99976 1.10114,1.78632 1.9375,2.4375 -0.18001,0.59562 -0.375,1.18965 -0.375,1.84375 0,3.588 2.912,6.5 6.5,6.5 3.588,0 6.5,-2.912 6.5,-6.5 0,-2.36079 -1.33433,-4.33019 -3.21875,-5.46875 0.0626,-0.34723 0.21875,-0.66608 0.21875,-1.03125 0,-3.312 -2.688,-6 -6,-6 -0.85298,0 -1.6713,0.17868 -2.40625,0.5 -0.85377,-2.59388 -3.21524,-4.49999 -6.09375,-4.5 z" id="path7253"/>
      <path d="m 248.54804,-383.6666 c 0,3.72219 -3.01743,6.73961 -6.73962,6.73961 -3.72218,0 -6.73961,-3.01742 -6.73961,-6.73961 0,-3.72219 3.01743,-6.73962 6.73961,-6.73962 3.72219,0 6.73962,3.01743 6.73962,6.73962 z" id="path7255" style="fill:#888a85;fill-opacity:1;stroke:none" transform="matrix(0.964447,0,0,0.964447,89.28852,144.5262)"/>
      <g id="g7257">
        <path d="m 250.18322,-389.30136 c 0,3.4415 -2.78988,6.23138 -6.23138,6.23138 -3.4415,0 -6.23138,-2.78988 -6.23138,-6.23138 0,-3.4415 2.78988,-6.23138 6.23138,-6.23138 3.4415,0 6.23138,2.78988 6.23138,6.23138 l 0,0 z" id="path7259" style="fill:#888a85;fill-opacity:1;stroke:none" transform="matrix(0.88263,0,0,0.88263,96.18078,108.1091)"/>
        <path d="m 250.18322,-389.30136 c 0,3.4415 -2.78988,6.23138 -6.23138,6.23138 -3.4415,0 -6.23138,-2.78988 -6.23138,-6.23138 0,-3.4415 2.78988,-6.23138 6.23138,-6.23138 3.4415,0 6.23138,2.78988 6.23138,6.23138 l 0,0 z" id="path7261" style="opacity:0.49444442;fill:url(#linearGradient7285);fill-opacity:1;stroke:none" transform="matrix(0.88263,0,0,0.88263,96.18078,108.1091)"/>
      </g>
      <g id="g7263">
        <path d="m 257.25429,-385.7879 c 0,3.33166 -2.70084,6.03251 -6.03251,6.03251 -3.33166,0 -6.0325,-2.70085 -6.0325,-6.03251 0,-3.33166 2.70084,-6.0325 6.0325,-6.0325 3.33167,0 6.03251,2.70084 6.03251,6.0325 z" id="path7265" style="fill:#888a85;fill-opacity:1;stroke:none" transform="matrix(0.911728,0,0,0.911728,90.45407,120.2336)"/>
        <path d="m 257.25429,-385.7879 c 0,3.33166 -2.70084,6.03251 -6.03251,6.03251 -3.33166,0 -6.0325,-2.70085 -6.0325,-6.03251 0,-3.33166 2.70084,-6.0325 6.0325,-6.0325 3.33167,0 6.03251,2.70084 6.03251,6.0325 z" id="path7267" style="opacity:0.49444442;fill:url(#linearGradient7287);fill-opacity:1;stroke:none" transform="matrix(0.911728,0,0,0.911728,90.45407,120.2336)"/>
      </g>
      <g id="g7269">
        <path d="m 237.80885,-387.88715 c 0,2.41637 -1.95885,4.37522 -4.37522,4.37522 -2.41638,0 -4.37523,-1.95885 -4.37523,-4.37522 0,-2.41637 1.95885,-4.37523 4.37523,-4.37523 2.41637,0 4.37522,1.95886 4.37522,4.37523 z" id="path7271" style="fill:#888a85;fill-opacity:1;stroke:none" transform="matrix(1.142799,0,0,1.142799,35.23229,210.277)"/>
        <path d="m 237.80885,-387.88715 c 0,2.41637 -1.95885,4.37522 -4.37522,4.37522 -2.41638,0 -4.37523,-1.95885 -4.37523,-4.37522 0,-2.41637 1.95885,-4.37523 4.37523,-4.37523 2.41637,0 4.37522,1.95886 4.37522,4.37523 z" id="path7273" style="opacity:0.49444442;fill:url(#linearGradient7289);fill-opacity:1;stroke:none" transform="matrix(1.142799,0,0,1.142799,35.23229,210.277)"/>
      </g>
      <g id="g7275">
        <path d="m 248.54804,-383.6666 c 0,3.72219 -3.01743,6.73961 -6.73962,6.73961 -3.72218,0 -6.73961,-3.01742 -6.73961,-6.73961 0,-3.72219 3.01743,-6.73962 6.73961,-6.73962 3.72219,0 6.73962,3.01743 6.73962,6.73962 z" id="path7277" style="fill:#888a85;fill-opacity:1;stroke:none" transform="matrix(1.038636,0,0,1.038636,59.84906,169.4899)"/>
        <path d="m 248.54804,-383.6666 c 0,3.72219 -3.01743,6.73961 -6.73962,6.73961 -3.72218,0 -6.73961,-3.01742 -6.73961,-6.73961 0,-3.72219 3.01743,-6.73962 6.73961,-6.73962 3.72219,0 6.73962,3.01743 6.73962,6.73962 z" id="path7279" style="opacity:0.49444442;fill:url(#linearGradient7291);fill-opacity:1;stroke:none" transform="matrix(1.038636,0,0,1.038636,59.84907,169.4899)"/>
      </g>
    </g>
    <rect x="73.796806" y="28.606768" width="8.5541973" style="fill:#816647;fill-opacity:1;fill-rule:nonzero;stroke:#565248;stroke-width:1.5;stroke-linecap:round;stroke-linejoin:round;stroke-miterlimit:4;stroke-opacity:1;stroke-dasharray:none;stroke-dashoffset:0;marker:none;visibility:visible;display:inline;overflow:visible;enable-background:accumulate" rx="0" height="15.915673" ry="0" id="rect7281"/>
    <g id="g7295" transform="matrix(0.7280566,0,0,0.8686193,-131.002,220.09083)">
      <path style="fill:#555753;fill-opacity:1;stroke:none" d="m 311.5,-242.99998 c -2.77242,0 -5.10823,1.57371 -6.40625,3.8125 -0.94436,-0.47504 -1.96519,-0.8125 -3.09375,-0.8125 -3.864,0 -7,3.136 -7,7 0,3.864 3.136,7 7,7 2.41967,0 4.43009,-1.31932 5.6875,-3.1875 1.1342,0.68962 2.38898,1.1875 3.8125,1.1875 0.91312,0 1.75295,-0.23202 2.5625,-0.53125 0.50994,0.86773 1.17912,1.57972 2,2.15625 -0.007,0.13038 -0.0625,0.24282 -0.0625,0.375 0,3.864 3.13599,7 7,7 3.864,0 7,-3.136 7,-7 0,-2.36969 -1.25898,-4.35834 -3.0625,-5.625 0.007,-0.13038 0.0625,-0.24282 0.0625,-0.375 0,-3.864 -3.13599,-7 -7,-7 -0.6227,0 -1.17519,0.22219 -1.75,0.375 -1.19453,-2.55884 -3.74134,-4.375 -6.75,-4.375 z" id="path7297"/>
      <path style="fill:url(#linearGradient7329);fill-opacity:1;stroke:none" d="m 311.5,-241.99998 c -2.78048,0 -5.13451,1.76185 -6.0625,4.21875 -0.98542,-0.70944 -2.13143,-1.21875 -3.4375,-1.21875 -3.312,0 -6,2.688 -6,6 0,3.312 2.688,6 6,6 2.42775,0 4.49324,-1.45558 5.4375,-3.53125 1.12076,0.91756 2.50214,1.53125 4.0625,1.53125 1.07454,0 2.04428,-0.31896 2.9375,-0.78125 0.3984,0.99976 1.10114,1.78632 1.9375,2.4375 -0.18001,0.59562 -0.375,1.18965 -0.375,1.84375 0,3.588 2.912,6.5 6.5,6.5 3.588,0 6.5,-2.912 6.5,-6.5 0,-2.36079 -1.33433,-4.33019 -3.21875,-5.46875 0.0626,-0.34723 0.21875,-0.66608 0.21875,-1.03125 0,-3.312 -2.688,-6 -6,-6 -0.85298,0 -1.6713,0.17868 -2.40625,0.5 -0.85377,-2.59388 -3.21524,-4.49999 -6.09375,-4.5 z" id="path7299"/>
      <path d="m 248.54804,-383.6666 c 0,3.72219 -3.01743,6.73961 -6.73962,6.73961 -3.72218,0 -6.73961,-3.01742 -6.73961,-6.73961 0,-3.72219 3.01743,-6.73962 6.73961,-6.73962 3.72219,0 6.73962,3.01743 6.73962,6.73962 z" id="path7301" style="fill:#888a85;fill-opacity:1;stroke:none" transform="matrix(0.964447,0,0,0.964447,89.28852,144.5262)"/>
      <g id="g7303">
        <path d="m 250.18322,-389.30136 c 0,3.4415 -2.78988,6.23138 -6.23138,6.23138 -3.4415,0 -6.23138,-2.78988 -6.23138,-6.23138 0,-3.4415 2.78988,-6.23138 6.23138,-6.23138 3.4415,0 6.23138,2.78988 6.23138,6.23138 l 0,0 z" id="path7305" style="fill:#888a85;fill-opacity:1;stroke:none" transform="matrix(0.88263,0,0,0.88263,96.18078,108.1091)"/>
        <path d="m 250.18322,-389.30136 c 0,3.4415 -2.78988,6.23138 -6.23138,6.23138 -3.4415,0 -6.23138,-2.78988 -6.23138,-6.23138 0,-3.4415 2.78988,-6.23138 6.23138,-6.23138 3.4415,0 6.23138,2.78988 6.23138,6.23138 l 0,0 z" id="path7307" style="opacity:0.49444442;fill:url(#linearGradient7331);fill-opacity:1;stroke:none" transform="matrix(0.88263,0,0,0.88263,96.18078,108.1091)"/>
      </g>
      <g id="g7309">
        <path d="m 257.25429,-385.7879 c 0,3.33166 -2.70084,6.03251 -6.03251,6.03251 -3.33166,0 -6.0325,-2.70085 -6.0325,-6.03251 0,-3.33166 2.70084,-6.0325 6.0325,-6.0325 3.33167,0 6.03251,2.70084 6.03251,6.0325 z" id="path7311" style="fill:#888a85;fill-opacity:1;stroke:none" transform="matrix(0.911728,0,0,0.911728,90.45407,120.2336)"/>
        <path d="m 257.25429,-385.7879 c 0,3.33166 -2.70084,6.03251 -6.03251,6.03251 -3.33166,0 -6.0325,-2.70085 -6.0325,-6.03251 0,-3.33166 2.70084,-6.0325 6.0325,-6.0325 3.33167,0 6.03251,2.70084 6.03251,6.0325 z" id="path7313" style="opacity:0.49444442;fill:url(#linearGradient7333);fill-opacity:1;stroke:none" transform="matrix(0.911728,0,0,0.911728,90.45407,120.2336)"/>
      </g>
      <g id="g7315">
        <path d="m 237.80885,-387.88715 c 0,2.41637 -1.95885,4.37522 -4.37522,4.37522 -2.41638,0 -4.37523,-1.95885 -4.37523,-4.37522 0,-2.41637 1.95885,-4.37523 4.37523,-4.37523 2.41637,0 4.37522,1.95886 4.37522,4.37523 z" id="path7317" style="fill:#888a85;fill-opacity:1;stroke:none" transform="matrix(1.142799,0,0,1.142799,35.23229,210.277)"/>
        <path d="m 237.80885,-387.88715 c 0,2.41637 -1.95885,4.37522 -4.37522,4.37522 -2.41638,0 -4.37523,-1.95885 -4.37523,-4.37522 0,-2.41637 1.95885,-4.37523 4.37523,-4.37523 2.41637,0 4.37522,1.95886 4.37522,4.37523 z" id="path7319" style="opacity:0.49444442;fill:url(#linearGradient7335);fill-opacity:1;stroke:none" transform="matrix(1.142799,0,0,1.142799,35.23229,210.277)"/>
      </g>
      <g id="g7321">
        <path d="m 248.54804,-383.6666 c 0,3.72219 -3.01743,6.73961 -6.73962,6.73961 -3.72218,0 -6.73961,-3.01742 -6.73961,-6.73961 0,-3.72219 3.01743,-6.73962 6.73961,-6.73962 3.72219,0 6.73962,3.01743 6.73962,6.73962 z" id="path7323" style="fill:#888a85;fill-opacity:1;stroke:none" transform="matrix(1.038636,0,0,1.038636,59.84906,169.4899)"/>
        <path d="m 248.54804,-383.6666 c 0,3.72219 -3.01743,6.73961 -6.73962,6.73961 -3.72218,0 -6.73961,-3.01742 -6.73961,-6.73961 0,-3.72219 3.01743,-6.73962 6.73961,-6.73962 3.72219,0 6.73962,3.01743 6.73962,6.73962 z" id="path7325" style="opacity:0.49444442;fill:url(#linearGradient7337);fill-opacity:1;stroke:none" transform="matrix(1.038636,0,0,1.038636,59.84907,169.4899)"/>
      </g>
    </g>
    <rect x="99.759888" y="28.606768" width="8.5541973" style="fill:#816647;fill-opacity:1;fill-rule:nonzero;stroke:#565248;stroke-width:1.5;stroke-linecap:round;stroke-linejoin:round;stroke-miterlimit:4;stroke-opacity:1;stroke-dasharray:none;stroke-dashoffset:0;marker:none;visibility:visible;display:inline;overflow:visible;enable-background:accumulate" rx="0" height="15.915673" ry="0" id="rect7327"/>
    <path style="opacity:0.8;fill:url(#radialGradient2609);fill-opacity:1;fill-rule:nonzero;stroke:none;stroke-width:2;marker:none;visibility:visible;display:inline;overflow:visible" d="m 127.74222,104.40581 c 0,7.16596 -29.56539,12.97512 -66.036151,12.97512 -36.470761,0 -66.0361518,-5.80916 -66.0361518,-12.97512 0,-7.16596 29.5653908,-12.975113 66.0361518,-12.975113 36.470761,0 66.036151,5.809153 66.036151,12.975113 z" id="path20208"/>
    <path style="fill:#727e0a;fill-opacity:1;fill-rule:nonzero;stroke:#404604;stroke-width:1.41103494;stroke-linecap:round;stroke-linejoin:round;stroke-miterlimit:4;stroke-opacity:1;stroke-dasharray:none;stroke-dashoffset:0;marker:none;visibility:visible;display:inline;overflow:visible;enable-background:accumulate" d="M 126.74893,78.121461 C 126.75511,92.100247 98.659642,103.43362 63.999996,103.43362 29.34035,103.43362 1.2448875,92.100247 1.2510648,78.121461 1.2448875,64.142674 29.34035,52.809308 63.999996,52.809308 c 34.659646,0 62.755114,11.333366 62.748934,25.312153 l 0,0 z" id="path7049"/>
    <g style="display:inline" id="g7202" transform="matrix(0.05218049,0,0,0.02404604,111.40442,83.030952)">
      <rect x="-1559.2523" width="1339.6335" height="478.35718" y="-150.69685" id="rect7204" style="opacity:0.40206185;fill:url(#linearGradient8238);fill-opacity:1;fill-rule:nonzero;stroke:none;stroke-width:1;marker:none;visibility:visible;display:inline;overflow:visible"/>
      <path style="opacity:0.40206185;fill:url(#radialGradient8240);fill-opacity:1;fill-rule:nonzero;stroke:none;stroke-width:1;marker:none;visibility:visible;display:inline;overflow:visible" d="m -219.61876,-150.68038 c 0,0 0,478.33079 0,478.33079 142.874166,0.90045 345.40022,-107.16966 345.40014,-239.196175 0,-132.026537 -159.436816,-239.134595 -345.40014,-239.134615 z" id="path7206"/>
      <path style="opacity:0.40206185;fill:url(#radialGradient8242);fill-opacity:1;fill-rule:nonzero;stroke:none;stroke-width:1;marker:none;visibility:visible;display:inline;overflow:visible" d="m -1559.2523,-150.68038 c 0,0 0,478.33079 0,478.33079 -142.8742,0.90045 -345.4002,-107.16966 -345.4002,-239.196175 0,-132.026537 159.4368,-239.134595 345.4002,-239.134615 z" id="path7208"/>
    </g>
    <rect x="21.328945" y="44.84874" width="87.030762" style="fill:#816647;fill-opacity:1;fill-rule:nonzero;stroke:#565248;stroke-width:1.5;stroke-linecap:round;stroke-linejoin:round;stroke-miterlimit:4;stroke-opacity:1;stroke-dasharray:none;stroke-dashoffset:0;marker:none;visibility:visible;display:inline;overflow:visible;enable-background:accumulate" rx="0.74815273" height="39.748432" ry="0.14663523" id="rect10235"/>
    <path style="fill:#888888;fill-rule:evenodd;stroke:#565248;stroke-width:0.96050024;stroke-linecap:butt;stroke-linejoin:miter;stroke-miterlimit:4;stroke-opacity:1;stroke-dasharray:none" d="m 25.927195,66.778162 79.538735,0" id="path10265"/>
    <path style="fill:#888888;fill-rule:evenodd;stroke:#565248;stroke-width:0.95848292;stroke-linecap:butt;stroke-linejoin:miter;stroke-miterlimit:4;stroke-opacity:1;stroke-dasharray:none" d="m 26.114798,54.538837 79.204992,0" id="path10481"/>
    <g id="g21550" transform="matrix(0.7351067,0,0,0.7351067,-0.9298216,32.356477)">
      <path style="opacity:0.31818183;fill:none;stroke:#ffffff;stroke-width:0.81855905;stroke-linecap:butt;stroke-linejoin:miter;stroke-miterlimit:4;stroke-opacity:1;stroke-dashoffset:0;marker:none;visibility:visible;display:inline;overflow:visible" d="m 135.89863,33.326889 7.39977,0 c 0.63078,0 1.13859,0.50781 1.13859,1.138589 l -0.007,7.431884 c 0,0.630778 -0.48812,1.036271 -1.1189,1.036271 l -7.41294,0 c -0.63078,0 -1.13859,-0.507812 -1.13859,-1.138591 l 0,-7.329564 c 0,-0.630779 0.50781,-1.138589 1.13859,-1.138589 z" id="path21552"/>
      <rect x="135.41202" y="33.977177" width="8.1866875" style="fill:#3465a4;fill-opacity:1;fill-rule:nonzero;stroke:#757575;stroke-width:0.81855911;stroke-linecap:butt;stroke-linejoin:miter;stroke-miterlimit:4;stroke-opacity:1;stroke-dasharray:none;stroke-dashoffset:0;marker:none;visibility:visible;display:inline;overflow:visible" rx="0.31210217" height="8.1548634" ry="0.31210217" id="rect21554"/>
      <path style="opacity:0.39772728;fill:url(#radialGradient6218);fill-opacity:1;fill-rule:nonzero;stroke:none;stroke-width:0.99999958;marker:none;visibility:visible;display:inline;overflow:visible" d="m 135.90263,38.801773 c 2.96153,0.271089 4.52477,-1.183395 7.25911,-1.27101 l 0.0202,-3.151038 -7.29468,-0.0049 0.0153,4.426984 z" id="path21556"/>
    </g>
    <g style="fill:#cccccf;stroke:#816647;stroke-width:1.7832737;stroke-miterlimit:4;stroke-dasharray:none" id="g6220" transform="matrix(0.5607664,0,0,0.5607664,11.128604,36.06168)">
      <rect x="25.836412" width="26.680738" height="24.147757" y="61.298153" id="rect6210" style="fill:#cccccf;fill-opacity:1;fill-rule:nonzero;stroke:#666666;stroke-width:1.7832737;stroke-linecap:round;stroke-linejoin:round;stroke-miterlimit:4;stroke-opacity:1;stroke-dasharray:none;stroke-dashoffset:0;marker:none;visibility:visible;display:inline;overflow:visible;enable-background:accumulate"/>
      <path style="fill:#cccccf;fill-rule:evenodd;stroke:#666666;stroke-width:1.7832737;stroke-linecap:butt;stroke-linejoin:miter;stroke-miterlimit:4;stroke-opacity:1;stroke-dasharray:none" d="m 38.877493,61.972923 -0.07689,22.629354" id="path21570"/>
    </g>
    <g id="g6230" transform="matrix(0.7351067,0,0,0.7351067,-58.910832,32.255154)">
      <path style="opacity:0.31818183;fill:none;stroke:#ffffff;stroke-width:0.81855905;stroke-linecap:butt;stroke-linejoin:miter;stroke-miterlimit:4;stroke-opacity:1;stroke-dashoffset:0;marker:none;visibility:visible;display:inline;overflow:visible" d="m 135.89863,33.326889 7.39977,0 c 0.63078,0 1.13859,0.50781 1.13859,1.138589 l -0.007,7.431884 c 0,0.630778 -0.48812,1.036271 -1.1189,1.036271 l -7.41294,0 c -0.63078,0 -1.13859,-0.507812 -1.13859,-1.138591 l 0,-7.329564 c 0,-0.630779 0.50781,-1.138589 1.13859,-1.138589 z" id="path6232"/>
      <rect x="135.41202" y="33.977177" width="8.1866875" style="fill:#3465a4;fill-opacity:1;fill-rule:nonzero;stroke:#757575;stroke-width:0.81855911;stroke-linecap:butt;stroke-linejoin:miter;stroke-miterlimit:4;stroke-opacity:1;stroke-dasharray:none;stroke-dashoffset:0;marker:none;visibility:visible;display:inline;overflow:visible" rx="0.31210217" height="8.1548634" ry="0.31210217" id="rect6234"/>
      <path style="opacity:0.39772728;fill:url(#radialGradient6238);fill-opacity:1;fill-rule:nonzero;stroke:none;stroke-width:0.99999958;marker:none;visibility:visible;display:inline;overflow:visible" d="m 135.90263,38.801773 c 2.96153,0.271089 4.52477,-1.183395 7.25911,-1.27101 l 0.0202,-3.151038 -7.29468,-0.0049 0.0153,4.426984 z" id="path6236"/>
    </g>
    <g id="g6240" transform="matrix(0.7351067,0,0,0.7351067,-29.920331,32.457794)">
      <path style="opacity:0.31818183;fill:none;stroke:#ffffff;stroke-width:0.81855905;stroke-linecap:butt;stroke-linejoin:miter;stroke-miterlimit:4;stroke-opacity:1;stroke-dashoffset:0;marker:none;visibility:visible;display:inline;overflow:visible" d="m 135.89863,33.326889 7.39977,0 c 0.63078,0 1.13859,0.50781 1.13859,1.138589 l -0.007,7.431884 c 0,0.630778 -0.48812,1.036271 -1.1189,1.036271 l -7.41294,0 c -0.63078,0 -1.13859,-0.507812 -1.13859,-1.138591 l 0,-7.329564 c 0,-0.630779 0.50781,-1.138589 1.13859,-1.138589 z" id="path6242"/>
      <rect x="135.41202" y="33.977177" width="8.1866875" style="fill:#3465a4;fill-opacity:1;fill-rule:nonzero;stroke:#757575;stroke-width:0.81855911;stroke-linecap:butt;stroke-linejoin:miter;stroke-miterlimit:4;stroke-opacity:1;stroke-dasharray:none;stroke-dashoffset:0;marker:none;visibility:visible;display:inline;overflow:visible" rx="0.31210217" height="8.1548634" ry="0.31210217" id="rect6244"/>
      <path style="opacity:0.39772728;fill:url(#radialGradient6248);fill-opacity:1;fill-rule:nonzero;stroke:none;stroke-width:0.99999958;marker:none;visibility:visible;display:inline;overflow:visible" d="m 135.90263,38.801773 c 2.96153,0.271089 4.52477,-1.183395 7.25911,-1.27101 l 0.0202,-3.151038 -7.29468,-0.0049 0.0153,4.426984 z" id="path6246"/>
    </g>
    <g style="fill:#d9bb7a;stroke:#816647;stroke-width:1.7832737;stroke-miterlimit:4;stroke-dasharray:none" id="g6252" transform="matrix(0.5607664,0,0,0.5607664,56.696607,35.766965)">
      <rect x="25.836412" width="26.680738" height="24.147757" y="61.298153" id="rect6254" style="fill:#cccccf;fill-opacity:1;fill-rule:nonzero;stroke:#666666;stroke-width:1.7832737;stroke-linecap:round;stroke-linejoin:round;stroke-miterlimit:4;stroke-opacity:1;stroke-dasharray:none;stroke-dashoffset:0;marker:none;visibility:visible;display:inline;overflow:visible;enable-background:accumulate"/>
      <path style="fill:#d9bb7a;fill-rule:evenodd;stroke:#666666;stroke-width:1.7832737;stroke-linecap:butt;stroke-linejoin:miter;stroke-miterlimit:4;stroke-opacity:1;stroke-dasharray:none" d="m 38.877493,61.972923 -0.07689,22.629354" id="path6256"/>
    </g>
    <g id="g7048">
      <path style="opacity:0.31818183;fill:none;stroke:#ffffff;stroke-width:0.60172826;stroke-linecap:butt;stroke-linejoin:miter;stroke-miterlimit:4;stroke-opacity:1;stroke-dashoffset:0;marker:none;visibility:visible;display:inline;overflow:visible" d="m 26.493909,57.057929 5.439621,0 c 0.463691,0 0.836985,0.373295 0.836985,0.836985 l -0.0048,5.463228 c 0,0.463689 -0.35882,0.761769 -0.822511,0.761769 l -5.449302,0 c -0.46369,0 -0.836985,-0.373296 -0.836985,-0.836986 l 0,-5.388011 c 0,-0.46369 0.373295,-0.836985 0.836985,-0.836985 z" id="path6997"/>
      <rect x="26.136198" y="57.535961" width="6.0180888" style="fill:#3465a4;fill-opacity:1;fill-rule:nonzero;stroke:#757575;stroke-width:0.60172826;stroke-linecap:butt;stroke-linejoin:miter;stroke-miterlimit:4;stroke-opacity:1;stroke-dasharray:none;stroke-dashoffset:0;marker:none;visibility:visible;display:inline;overflow:visible" rx="0.2294284" height="5.9946947" ry="0.2294284" id="rect6999"/>
      <path style="opacity:0.39772728;fill:url(#radialGradient7040);fill-opacity:1;fill-rule:nonzero;stroke:none;stroke-width:0.99999958;marker:none;visibility:visible;display:inline;overflow:visible" d="m 26.49685,61.082553 c 2.17704,0.19928 3.326189,-0.869921 5.33622,-0.934328 l 0.01488,-2.316349 -5.362368,-0.0036 0.01127,3.254305 z" id="path7001"/>
    </g>
    <g id="g7015" transform="matrix(0.7351067,0,0,0.7351067,-44.415583,32.660427)">
      <path style="opacity:0.31818183;fill:none;stroke:#ffffff;stroke-width:0.81855905;stroke-linecap:butt;stroke-linejoin:miter;stroke-miterlimit:4;stroke-opacity:1;stroke-dashoffset:0;marker:none;visibility:visible;display:inline;overflow:visible" d="m 135.89863,33.326889 7.39977,0 c 0.63078,0 1.13859,0.50781 1.13859,1.138589 l -0.007,7.431884 c 0,0.630778 -0.48812,1.036271 -1.1189,1.036271 l -7.41294,0 c -0.63078,0 -1.13859,-0.507812 -1.13859,-1.138591 l 0,-7.329564 c 0,-0.630779 0.50781,-1.138589 1.13859,-1.138589 z" id="path7017"/>
      <rect x="135.41202" y="33.977177" width="8.1866875" style="fill:#3465a4;fill-opacity:1;fill-rule:nonzero;stroke:#757575;stroke-width:0.81855911;stroke-linecap:butt;stroke-linejoin:miter;stroke-miterlimit:4;stroke-opacity:1;stroke-dasharray:none;stroke-dashoffset:0;marker:none;visibility:visible;display:inline;overflow:visible" rx="0.31210217" height="8.1548634" ry="0.31210217" id="rect7019"/>
      <path style="opacity:0.39772728;fill:url(#radialGradient7023);fill-opacity:1;fill-rule:nonzero;stroke:none;stroke-width:0.99999958;marker:none;visibility:visible;display:inline;overflow:visible" d="m 135.90263,38.801773 c 2.96153,0.271089 4.52477,-1.183395 7.25911,-1.27101 l 0.0202,-3.151038 -7.29468,-0.0049 0.0153,4.426984 z" id="path7021"/>
    </g>
    <g id="g7025" transform="matrix(0.7351067,0,0,0.7351067,-15.425079,32.76175)">
      <path style="opacity:0.31818183;fill:none;stroke:#ffffff;stroke-width:0.81855905;stroke-linecap:butt;stroke-linejoin:miter;stroke-miterlimit:4;stroke-opacity:1;stroke-dashoffset:0;marker:none;visibility:visible;display:inline;overflow:visible" d="m 135.89863,33.326889 7.39977,0 c 0.63078,0 1.13859,0.50781 1.13859,1.138589 l -0.007,7.431884 c 0,0.630778 -0.48812,1.036271 -1.1189,1.036271 l -7.41294,0 c -0.63078,0 -1.13859,-0.507812 -1.13859,-1.138591 l 0,-7.329564 c 0,-0.630779 0.50781,-1.138589 1.13859,-1.138589 z" id="path7027"/>
      <rect x="135.41202" y="33.977177" width="8.1866875" style="fill:#3465a4;fill-opacity:1;fill-rule:nonzero;stroke:#757575;stroke-width:0.81855911;stroke-linecap:butt;stroke-linejoin:miter;stroke-miterlimit:4;stroke-opacity:1;stroke-dasharray:none;stroke-dashoffset:0;marker:none;visibility:visible;display:inline;overflow:visible" rx="0.31210217" height="8.1548634" ry="0.31210217" id="rect7029"/>
      <path style="opacity:0.39772728;fill:url(#radialGradient7033);fill-opacity:1;fill-rule:nonzero;stroke:none;stroke-width:0.99999958;marker:none;visibility:visible;display:inline;overflow:visible" d="m 135.90263,38.801773 c 2.96153,0.271089 4.52477,-1.183395 7.25911,-1.27101 l 0.0202,-3.151038 -7.29468,-0.0049 0.0153,4.426984 z" id="path7031"/>
    </g>
    <path style="opacity:0.39772728;fill:url(#radialGradient2568);fill-opacity:1;fill-rule:nonzero;stroke:none;stroke-width:0.99999958;marker:none;visibility:visible;display:inline;overflow:visible" d="m 26.123415,77.326118 c 2.519824,0.399402 3.849912,-1.743517 6.17643,-1.872603 l 0.01722,-4.642484 -6.206695,-0.0073 0.01304,6.522358 z" id="path7044"/>
    <path style="opacity:0.39772728;fill:url(#radialGradient2565);fill-opacity:1;fill-rule:nonzero;stroke:none;stroke-width:0.99999958;marker:none;visibility:visible;display:inline;overflow:visible" d="m 33.72236,77.368335 c 2.519824,0.399402 3.849912,-1.743517 6.17643,-1.872603 l 0.01722,-4.642484 -6.206695,-0.0073 0.01304,6.522358 z" id="path7053"/>
    <path style="opacity:0.39772728;fill:url(#radialGradient2562);fill-opacity:1;fill-rule:nonzero;stroke:none;stroke-width:0.99999958;marker:none;visibility:visible;display:inline;overflow:visible" d="m 79.231596,77.199469 c 2.519824,0.399402 3.849912,-1.743517 6.17643,-1.872603 l 0.01722,-4.642484 -6.206695,-0.0073 0.01304,6.522358 z" id="path7057"/>
    <path style="opacity:0.39772728;fill:url(#radialGradient2559);fill-opacity:1;fill-rule:nonzero;stroke:none;stroke-width:0.99999958;marker:none;visibility:visible;display:inline;overflow:visible" d="m 71.717083,77.115037 c 2.519824,0.399402 3.849912,-1.743517 6.17643,-1.872603 l 0.01722,-4.642484 -6.206695,-0.0073 0.01304,6.522358 z" id="path7061"/>
  </g>
</g></svg>