<svg contentScriptType="text/ecmascript" xmlns:xlink="http://www.w3.org/1999/xlink" zoomAndPan="magnify" contentStyleType="text/css" preserveAspectRatio="xMidYMid meet" xmlns="http://www.w3.org/2000/svg" version="1.0"><g id="_C1166B_SYMBOLS_ECT_C1166B_ECT_AIR__4_HIGH_ALARM_SVG"><rect x="59.0" fill="red" width="82.0" height="166.0" y="17.0" opacity="0"/><g id="ECT/C1166B_ECT_AIR__4_High_Alarm" transform="matrix(1.000000, 0, 0, 1.000000, 100.000000, 100.000000)">

  
  <path fill="none" stroke-width="2px" d="M40,-9 C40,-49 22,-79 1,-83 -22,-83 -38,-49 -40,-9 -40,31 -22,61 1,65 22,65 38,31 40,-5 40,-9 40,-9 40,-9 40,-9 40,-9 40,-9 40,-9 40,-9 40,-9 Z" class="AnClosedSpline" stroke="#FF0000"/>
  
  <rect x="-40px" y="66px" fill="#FF0000" width="14px" fill-rule="evenodd" class="AnRectangle" height="16px"/>

  
  <polygon fill="#FF0000" class="AnPolygon" fill-rule="evenodd" points="26,66 26,82 40,82 40,66 "/>

  
  <polygon fill="#FF0000" class="AnPolygon" fill-rule="evenodd" points="-40,67 40,67 40,-13 39,-27 36,-41 32,-52 27,-62 22,-69 -22,-69 -26,-64 -28,-60 -32,-51 -35,-41 -37,-32 -39,-21 -40,-13 -40,67 "/>

</g></g></svg>