<svg contentScriptType="text/ecmascript" xmlns:xlink="http://www.w3.org/1999/xlink" zoomAndPan="magnify" xmlns:svg="http://www.w3.org/2000/svg" contentStyleType="text/css" preserveAspectRatio="xMidYMid meet" xmlns="http://www.w3.org/2000/svg" version="1.0"><g id="_STRESSTEST_SYMBOLS_STRESSTEST_OSA_OSA_DRIVE-OPTICAL_SVG">
  <defs id="defs3">
    <radialGradient gradientTransform="matrix(-2.774389,0,0,1.969706,112.7623,-872.8854)" xmlns:xlink="http://www.w3.org/1999/xlink" id="radialGradient6719" gradientUnits="userSpaceOnUse" xlink:show="other" xlink:type="simple" r="117.14286" cx="605.71429" fx="605.71429" cy="486.64789" fy="486.64789" xlink:href="#linearGradient5060" xlink:actuate="onLoad"/>
    <linearGradient xlink:actuate="onLoad" xlink:type="simple" id="linearGradient5060" xlink:show="other" xmlns:xlink="http://www.w3.org/1999/xlink">
      <stop style="stop-color:#000000;stop-opacity:1" offset="0" id="stop5062"/>
      <stop style="stop-color:#000000;stop-opacity:0" offset="1" id="stop5064"/>
    </linearGradient>
    <radialGradient gradientTransform="matrix(2.774389,0,0,1.969706,-1891.633,-872.8854)" xmlns:xlink="http://www.w3.org/1999/xlink" id="radialGradient6717" gradientUnits="userSpaceOnUse" xlink:show="other" xlink:type="simple" r="117.14286" cx="605.71429" fx="605.71429" cy="486.64789" fy="486.64789" xlink:href="#linearGradient5060" xlink:actuate="onLoad"/>
    <linearGradient xlink:actuate="onLoad" xlink:type="simple" id="linearGradient5048" xlink:show="other" xmlns:xlink="http://www.w3.org/1999/xlink">
      <stop style="stop-color:#000000;stop-opacity:0" offset="0" id="stop5050"/>
      <stop style="stop-color:#000000;stop-opacity:1" offset="0.5" id="stop5056"/>
      <stop style="stop-color:#000000;stop-opacity:0" offset="1" id="stop5052"/>
    </linearGradient>
    <linearGradient gradientTransform="matrix(2.774389,0,0,1.969706,-1892.179,-872.8854)" x1="302.85715" xmlns:xlink="http://www.w3.org/1999/xlink" y1="366.64789" x2="302.85715" xlink:href="#linearGradient5048" gradientUnits="userSpaceOnUse" y2="609.50507" xlink:type="simple" xlink:actuate="onLoad" id="linearGradient6715" xlink:show="other"/>
    <linearGradient xlink:actuate="onLoad" xlink:type="simple" id="linearGradient2351" xlink:show="other" xmlns:xlink="http://www.w3.org/1999/xlink">
      <stop style="stop-color:#656565;stop-opacity:1" offset="0" id="stop2353"/>
      <stop style="stop-color:#656565;stop-opacity:0" offset="1" id="stop2355"/>
    </linearGradient>
    <linearGradient xlink:actuate="onLoad" xlink:type="simple" id="linearGradient2345" xlink:show="other" xmlns:xlink="http://www.w3.org/1999/xlink">
      <stop style="stop-color:#d9d9d9;stop-opacity:1" offset="0" id="stop2347"/>
      <stop style="stop-color:#eeeeee;stop-opacity:0" offset="1" id="stop2349"/>
    </linearGradient>
    <linearGradient xlink:actuate="onLoad" xlink:type="simple" id="linearGradient2329" xlink:show="other" xmlns:xlink="http://www.w3.org/1999/xlink">
      <stop style="stop-color:#000000;stop-opacity:1" offset="0" id="stop2331"/>
      <stop style="stop-color:#000000;stop-opacity:0" offset="1" id="stop2333"/>
    </linearGradient>
    <linearGradient xlink:actuate="onLoad" xlink:type="simple" id="linearGradient2315" xlink:show="other" xmlns:xlink="http://www.w3.org/1999/xlink">
      <stop style="stop-color:#656565;stop-opacity:1" offset="0" id="stop2317"/>
      <stop style="stop-color:#656565;stop-opacity:0" offset="1" id="stop2319"/>
    </linearGradient>
    <linearGradient xlink:actuate="onLoad" xlink:type="simple" id="linearGradient2165" xlink:show="other" xmlns:xlink="http://www.w3.org/1999/xlink">
      <stop style="stop-color:#000000;stop-opacity:1" offset="0" id="stop2167"/>
      <stop style="stop-color:#000000;stop-opacity:0" offset="1" id="stop2169"/>
    </linearGradient>
    <linearGradient x1="14.9966" xmlns:xlink="http://www.w3.org/1999/xlink" y1="11.1885" x2="32.511002" gradientUnits="userSpaceOnUse" y2="34.307499" xlink:type="simple" xlink:actuate="onLoad" id="aigrd1" xlink:show="other">
      <stop style="stop-color:#ebebeb;stop-opacity:1" offset="0" id="stop3034"/>
      <stop style="stop-color:#ffffff;stop-opacity:1" offset="0.5" id="stop3036"/>
      <stop style="stop-color:#ebebeb;stop-opacity:1" offset="1" id="stop3038"/>
    </linearGradient>
    <linearGradient xlink:actuate="onLoad" xlink:type="simple" id="linearGradient6036" xlink:show="other" xmlns:xlink="http://www.w3.org/1999/xlink">
      <stop style="stop-color:#ffffff;stop-opacity:1" offset="0" id="stop6038"/>
      <stop style="stop-color:#ffffff;stop-opacity:0" offset="1" id="stop6040"/>
    </linearGradient>
    <linearGradient xlink:actuate="onLoad" xlink:type="simple" id="linearGradient4254" xlink:show="other" xmlns:xlink="http://www.w3.org/1999/xlink">
      <stop style="stop-color:#ffffff;stop-opacity:1" offset="0" id="stop4256"/>
      <stop style="stop-color:#ffffff;stop-opacity:0" offset="1" id="stop4258"/>
    </linearGradient>
    <linearGradient xlink:actuate="onLoad" xlink:type="simple" id="linearGradient4244" xlink:show="other" xmlns:xlink="http://www.w3.org/1999/xlink">
      <stop style="stop-color:#e4e4e4;stop-opacity:1" offset="0" id="stop4246"/>
      <stop style="stop-color:#d3d3d3;stop-opacity:1" offset="1" id="stop4248"/>
    </linearGradient>
    <linearGradient xlink:actuate="onLoad" xlink:type="simple" id="linearGradient4228" xlink:show="other" xmlns:xlink="http://www.w3.org/1999/xlink">
      <stop style="stop-color:#bbbbbb;stop-opacity:1" offset="0" id="stop4230"/>
      <stop style="stop-color:#9f9f9f;stop-opacity:1" offset="1" id="stop4232"/>
    </linearGradient>
    <linearGradient gradientTransform="translate(0,-1.944537)" x1="7.6046205" xmlns:xlink="http://www.w3.org/1999/xlink" y1="28.481176" x2="36.183067" xlink:href="#linearGradient4228" gradientUnits="userSpaceOnUse" y2="40.943935" xlink:type="simple" xlink:actuate="onLoad" id="linearGradient4234" xlink:show="other"/>
    <radialGradient gradientTransform="matrix(1.286242,0.781698,-0.710782,1.169552,-2.354348,-6.821398)" xmlns:xlink="http://www.w3.org/1999/xlink" id="radialGradient4250" gradientUnits="userSpaceOnUse" xlink:show="other" xlink:type="simple" r="20.935818" cx="15.571491" fx="15.571491" cy="2.958519" fy="2.958519" xlink:href="#linearGradient4244" xlink:actuate="onLoad"/>
    <linearGradient gradientTransform="translate(0,-1.944537)" x1="12.378357" xmlns:xlink="http://www.w3.org/1999/xlink" y1="4.433136" x2="44.0961" xlink:href="#linearGradient4254" gradientUnits="userSpaceOnUse" y2="47.620636" xlink:type="simple" xlink:actuate="onLoad" id="linearGradient4260" xlink:show="other"/>
    <linearGradient gradientTransform="matrix(0.952531,0,0,0.656725,1.345471,19.22026)" x1="14.9966" xmlns:xlink="http://www.w3.org/1999/xlink" y1="11.1885" x2="32.511002" xlink:href="#aigrd1" gradientUnits="userSpaceOnUse" y2="34.307499" xlink:type="simple" xlink:actuate="onLoad" id="linearGradient2155" xlink:show="other"/>
    <linearGradient gradientTransform="matrix(0.738933,0,0,0.509459,6.215767,21.99197)" x1="10.50172" xmlns:xlink="http://www.w3.org/1999/xlink" y1="3.6100161" x2="48.798885" xlink:href="#linearGradient6036" gradientUnits="userSpaceOnUse" y2="54.698483" xlink:type="simple" xlink:actuate="onLoad" id="linearGradient2161" xlink:show="other"/>
    <radialGradient gradientTransform="matrix(1,0,0,0.695,0,10.29969)" xmlns:xlink="http://www.w3.org/1999/xlink" id="radialGradient2171" gradientUnits="userSpaceOnUse" xlink:show="other" xlink:type="simple" r="17.67767" cx="24.218407" fx="24.218407" cy="33.769478" fy="33.769478" xlink:href="#linearGradient2165" xlink:actuate="onLoad"/>
    <linearGradient x1="24.306797" xmlns:xlink="http://www.w3.org/1999/xlink" y1="33.693432" x2="24.306797" xlink:href="#linearGradient2351" gradientUnits="userSpaceOnUse" y2="37.609333" xlink:type="simple" xlink:actuate="onLoad" id="linearGradient2321" xlink:show="other"/>
    <linearGradient x1="23.375" xmlns:xlink="http://www.w3.org/1999/xlink" y1="28.433596" x2="23.375" xlink:href="#linearGradient2329" gradientUnits="userSpaceOnUse" y2="32.938416" xlink:type="simple" xlink:actuate="onLoad" id="linearGradient2335" xlink:show="other"/>
    <linearGradient x1="23.375" xmlns:xlink="http://www.w3.org/1999/xlink" y1="28.433596" x2="23.375" xlink:href="#linearGradient2329" gradientUnits="userSpaceOnUse" y2="32.938416" xlink:type="simple" xlink:actuate="onLoad" id="linearGradient2337" xlink:show="other"/>
    <linearGradient gradientTransform="matrix(1,0,0,0.799429,0,6.604619)" x1="24.306797" xmlns:xlink="http://www.w3.org/1999/xlink" y1="32.790924" x2="24.306797" xlink:href="#linearGradient2315" gradientUnits="userSpaceOnUse" y2="34.201233" xlink:type="simple" xlink:actuate="onLoad" id="linearGradient2341" xlink:show="other"/>
    <linearGradient gradientTransform="matrix(0.800126,0,0,0.551649,4.725541,20.59938)" x1="26.332899" xmlns:xlink="http://www.w3.org/1999/xlink" y1="34.172115" x2="26.193645" xlink:href="#linearGradient2345" gradientUnits="userSpaceOnUse" y2="21.987923" xlink:type="simple" xlink:actuate="onLoad" id="linearGradient2343" xlink:show="other"/>
  </defs>
  <g id="layer2">
    <g id="g2456" transform="matrix(2.6465446,0,0,2.6465446,-0.3112484,0.7374991)">
      <g id="g6707" transform="matrix(0.0245274,0,0,0.02086758,45.69054,34.82775)">
        <rect x="-1559.2523" width="1339.6335" height="478.35718" y="-150.69685" id="rect6709" style="opacity:0.40206185;fill:url(#linearGradient6715);fill-opacity:1;fill-rule:nonzero;stroke:none;stroke-width:1;marker:none;visibility:visible;display:inline;overflow:visible"/>
        <path style="opacity:0.40206185;fill:url(#radialGradient6717);fill-opacity:1;fill-rule:nonzero;stroke:none;stroke-width:1;marker:none;visibility:visible;display:inline;overflow:visible" d="m -219.61876,-150.68038 c 0,0 0,478.33079 0,478.33079 142.874166,0.90045 345.40022,-107.16966 345.40014,-239.196175 0,-132.026537 -159.436816,-239.134595 -345.40014,-239.134615 z" id="path6711"/>
        <path style="opacity:0.40206185;fill:url(#radialGradient6719);fill-opacity:1;fill-rule:nonzero;stroke:none;stroke-width:1;marker:none;visibility:visible;display:inline;overflow:visible" d="m -1559.2523,-150.68038 c 0,0 0,478.33079 0,478.33079 -142.8742,0.90045 -345.4002,-107.16966 -345.4002,-239.196175 0,-132.026537 159.4368,-239.134595 345.4002,-239.134615 z" id="path6713"/>
      </g>
      <path style="fill:none;stroke:#535353;stroke-width:2;stroke-linecap:round;stroke-linejoin:round;stroke-miterlimit:4;stroke-opacity:1;stroke-dasharray:none" d="m 11.28569,6.0180852 c -0.625,0 -1.031249,0.2901802 -1.281248,0.843753 -10e-7,0 -6.4687505,17.1035638 -6.4687505,17.1035638 0,0 -0.25,0.671559 -0.25,1.78125 0,0 0,9.649968 0,9.649968 0,1.082613 0.6577855,1.625002 1.65625,1.625 l 38.5624985,0 c 0.984853,0 1.59375,-0.71818 1.59375,-1.84375 l 0,-9.649968 c 0,0 0.105963,-0.770423 -0.09375,-1.3125 L 38.28569,7.0180888 C 38.101165,6.506182 37.648785,6.0299905 37.16069,6.0180852 l -25.875,0 z" id="path4196"/>
      <path d="m 41.896076,33.769478 c 0.0025,6.786609 -7.912763,12.289181 -17.677669,12.289181 -9.764907,0 -17.680214,-5.502572 -17.6776698,-12.289181 C 6.538193,26.982869 14.4535,21.480297 24.218407,21.480297 c 9.764906,0 17.680213,5.502572 17.677669,12.289181 l 0,0 z" id="path2163" style="opacity:0.56571428;fill:url(#radialGradient2171);fill-opacity:1;fill-rule:evenodd;stroke:none;stroke-width:1;marker:none;visibility:visible;display:inline;overflow:visible" transform="translate(0.883883,1.260942e-6)"/>
      <path style="fill:url(#linearGradient4234);fill-opacity:1;fill-rule:evenodd;stroke:none" d="m 3.2735915,25.052276 0.7646021,-0.692215 37.6096894,0.0625 3.462407,0.317298 0,10.438532 c 0,1.125569 -0.607018,1.843331 -1.591871,1.843331 l -38.5829876,0 c -0.9984647,0 -1.6618399,-0.542051 -1.6618399,-1.624664 l 0,-10.344782 z" id="path4170"/>
      <path style="fill:url(#radialGradient4250);fill-opacity:1;fill-rule:evenodd;stroke:none" d="m 3.5490842,23.969868 c -0.7142857,1.464286 -6.156e-4,2.392857 1.0357143,2.392857 0,0 38.9999985,0 38.9999985,0 1.119047,-0.02381 1.845238,-1.011905 1.428571,-2.142858 L 38.299082,7.0091618 C 38.114558,6.497255 37.64432,6.0210632 37.156225,6.0091582 l -25.857142,0 c -0.625,0 -1.035714,0.3035732 -1.285713,0.857146 0,0 -6.4642858,17.1035638 -6.4642858,17.1035638 z" id="path3093"/>
      <path style="fill:#ffffff;fill-opacity:1;fill-rule:evenodd;stroke:none" d="m 44.796162,23.684152 c 0.06352,1.249974 -0.414003,2.31584 -1.322116,2.34375 0,0 -38.1187164,-1e-6 -38.1187163,0 -1.2892319,0 -1.867736,-0.324947 -2.0840507,-0.868056 0.091761,0.944332 0.8258174,1.649306 2.0840507,1.649306 -1e-7,-1e-6 38.1187163,0 38.1187163,0 1.076007,-0.03307 1.752805,-1.424024 1.352164,-2.994791 l -0.03005,-0.130209 z" id="path4201"/>
      <path style="fill:none;stroke:url(#linearGradient4260);stroke-width:1.00000024;stroke-linecap:round;stroke-linejoin:round;stroke-miterlimit:4;stroke-opacity:1;stroke-dasharray:none" d="m 11.642515,6.4711801 c -0.601692,0 -0.992791,0.2793586 -1.233466,0.8122873 -10e-7,0 -6.4150149,16.5907286 -6.4150149,16.5907286 0,0 -0.2406768,0.646515 -0.2406768,1.714823 0,0 0,9.290096 0,9.290096 0,1.35474 0.4440561,1.626899 1.5944841,1.626899 l 37.6869046,0 c 1.323126,0 1.534316,-0.316397 1.534316,-1.837492 l 0,-9.290096 c 0,0 0.10201,-0.741691 -0.09025,-1.263553 L 37.885616,7.308891 C 37.707973,6.8160745 37.334964,6.4826414 36.865071,6.4711801 l -25.222556,0 z" id="path4252"/>
      <g id="g2142" transform="matrix(0.933652,0,0,0.933652,1.612716,-0.367774)">
        <rect x="5.3414402" width="37.930714" height="3.8650389" y="32.363384" id="rect2151" style="fill:url(#linearGradient2321);fill-opacity:1;fill-rule:evenodd;stroke:none;stroke-width:1;marker:none;visibility:visible;display:inline;overflow:visible"/>
        <path style="fill:url(#linearGradient2155);fill-rule:nonzero;stroke:none" d="m 7.9921136,31.810344 c -0.274935,0.831022 -0.46875,1.703398 -0.46875,2.59375 -1e-6,6.370233 7.4479484,11.46875 16.6874994,11.46875 9.23955,0 16.656251,-5.098517 16.656251,-11.46875 0,-0.886583 -0.164823,-1.765951 -0.4375,-2.59375 l -15.562501,0 c 1.839817,0.245167 3.34375,1.259355 3.34375,2.59375 0,1.510468 -1.809179,2.75 -4,2.75 -2.190822,0 -4,-1.239532 -4,-2.75 1e-6,-1.334395 1.503933,-2.348583 3.34375,-2.59375 l -15.5624994,0 z" id="path3040"/>
        <path style="fill:url(#linearGradient2343);fill-rule:nonzero;stroke:#808080;stroke-miterlimit:4;stroke-opacity:1" d="m 7.8358636,32.341594 c -0.172554,0.665807 -0.3125,1.361287 -0.3125,2.0625 0,6.370233 7.4479484,11.46875 16.6874994,11.46875 9.23955,0 16.656251,-5.098517 16.656251,-11.46875 0,-0.701213 -0.139946,-1.396693 -0.3125,-2.0625 l -32.7187504,0 z" id="path3049"/>
        <path style="opacity:0.10999995;fill-rule:nonzero;stroke:none" d="m 16.572139,31.835312 c -0.773487,0.919977 -1.324956,1.459319 -1.324956,2.587596 -10e-7,3.473033 4.110394,6.206372 9.030621,6.206372 5.037376,-1e-6 9.030621,-2.814107 9.030621,-6.206372 0,-1.144851 -0.586243,-1.67305 -1.359823,-2.587596 l -5.376955,0 c 1.677886,0.543429 2.622441,1.236937 2.622441,2.587596 1e-6,1.857669 -2.221874,3.382124 -4.916284,3.382124 -2.694412,0 -4.916284,-1.524455 -4.916284,-3.382124 0,-1.351442 0.919333,-2.044591 2.598774,-2.587596 l -5.388155,0 z" id="path3051"/>
        <path style="fill:#ffffff;fill-opacity:0.41807909;fill-rule:nonzero;stroke:none" d="m 18.573984,44.74288 3.7888,-7.530836 c -0.877149,-0.21569 -1.548583,-0.639114 -1.972425,-1.19631 l -10.378482,3.588283 c 1.749921,2.385447 4.794658,4.240461 8.562107,5.138863 z" id="path4214"/>
        <path style="opacity:0.54644811;fill:none;stroke:url(#linearGradient2161);stroke-miterlimit:4;stroke-opacity:1" d="m 8.9118137,32.267515 c -0.248767,0.739872 -0.4040405,1.679649 -0.4040405,2.473402 0,5.590576 7.5943828,10.072151 15.7030978,10.072151 8.108716,-1e-6 15.502276,-4.481576 15.502276,-10.072151 -10e-7,-0.794292 -0.183805,-1.733071 -0.4329,-2.473402 l -30.3684333,0 z" id="path5264"/>
        <rect x="5.3414402" width="37.863773" height="1.1911809" y="31.62747" id="rect4963" style="fill:url(#linearGradient2341);fill-opacity:1;fill-rule:evenodd;stroke:none;stroke-width:1;marker:none;visibility:visible;display:inline;overflow:visible;font-family:Bitstream Vera Sans"/>
      </g>
      <path style="opacity:0.36000001;fill:url(#linearGradient2335);fill-opacity:1;fill-rule:evenodd;stroke:none" d="m 26.3125,30.25 13.75,0 c 0,0 0.541459,1.120993 -0.0625,3.375 0,0 -13.3125,-0.5 -13.3125,-0.5 1.850359,-1.850359 -0.375,-2.875 -0.375,-2.875 z" id="path2325"/>
      <path style="opacity:0.36000001;fill:url(#linearGradient2337);fill-opacity:1;fill-rule:evenodd;stroke:none" d="m 22.098146,30.25 -13.75,0 c 0,0 -0.541459,1.120993 0.0625,3.375 0,0 13.3125,-0.5 13.3125,-0.5 -1.850359,-1.850359 0.375,-2.875 0.375,-2.875 z" id="path2327"/>
    </g>
  </g>
</g></svg>