<svg contentScriptType="text/ecmascript" xmlns:xlink="http://www.w3.org/1999/xlink" zoomAndPan="magnify" xmlns:svg="http://www.w3.org/2000/svg" contentStyleType="text/css" preserveAspectRatio="xMidYMid meet" xmlns="http://www.w3.org/2000/svg" version="1.0"><g id="_STRESSTEST_SYMBOLS_STRESSTEST_OSA_OSA_MEDIA-FLASH_SVG">
  <defs id="defs3">
    <linearGradient xlink:actuate="onLoad" xlink:type="simple" id="linearGradient6210" xlink:show="other" xmlns:xlink="http://www.w3.org/1999/xlink">
      <stop style="stop-color:#ffffff;stop-opacity:1" offset="0" id="stop6212"/>
      <stop style="stop-color:#ffffff;stop-opacity:0" offset="1" id="stop6214"/>
    </linearGradient>
    <linearGradient xlink:actuate="onLoad" xlink:type="simple" id="linearGradient6196" xlink:show="other" xmlns:xlink="http://www.w3.org/1999/xlink">
      <stop style="stop-color:#edd400;stop-opacity:1" offset="0" id="stop6198"/>
      <stop style="stop-color:#c3af07;stop-opacity:1" offset="0.5" id="stop6204"/>
      <stop style="stop-color:#ffeb3e;stop-opacity:1" offset="1" id="stop6200"/>
    </linearGradient>
    <linearGradient xlink:actuate="onLoad" xlink:type="simple" id="linearGradient6115" xlink:show="other" xmlns:xlink="http://www.w3.org/1999/xlink">
      <stop style="stop-color:#555753;stop-opacity:1" offset="0" id="stop6117"/>
      <stop style="stop-color:#3e3f3c;stop-opacity:1" offset="1" id="stop6119"/>
    </linearGradient>
    <linearGradient xlink:actuate="onLoad" xlink:type="simple" id="linearGradient6099" xlink:show="other" xmlns:xlink="http://www.w3.org/1999/xlink">
      <stop style="stop-color:#eeeeec;stop-opacity:1" offset="0" id="stop6101"/>
      <stop style="stop-color:#dededa;stop-opacity:1" offset="0.8918919" id="stop6107"/>
      <stop style="stop-color:#838375;stop-opacity:1" offset="1" id="stop6103"/>
    </linearGradient>
    <filter x="-0.068965517" color-interpolation-filters="sRGB" y="-0.62068963" width="1.137931" xmlns:xlink="http://www.w3.org/1999/xlink" xlink:type="simple" xlink:actuate="onLoad" height="2.2413793" id="filter5339" xlink:show="other">
      <feGaussianBlur stdDeviation="1.1886709" id="feGaussianBlur5341"/>
    </filter>
    <linearGradient gradientTransform="matrix(1,0,0,0.982516,0,-0.07076703)" x1="21.617008" xmlns:xlink="http://www.w3.org/1999/xlink" y1="4.6076145" x2="26.443777" xlink:href="#linearGradient6115" gradientUnits="userSpaceOnUse" y2="47.007381" xlink:type="simple" xlink:actuate="onLoad" id="linearGradient2480" xlink:show="other"/>
    <linearGradient x1="29.374996" xmlns:xlink="http://www.w3.org/1999/xlink" y1="21.741114" x2="22.101643" xlink:href="#linearGradient6196" gradientUnits="userSpaceOnUse" y2="7.6786127" xlink:type="simple" xlink:actuate="onLoad" id="linearGradient2482" xlink:show="other"/>
    <linearGradient gradientTransform="matrix(1,0,0,0.934004,0,1.557982)" x1="22.797205" xmlns:xlink="http://www.w3.org/1999/xlink" y1="39.679859" x2="22.797205" xlink:href="#linearGradient6099" gradientUnits="userSpaceOnUse" y2="46.635937" xlink:type="simple" xlink:actuate="onLoad" id="linearGradient2484" xlink:show="other"/>
    <linearGradient x1="16.845879" xmlns:xlink="http://www.w3.org/1999/xlink" y1="8.6784801" x2="30.507824" xlink:href="#linearGradient6210" gradientUnits="userSpaceOnUse" y2="78.505272" xlink:type="simple" xlink:actuate="onLoad" id="linearGradient2486" xlink:show="other"/>
  </defs>
  <g id="layer1">
    <g id="g2444" transform="matrix(2.3321332,0,0,2.3321332,8.169405,8.1614737)">
      <rect x="3.3587573" y="41.989594" transform="matrix(0.965812,0,0,1,0.8219361,0)" width="41.365746" style="opacity:0.43373497;fill:#000000;fill-opacity:1;fill-rule:nonzero;stroke:none;stroke-width:1.50843191px;marker:none;visibility:visible;display:inline;overflow:visible;filter:url(#filter5339);enable-background:accumulate" rx="2.3794458" height="4.5961943" ry="2.2980971" id="rect4692"/>
      <path style="fill:url(#linearGradient2480);fill-opacity:1;fill-rule:evenodd;stroke:#2e3436;stroke-width:0.99999976;stroke-linecap:butt;stroke-linejoin:miter;stroke-miterlimit:4;stroke-opacity:1;stroke-dasharray:none;stroke-dashoffset:0.8;marker:none;visibility:visible;display:inline;overflow:visible" d="m 5.4999978,3.2368595 0,40.3819985 c 0.069706,1.050208 0.9987371,2.102352 2.3834236,1.997388 l 31.8518566,0 c 0.893566,-0.04311 1.777774,-0.786202 1.764706,-2.257918 l 0,-36.9299882 c 0,-0.716537 -0.231247,-1.1979035 -0.756256,-1.7137337 0,0 -2.748995,-2.8354848 -2.748995,-2.8354848 -0.287262,-0.2713845 -0.463959,-0.379122 -1.259454,-0.379122 l -29.9999876,0 c -0.9375,0.061407 -1.2977936,0.9999729 -1.2352936,1.7368602 z" id="path4291"/>
      <rect x="9.4999952" y="5.616117" width="27.976646" style="fill:#edd400;fill-opacity:1;fill-rule:evenodd;stroke:#2e3436;stroke-width:3;stroke-linecap:butt;stroke-linejoin:miter;stroke-miterlimit:4;stroke-opacity:1;stroke-dasharray:none;stroke-dashoffset:0.8;marker:none;visibility:visible;display:inline;overflow:visible" rx="1.8974441" height="16.999992" ry="1.8974454" id="rect6089"/>
      <rect x="9.4999952" y="5.616117" width="27.976646" style="fill:url(#linearGradient2482);fill-opacity:1;fill-rule:evenodd;stroke:#c4a000;stroke-width:1;stroke-linecap:butt;stroke-linejoin:miter;stroke-miterlimit:4;stroke-opacity:1;stroke-dasharray:none;stroke-dashoffset:0.8;marker:none;visibility:visible;display:inline;overflow:visible" rx="1.8974441" height="16.999992" ry="1.8974454" id="rect4293"/>
      <rect x="10.578098" y="6.6162395" transform="matrix(1,0,-0.0055327,0.999985,0,0)" width="26.000004" style="opacity:0.44943824;fill:none;stroke:#ffffff;stroke-width:1.0000087;stroke-linecap:butt;stroke-linejoin:miter;stroke-miterlimit:4;stroke-opacity:1;stroke-dasharray:none;stroke-dashoffset:0.8;marker:none;visibility:visible;display:inline;overflow:visible" rx="1.1461439" height="15.00028" ry="1.1461133" id="rect4295"/>
      <path style="opacity:0.44943824;fill:#ffffff;fill-opacity:1;fill-rule:evenodd;stroke:none;stroke-width:1;marker:none;visibility:visible;display:inline;overflow:visible" d="m 12,6.116117 0,6.000003 c 7.204912,-2.8602727 15.058025,3.977999 23,2 l 0,-7.9280807 1,0 0,15.9280807 -1,0 0,-6 c -8.662984,1.940742 -15.554304,-5.045644 -23,-2 l 0,8 -1,0 0,-16.000003 1,0 z" id="path6043"/>
      <path style="opacity:0.44943824;fill:#ffffff;fill-opacity:1;fill-rule:evenodd;stroke:none;stroke-width:1;marker:none;visibility:visible;display:inline;overflow:visible" d="m 13,6.116117 0,4.734838 1,-0.239222 0,-4.495616 -1,0 z" id="path6045"/>
      <path style="opacity:0.44943824;fill:#ffffff;fill-opacity:1;fill-rule:evenodd;stroke:none;stroke-width:1;marker:none;visibility:visible;display:inline;overflow:visible" d="m 15,10.611732 0,-4.495615 1,0 0,4.407227 -1,0.08839 z" id="path6047"/>
      <path style="opacity:0.44943824;fill:#ffffff;fill-opacity:1;fill-rule:evenodd;stroke:none;stroke-width:1;marker:none;visibility:visible;display:inline;overflow:visible" d="m 17,10.523344 0,-4.407227 1,0 0,4.558061 -1,-0.150834 z" id="path6049"/>
      <path style="opacity:0.44943824;fill:#ffffff;fill-opacity:1;fill-rule:evenodd;stroke:none;stroke-width:1;marker:none;visibility:visible;display:inline;overflow:visible" d="m 19,10.895149 0,-4.779032 1,0 0,5.000003 -1,-0.220971 z" id="path6051"/>
      <path style="opacity:0.44943824;fill:#ffffff;fill-opacity:1;fill-rule:evenodd;stroke:none;stroke-width:1;marker:none;visibility:visible;display:inline;overflow:visible" d="m 21,11.274645 0,-5.158528 1,0 0,5.335305 -1,-0.176777 z" id="path6053"/>
      <path style="opacity:0.44943824;fill:#ffffff;fill-opacity:1;fill-rule:evenodd;stroke:none;stroke-width:1;marker:none;visibility:visible;display:inline;overflow:visible" d="m 23,11.804975 0,-5.688858 1,0 0,5.821441 -1,-0.132583 z" id="path6055"/>
      <path style="opacity:0.44943824;fill:#ffffff;fill-opacity:1;fill-rule:evenodd;stroke:none;stroke-width:1;marker:none;visibility:visible;display:inline;overflow:visible" d="m 25,12.335305 0,-6.219188 1,0 0,6.395965 -1,-0.176777 z" id="path6057"/>
      <path style="opacity:0.44943824;fill:#ffffff;fill-opacity:1;fill-rule:evenodd;stroke:none;stroke-width:1;marker:none;visibility:visible;display:inline;overflow:visible" d="m 27,12.733053 0,-6.616936 1,0 0,6.793713 -1,-0.176777 z" id="path6059"/>
      <path style="opacity:0.44943824;fill:#ffffff;fill-opacity:1;fill-rule:evenodd;stroke:none;stroke-width:1;marker:none;visibility:visible;display:inline;overflow:visible" d="m 29,13.219189 0,-7.103072 1,0 0,7.19146 -1,-0.08839 z" id="path6061"/>
      <path style="opacity:0.44943824;fill:#ffffff;fill-opacity:1;fill-rule:evenodd;stroke:none;stroke-width:1;marker:none;visibility:visible;display:inline;overflow:visible" d="m 31,13.395965 0,-7.279848 1,0 0,7.279849 -1,-10e-7 z" id="path6063"/>
      <path style="opacity:0.44943824;fill:#ffffff;fill-opacity:1;fill-rule:evenodd;stroke:none;stroke-width:1;marker:none;visibility:visible;display:inline;overflow:visible" d="m 33,13.395965 0,-7.279848 1,0 0,7.147266 -1,0.132582 z" id="path6065"/>
      <path style="opacity:0.44943824;fill:#ffffff;fill-opacity:1;fill-rule:evenodd;stroke:none;stroke-width:1;marker:none;visibility:visible;display:inline;overflow:visible" d="m 13,22.070139 0,-7.43068 1,-0.114331 0,7.545011 -1,0 z" id="path6067"/>
      <path style="opacity:0.44943824;fill:#ffffff;fill-opacity:1;fill-rule:evenodd;stroke:none;stroke-width:1;marker:none;visibility:visible;display:inline;overflow:visible" d="m 15,14.480935 0,7.589204 1,0 0,-7.721787 -1,0.132583 z" id="path6069"/>
      <path style="opacity:0.44943824;fill:#ffffff;fill-opacity:1;fill-rule:evenodd;stroke:none;stroke-width:1;marker:none;visibility:visible;display:inline;overflow:visible" d="m 17,14.348352 0,7.721787 1,0 0,-7.607456 -1,-0.114331 z" id="path6071"/>
      <path style="opacity:0.44943824;fill:#ffffff;fill-opacity:1;fill-rule:evenodd;stroke:none;stroke-width:1;marker:none;visibility:visible;display:inline;overflow:visible" d="m 19,14.772042 0,7.298097 1,0 0,-7.077126 -1,-0.220971 z" id="path6073"/>
      <path style="opacity:0.44943824;fill:#ffffff;fill-opacity:1;fill-rule:evenodd;stroke:none;stroke-width:1;marker:none;visibility:visible;display:inline;overflow:visible" d="m 21,15.232235 0,6.837904 1,0 0,-6.572739 -1,-0.265165 z" id="path6075"/>
      <path style="opacity:0.44943824;fill:#ffffff;fill-opacity:1;fill-rule:evenodd;stroke:none;stroke-width:1;marker:none;visibility:visible;display:inline;overflow:visible" d="m 23,15.850954 0,6.219185 1,0 0,-5.865632 -1,-0.353553 z" id="path6077"/>
      <path style="opacity:0.44943824;fill:#ffffff;fill-opacity:1;fill-rule:evenodd;stroke:none;stroke-width:1;marker:none;visibility:visible;display:inline;overflow:visible" d="m 25,16.381284 0,5.688855 1,0 0,-5.42369 -1,-0.265165 z" id="path6079"/>
      <path style="opacity:0.44943824;fill:#ffffff;fill-opacity:1;fill-rule:evenodd;stroke:none;stroke-width:1;marker:none;visibility:visible;display:inline;overflow:visible" d="m 27,16.823226 0,5.246913 1,0 0,-5.070137 -1,-0.176776 z" id="path6081"/>
      <path style="opacity:0.44943824;fill:#ffffff;fill-opacity:1;fill-rule:evenodd;stroke:none;stroke-width:1;marker:none;visibility:visible;display:inline;overflow:visible" d="m 29,17.176779 0,4.89336 1,0 0,-4.849166 -1,-0.04419 z" id="path6083"/>
      <path style="opacity:0.44943824;fill:#ffffff;fill-opacity:1;fill-rule:evenodd;stroke:none;stroke-width:1;marker:none;visibility:visible;display:inline;overflow:visible" d="m 31,17.39775 0,4.672389 1,0 0,-4.804972 -1,0.132583 z" id="path6085"/>
      <path style="opacity:0.44943824;fill:#ffffff;fill-opacity:1;fill-rule:evenodd;stroke:none;stroke-width:1;marker:none;visibility:visible;display:inline;overflow:visible" d="m 33,17.353556 0,4.716583 1,0 0,-4.89336 -1,0.176777 z" id="path6087"/>
      <rect x="8" y="35.116135" width="31" style="fill:#2e3436;fill-opacity:1;fill-rule:evenodd;stroke:none;stroke-width:3;marker:none;visibility:visible;display:inline;overflow:visible" rx="0.81717849" height="11" ry="0.81717849" id="rect6095"/>
      <rect x="9" y="36.116135" width="29" style="fill:url(#linearGradient2484);fill-opacity:1;fill-rule:evenodd;stroke:none;stroke-width:3;marker:none;visibility:visible;display:inline;overflow:visible" rx="0.12967849" height="9" ry="0.12967849" id="rect6097"/>
      <rect x="9" y="36.116135" width="29" style="fill:#8f5902;fill-opacity:1;fill-rule:evenodd;stroke:none;stroke-width:1;marker:none;visibility:visible;display:inline;overflow:visible" rx="0.12967849" height="3.0000017" ry="0.12967849" id="rect6109"/>
      <rect x="11" y="37.116135" width="10.036427" style="fill:#e9b96e;fill-opacity:1;fill-rule:evenodd;stroke:none;stroke-width:1;marker:none;visibility:visible;display:inline;overflow:visible" rx="0.12967849" height="1.9999989" ry="0.12967849" id="rect6111"/>
      <rect x="22.963573" y="37.116135" width="4.0364265" style="fill:#e9b96e;fill-opacity:1;fill-rule:evenodd;stroke:none;stroke-width:1;marker:none;visibility:visible;display:inline;overflow:visible" rx="0.12967849" height="1.9999989" ry="0.12967849" id="rect6113"/>
      <path style="opacity:0.17977528;fill:none;stroke:url(#linearGradient2486);stroke-width:0.99999976;stroke-linecap:butt;stroke-linejoin:miter;stroke-miterlimit:4;stroke-opacity:1;stroke-dasharray:none;stroke-dashoffset:0.8;marker:none;visibility:visible;display:inline;overflow:visible" d="M 6.8125,2.5 C 6.6714126,2.5092414 6.665484,2.505736 6.59375,2.625 6.522016,2.744264 6.486054,2.9918242 6.5,3.15625 c 0.00146,0.031233 0.00146,0.062517 0,0.09375 l 0,40.3125 c 0.03409,0.513601 0.4647984,1.126759 1.3125,1.0625 0.020828,-6.51e-4 0.041672,-6.51e-4 0.0625,0 l 31.8125,0 c 0.354731,-0.01711 0.822042,-0.206591 0.8125,-1.28125 l 0,-36.90625 c -10e-7,-0.5071289 -0.03482,-0.6043596 -0.4375,-1 -0.01064,-0.010185 -0.02107,-0.020605 -0.03125,-0.03125 0,0 -2.65868,-2.7503817 -2.71875,-2.8125 C 37.252809,2.537358 37.283219,2.5655737 37.28125,2.5625 37.279281,2.5594263 37.249931,2.5312266 37.25,2.53125 37.250138,2.5312967 37.104314,2.5 36.75,2.5 l -29.9375,0 z" id="path6206"/>
    </g>
  </g>
</g></svg>