<svg contentScriptType="text/ecmascript" width="200.0" xmlns:xlink="http://www.w3.org/1999/xlink" zoomAndPan="magnify" xmlns:svg="http://www.w3.org/2000/svg" contentStyleType="text/css" height="200.0" viewBox="0.0 0.0 200.0 200.0" preserveAspectRatio="xMidYMid meet" xmlns="http://www.w3.org/2000/svg" version="1.0"><g id="dummy_pressure"><g id="_STRESSTEST_SYMBOLS_STRESSTEST_OSA_OSA_ICS_THERMOMETER_SVG" transform="translate(-26.96714 6.2132883)scale(1.0045393 1.0083116)">

    <path style="fill:none;stroke:#000000;stroke-width:1px;stroke-linecap:butt;stroke-linejoin:miter;stroke-opacity:1;overflow:visible" d="m 47.356915,83.692308 34.187268,0" id="path3633-6"/>
    <path style="fill:none;stroke:#000000;stroke-width:1px;stroke-linecap:butt;stroke-linejoin:miter;stroke-opacity:1" d="m 47.356915,19.340662 34.187268,0" id="path3633"/>
    <path style="fill:none;stroke:#000000;stroke-width:1px;stroke-linecap:butt;stroke-linejoin:miter;stroke-opacity:1;overflow:visible" d="m 50.06477,32.210994 28.771558,0" id="path3633-67"/>
    <path style="fill:none;stroke:#000000;stroke-width:1px;stroke-linecap:butt;stroke-linejoin:miter;stroke-opacity:1;overflow:visible" d="m 50.06477,45.081323 28.771558,0" id="path3633-67-3"/>
    <path style="fill:none;stroke:#000000;stroke-width:1px;stroke-linecap:butt;stroke-linejoin:miter;stroke-opacity:1;overflow:visible" d="m 50.06477,57.951652 28.771558,0" id="path3633-67-2"/>
    <path style="fill:none;stroke:#000000;stroke-width:1px;stroke-linecap:butt;stroke-linejoin:miter;stroke-opacity:1;overflow:visible" d="m 50.06477,70.82198 28.771558,0" id="path3633-67-0"/>
    <path style="opacity:0.8;fill-opacity:1;fill-rule:nonzero;stroke:none;stroke-width:2;marker:none;visibility:visible;display:inline;overflow:visible" d="m 101.50637,113.75824 c 0,7.16596 -16.71346,12.97512 -37.330547,12.97512 -20.617088,0 -37.330542,-5.80916 -37.330542,-12.97512 0,-7.16596 16.713454,-12.97512 37.330542,-12.97512 20.617087,0 37.330547,5.80916 37.330547,12.97512 z" id="path20208"/>
    <rect x="56.626633" y="3.7554972" width="15.91361" style="fill:#a9a9a9;fill-opacity:1;stroke:none;overflow:visible" rx="6.710135" height="111.77898" ry="6.5189695" id="rect3125-7-9"/>
    <rect x="52.48048" y="88.214897" width="23.892229" style="fill:#a9a9a9;fill-opacity:1;stroke:none;overflow:visible" rx="10.0744" height="29.471918" ry="8.7682543" id="rect3125-7-9-7"/>
    <rect x="57.369526" y="93.056" width="14.677112" style="fill:#960000;fill-opacity:1;stroke:none" id="rect3125" ry="5.607718" height="19.591526"/>
    <rect x="61.363937" y="7.4320359" width="6.6882849" style="fill:#696969;fill-opacity:1;stroke:none;overflow:visible" rx="3.3441424" height="53.478165" ry="2.5480053" id="rect3125-7-5"/>
    <rect x="61.363937" y="44.830627" width="6.6882849" style="fill:#960000;fill-opacity:1;stroke:none;overflow:visible" rx="3.3441424" height="53.478165" ry="2.5480053" id="rect3125-7"/>
    <rect x="61.904461" y="50.205032" width="0.68484145" style="fill:#ff0000;fill-opacity:1;stroke:none;overflow:visible" rx="0.34242073" height="44.538345" ry="0.29583332" id="rect3125-7-5-0-8"/>
    <path style="fill:#ff0000;overflow:visible" d="m 62.40498,94.267098 c -0.387034,-0.417641 0.03218,-0.185478 -0.150415,-0.160294 -3.549435,0.48952 -3.648954,5.477709 -3.648954,5.477709 l 0.119531,4.365007 0.969504,0.0207 -0.0438,-4.760113 c 6.15e-4,-0.794039 0.272769,-4.152107 2.828135,-4.434085 l -0.07399,-0.508914 z" id="path161-0"/>
    <path style="fill:#ff0000;overflow:visible" d="m 64.743245,45.404344 c -0.115101,-0.0217 -0.233776,-0.05032 -0.36316,-0.04717 -2.403436,0.05862 -2.530748,2.999244 -2.530748,2.999244 l 0.01662,6.617219 0.72807,0.0207 -0.0012,-6.831845 c 4.29e-4,-0.0022 -0.04553,-2.419751 2.150505,-2.758291 l -3e-6,1.46e-4 z" id="path161-0-3"/>


    <rect x="57.715195" y="9.6378136" width="1.0593083" style="fill:#dcdcdc;fill-opacity:1;stroke:none;overflow:visible" rx="0.52965415" height="21.560898" ry="0.14321215" id="rect3125-7-5-0-8-0"/>
    <path style="fill:#dcdcdc;overflow:visible" d="m 61.956581,4.4329543 c 0.129145,-0.028562 0.296736,-0.306097 -0.848413,0.1271131 -3.779426,1.4297581 -3.4159,5.1916751 -3.4159,5.1916751 l 0.01209,1.7774845 1.075984,0.01535 -0.01427,-1.9740496 c 6.34e-4,-0.00163 -0.24186,-3.4901415 3.190609,-5.1376784 l -4e-6,1.082e-4 -9.7e-5,-2.9e-6 z" id="path161-0-3-0"/>
  </g></g><rect rx="0.0" ry="0.0" width="200.0" height="200.0" style="fill-opacity: 0.0;stroke-opacity: 0.0;stroke-width:1;stroke:rgb(0,0,0)"/></svg>