<?xml version='1.0' encoding='UTF-8'?>
<svg xmlns="http://www.w3.org/2000/svg" height="2404" preserveAspectRatio="xMinYMin meet" style="background-color:#D2D2D2;" version="1.1" viewBox="0 0 4320 2404" width="4320">

  
  <g class="AnLayer" id="AnDefaultLayer">

    
    <polygon class="AnPolygon" fill="#A9A9A9" fill-rule="evenodd" points="736,999 926,999 926,1744 736,1744 " />

    
    <polygon class="AnPolygon" fill="#A9A9A9" fill-rule="evenodd" points="3216,999 3456,999 3456,1744 3216,1744 " />

    
    <polygon class="AnPolygon" fill="#EDDB7F" fill-rule="evenodd" points="566,1054 566,1254 3096,1254 3256,1314 3256,1429 3111,1484 751,1484 601,1369 381,1369 381,1569 596,1569 751,1684 3201,1684 3511,1574 3691,1574 3691,1169 3496,1169 3201,1054 566,1054 " />

    
    <polygon class="AnPolygon" fill="#A9A9A9" fill-rule="evenodd" points="536,509 1266,509 1266,879 536,879 536,509 " />

    
    <polyline class="AnPolyline" fill="none" points="536,509 1266,509 1266,879 536,879 536,509 " stroke="#000000" stroke-width="3px" />

    
    <polygon class="AnPolygon" fill="#A9A9A9" fill-rule="evenodd" points="2966,509 3696,509 3696,879 2966,879 2966,509 " />

    
    <polyline class="AnPolyline" fill="none" points="2966,509 3696,509 3696,879 2966,879 2966,509 " stroke="#000000" stroke-width="3px" />

    
    <polygon class="AnPolygon" fill="#A9A9A9" fill-rule="evenodd" points="536,1839 1266,1839 1266,2209 536,2209 536,1839 " />

    
    <polyline class="AnPolyline" fill="none" points="536,1839 1266,1839 1266,2209 536,2209 536,1839 " stroke="#000000" stroke-width="3px" />

    
    <polygon class="AnPolygon" fill="#A9A9A9" fill-rule="evenodd" points="2966,1839 3696,1839 3696,2209 2966,2209 2966,1839 " />

    
    <polyline class="AnPolyline" fill="none" points="2966,1839 3696,1839 3696,2209 2966,2209 2966,1839 " stroke="#000000" stroke-width="3px" />

  
  </g>

  
  <g class="AnLayer" id="Background">

    
    <line class="AnLine" fill="none" stroke="#000000" stroke-width="2px" x1="446px" x2="666px" y1="1429px" y2="1429px" />

    
    <line class="AnLine" fill="none" stroke="#000000" stroke-width="2px" x1="666px" x2="446px" y1="1509px" y2="1509px" />

    
    <line class="AnLine" fill="none" stroke="#000000" stroke-width="2px" x1="446px" x2="446px" y1="1509px" y2="1429px" />

    
    <line class="AnLine" fill="none" stroke="#000000" stroke-width="2px" x1="206px" x2="421px" y1="1429px" y2="1429px" />

    
    <line class="AnLine" fill="none" stroke="#000000" stroke-width="2px" x1="421px" x2="421px" y1="1429px" y2="1509px" />

    
    <line class="AnLine" fill="none" stroke="#000000" stroke-width="2px" x1="421px" x2="206px" y1="1509px" y2="1509px" />

    
    <line class="AnLine" fill="none" stroke="#000000" stroke-width="2px" x1="206px" x2="206px" y1="1509px" y2="1429px" />

    
    <line class="AnLine" fill="none" stroke="#000000" stroke-width="2px" x1="666px" x2="666px" y1="1429px" y2="1509px" />

    
    <polygon class="AnPolygon" fill="#D2D2D2" fill-rule="evenodd" points="3456,1344 3456,1399 3526,1374 " />

    
    <line class="AnLine" fill="none" stroke="#000000" stroke-width="2px" x1="4051px" x2="4051px" y1="1234px" y2="1314px" />

    
    <line class="AnLine" fill="none" stroke="#000000" stroke-width="3px" x1="3721px" x2="3526px" y1="1374px" y2="1374px" />

    
    <line class="AnLine" fill="none" stroke="#000000" stroke-width="3px" x1="3381px" x2="3381px" y1="1314px" y2="1429px" />

    
    <line class="AnLine" fill="none" stroke="#000000" stroke-width="3px" x1="3526px" x2="3381px" y1="1374px" y2="1314px" />

    
    <line class="AnLine" fill="none" stroke="#000000" stroke-width="3px" x1="3381px" x2="3526px" y1="1429px" y2="1374px" />

    
    <line class="AnLine" fill="none" stroke="#000000" stroke-width="2px" x1="3226px" x2="3446px" y1="1174px" y2="1174px" />

    
    <line class="AnLine" fill="none" stroke="#000000" stroke-width="2px" x1="3446px" x2="3226px" y1="1254px" y2="1254px" />

    
    <line class="AnLine" fill="none" stroke="#000000" stroke-width="2px" x1="3226px" x2="3446px" y1="1494px" y2="1494px" />

    
    <line class="AnLine" fill="none" stroke="#000000" stroke-width="2px" x1="3446px" x2="3226px" y1="1574px" y2="1574px" />

    
    <line class="AnLine" fill="none" stroke="#000000" stroke-width="2px" x1="3226px" x2="3226px" y1="1254px" y2="1174px" />

    
    <line class="AnLine" fill="none" stroke="#000000" stroke-width="2px" x1="3716px" x2="4051px" y1="1234px" y2="1234px" />

    
    <line class="AnLine" fill="none" stroke="#000000" stroke-width="2px" x1="4051px" x2="3716px" y1="1314px" y2="1314px" />

    
    <line class="AnLine" fill="none" stroke="#000000" stroke-width="2px" x1="3716px" x2="3716px" y1="1314px" y2="1234px" />

    
    <line class="AnLine" fill="none" stroke="#000000" stroke-width="2px" x1="3446px" x2="3446px" y1="1174px" y2="1254px" />

    
    <line class="AnLine" fill="none" stroke="#000000" stroke-width="2px" x1="3471px" x2="3686px" y1="1234px" y2="1234px" />

    
    <line class="AnLine" fill="none" stroke="#000000" stroke-width="2px" x1="3686px" x2="3686px" y1="1234px" y2="1314px" />

    
    <line class="AnLine" fill="none" stroke="#000000" stroke-width="2px" x1="3686px" x2="3471px" y1="1314px" y2="1314px" />

    
    <line class="AnLine" fill="none" stroke="#000000" stroke-width="2px" x1="3471px" x2="3471px" y1="1314px" y2="1234px" />

    
    <line class="AnLine" fill="none" stroke="#000000" stroke-width="2px" x1="3226px" x2="3226px" y1="1574px" y2="1494px" />

    
    <line class="AnLine" fill="none" stroke="#000000" stroke-width="2px" x1="3446px" x2="3446px" y1="1494px" y2="1574px" />

    
    <line class="AnLine" fill="none" stroke="#000000" stroke-width="2px" x1="3471px" x2="3686px" y1="1434px" y2="1434px" />

    
    <line class="AnLine" fill="none" stroke="#000000" stroke-width="2px" x1="3686px" x2="3686px" y1="1434px" y2="1514px" />

    
    <line class="AnLine" fill="none" stroke="#000000" stroke-width="2px" x1="3686px" x2="3471px" y1="1514px" y2="1514px" />

    
    <line class="AnLine" fill="none" stroke="#000000" stroke-width="2px" x1="3471px" x2="3471px" y1="1514px" y2="1434px" />

    
    <line class="AnLine" fill="none" stroke="#000000" stroke-width="2px" x1="1191px" x2="1531px" y1="1114px" y2="1114px" />

    
    <line class="AnLine" fill="none" stroke="#000000" stroke-width="2px" x1="1531px" x2="1191px" y1="1194px" y2="1194px" />

    
    <line class="AnLine" fill="none" stroke="#000000" stroke-width="2px" x1="751px" x2="911px" y1="1114px" y2="1114px" />

    
    <line class="AnLine" fill="none" stroke="#000000" stroke-width="2px" x1="911px" x2="751px" y1="1194px" y2="1194px" />

    
    <line class="AnLine" fill="none" stroke="#000000" stroke-width="2px" x1="751px" x2="751px" y1="1194px" y2="1114px" />

    
    <line class="AnLine" fill="none" stroke="#000000" stroke-width="2px" x1="381px" x2="721px" y1="1114px" y2="1114px" />

    
    <line class="AnLine" fill="none" stroke="#000000" stroke-width="2px" x1="721px" x2="381px" y1="1194px" y2="1194px" />

    
    <line class="AnLine" fill="none" stroke="#000000" stroke-width="2px" x1="381px" x2="381px" y1="1194px" y2="1114px" />

    
    <line class="AnLine" fill="none" stroke="#000000" stroke-width="2px" x1="721px" x2="721px" y1="1114px" y2="1194px" />

    
    <line class="AnLine" fill="none" stroke="#000000" stroke-width="2px" x1="936px" x2="1166px" y1="1114px" y2="1114px" />

    
    <line class="AnLine" fill="none" stroke="#000000" stroke-width="2px" x1="1166px" x2="1166px" y1="1114px" y2="1194px" />

    
    <line class="AnLine" fill="none" stroke="#000000" stroke-width="2px" x1="1166px" x2="936px" y1="1194px" y2="1194px" />

    
    <line class="AnLine" fill="none" stroke="#000000" stroke-width="2px" x1="911px" x2="911px" y1="1114px" y2="1194px" />

    
    <line class="AnLine" fill="none" stroke="#000000" stroke-width="2px" x1="936px" x2="936px" y1="1194px" y2="1114px" />

    
    <line class="AnLine" fill="none" stroke="#000000" stroke-width="2px" x1="1191px" x2="1191px" y1="1194px" y2="1114px" />

    
    <line class="AnLine" fill="none" stroke="#000000" stroke-width="2px" x1="2651px" x2="2936px" y1="1114px" y2="1114px" />

    
    <line class="AnLine" fill="none" stroke="#000000" stroke-width="2px" x1="2936px" x2="2651px" y1="1194px" y2="1194px" />

    
    <line class="AnLine" fill="none" stroke="#000000" stroke-width="2px" x1="1921px" x2="2261px" y1="1114px" y2="1114px" />

    
    <line class="AnLine" fill="none" stroke="#000000" stroke-width="2px" x1="2261px" x2="1921px" y1="1194px" y2="1194px" />

    
    <line class="AnLine" fill="none" stroke="#000000" stroke-width="2px" x1="1556px" x2="1896px" y1="1114px" y2="1114px" />

    
    <line class="AnLine" fill="none" stroke="#000000" stroke-width="2px" x1="1896px" x2="1556px" y1="1194px" y2="1194px" />

    
    <line class="AnLine" fill="none" stroke="#000000" stroke-width="2px" x1="1531px" x2="1531px" y1="1114px" y2="1194px" />

    
    <line class="AnLine" fill="none" stroke="#000000" stroke-width="2px" x1="1556px" x2="1556px" y1="1194px" y2="1114px" />

    
    <line class="AnLine" fill="none" stroke="#000000" stroke-width="2px" x1="1896px" x2="1896px" y1="1114px" y2="1194px" />

    
    <line class="AnLine" fill="none" stroke="#000000" stroke-width="2px" x1="1921px" x2="1921px" y1="1194px" y2="1114px" />

    
    <line class="AnLine" fill="none" stroke="#000000" stroke-width="2px" x1="2286px" x2="2626px" y1="1114px" y2="1114px" />

    
    <line class="AnLine" fill="none" stroke="#000000" stroke-width="2px" x1="2626px" x2="2286px" y1="1194px" y2="1194px" />

    
    <line class="AnLine" fill="none" stroke="#000000" stroke-width="2px" x1="2261px" x2="2261px" y1="1114px" y2="1194px" />

    
    <line class="AnLine" fill="none" stroke="#000000" stroke-width="2px" x1="2286px" x2="2286px" y1="1194px" y2="1114px" />

    
    <line class="AnLine" fill="none" stroke="#000000" stroke-width="2px" x1="2626px" x2="2626px" y1="1114px" y2="1194px" />

    
    <line class="AnLine" fill="none" stroke="#000000" stroke-width="2px" x1="2651px" x2="2651px" y1="1194px" y2="1114px" />

    
    <line class="AnLine" fill="none" stroke="#000000" stroke-width="2px" x1="2961px" x2="3201px" y1="1114px" y2="1114px" />

    
    <line class="AnLine" fill="none" stroke="#000000" stroke-width="2px" x1="3201px" x2="2961px" y1="1194px" y2="1194px" />

    
    <line class="AnLine" fill="none" stroke="#000000" stroke-width="2px" x1="2936px" x2="2936px" y1="1114px" y2="1194px" />

    
    <line class="AnLine" fill="none" stroke="#000000" stroke-width="2px" x1="2961px" x2="2961px" y1="1194px" y2="1114px" />

    
    <line class="AnLine" fill="none" stroke="#000000" stroke-width="2px" x1="3201px" x2="3201px" y1="1114px" y2="1194px" />

    
    <line class="AnLine" fill="none" stroke="#000000" stroke-width="3px" x1="566px" x2="3196px" y1="1054px" y2="1054px" />

    
    <line class="AnLine" fill="none" stroke="#000000" stroke-width="3px" x1="566px" x2="536px" y1="1054px" y2="1024px" />

    
    <line class="AnLine" fill="none" stroke="#000000" stroke-width="3px" x1="3196px" x2="3496px" y1="1054px" y2="1169px" />

    
    <line class="AnLine" fill="none" stroke="#000000" stroke-width="3px" x1="3691px" x2="3721px" y1="1169px" y2="1134px" />

    
    <line class="AnLine" fill="none" stroke="#000000" stroke-width="3px" x1="3496px" x2="3691px" y1="1169px" y2="1169px" />

    
    <line class="AnLine" fill="none" stroke="#000000" stroke-width="3px" x1="566px" x2="3096px" y1="1254px" y2="1254px" />

    
    <line class="AnLine" fill="none" stroke="#000000" stroke-width="3px" x1="3111px" x2="751px" y1="1484px" y2="1484px" />

    
    <line class="AnLine" fill="none" stroke="#000000" stroke-width="3px" x1="751px" x2="601px" y1="1484px" y2="1369px" />

    
    <line class="AnLine" fill="none" stroke="#000000" stroke-width="3px" x1="601px" x2="381px" y1="1369px" y2="1369px" />

    
    <line class="AnLine" fill="none" stroke="#000000" stroke-width="3px" x1="381px" x2="351px" y1="1369px" y2="1339px" />

    
    <line class="AnLine" fill="none" stroke="#000000" stroke-width="3px" x1="566px" x2="536px" y1="1254px" y2="1284px" />

    
    <line class="AnLine" fill="none" stroke="#000000" stroke-width="3px" x1="3256px" x2="3256px" y1="1314px" y2="1429px" />

    
    <line class="AnLine" fill="none" stroke="#000000" stroke-width="3px" x1="3096px" x2="3256px" y1="1254px" y2="1314px" />

    
    <line class="AnLine" fill="none" stroke="#000000" stroke-width="3px" x1="3256px" x2="3111px" y1="1429px" y2="1484px" />

    
    <line class="AnLine" fill="none" stroke="#000000" stroke-width="3px" x1="751px" x2="3201px" y1="1684px" y2="1684px" />

    
    <line class="AnLine" fill="none" stroke="#000000" stroke-width="3px" x1="596px" x2="751px" y1="1569px" y2="1684px" />

    
    <line class="AnLine" fill="none" stroke="#000000" stroke-width="3px" x1="381px" x2="596px" y1="1569px" y2="1569px" />

    
    <line class="AnLine" fill="none" stroke="#000000" stroke-width="3px" x1="381px" x2="351px" y1="1569px" y2="1599px" />

    
    <line class="AnLine" fill="none" stroke="#000000" stroke-width="3px" x1="3201px" x2="3506px" y1="1684px" y2="1574px" />

    
    <line class="AnLine" fill="none" stroke="#000000" stroke-width="3px" x1="3691px" x2="3721px" y1="1574px" y2="1604px" />

    
    <line class="AnLine" fill="none" stroke="#000000" stroke-width="3px" x1="3506px" x2="3691px" y1="1574px" y2="1574px" />

    
    <line class="AnLine" fill="none" stroke="#000000" stroke-width="2px" x1="1191px" x2="1531px" y1="1549px" y2="1549px" />

    
    <line class="AnLine" fill="none" stroke="#000000" stroke-width="2px" x1="1531px" x2="1191px" y1="1629px" y2="1629px" />

    
    <line class="AnLine" fill="none" stroke="#000000" stroke-width="2px" x1="751px" x2="1161px" y1="1549px" y2="1549px" />

    
    <line class="AnLine" fill="none" stroke="#000000" stroke-width="2px" x1="1161px" x2="751px" y1="1629px" y2="1629px" />

    
    <line class="AnLine" fill="none" stroke="#000000" stroke-width="2px" x1="751px" x2="751px" y1="1629px" y2="1549px" />

    
    <line class="AnLine" fill="none" stroke="#000000" stroke-width="2px" x1="1161px" x2="1161px" y1="1549px" y2="1629px" />

    
    <line class="AnLine" fill="none" stroke="#000000" stroke-width="2px" x1="1191px" x2="1191px" y1="1629px" y2="1549px" />

    
    <line class="AnLine" fill="none" stroke="#000000" stroke-width="2px" x1="2651px" x2="2936px" y1="1549px" y2="1549px" />

    
    <line class="AnLine" fill="none" stroke="#000000" stroke-width="2px" x1="2936px" x2="2651px" y1="1629px" y2="1629px" />

    
    <line class="AnLine" fill="none" stroke="#000000" stroke-width="2px" x1="1921px" x2="2261px" y1="1549px" y2="1549px" />

    
    <line class="AnLine" fill="none" stroke="#000000" stroke-width="2px" x1="2261px" x2="1921px" y1="1629px" y2="1629px" />

    
    <line class="AnLine" fill="none" stroke="#000000" stroke-width="2px" x1="1556px" x2="1896px" y1="1549px" y2="1549px" />

    
    <line class="AnLine" fill="none" stroke="#000000" stroke-width="2px" x1="1896px" x2="1556px" y1="1629px" y2="1629px" />

    
    <line class="AnLine" fill="none" stroke="#000000" stroke-width="2px" x1="1531px" x2="1531px" y1="1549px" y2="1629px" />

    
    <line class="AnLine" fill="none" stroke="#000000" stroke-width="2px" x1="1556px" x2="1556px" y1="1629px" y2="1549px" />

    
    <line class="AnLine" fill="none" stroke="#000000" stroke-width="2px" x1="1896px" x2="1896px" y1="1549px" y2="1629px" />

    
    <line class="AnLine" fill="none" stroke="#000000" stroke-width="2px" x1="1921px" x2="1921px" y1="1629px" y2="1549px" />

    
    <line class="AnLine" fill="none" stroke="#000000" stroke-width="2px" x1="2286px" x2="2626px" y1="1549px" y2="1549px" />

    
    <line class="AnLine" fill="none" stroke="#000000" stroke-width="2px" x1="2626px" x2="2286px" y1="1629px" y2="1629px" />

    
    <line class="AnLine" fill="none" stroke="#000000" stroke-width="2px" x1="2261px" x2="2261px" y1="1549px" y2="1629px" />

    
    <line class="AnLine" fill="none" stroke="#000000" stroke-width="2px" x1="2286px" x2="2286px" y1="1629px" y2="1549px" />

    
    <line class="AnLine" fill="none" stroke="#000000" stroke-width="2px" x1="2626px" x2="2626px" y1="1549px" y2="1629px" />

    
    <line class="AnLine" fill="none" stroke="#000000" stroke-width="2px" x1="2651px" x2="2651px" y1="1629px" y2="1549px" />

    
    <line class="AnLine" fill="none" stroke="#000000" stroke-width="2px" x1="2961px" x2="3201px" y1="1549px" y2="1549px" />

    
    <line class="AnLine" fill="none" stroke="#000000" stroke-width="2px" x1="3201px" x2="2961px" y1="1629px" y2="1629px" />

    
    <line class="AnLine" fill="none" stroke="#000000" stroke-width="2px" x1="2936px" x2="2936px" y1="1549px" y2="1629px" />

    
    <line class="AnLine" fill="none" stroke="#000000" stroke-width="2px" x1="2961px" x2="2961px" y1="1629px" y2="1549px" />

    
    <line class="AnLine" fill="none" stroke="#000000" stroke-width="2px" x1="3201px" x2="3201px" y1="1549px" y2="1629px" />

    
    <line class="AnLine" fill="none" stroke="#000000" stroke-width="2px" x1="736px" x2="736px" y1="999px" y2="1744px" />

    
    <line class="AnLine" fill="none" stroke="#000000" stroke-width="2px" x1="926px" x2="926px" y1="1744px" y2="999px" />

    
    <line class="AnLine" fill="none" stroke="#000000" stroke-width="2px" x1="926px" x2="736px" y1="999px" y2="999px" />

    
    <line class="AnLine" fill="none" stroke="#000000" stroke-width="2px" x1="736px" x2="926px" y1="1744px" y2="1744px" />

    
    <line class="AnLine" fill="none" stroke="#000000" stroke-width="2px" x1="3216px" x2="3216px" y1="999px" y2="1744px" />

    
    <line class="AnLine" fill="none" stroke="#000000" stroke-width="2px" x1="3456px" x2="3456px" y1="1744px" y2="999px" />

    
    <line class="AnLine" fill="none" stroke="#000000" stroke-width="2px" x1="3456px" x2="3216px" y1="999px" y2="999px" />

    
    <line class="AnLine" fill="none" stroke="#000000" stroke-width="2px" x1="3216px" x2="3456px" y1="1744px" y2="1744px" />

    
    <line class="AnLine" fill="none" stroke="#000000" stroke-width="2px" x1="2116px" x2="2326px" y1="1299px" y2="1299px" />

    
    <polygon class="AnPolygon" fill="#000000" fill-rule="evenodd" points="2311,1314 2311,1284 2351,1299 2311,1314 " />

    
    <line class="AnLine" fill="none" stroke="#000000" stroke-width="2px" x1="1986px" x2="1766px" y1="1449px" y2="1449px" />

    
    <polygon class="AnPolygon" fill="#000000" fill-rule="evenodd" points="1781,1464 1781,1434 1741,1449 1781,1464 " />

  
  </g>

  
  <g class="AnLayer" id="Equipement">

    
    <g class="ECT_static TVF Symbol" id="TECS_static TVF_1_1">

      
      <line class="AnLine" fill="none" stroke="#FF0000" stroke-width="1px" x1="673px" x2="673px" y1="695px" y2="775px" />

      
      <line class="AnLine" fill="none" stroke="#FF0000" stroke-width="1px" x1="775px" x2="775px" y1="695px" y2="775px" />

      
      <line class="AnLine" fill="none" stroke="#FF0000" stroke-width="1px" x1="683px" x2="766px" y1="705px" y2="760px" />

      
      <line class="AnLine" fill="none" stroke="#FF0000" stroke-width="1px" x1="766px" x2="766px" y1="760px" y2="705px" />

      
      <line class="AnLine" fill="none" stroke="#FF0000" stroke-width="1px" x1="766px" x2="683px" y1="705px" y2="760px" />

      
      <line class="AnLine" fill="none" stroke="#FF0000" stroke-width="1px" x1="683px" x2="683px" y1="760px" y2="705px" />

      
      <polygon class="AnPolygon" fill="#FF0000" fill-rule="evenodd" points="683,790 766,790 723,815 683,790 " />

      
      <polygon class="AnPolygon" fill="#FF0000" fill-rule="evenodd" points="683,680 766,680 723,655 683,680 " />

      
      <polygon class="AnPolygon" fill="#FF0000" fill-rule="evenodd" points="683,705 683,760 766,705 766,760 683,705 " />

      
      <line class="AnLine" fill="none" stroke="#FF0000" stroke-width="1px" x1="669px" x2="780px" y1="695px" y2="695px" />

      
      <line class="AnLine" fill="none" stroke="#FF0000" stroke-width="1px" x1="669px" x2="780px" y1="775px" y2="775px" />

    
    </g>

    
    <g class="ECT_static TVF Symbol" id="TECS_static TVF_2_2">

      
      <line class="AnLine" fill="none" stroke="#FF0000" stroke-width="1px" x1="1038px" x2="1038px" y1="695px" y2="775px" />

      
      <line class="AnLine" fill="none" stroke="#FF0000" stroke-width="1px" x1="1140px" x2="1140px" y1="695px" y2="775px" />

      
      <line class="AnLine" fill="none" stroke="#FF0000" stroke-width="1px" x1="1048px" x2="1131px" y1="705px" y2="760px" />

      
      <line class="AnLine" fill="none" stroke="#FF0000" stroke-width="1px" x1="1131px" x2="1131px" y1="760px" y2="705px" />

      
      <line class="AnLine" fill="none" stroke="#FF0000" stroke-width="1px" x1="1131px" x2="1048px" y1="705px" y2="760px" />

      
      <line class="AnLine" fill="none" stroke="#FF0000" stroke-width="1px" x1="1048px" x2="1048px" y1="760px" y2="705px" />

      
      <polygon class="AnPolygon" fill="#FF0000" fill-rule="evenodd" points="1048,790 1131,790 1088,815 1048,790 " />

      
      <polygon class="AnPolygon" fill="#FF0000" fill-rule="evenodd" points="1048,680 1131,680 1088,655 1048,680 " />

      
      <polygon class="AnPolygon" fill="#FF0000" fill-rule="evenodd" points="1048,705 1048,760 1131,705 1131,760 1048,705 " />

      
      <line class="AnLine" fill="none" stroke="#FF0000" stroke-width="1px" x1="1034px" x2="1145px" y1="695px" y2="695px" />

      
      <line class="AnLine" fill="none" stroke="#FF0000" stroke-width="1px" x1="1034px" x2="1145px" y1="775px" y2="775px" />

    
    </g>

    
    <g class="ECT_static TVF Symbol" id="TECS_static TVF_4_3">

      
      <line class="AnLine" fill="none" stroke="#FF0000" stroke-width="1px" x1="3469px" x2="3469px" y1="695px" y2="775px" />

      
      <line class="AnLine" fill="none" stroke="#FF0000" stroke-width="1px" x1="3571px" x2="3571px" y1="695px" y2="775px" />

      
      <line class="AnLine" fill="none" stroke="#FF0000" stroke-width="1px" x1="3479px" x2="3562px" y1="705px" y2="760px" />

      
      <line class="AnLine" fill="none" stroke="#FF0000" stroke-width="1px" x1="3562px" x2="3562px" y1="760px" y2="705px" />

      
      <line class="AnLine" fill="none" stroke="#FF0000" stroke-width="1px" x1="3562px" x2="3479px" y1="705px" y2="760px" />

      
      <line class="AnLine" fill="none" stroke="#FF0000" stroke-width="1px" x1="3479px" x2="3479px" y1="760px" y2="705px" />

      
      <polygon class="AnPolygon" fill="#FF0000" fill-rule="evenodd" points="3479,790 3562,790 3519,815 3479,790 " />

      
      <polygon class="AnPolygon" fill="#FF0000" fill-rule="evenodd" points="3479,680 3562,680 3519,655 3479,680 " />

      
      <polygon class="AnPolygon" fill="#FF0000" fill-rule="evenodd" points="3479,705 3479,760 3562,705 3562,760 3479,705 " />

      
      <line class="AnLine" fill="none" stroke="#FF0000" stroke-width="1px" x1="3465px" x2="3576px" y1="695px" y2="695px" />

      
      <line class="AnLine" fill="none" stroke="#FF0000" stroke-width="1px" x1="3465px" x2="3576px" y1="775px" y2="775px" />

    
    </g>

    
    <g class="ECT_static TVF Symbol" id="TECS_static TVF_3_4">

      
      <line class="AnLine" fill="none" stroke="#FF0000" stroke-width="1px" x1="3102px" x2="3102px" y1="695px" y2="775px" />

      
      <line class="AnLine" fill="none" stroke="#FF0000" stroke-width="1px" x1="3204px" x2="3204px" y1="695px" y2="775px" />

      
      <line class="AnLine" fill="none" stroke="#FF0000" stroke-width="1px" x1="3112px" x2="3195px" y1="705px" y2="760px" />

      
      <line class="AnLine" fill="none" stroke="#FF0000" stroke-width="1px" x1="3195px" x2="3195px" y1="760px" y2="705px" />

      
      <line class="AnLine" fill="none" stroke="#FF0000" stroke-width="1px" x1="3195px" x2="3112px" y1="705px" y2="760px" />

      
      <line class="AnLine" fill="none" stroke="#FF0000" stroke-width="1px" x1="3112px" x2="3112px" y1="760px" y2="705px" />

      
      <polygon class="AnPolygon" fill="#FF0000" fill-rule="evenodd" points="3112,790 3195,790 3152,815 3112,790 " />

      
      <polygon class="AnPolygon" fill="#FF0000" fill-rule="evenodd" points="3112,680 3195,680 3152,655 3112,680 " />

      
      <polygon class="AnPolygon" fill="#FF0000" fill-rule="evenodd" points="3112,705 3112,760 3195,705 3195,760 3112,705 " />

      
      <line class="AnLine" fill="none" stroke="#FF0000" stroke-width="1px" x1="3098px" x2="3209px" y1="695px" y2="695px" />

      
      <line class="AnLine" fill="none" stroke="#FF0000" stroke-width="1px" x1="3098px" x2="3209px" y1="775px" y2="775px" />

    
    </g>

    
    <g class="ECT_static TVF Symbol" id="TECS_static TVF_5_5">

      
      <line class="AnLine" fill="none" stroke="#FF0000" stroke-width="1px" x1="763px" x2="763px" y1="2029px" y2="1949px" />

      
      <line class="AnLine" fill="none" stroke="#FF0000" stroke-width="1px" x1="661px" x2="661px" y1="2029px" y2="1949px" />

      
      <line class="AnLine" fill="none" stroke="#FF0000" stroke-width="1px" x1="753px" x2="670px" y1="2019px" y2="1964px" />

      
      <line class="AnLine" fill="none" stroke="#FF0000" stroke-width="1px" x1="670px" x2="670px" y1="1964px" y2="2019px" />

      
      <line class="AnLine" fill="none" stroke="#FF0000" stroke-width="1px" x1="670px" x2="753px" y1="2019px" y2="1964px" />

      
      <line class="AnLine" fill="none" stroke="#FF0000" stroke-width="1px" x1="753px" x2="753px" y1="1964px" y2="2019px" />

      
      <polygon class="AnPolygon" fill="#FF0000" fill-rule="evenodd" points="753,1934 670,1934 713,1909 753,1934 " />

      
      <polygon class="AnPolygon" fill="#FF0000" fill-rule="evenodd" points="753,2044 670,2044 713,2069 753,2044 " />

      
      <polygon class="AnPolygon" fill="#FF0000" fill-rule="evenodd" points="753,2019 753,1964 670,2019 670,1964 753,2019 " />

      
      <line class="AnLine" fill="none" stroke="#FF0000" stroke-width="1px" x1="767px" x2="656px" y1="2029px" y2="2029px" />

      
      <line class="AnLine" fill="none" stroke="#FF0000" stroke-width="1px" x1="767px" x2="656px" y1="1949px" y2="1949px" />

    
    </g>

    
    <g class="ECT_static TVF Symbol" id="TECS_static TVF_6_6">

      
      <line class="AnLine" fill="none" stroke="#FF0000" stroke-width="1px" x1="1128px" x2="1128px" y1="2029px" y2="1949px" />

      
      <line class="AnLine" fill="none" stroke="#FF0000" stroke-width="1px" x1="1026px" x2="1026px" y1="2029px" y2="1949px" />

      
      <line class="AnLine" fill="none" stroke="#FF0000" stroke-width="1px" x1="1118px" x2="1035px" y1="2019px" y2="1964px" />

      
      <line class="AnLine" fill="none" stroke="#FF0000" stroke-width="1px" x1="1035px" x2="1035px" y1="1964px" y2="2019px" />

      
      <line class="AnLine" fill="none" stroke="#FF0000" stroke-width="1px" x1="1035px" x2="1118px" y1="2019px" y2="1964px" />

      
      <line class="AnLine" fill="none" stroke="#FF0000" stroke-width="1px" x1="1118px" x2="1118px" y1="1964px" y2="2019px" />

      
      <polygon class="AnPolygon" fill="#FF0000" fill-rule="evenodd" points="1118,1934 1035,1934 1078,1909 1118,1934 " />

      
      <polygon class="AnPolygon" fill="#FF0000" fill-rule="evenodd" points="1118,2044 1035,2044 1078,2069 1118,2044 " />

      
      <polygon class="AnPolygon" fill="#FF0000" fill-rule="evenodd" points="1118,2019 1118,1964 1035,2019 1035,1964 1118,2019 " />

      
      <line class="AnLine" fill="none" stroke="#FF0000" stroke-width="1px" x1="1132px" x2="1021px" y1="2029px" y2="2029px" />

      
      <line class="AnLine" fill="none" stroke="#FF0000" stroke-width="1px" x1="1132px" x2="1021px" y1="1949px" y2="1949px" />

    
    </g>

    
    <g class="ECT_static TVF Symbol" id="TECS_static TVF_7_7">

      
      <line class="AnLine" fill="none" stroke="#FF0000" stroke-width="1px" x1="3192px" x2="3192px" y1="2029px" y2="1949px" />

      
      <line class="AnLine" fill="none" stroke="#FF0000" stroke-width="1px" x1="3090px" x2="3090px" y1="2029px" y2="1949px" />

      
      <line class="AnLine" fill="none" stroke="#FF0000" stroke-width="1px" x1="3182px" x2="3099px" y1="2019px" y2="1964px" />

      
      <line class="AnLine" fill="none" stroke="#FF0000" stroke-width="1px" x1="3099px" x2="3099px" y1="1964px" y2="2019px" />

      
      <line class="AnLine" fill="none" stroke="#FF0000" stroke-width="1px" x1="3099px" x2="3182px" y1="2019px" y2="1964px" />

      
      <line class="AnLine" fill="none" stroke="#FF0000" stroke-width="1px" x1="3182px" x2="3182px" y1="1964px" y2="2019px" />

      
      <polygon class="AnPolygon" fill="#FF0000" fill-rule="evenodd" points="3182,1934 3099,1934 3142,1909 3182,1934 " />

      
      <polygon class="AnPolygon" fill="#FF0000" fill-rule="evenodd" points="3182,2044 3099,2044 3142,2069 3182,2044 " />

      
      <polygon class="AnPolygon" fill="#FF0000" fill-rule="evenodd" points="3182,2019 3182,1964 3099,2019 3099,1964 3182,2019 " />

      
      <line class="AnLine" fill="none" stroke="#FF0000" stroke-width="1px" x1="3196px" x2="3085px" y1="2029px" y2="2029px" />

      
      <line class="AnLine" fill="none" stroke="#FF0000" stroke-width="1px" x1="3196px" x2="3085px" y1="1949px" y2="1949px" />

    
    </g>

    
    <g class="ECT_static TVF Symbol" id="TECS_static TVF_8_8">

      
      <line class="AnLine" fill="none" stroke="#FF0000" stroke-width="1px" x1="3559px" x2="3559px" y1="2029px" y2="1949px" />

      
      <line class="AnLine" fill="none" stroke="#FF0000" stroke-width="1px" x1="3457px" x2="3457px" y1="2029px" y2="1949px" />

      
      <line class="AnLine" fill="none" stroke="#FF0000" stroke-width="1px" x1="3549px" x2="3466px" y1="2019px" y2="1964px" />

      
      <line class="AnLine" fill="none" stroke="#FF0000" stroke-width="1px" x1="3466px" x2="3466px" y1="1964px" y2="2019px" />

      
      <line class="AnLine" fill="none" stroke="#FF0000" stroke-width="1px" x1="3466px" x2="3549px" y1="2019px" y2="1964px" />

      
      <line class="AnLine" fill="none" stroke="#FF0000" stroke-width="1px" x1="3549px" x2="3549px" y1="1964px" y2="2019px" />

      
      <polygon class="AnPolygon" fill="#FF0000" fill-rule="evenodd" points="3549,1934 3466,1934 3509,1909 3549,1934 " />

      
      <polygon class="AnPolygon" fill="#FF0000" fill-rule="evenodd" points="3549,2044 3466,2044 3509,2069 3549,2044 " />

      
      <polygon class="AnPolygon" fill="#FF0000" fill-rule="evenodd" points="3549,2019 3549,1964 3466,2019 3466,1964 3549,2019 " />

      
      <line class="AnLine" fill="none" stroke="#FF0000" stroke-width="1px" x1="3563px" x2="3452px" y1="2029px" y2="2029px" />

      
      <line class="AnLine" fill="none" stroke="#FF0000" stroke-width="1px" x1="3563px" x2="3452px" y1="1949px" y2="1949px" />

    
    </g>

  
  </g>

  
  <g class="AnLayer" id="Equipement Text">

    
    <text class="AnText" fill="#000000" font-family="Arial" font-size="12" font-style="normal" font-weight="normal" text-decoration="none" transform="matrix(8.000000,0.000000,0.000000,8.000000,1012.000000,153.000000)" x="0px" y="12px">Sheung Shui to Chau Tau Tunnel Ventilation Overview</text>

    
    <text class="AnText" fill="#FFFFFF" font-family="Arial" font-size="12" font-style="normal" font-weight="normal" text-decoration="none" transform="matrix(4.000000,0.000000,0.000000,4.000000,1000.000000,535.000000)" x="0px" y="12px">TVF004</text>

    
    <text class="AnText" fill="#FFFFFF" font-family="Arial" font-size="12" font-style="normal" font-weight="normal" text-decoration="none" transform="matrix(4.000000,0.000000,0.000000,4.000000,635.000000,535.000000)" x="0px" y="12px">TVF003</text>

    
    <text class="AnText" fill="#FFFFFF" font-family="Arial" font-size="12" font-style="normal" font-weight="normal" text-decoration="none" transform="matrix(4.000000,0.000000,0.000000,4.000000,3426.000000,535.000000)" x="0px" y="12px">TVF004</text>

    
    <text class="AnText" fill="#FFFFFF" font-family="Arial" font-size="12" font-style="normal" font-weight="normal" text-decoration="none" transform="matrix(4.000000,0.000000,0.000000,4.000000,3061.000000,535.000000)" x="0px" y="12px">TVF003</text>

    
    <text class="AnText" fill="#FFFFFF" font-family="Arial" font-size="12" font-style="normal" font-weight="normal" text-decoration="none" transform="matrix(4.000000,0.000000,0.000000,4.000000,1000.000000,2122.000000)" x="0px" y="12px">TVF002</text>

    
    <text class="AnText" fill="#FFFFFF" font-family="Arial" font-size="12" font-style="normal" font-weight="normal" text-decoration="none" transform="matrix(4.000000,0.000000,0.000000,4.000000,635.000000,2122.000000)" x="0px" y="12px">TVF001</text>

    
    <text class="AnText" fill="#FFFFFF" font-family="Arial" font-size="12" font-style="normal" font-weight="normal" text-decoration="none" transform="matrix(4.000000,0.000000,0.000000,4.000000,3426.000000,2127.000000)" x="0px" y="12px">TVF002</text>

    
    <text class="AnText" fill="#FFFFFF" font-family="Arial" font-size="12" font-style="normal" font-weight="normal" text-decoration="none" transform="matrix(4.000000,0.000000,0.000000,4.000000,3061.000000,2127.000000)" x="0px" y="12px">TVF001</text>

    
    <text class="AnText" fill="#0000FF" font-family="Arial" font-size="12" font-style="normal" font-weight="normal" text-decoration="none" transform="matrix(4.000000,0.000000,0.000000,4.000000,501.000000,1750.000000)" x="0px" y="12px">SSP/D </text>

    
    <text class="AnText" fill="#0000FF" font-family="Arial" font-size="12" font-style="normal" font-weight="normal" text-decoration="none" transform="matrix(4.000000,0.000000,0.000000,4.000000,746.000000,1750.000000)" x="0px" y="12px">SSVB/D </text>

    
    <text class="AnText" fill="#0000FF" font-family="Arial" font-size="12" font-style="normal" font-weight="normal" text-decoration="none" transform="matrix(4.000000,0.000000,0.000000,4.000000,1941.000000,1750.000000)" x="0px" y="12px">SSVB-CTVB/D </text>

    
    <text class="AnText" fill="#0000FF" font-family="Arial" font-size="12" font-style="normal" font-weight="normal" text-decoration="none" transform="matrix(4.000000,0.000000,0.000000,4.000000,3246.000000,1750.000000)" x="0px" y="12px">CTVB/D </text>

    
    <text class="AnText" fill="#0000FF" font-family="Arial" font-size="12" font-style="normal" font-weight="normal" text-decoration="none" transform="matrix(4.000000,0.000000,0.000000,4.000000,3536.000000,1750.000000)" x="0px" y="12px">CTP/D </text>

    
    <text class="AnText" fill="#0000FF" font-family="Arial" font-size="12" font-style="normal" font-weight="normal" text-decoration="none" transform="matrix(3.200000,0.000000,0.000000,3.200000,277.000000,1516.400024)" x="0px" y="12px">XT</text>

    
    <text class="AnText" fill="#0000FF" font-family="Arial" font-size="12" font-style="normal" font-weight="normal" text-decoration="none" transform="matrix(3.200000,0.000000,0.000000,3.200000,526.000000,1516.400024)" x="0px" y="12px">LAN</text>

    
    <text class="AnText" fill="#0000FF" font-family="Arial" font-size="12" font-style="normal" font-weight="normal" text-decoration="none" transform="matrix(3.200000,0.000000,0.000000,3.200000,951.799988,1636.400024)" x="0px" y="12px">LAP</text>

    
    <text class="AnText" fill="#0000FF" font-family="Arial" font-size="12" font-style="normal" font-weight="normal" text-decoration="none" transform="matrix(3.200000,0.000000,0.000000,3.200000,1331.000000,1636.400024)" x="0px" y="12px">LAQ</text>

    
    <text class="AnText" fill="#0000FF" font-family="Arial" font-size="12" font-style="normal" font-weight="normal" text-decoration="none" transform="matrix(3.200000,0.000000,0.000000,3.200000,1686.800049,1636.400024)" x="0px" y="12px">LAR</text>

    
    <text class="AnText" fill="#0000FF" font-family="Arial" font-size="12" font-style="normal" font-weight="normal" text-decoration="none" transform="matrix(4.000000,0.000000,0.000000,4.000000,501.000000,930.000000)" x="0px" y="12px">SSP/U </text>

    
    <text class="AnText" fill="#0000FF" font-family="Arial" font-size="12" font-style="normal" font-weight="normal" text-decoration="none" transform="matrix(4.000000,0.000000,0.000000,4.000000,746.000000,930.000000)" x="0px" y="12px">SSVB/U </text>

    
    <text class="AnText" fill="#0000FF" font-family="Arial" font-size="12" font-style="normal" font-weight="normal" text-decoration="none" transform="matrix(4.000000,0.000000,0.000000,4.000000,1924.000000,950.000000)" x="0px" y="12px">SSVB-CTVB/U </text>

    
    <text class="AnText" fill="#0000FF" font-family="Arial" font-size="12" font-style="normal" font-weight="normal" text-decoration="none" transform="matrix(4.000000,0.000000,0.000000,4.000000,3246.000000,930.000000)" x="0px" y="12px">CTVB/U </text>

    
    <text class="AnText" fill="#0000FF" font-family="Arial" font-size="12" font-style="normal" font-weight="normal" text-decoration="none" transform="matrix(4.000000,0.000000,0.000000,4.000000,3536.000000,930.000000)" x="0px" y="12px">CTP/U </text>

    
    <text class="AnText" fill="#000000" font-family="Arial" font-size="12" font-style="normal" font-weight="normal" text-decoration="none" transform="matrix(4.000000,0.000000,0.000000,4.000000,1861.000000,1270.000000)" x="0px" y="12px">UP TRACK</text>

    
    <text class="AnText" fill="#000000" font-family="Arial" font-size="12" font-style="normal" font-weight="normal" text-decoration="none" transform="matrix(4.000000,0.000000,0.000000,4.000000,1996.000000,1415.000000)" x="0px" y="12px">DOWN TRACK</text>

    
    <text class="AnText" fill="#0000FF" font-family="Arial" font-size="12" font-style="normal" font-weight="normal" text-decoration="none" transform="matrix(3.200000,0.000000,0.000000,3.200000,536.599976,1201.400024)" x="0px" y="12px">XN</text>

    
    <text class="AnText" fill="#0000FF" font-family="Arial" font-size="12" font-style="normal" font-weight="normal" text-decoration="none" transform="matrix(3.200000,0.000000,0.000000,3.200000,791.599976,1201.400024)" x="0px" y="12px">XG</text>

    
    <text class="AnText" fill="#0000FF" font-family="Arial" font-size="12" font-style="normal" font-weight="normal" text-decoration="none" transform="matrix(3.200000,0.000000,0.000000,3.200000,1026.000000,1201.400024)" x="0px" y="12px">LAA </text>

    
    <text class="AnText" fill="#0000FF" font-family="Arial" font-size="12" font-style="normal" font-weight="normal" text-decoration="none" transform="matrix(3.200000,0.000000,0.000000,3.200000,1326.800049,1201.400024)" x="0px" y="12px">LAB</text>

    
    <text class="AnText" fill="#0000FF" font-family="Arial" font-size="12" font-style="normal" font-weight="normal" text-decoration="none" transform="matrix(3.200000,0.000000,0.000000,3.200000,1691.800049,1201.400024)" x="0px" y="12px">LAC</text>

    
    <text class="AnText" fill="#0000FF" font-family="Arial" font-size="12" font-style="normal" font-weight="normal" text-decoration="none" transform="matrix(3.200000,0.000000,0.000000,3.200000,2061.000000,1201.400024)" x="0px" y="12px">LAD</text>

    
    <text class="AnText" fill="#0000FF" font-family="Arial" font-size="12" font-style="normal" font-weight="normal" text-decoration="none" transform="matrix(3.200000,0.000000,0.000000,3.200000,2426.800049,1201.400024)" x="0px" y="12px">LAE</text>

    
    <text class="AnText" fill="#0000FF" font-family="Arial" font-size="12" font-style="normal" font-weight="normal" text-decoration="none" transform="matrix(3.200000,0.000000,0.000000,3.200000,2746.800049,1201.400024)" x="0px" y="12px">LAF</text>

    
    <text class="AnText" fill="#0000FF" font-family="Arial" font-size="12" font-style="normal" font-weight="normal" text-decoration="none" transform="matrix(3.200000,0.000000,0.000000,3.200000,3051.000000,1201.400024)" x="0px" y="12px">LAG</text>

    
    <text class="AnText" fill="#0000FF" font-family="Arial" font-size="12" font-style="normal" font-weight="normal" text-decoration="none" transform="matrix(3.200000,0.000000,0.000000,3.200000,3841.000000,1326.400024)" x="0px" y="12px">LAK </text>

    
    <text class="AnText" fill="#0000FF" font-family="Arial" font-size="12" font-style="normal" font-weight="normal" text-decoration="none" transform="matrix(3.200000,0.000000,0.000000,3.200000,3296.000000,1261.400024)" x="0px" y="12px">LAH</text>

    
    <text class="AnText" fill="#0000FF" font-family="Arial" font-size="12" font-style="normal" font-weight="normal" text-decoration="none" transform="matrix(3.200000,0.000000,0.000000,3.200000,3541.199951,1321.400024)" x="0px" y="12px">LAJ</text>

    
    <text class="AnText" fill="#0000FF" font-family="Arial" font-size="12" font-style="normal" font-weight="normal" text-decoration="none" transform="matrix(3.200000,0.000000,0.000000,3.200000,3546.000000,1521.400024)" x="0px" y="12px">LAX </text>

    
    <text class="AnText" fill="#0000FF" font-family="Arial" font-size="12" font-style="normal" font-weight="normal" text-decoration="none" transform="matrix(3.200000,0.000000,0.000000,3.200000,3276.000000,1581.400024)" x="0px" y="12px">LAN</text>

    
    <text class="AnText" fill="#0000FF" font-family="Arial" font-size="12" font-style="normal" font-weight="normal" text-decoration="none" transform="matrix(3.200000,0.000000,0.000000,3.200000,3041.000000,1636.400024)" x="0px" y="12px">LAV </text>

    
    <text class="AnText" fill="#0000FF" font-family="Arial" font-size="12" font-style="normal" font-weight="normal" text-decoration="none" transform="matrix(3.200000,0.000000,0.000000,3.200000,2746.000000,1636.400024)" x="0px" y="12px">LAU</text>

    
    <text class="AnText" fill="#0000FF" font-family="Arial" font-size="12" font-style="normal" font-weight="normal" text-decoration="none" transform="matrix(3.200000,0.000000,0.000000,3.200000,2416.800049,1636.400024)" x="0px" y="12px">LAT</text>

    
    <text class="AnText" fill="#0000FF" font-family="Arial" font-size="12" font-style="normal" font-weight="normal" text-decoration="none" transform="matrix(3.200000,0.000000,0.000000,3.200000,2041.800049,1636.400024)" x="0px" y="12px">LAS  </text>

    
    <text class="AnText" fill="#000000" font-family="Arial" font-size="12" font-style="normal" font-weight="normal" text-decoration="none" transform="matrix(0.000000,-3.980490,4.000000,0.000000,619.000000,831.000000)" x="0px" y="12px">In</text>

    
    <text class="AnText" fill="#000000" font-family="Arial" font-size="12" font-style="normal" font-weight="normal" text-decoration="none" transform="matrix(0.000000,-3.980490,4.000000,0.000000,619.000000,686.000000)" x="0px" y="12px">Ex</text>

    
    <text class="AnText" fill="#000000" font-family="Arial" font-size="12" font-style="normal" font-weight="normal" text-decoration="none" transform="matrix(0.000000,-3.980490,4.000000,0.000000,985.000000,833.000000)" x="0px" y="12px">In</text>

    
    <text class="AnText" fill="#000000" font-family="Arial" font-size="12" font-style="normal" font-weight="normal" text-decoration="none" transform="matrix(0.000000,-3.980490,4.000000,0.000000,985.000000,688.000000)" x="0px" y="12px">Ex</text>

    
    <text class="AnText" fill="#000000" font-family="Arial" font-size="12" font-style="normal" font-weight="normal" text-decoration="none" transform="matrix(0.000000,3.980490,-4.000000,0.000000,821.000000,1904.000000)" x="0px" y="12px">In</text>

    
    <text class="AnText" fill="#000000" font-family="Arial" font-size="12" font-style="normal" font-weight="normal" text-decoration="none" transform="matrix(0.000000,3.980490,-4.000000,0.000000,821.000000,2049.000000)" x="0px" y="12px">Ex</text>

    
    <text class="AnText" fill="#000000" font-family="Arial" font-size="12" font-style="normal" font-weight="normal" text-decoration="none" transform="matrix(0.000000,3.980490,-4.000000,0.000000,1187.000000,1902.000000)" x="0px" y="12px">In</text>

    
    <text class="AnText" fill="#000000" font-family="Arial" font-size="12" font-style="normal" font-weight="normal" text-decoration="none" transform="matrix(0.000000,3.980490,-4.000000,0.000000,1187.000000,2047.000000)" x="0px" y="12px">Ex</text>

    
    <text class="AnText" fill="#000000" font-family="Arial" font-size="12" font-style="normal" font-weight="normal" text-decoration="none" transform="matrix(0.000000,-3.980490,4.000000,0.000000,3412.000000,832.000000)" x="0px" y="12px">In</text>

    
    <text class="AnText" fill="#000000" font-family="Arial" font-size="12" font-style="normal" font-weight="normal" text-decoration="none" transform="matrix(0.000000,-3.980490,4.000000,0.000000,3412.000000,687.000000)" x="0px" y="12px">Ex</text>

    
    <text class="AnText" fill="#000000" font-family="Arial" font-size="12" font-style="normal" font-weight="normal" text-decoration="none" transform="matrix(0.000000,-3.980490,4.000000,0.000000,3048.000000,833.000000)" x="0px" y="12px">In</text>

    
    <text class="AnText" fill="#000000" font-family="Arial" font-size="12" font-style="normal" font-weight="normal" text-decoration="none" transform="matrix(0.000000,-3.980490,4.000000,0.000000,3048.000000,688.000000)" x="0px" y="12px">Ex</text>

    
    <text class="AnText" fill="#000000" font-family="Arial" font-size="12" font-style="normal" font-weight="normal" text-decoration="none" transform="matrix(0.000000,3.980490,-4.000000,0.000000,3248.000000,1901.000000)" x="0px" y="12px">In</text>

    
    <text class="AnText" fill="#000000" font-family="Arial" font-size="12" font-style="normal" font-weight="normal" text-decoration="none" transform="matrix(0.000000,3.980490,-4.000000,0.000000,3248.000000,2046.000000)" x="0px" y="12px">Ex</text>

    
    <text class="AnText" fill="#000000" font-family="Arial" font-size="12" font-style="normal" font-weight="normal" text-decoration="none" transform="matrix(0.000000,3.980490,-4.000000,0.000000,3615.000000,1903.000000)" x="0px" y="12px">In</text>

    
    <text class="AnText" fill="#000000" font-family="Arial" font-size="12" font-style="normal" font-weight="normal" text-decoration="none" transform="matrix(0.000000,3.980490,-4.000000,0.000000,3615.000000,2048.000000)" x="0px" y="12px">Ex</text>

  
  </g>

  
  <g class="AnLayer" id="Image_Border">

    
    <line class="AnLine" fill="none" stroke="#000000" stroke-width="1px" x1="1px" x2="4319px" y1="1px" y2="1px" />

    
    <line class="AnLine" fill="none" stroke="#000000" stroke-width="1px" x1="4319px" x2="1px" y1="2403px" y2="2403px" />

    
    <line class="AnLine" fill="none" stroke="#000000" stroke-width="1px" x1="1px" x2="1px" y1="2403px" y2="1px" />

    
    <line class="AnLine" fill="none" stroke="#000000" stroke-width="1px" x1="4319px" x2="4319px" y1="1px" y2="2403px" />

  
  </g>

</svg>