<?xml version="1.0" standalone="no"?>
<!DOCTYPE svg PUBLIC "-//W3C//DTD SVG 20010904//EN"
 "http://www.w3.org/TR/2001/REC-SVG-20010904/DTD/svg10.dtd">
<svg version="1.0" xmlns="http://www.w3.org/2000/svg"
 width="900.000000pt" height="900.000000pt" viewBox="0 0 900.000000 900.000000"
 preserveAspectRatio="xMidYMid meet">
<g transform="translate(0.000000,900.000000) scale(0.100000,-0.100000)"
fill="#34444a" stroke="none">
<path d="M1089 8065 c-56 -29 -110 -87 -145 -157 -23 -45 -27 -66 -27 -138 0
-69 4 -93 22 -127 14 -27 485 -505 1282 -1302 692 -693 1260 -1261 1261 -1263
2 -2 5 -574 8 -1273 l5 -1270 24 -45 c29 -54 1351 -1381 1421 -1426 42 -27 51
-29 150 -29 123 0 161 15 241 95 37 37 52 62 68 115 21 67 21 71 21 1949 l0
1882 1254 1255 c690 690 1263 1268 1273 1284 54 90 55 195 2 313 -23 49 -95
119 -146 142 -45 20 -60 20 -3357 20 l-3311 -1 -46 -24z"/>
</g>
</svg>
