<svg contentScriptType="text/ecmascript" xmlns:xlink="http://www.w3.org/1999/xlink" zoomAndPan="magnify" xmlns:svg="http://www.w3.org/2000/svg" contentStyleType="text/css" preserveAspectRatio="xMidYMid meet" xmlns="http://www.w3.org/2000/svg" version="1.0">
  <g id="cam_overriden">
    <g id="_STRESSTEST_SYMBOLS_OSA_AWARENESS_SVG" transform="translate(-95.57134 26.21967)scale(0.45442292 0.4503613)">
      <defs id="defs3">
        <linearGradient x1="99.777298" xmlns:xlink="http://www.w3.org/1999/xlink" y1="15.4238" x2="153.0005" gradientUnits="userSpaceOnUse" y2="248.6311" xlink:type="simple" xlink:actuate="onLoad" id="aigrd1" xlink:show="other">
          <stop style="stop-color:#184375;stop-opacity:1" offset="0" id="stop53300" />
          <stop style="stop-color:#c8bddc;stop-opacity:1" offset="1" id="stop53302" />
        </linearGradient>
        <linearGradient x1="18.9951" xmlns:xlink="http://www.w3.org/1999/xlink" y1="37.226601" x2="30.169901" gradientUnits="userSpaceOnUse" y2="37.226601" xlink:type="simple" xlink:actuate="onLoad" id="linearGradient19894" xlink:show="other">
          <stop style="stop-color:#a3a349;stop-opacity:1" offset="0.005618" id="stop19896" />
          <stop style="stop-color:#acac54;stop-opacity:1" offset="0.02078677" id="stop19898" />
          <stop style="stop-color:#c1c172;stop-opacity:1" offset="0.06600059" id="stop19900" />
          <stop style="stop-color:#d4d68e;stop-opacity:1" offset="0.1148" id="stop19902" />
          <stop style="stop-color:#e2e4a6;stop-opacity:1" offset="0.16769999" id="stop19904" />
          <stop style="stop-color:#edf0b8;stop-opacity:1" offset="0.2265" id="stop19906" />
          <stop style="stop-color:#f3f6c3;stop-opacity:1" offset="0.29629999" id="stop19908" />
          <stop style="stop-color:#f5f8c7;stop-opacity:1" offset="0.40450001" id="stop19910" />
          <stop style="stop-color:#eef0be;stop-opacity:1" offset="0.52389997" id="stop19912" />
          <stop style="stop-color:#dbdda9;stop-opacity:1" offset="0.66659999" id="stop19914" />
          <stop style="stop-color:#bebd88;stop-opacity:1" offset="0.8211" id="stop19916" />
          <stop style="stop-color:#989564;stop-opacity:1" offset="0.98320001" id="stop19918" />
          <stop style="stop-color:#949160;stop-opacity:1" offset="1" id="stop19920" />
        </linearGradient>
        <radialGradient xmlns:xlink="http://www.w3.org/1999/xlink" gradientUnits="userSpaceOnUse" xlink:type="simple" cx="17.8335" xlink:actuate="onLoad" r="22.709299" cy="11.4873" id="aigrd7" xlink:show="other" fx="17.8335" fy="11.4873">
          <stop style="stop-color:#ffffff;stop-opacity:0.17525773" offset="0" id="stop19512" />
          <stop style="stop-color:#709ac8;stop-opacity:1" offset="0.88200003" id="stop19514" />
          <stop style="stop-color:#6f96dd;stop-opacity:1" offset="1" id="stop19516" />
        </radialGradient>
        <linearGradient xlink:actuate="onLoad" xlink:type="simple" id="linearGradient20210" xlink:show="other" xmlns:xlink="http://www.w3.org/1999/xlink">
          <stop style="stop-color:#000000;stop-opacity:0.51546389" offset="0" id="stop20212" />
          <stop style="stop-color:#000000;stop-opacity:0.14432989" offset="0.55172414" id="stop20218" />
          <stop style="stop-color:#000000;stop-opacity:0" offset="1" id="stop20214" />
        </linearGradient>
        <linearGradient xlink:actuate="onLoad" xlink:type="simple" id="linearGradient20393" xlink:show="other" xmlns:xlink="http://www.w3.org/1999/xlink">
          <stop style="stop-color:#ffffff;stop-opacity:1" offset="0" id="stop20395" />
          <stop style="stop-color:#ffffff;stop-opacity:0.44117647" offset="0.41176471" id="stop2427" />
          <stop style="stop-color:#000000;stop-opacity:0.48039216" offset="1" id="stop20397" />
        </linearGradient>
        <linearGradient xlink:actuate="onLoad" xlink:type="simple" id="linearGradient20428" xlink:show="other" xmlns:xlink="http://www.w3.org/1999/xlink">
          <stop style="stop-color:#a3a3a3;stop-opacity:1" offset="0" id="stop20430" />
          <stop style="stop-color:#b5b5b5;stop-opacity:0" offset="1" id="stop20432" />
        </linearGradient>
        <linearGradient xlink:actuate="onLoad" xlink:type="simple" id="linearGradient2399" xlink:show="other" xmlns:xlink="http://www.w3.org/1999/xlink">
          <stop style="stop-color:#929470;stop-opacity:1" offset="0" id="stop2401" />
          <stop style="stop-color:#fcffc1;stop-opacity:1" offset="0.2647059" id="stop2407" />
          <stop style="stop-color:#f3f5ba;stop-opacity:1" offset="0.63235295" id="stop2409" />
          <stop style="stop-color:#929470;stop-opacity:1" offset="1" id="stop2403" />
        </linearGradient>
        <linearGradient xlink:actuate="onLoad" xlink:type="simple" id="linearGradient3175" xlink:show="other" xmlns:xlink="http://www.w3.org/1999/xlink">
          <stop style="stop-color:#f1f3ff;stop-opacity:1" offset="0" id="stop3177" />
          <stop style="stop-color:#f1f3ff;stop-opacity:0" offset="1" id="stop3179" />
        </linearGradient>
        <linearGradient xlink:actuate="onLoad" xlink:type="simple" id="linearGradient3265" xlink:show="other" xmlns:xlink="http://www.w3.org/1999/xlink">
          <stop style="stop-color:#929470;stop-opacity:1" offset="0" id="stop3267" />
          <stop style="stop-color:#60614a;stop-opacity:1" offset="0.2647059" id="stop3269" />
          <stop style="stop-color:#f3f5ba;stop-opacity:1" offset="0.63235295" id="stop3271" />
          <stop style="stop-color:#929470;stop-opacity:1" offset="1" id="stop3273" />
        </linearGradient>
        <linearGradient xlink:actuate="onLoad" xlink:type="simple" id="linearGradient3311" xlink:show="other" xmlns:xlink="http://www.w3.org/1999/xlink">
          <stop style="stop-color:#d6d7a5;stop-opacity:1" offset="0" id="stop3313" />
          <stop style="stop-color:#8e8f6d;stop-opacity:1" offset="1" id="stop3315" />
        </linearGradient>
        <linearGradient xlink:actuate="onLoad" xlink:type="simple" id="linearGradient3300" xlink:show="other" xmlns:xlink="http://www.w3.org/1999/xlink">
          <stop style="stop-color:#4c4c28;stop-opacity:1" offset="0" id="stop3302" />
          <stop style="stop-color:#4c4c28;stop-opacity:0" offset="1" id="stop3304" />
        </linearGradient>
        <radialGradient gradientTransform="scale(1.764278,0.566804)" xmlns:xlink="http://www.w3.org/1999/xlink" id="radialGradient2643" gradientUnits="userSpaceOnUse" xlink:show="other" xlink:type="simple" r="7.8289828" cx="14.772334" fx="14.772334" cy="74.20993" fy="74.20993" xlink:href="#linearGradient20210" xlink:actuate="onLoad" />
        <filter x="-0.12" color-interpolation-filters="sRGB" y="-0.12" width="1.24" xmlns:xlink="http://www.w3.org/1999/xlink" xlink:type="simple" xlink:actuate="onLoad" height="1.24" id="filter3456" xlink:show="other">
          <feGaussianBlur stdDeviation="1.230016" id="feGaussianBlur3458" />
        </filter>
        <linearGradient gradientTransform="scale(1.002656,0.997352)" x1="24.613028" xmlns:xlink="http://www.w3.org/1999/xlink" y1="31.146202" x2="24.613028" xlink:href="#linearGradient3300" gradientUnits="userSpaceOnUse" y2="26.739624" xlink:type="simple" xlink:actuate="onLoad" id="linearGradient3486" xlink:show="other" />
        <linearGradient gradientTransform="matrix(0.566621,0.02988977,-0.118557,0.656541,36.18544,20.08311)" x1="-22.87417" xmlns:xlink="http://www.w3.org/1999/xlink" y1="38.675991" x2="-4.3908315" xlink:href="#linearGradient19894" gradientUnits="userSpaceOnUse" y2="38.675991" xlink:type="simple" xlink:actuate="onLoad" id="linearGradient3488" xlink:show="other" />
        <linearGradient gradientTransform="matrix(0.566621,0.02988977,-0.118557,0.656541,36.18544,20.08311)" x1="-10.480865" xmlns:xlink="http://www.w3.org/1999/xlink" y1="39.033951" x2="-23.851389" xlink:href="#linearGradient2399" gradientUnits="userSpaceOnUse" y2="39.142845" xlink:type="simple" xlink:actuate="onLoad" id="linearGradient3490" xlink:show="other" />
        <linearGradient gradientTransform="scale(1.02645,0.974232)" x1="-22.87417" xmlns:xlink="http://www.w3.org/1999/xlink" y1="38.675991" x2="-4.3908315" xlink:href="#linearGradient19894" gradientUnits="userSpaceOnUse" y2="38.675991" xlink:type="simple" xlink:actuate="onLoad" id="linearGradient3492" xlink:show="other" />
        <linearGradient gradientTransform="scale(1.02645,0.974232)" x1="-10.480865" xmlns:xlink="http://www.w3.org/1999/xlink" y1="39.033951" x2="-23.851389" xlink:href="#linearGradient2399" gradientUnits="userSpaceOnUse" y2="39.142845" xlink:type="simple" xlink:actuate="onLoad" id="linearGradient3494" xlink:show="other" />
        <linearGradient gradientTransform="scale(1.02645,0.974232)" x1="-22.87417" xmlns:xlink="http://www.w3.org/1999/xlink" y1="38.675991" x2="-4.3908315" xlink:href="#linearGradient19894" gradientUnits="userSpaceOnUse" y2="38.675991" xlink:type="simple" xlink:actuate="onLoad" id="linearGradient3496" xlink:show="other" />
        <linearGradient gradientTransform="scale(1.02645,0.974232)" x1="-10.480865" xmlns:xlink="http://www.w3.org/1999/xlink" y1="39.033951" x2="-23.851389" xlink:href="#linearGradient2399" gradientUnits="userSpaceOnUse" y2="39.142845" xlink:type="simple" xlink:actuate="onLoad" id="linearGradient3498" xlink:show="other" />
        <linearGradient gradientTransform="matrix(0.618682,-0.132027,0.06262726,0.741184,31.12021,8.30041)" x1="-22.87417" xmlns:xlink="http://www.w3.org/1999/xlink" y1="38.675991" x2="-4.3908315" xlink:href="#linearGradient19894" gradientUnits="userSpaceOnUse" y2="38.675991" xlink:type="simple" xlink:actuate="onLoad" id="linearGradient3500" xlink:show="other" />
        <linearGradient gradientTransform="matrix(0.618682,-0.132027,0.06262726,0.741184,31.12021,8.30041)" x1="-10.480865" xmlns:xlink="http://www.w3.org/1999/xlink" y1="39.033951" x2="-23.851389" xlink:href="#linearGradient2399" gradientUnits="userSpaceOnUse" y2="39.142845" xlink:type="simple" xlink:actuate="onLoad" id="linearGradient3502" xlink:show="other" />
        <linearGradient gradientTransform="matrix(4.6934299,0,0,4.0899456,-53.984201,-64.913889)" x1="23.124001" xmlns:xlink="http://www.w3.org/1999/xlink" y1="43.165001" x2="26.4785" xlink:href="#aigrd1" gradientUnits="userSpaceOnUse" y2="43.165001" xlink:type="simple" xlink:actuate="onLoad" id="linearGradient3542" xlink:show="other" />
        <linearGradient gradientTransform="matrix(1.60344,0,0,0.549396,0.614167,0.024498)" x1="17.879995" xmlns:xlink="http://www.w3.org/1999/xlink" y1="55.362793" x2="11.906206" xlink:href="#linearGradient3311" gradientUnits="userSpaceOnUse" y2="54.863026" xlink:type="simple" xlink:actuate="onLoad" id="linearGradient3544" xlink:show="other" />
        <linearGradient gradientTransform="matrix(-0.905728,-0.04386156,0.18951,-0.963437,0.614167,0.024498)" x1="-29.007195" xmlns:xlink="http://www.w3.org/1999/xlink" y1="-29.799353" x2="-37.641232" xlink:href="#linearGradient3265" gradientUnits="userSpaceOnUse" y2="-29.598314" xlink:type="simple" xlink:actuate="onLoad" id="linearGradient3546" xlink:show="other" />
        <radialGradient gradientTransform="matrix(0.55129,0,0,0.766034,-10.48701,3.514312)" xmlns:xlink="http://www.w3.org/1999/xlink" id="radialGradient3548" gradientUnits="userSpaceOnUse" xlink:show="other" xlink:type="simple" r="33.93409" cx="68.137589" fx="68.137589" cy="29.869318" fy="29.869318" xlink:href="#aigrd7" xlink:actuate="onLoad" />
        <linearGradient gradientTransform="matrix(0.894129,0,0,0.98523,1.515981,0.024498)" x1="37.940434" xmlns:xlink="http://www.w3.org/1999/xlink" y1="16.651863" x2="-5.2517161" xlink:href="#linearGradient3175" gradientUnits="userSpaceOnUse" y2="3.8557322" xlink:type="simple" xlink:actuate="onLoad" id="linearGradient3550" xlink:show="other" />
        <linearGradient gradientTransform="matrix(-0.6293,0,0,1.589068,50.68808,3.804378)" x1="30.620375" xmlns:xlink="http://www.w3.org/1999/xlink" y1="10.313651" x2="32.16608" xlink:href="#linearGradient20393" gradientUnits="userSpaceOnUse" y2="18.162935" xlink:type="simple" xlink:actuate="onLoad" id="linearGradient3552" xlink:show="other" />
        <linearGradient gradientTransform="matrix(0.6293,0,0,1.589068,1.411612,3.929378)" x1="30.620375" xmlns:xlink="http://www.w3.org/1999/xlink" y1="10.313651" x2="32.16608" xlink:href="#linearGradient20393" gradientUnits="userSpaceOnUse" y2="18.162935" xlink:type="simple" xlink:actuate="onLoad" id="linearGradient3554" xlink:show="other" />
        <linearGradient gradientTransform="matrix(1.985083,0,0,0.503757,1.786612,4.554378)" x1="14.637301" xmlns:xlink="http://www.w3.org/1999/xlink" y1="31.504122" x2="9.3648205" xlink:href="#linearGradient20428" gradientUnits="userSpaceOnUse" y2="32.25098" xlink:type="simple" xlink:actuate="onLoad" id="linearGradient3556" xlink:show="other" />
      </defs>
      <g style="display:inline" id="layer1" />
      <g style="display:inline" id="layer2">
        <g id="g3571">
          <path d="m 39.875,42.0625 c 0,2.450764 -6.184067,4.4375 -13.8125,4.4375 -7.628433,0 -13.8125,-1.986736 -13.8125,-4.4375 0,-2.450764 6.184067,-4.4375 13.8125,-4.4375 7.628433,0 13.8125,1.986736 13.8125,4.4375 z" id="path20208" style="opacity:0.8;fill:url(#radialGradient2643);fill-opacity:1;fill-rule:nonzero;stroke:none;stroke-width:2;marker:none;visibility:visible;display:inline;overflow:visible" transform="matrix(3.1863791,0,0,2.9239701,-17.970518,-9.8873213)" />
          <path style="fill:url(#linearGradient3542);fill-rule:nonzero;stroke:#565656;stroke-width:2.67295313;stroke-miterlimit:4;stroke-opacity:1" d="m 54.434087,106.45502 0,3.68095 c 0,3.68095 3.754748,6.95291 7.978837,6.95291 4.224089,0 7.978834,-3.27196 7.978834,-6.95291 l 0,-3.68095 -15.957671,0 z" id="path19509" />
          <g id="g3173" transform="matrix(2.632481,0,0,2.6444128,-2.5524966,1.3376315)">
            <path style="fill:#aeae57;fill-opacity:1;fill-rule:nonzero;stroke:url(#linearGradient3486);stroke-width:2.01752925;stroke-linecap:round;stroke-linejoin:round;stroke-miterlimit:4;stroke-opacity:1;stroke-dashoffset:0;marker:none;visibility:visible;display:inline;overflow:visible" d="m 24.511725,27.668867 c -3.302881,-0.008 -7.04845,0.963187 -5.018812,2.799064 -0.503223,0.203003 -1.222542,0.656382 -1.137746,1.717291 0.04682,0.554064 0.634076,0.894172 1.437193,1.143888 -0.910452,0.638612 -1.489779,1.313447 -1.437193,1.935811 0.04627,0.547604 0.621167,0.92261 1.407863,1.173219 -0.887511,0.631263 -1.459729,1.321981 -1.407863,1.935811 0.07927,0.938137 2.102576,1.988977 6.483761,1.867949 3.154401,-0.08599 5.937985,-0.651386 6.157671,-1.867949 0.08626,-0.477703 -0.304692,-0.92342 -0.909244,-1.319871 0.452571,-0.456162 0.769625,-0.918838 0.733261,-1.349202 -0.04649,-0.550184 -0.614623,-0.922955 -1.407862,-1.173218 0.887511,-0.631263 1.459728,-1.321981 1.407862,-1.935811 -0.04649,-0.550185 -0.614623,-0.893624 -1.407862,-1.143889 0.898094,-0.634672 1.460062,-1.318032 1.407862,-1.935811 -0.05802,-0.686703 -3.204626,-1.839791 -6.308891,-1.847282 z" id="path3209" />
            <path style="fill:url(#linearGradient3488);fill-opacity:1;fill-rule:nonzero;stroke:url(#linearGradient3490);stroke-width:0.08906282;stroke-linecap:round;stroke-linejoin:round;stroke-miterlimit:4;stroke-opacity:1;stroke-dashoffset:0;marker:none;visibility:visible;display:inline;overflow:visible" d="m 30.920208,38.329767 c -0.219686,1.216564 -3.328786,1.903094 -8.305076,1.653906 -3.151625,-0.157817 -3.331969,-1.039618 -3.112284,-2.256182 0.219686,-1.216565 2.95547,-2.069011 6.106661,-1.902783 3.151191,0.166228 5.530384,1.288495 5.310699,2.505059 z" id="path3183" />
            <path d="m -3.5355339,27.228739 c 0,1.806175 -4.6300189,3.270369 -10.3414361,3.270369 -5.711418,0 -10.341437,-1.464194 -10.341437,-3.270369 0,-1.806175 4.630019,-3.270369 10.341437,-3.270369 5.7114172,0 10.3414361,1.464194 10.3414361,3.270369 l 0,0 z" id="path1603" style="fill:url(#linearGradient3492);fill-opacity:1;fill-rule:nonzero;stroke:url(#linearGradient3494);stroke-width:0.13035245;stroke-linecap:round;stroke-linejoin:round;stroke-miterlimit:4;stroke-opacity:1;stroke-dashoffset:0;marker:none;visibility:visible;display:inline;overflow:visible" transform="matrix(0.60274,-0.128625,0.06428372,0.760788,31.12021,14.49141)" />
            <path d="m -3.5355339,27.228739 c 0,1.806175 -4.6300189,3.270369 -10.3414361,3.270369 -5.711418,0 -10.341437,-1.464194 -10.341437,-3.270369 0,-1.806175 4.630019,-3.270369 10.341437,-3.270369 5.7114172,0 10.3414361,1.464194 10.3414361,3.270369 l 0,0 z" id="path2364" style="fill:url(#linearGradient3496);fill-opacity:1;fill-rule:nonzero;stroke:url(#linearGradient3498);stroke-width:0.13035245;stroke-linecap:round;stroke-linejoin:round;stroke-miterlimit:4;stroke-opacity:1;stroke-dashoffset:0;marker:none;visibility:visible;display:inline;overflow:visible" transform="matrix(0.60274,-0.128625,0.06428372,0.760788,31.12021,11.39591)" />
            <path style="fill:url(#linearGradient3500);fill-opacity:1;fill-rule:nonzero;stroke:url(#linearGradient3502);stroke-width:0.08906286;stroke-linecap:round;stroke-linejoin:round;stroke-miterlimit:4;stroke-opacity:1;stroke-dashoffset:0;marker:none;visibility:visible;display:inline;overflow:visible" d="m 30.698087,29.636386 c 0,1.378302 -2.540761,2.918054 -5.981486,3.652307 -3.440725,0.734252 -6.327381,0.215517 -6.443429,-1.157891 -0.116048,-1.373407 2.236507,-2.975336 5.679216,-3.161975 3.469991,-0.188116 6.745699,-0.04393 6.745699,0.667559 z" id="path2366" />
            <path d="m 31,22.375 c 0,1.794925 -1.455075,3.25 -3.25,3.25 -1.794925,0 -3.25,-1.455075 -3.25,-3.25 0,-1.794925 1.455075,-3.25 3.25,-3.25 1.794925,0 3.25,1.455075 3.25,3.25 z" id="path20372" style="fill:#ffffff;fill-opacity:1;fill-rule:nonzero;stroke:none;stroke-width:2;marker:none;visibility:visible;display:inline;overflow:visible" transform="matrix(0.335464,0,0,0.335464,11.74678,27.2261)" />
            <path style="fill:#000000;fill-opacity:0.23391807;fill-rule:evenodd;stroke:none" d="m 19.342183,33.378865 c 3.394409,0.504668 6.978809,-0.03267 9.872132,-1.908058 0.811267,-0.525845 0.933289,-1.126862 1.306606,-1.596963 -1.424131,1.126861 -5.025939,4.161781 -11.178738,3.505021 z" id="path3241" />
            <path d="m 31,22.375 c 0,1.794925 -1.455075,3.25 -3.25,3.25 -1.794925,0 -3.25,-1.455075 -3.25,-3.25 0,-1.794925 1.455075,-3.25 3.25,-3.25 1.794925,0 3.25,1.455075 3.25,3.25 z" id="path2435" style="fill:#ffffff;fill-opacity:1;fill-rule:nonzero;stroke:none;stroke-width:2;marker:none;visibility:visible;display:inline;overflow:visible" transform="matrix(0.335464,0,0,0.335464,11.74678,30.23376)" />
            <path style="fill:#000000;fill-opacity:0.23391807;fill-rule:evenodd;stroke:none" d="m 19.466621,39.517838 c 3.394409,0.504668 6.978809,-0.03267 9.872132,-1.908058 0.811267,-0.525845 0.93329,-1.126861 1.306606,-1.596963 -1.424131,1.126861 -5.025939,4.161781 -11.178738,3.505021 z" id="path3237" />
            <path style="fill:#000000;fill-opacity:0.23391807;fill-rule:evenodd;stroke:none" d="m 19.487361,36.406872 c 3.394409,0.504668 6.978809,-0.03267 9.872131,-1.908058 0.811268,-0.525845 0.93329,-1.126861 1.306607,-1.596963 -1.424131,1.126861 -5.025939,4.161781 -11.178738,3.505021 z" id="path3239" />
          </g>
          <g id="g3141" transform="matrix(2.6615639,0,0,2.6615639,-4.096358,1.3165506)">
            <path d="m 18.87103,29.628128 c 0,-0.791433 1.574105,-1.73814 5.548204,-1.685156 3.68192,0.04909 6.107374,0.895688 6.107374,2.162432 0,1.239877 -3.219366,2.069012 -6.651931,1.902784 -3.432564,-0.166228 -5.003647,-1.140183 -5.003647,-2.38006 z" id="path3243" style="fill:url(#linearGradient3544);fill-opacity:1;fill-rule:nonzero;stroke:url(#linearGradient3546);stroke-width:0.09083303;stroke-linecap:round;stroke-linejoin:round;stroke-miterlimit:4;stroke-opacity:1;stroke-dashoffset:0;marker:none;visibility:visible;display:inline;overflow:visible" transform="matrix(0.954439,0,0,0.989869,1.433222,0.639881)" />
            <path d="m 24.680021,0.8622936 c -7.822016,0 -14.17376,5.9749692 -14.17376,13.3329944 0,7.542563 5.741565,8.377929 5.741565,11.157707 0,3.266066 3.366277,6.969692 8.901483,6.836 5.88585,-0.14216 8.314873,-3.36334 8.314873,-6.836 0,-2.968931 5.389599,-3.048106 5.389599,-11.157707 0,-7.3580252 -6.351743,-13.3329944 -14.17376,-13.3329944 z" id="path6305" style="fill:url(#radialGradient3548);fill-opacity:1;fill-rule:nonzero;stroke:#616471;stroke-width:1.01595449;stroke-linecap:round;stroke-linejoin:round;stroke-miterlimit:4;stroke-opacity:1;stroke-dashoffset:0;marker:none;visibility:visible;display:inline;overflow:visible" transform="matrix(0.954439,0,0,0.989869,1.433222,0.639881)" />
            <path d="m 24.680021,1.9277146 c -7.290022,0 -13.209769,5.5685977 -13.209769,12.4261864 0,7.029575 5.351068,7.808126 5.351068,10.398845 0,3.043934 3.137328,6.495667 8.296072,6.371067 5.485539,-0.132492 7.749359,-3.134591 7.749359,-6.371067 0,-2.767006 5.02304,-2.840798 5.02304,-10.398845 0,-6.8575887 -5.919747,-12.4261864 -13.20977,-12.4261864 z" id="path2429" style="fill:none;stroke:url(#linearGradient3550);stroke-width:0.94685698;stroke-linecap:round;stroke-linejoin:round;stroke-miterlimit:4;stroke-opacity:1;stroke-dashoffset:0;marker:none;visibility:visible;display:inline;overflow:visible" transform="matrix(0.954439,0,0,0.989869,1.433222,0.639881)" />
          </g>
          <g id="g1695" transform="matrix(2.4952162,0,0,2.4671047,-2.5813399,1.9866259)">
            <path style="fill:url(#linearGradient3552);fill-opacity:1;fill-rule:nonzero;stroke:none" d="m 31.947292,19.22274 c 0.312742,0.104248 0.521237,0.41699 0.416989,0.729731 l -3.857147,11.571442 c -0.104247,0.312742 -0.416989,0.521236 -0.729731,0.416989 -0.312741,-0.104247 -0.521235,-0.416989 -0.416988,-0.72973 L 31.217562,19.63973 c 0.104247,-0.312742 0.416989,-0.521237 0.72973,-0.41699 z" id="path1691" />
            <path style="fill:url(#linearGradient3554);fill-opacity:1;fill-rule:nonzero;stroke:none" d="m 20.152404,19.34774 c -0.312742,0.104248 -0.521237,0.41699 -0.416989,0.729731 l 3.857147,11.571442 c 0.104247,0.312742 0.416989,0.521236 0.729731,0.416989 0.312741,-0.104247 0.521235,-0.416989 0.416988,-0.72973 L 20.882134,19.76473 c -0.104247,-0.312742 -0.416989,-0.521237 -0.72973,-0.41699 z" id="path19612" />
            <path style="fill:#ffffff;fill-opacity:1;fill-rule:nonzero;stroke:url(#linearGradient3556);stroke-width:0.21454535;stroke-linecap:round;stroke-linejoin:round;stroke-miterlimit:4;stroke-opacity:1" d="m 20.255362,19.273128 c -0.24591,0.04207 -0.438556,0.234644 -0.480709,0.480539 -0.04215,0.245895 0.07535,0.491642 0.293209,0.613211 0,0 1.842222,1.080869 4.25,1.625 2.407778,0.544131 5.488901,0.579427 7.8125,-1.6875 0.175246,-0.139033 0.256492,-0.365415 0.209645,-0.584154 -0.04685,-0.218739 -0.213682,-0.391991 -0.430498,-0.447056 -0.216816,-0.05506 -0.446103,0.01758 -0.591647,0.18746 -1.950536,1.902962 -4.544838,1.904592 -6.75,1.40625 -2.205162,-0.498342 -3.90625,-1.5 -3.90625,-1.5 -0.119434,-0.07979 -0.26393,-0.113134 -0.40625,-0.09375 z" id="path19614" />
          </g>
          <path d="m 23.627608,35.749599 c 0,6.240906 -5.059254,11.30016 -11.30016,11.30016 -6.2409064,0 -11.3001605,-5.059254 -11.3001605,-11.30016 0,-6.240906 5.0592541,-11.30016 11.3001605,-11.30016 6.240906,0 11.30016,5.059254 11.30016,11.30016 l 0,0 z" id="path3272" style="opacity:0.5;fill:#ffff00;fill-opacity:1;fill-rule:nonzero;stroke:#ffff00;stroke-width:2;stroke-linecap:round;stroke-linejoin:round;stroke-miterlimit:4;stroke-opacity:1;stroke-dasharray:none;stroke-dashoffset:0;marker:none;visibility:visible;display:inline;overflow:visible;filter:url(#filter3456);enable-background:accumulate" transform="matrix(1.8685893,0,0,1.8685893,40.451422,-26.531657)" />
        </g>
      </g>
    </g>
  </g>
</svg>
