<svg contentScriptType="text/ecmascript" width="200.0" xmlns:xlink="http://www.w3.org/1999/xlink" zoomAndPan="magnify" contentStyleType="text/css" height="200.0" viewBox="0.0 0.0 200.0 200.0" preserveAspectRatio="xMidYMid meet" xmlns="http://www.w3.org/2000/svg" version="1.0"><g id="TTVF_D_Symbol_Undefined"><g id="_SCADAGEN_SYMBOLS_ECT_SCADAGEN_ECT_TTVF_1_UNDEFINED_VERTICAL_SVG" transform="translate(-1.0 -1.0)scale(1.0 1.0)"><rect x="60.0" fill="red" width="80.0" height="112.0" y="44.0" opacity="0"/><g id="ECT/SCADAgen_ECT_TTVF_1_Undefined_Vertical" transform="matrix(1.000000, 0, 0, 1.000000, 100.000000, 100.000000)">

  
  <line fill="none" x1="40px" x2="-39px" y1="-30px" y2="-30px" class="AnLine" stroke="#989898" stroke-width="2px"/>

  
  <line fill="none" x1="40px" x2="-39px" y1="31px" y2="31px" class="AnLine" stroke="#989898" stroke-width="2px"/>

  
  <line fill="none" x1="32px" x2="32px" y1="-30px" y2="31px" class="AnLine" stroke="#989898" stroke-width="2px"/>

  
  <line fill="none" x1="-30px" x2="-30px" y1="-30px" y2="31px" class="AnLine" stroke="#989898" stroke-width="2px"/>

  
  <polygon fill="#989898" class="AnPolygon" fill-rule="evenodd" points="28,-20 28,21 -27,-20 -27,21 28,-20 "/>

  
  <polygon fill="#989898" class="AnPolygon" fill-rule="evenodd" points="31,34 -30,34 1,55 31,34 "/>

  
  <polygon fill="#989898" class="AnPolygon" fill-rule="evenodd" points="-30,-34 31,-34 1,-55 -30,-34 "/>

</g></g></g><rect rx="0.0" ry="0.0" width="200.0" height="200.0" style="fill-opacity: 0.0;stroke-opacity: 0.0;stroke-width:1;stroke:rgb(0,0,0)"/></svg>