<?xml version='1.0' encoding='iso-8859-1'?>
<svg xmlns="http://www.w3.org/2000/svg" height="895" preserveAspectRatio="xMinYMin meet" version="1.1" viewBox="0 0 1920 895" width="1920">

  
  <g class="AnLayer" id="AnDefaultLayer">

    
    <g anclass="FireZoneActiveBackdrop" anpath=":PCCL01:EN:ZNA:SEC_00" class="FireZoneActiveBackdrop ActiveBackdrop" cmn_acla="FireZoneActiveBackdrop" hv_id="B01FD001" id=":PCCL01:EN:ZNA:SEC_00_1" style="fill:#FF0000; ">

      
      <g transform="matrix(1.000000, 0.000000, 0.000000, 1.000000, 0.000000, 0.000000)"><polygon class="AnPolygon" fill-rule="evenodd" points="95,703 80,688 90,688 90,631 100,631 100,688 110,688 95,703 " />

    
    </g></g>

    
    <g anclass="FireZoneActiveBackdrop" anpath=":PCCL01:EN:ZNB:SEC_02" class="FireZoneActiveBackdrop ActiveBackdrop" cmn_acla="FireZoneActiveBackdrop" hv_id="B01FD003" id=":PCCL01:EN:ZNB:SEC_02_2" style="fill:#FF0000; ">

      
      <g transform="matrix(1.000000, 0.000000, 0.000000, 1.000000, 0.000000, 0.000000)"><polygon class="AnPolygon" fill-rule="evenodd" points="316,704 301,689 311,689 311,632 321,632 321,689 331,689 316,704 " />

    
    </g></g>

    
    <g anclass="FireZoneActiveBackdrop" anpath=":PCCL01:EN:ZNA:SEC_01" class="FireZoneActiveBackdrop ActiveBackdrop" cmn_acla="FireZoneActiveBackdrop" hv_id="B01FD002" id=":PCCL01:EN:ZNA:SEC_01_3" style="fill:#FF0000; ">

      
      <g transform="matrix(1.000000, 0.000000, 0.000000, 1.000000, 0.000000, 0.000000)"><polygon class="AnPolygon" fill-rule="evenodd" points="262,703 247,688 257,688 257,631 267,631 267,688 277,688 262,703 " />

    
    </g></g>

    
    <g anclass="FireZoneActiveBackdrop" anpath=":PCCL01:EN:ZNA:SEC_00" class="FireZoneActiveBackdrop ActiveBackdrop" cmn_acla="FireZoneActiveBackdrop" hv_id="B01FD001" id=":PCCL01:EN:ZNA:SEC_00_4" style="fill:#FF0000; ">

      
      <g transform="matrix(1.000000, 0.000000, 0.000000, 1.000000, 0.000000, 0.000000)"><polygon class="AnPolygon" fill-rule="evenodd" points="149,703 134,688 144,688 144,631 154,631 154,688 164,688 149,703 " />

    
    </g></g>

    
    <g anclass="FireZoneActiveBackdrop" anpath=":PCCL01:EN:ZNB:SEC_02" class="FireZoneActiveBackdrop ActiveBackdrop" cmn_acla="FireZoneActiveBackdrop" hv_id="B01FD003" id=":PCCL01:EN:ZNB:SEC_02_5" style="fill:#FF0000; ">

      
      <g transform="matrix(1.000000, 0.000000, 0.000000, 1.000000, 0.000000, 0.000000)"><polygon class="AnPolygon" fill-rule="evenodd" points="447,703 432,688 442,688 442,631 452,631 452,688 462,688 447,703 " />

    
    </g></g>

    
    <g anclass="FireZoneActiveBackdrop" anpath=":PCCL01:EN:ZNC:SEC_03" class="FireZoneActiveBackdrop ActiveBackdrop" cmn_acla="FireZoneActiveBackdrop" hv_id="B01FD004" id=":PCCL01:EN:ZNC:SEC_03_6" style="fill:#FF0000; ">

      
      <g transform="matrix(1.000000, 0.000000, 0.000000, 1.000000, 0.000000, 0.000000)"><polygon class="AnPolygon" fill-rule="evenodd" points="501,703 486,688 496,688 496,631 506,631 506,688 516,688 501,703 " />

    
    </g></g>

    
    <g anclass="FireZoneActiveBackdrop" anpath=":PCCL01:EN:ZNF:SEC_10" class="FireZoneActiveBackdrop ActiveBackdrop" cmn_acla="FireZoneActiveBackdrop" hv_id="B01FD010" id=":PCCL01:EN:ZNF:SEC_10_7" style="fill:#FF0000; ">

      
      <g transform="matrix(1.000000, 0.000000, 0.000000, 1.000000, 0.000000, 0.000000)"><polygon class="AnPolygon" fill-rule="evenodd" points="1211,703 1196,688 1206,688 1206,631 1216,631 1216,688 1226,688 1211,703 " />

    
    </g></g>

    
    <g anclass="FireZoneActiveBackdrop" anpath=":PCCL01:EN:ZNE:SEC_09" class="FireZoneActiveBackdrop ActiveBackdrop" cmn_acla="FireZoneActiveBackdrop" hv_id="B01FD009" id=":PCCL01:EN:ZNE:SEC_09_8" style="fill:#FF0000; ">

      
      <g transform="matrix(1.000000, 0.000000, 0.000000, 1.000000, 0.000000, 0.000000)"><polygon class="AnPolygon" fill-rule="evenodd" points="1157,703 1142,688 1152,688 1152,631 1162,631 1162,688 1172,688 1157,703 " />

    
    </g></g>

    
    <g anclass="FireZoneActiveBackdrop" anpath=":PCCL01:EN:ZNE:SEC_09" class="FireZoneActiveBackdrop ActiveBackdrop" cmn_acla="FireZoneActiveBackdrop" hv_id="B01FD009" id=":PCCL01:EN:ZNE:SEC_09_9" style="fill:#FF0000; ">

      
      <g transform="matrix(1.000000, 0.000000, 0.000000, 1.000000, 0.000000, 0.000000)"><polygon class="AnPolygon" fill-rule="evenodd" points="1048,703 1033,688 1043,688 1043,631 1053,631 1053,688 1063,688 1048,703 " />

    
    </g></g>

    
    <g anclass="FireZoneActiveBackdrop" anpath=":PCCL01:EN:ZNE:SEC_09" class="FireZoneActiveBackdrop ActiveBackdrop" cmn_acla="FireZoneActiveBackdrop" hv_id="B01FD009" id=":PCCL01:EN:ZNE:SEC_09_10" style="fill:#FF0000; ">

      
      <g transform="matrix(1.000000, 0.000000, 0.000000, 1.000000, 0.000000, 0.000000)"><polygon class="AnPolygon" fill-rule="evenodd" points="994,703 979,688 989,688 989,631 999,631 999,688 1009,688 994,703 " />

    
    </g></g>

    
    <g anclass="FireZoneActiveBackdrop" anpath=":PCCL01:EN:ZND:SEC_05" class="FireZoneActiveBackdrop ActiveBackdrop" cmn_acla="FireZoneActiveBackdrop" hv_id="B01FD006" id=":PCCL01:EN:ZND:SEC_05_11" style="fill:#FF0000; ">

      
      <g transform="matrix(1.000000, 0.000000, 0.000000, 1.000000, 0.000000, 0.000000)"><polygon class="AnPolygon" fill-rule="evenodd" points="688,703 673,688 683,688 683,631 693,631 693,688 703,688 688,703 " />

    
    </g></g>

    
    <g anclass="FireZoneActiveBackdrop" anpath=":PCCL01:EN:ZNC:SEC_04" class="FireZoneActiveBackdrop ActiveBackdrop" cmn_acla="FireZoneActiveBackdrop" hv_id="B01FD005" id=":PCCL01:EN:ZNC:SEC_04_12" style="fill:#FF0000; ">

      
      <g transform="matrix(1.000000, 0.000000, 0.000000, 1.000000, 0.000000, 0.000000)"><polygon class="AnPolygon" fill-rule="evenodd" points="634,703 619,688 629,688 629,631 639,631 639,688 649,688 634,703 " />

    
    </g></g>

    
    <g anclass="IntrusionActiveBackdrop" anpath=":PCCL01:EN:ZNF:SEC_10:SER_001" class="IntrusionActiveBackdrop ActiveBackdrop" cmn_acla="IntrusionActiveBackdrop" hv_id="B01ID012" id=":PCCL01:EN:ZNF:SEC_10:SER_001_53" style="fill:#CBCBCB; ">

      
      <g transform="matrix(1.000000, 0.000000, 0.000000, 1.000000, 0.000000, 0.000000)"><rect class="AnRectangle" fill-rule="evenodd" height="36px" width="49px" x="1160px" y="185px" />

    
    </g></g>

    
    <g anclass="IntrusionActiveBackdrop" anpath=":PCCL01:EN:ZNE:SEC_09:SER_002" class="IntrusionActiveBackdrop ActiveBackdrop" cmn_acla="IntrusionActiveBackdrop" hv_id="B01ID011" id=":PCCL01:EN:ZNE:SEC_09:SER_002_54" style="fill:#CBCBCB; ">

      
      <g transform="matrix(1.000000, 0.000000, 0.000000, 1.000000, 0.000000, 0.000000)"><rect class="AnRectangle" fill-rule="evenodd" height="36px" width="49px" x="997px" y="185px" />

    
    </g></g>

    
    <g anclass="IntrusionActiveBackdrop" anpath=":PCCL01:EN:ZND:SEC_05:SER_001" class="IntrusionActiveBackdrop ActiveBackdrop" cmn_acla="IntrusionActiveBackdrop" hv_id="B01ID008" id=":PCCL01:EN:ZND:SEC_05:SER_001_55" style="fill:#CBCBCB; ">

      
      <g transform="matrix(1.000000, 0.000000, 0.000000, 1.000000, 0.000000, 0.000000)"><rect class="AnRectangle" fill-rule="evenodd" height="36px" width="49px" x="664px" y="185px" />

    
    </g></g>

    
    <g anclass="IntrusionActiveBackdrop" anpath=":PCCL01:EN:ZNC:SEC_04:SER_001" class="IntrusionActiveBackdrop ActiveBackdrop" cmn_acla="IntrusionActiveBackdrop" hv_id="B01ID007" id=":PCCL01:EN:ZNC:SEC_04:SER_001_56" style="fill:#CBCBCB; ">

      
      <g transform="matrix(1.000000, 0.000000, 0.000000, 1.000000, 0.000000, 0.000000)"><rect class="AnRectangle" fill-rule="evenodd" height="36px" width="49px" x="610px" y="185px" />

    
    </g></g>

    
    <g anclass="IntrusionActiveBackdrop" anpath=":PCCL01:EN:ZNC:SEC_03:SER_001" class="IntrusionActiveBackdrop ActiveBackdrop" cmn_acla="IntrusionActiveBackdrop" hv_id="B01ID006" id=":PCCL01:EN:ZNC:SEC_03:SER_001_57" style="fill:#CBCBCB; ">

      
      <g transform="matrix(1.000000, 0.000000, 0.000000, 1.000000, 0.000000, 0.000000)"><rect class="AnRectangle" fill-rule="evenodd" height="36px" width="49px" x="477px" y="185px" />

    
    </g></g>

    
    <g anclass="IntrusionActiveBackdrop" anpath=":PCCL01:EN:ZNB:SEC_02:SER_002" class="IntrusionActiveBackdrop ActiveBackdrop" cmn_acla="IntrusionActiveBackdrop" hv_id="B01ID005" id=":PCCL01:EN:ZNB:SEC_02:SER_002_58" style="fill:#CBCBCB; ">

      
      <g transform="matrix(1.000000, 0.000000, 0.000000, 1.000000, 0.000000, 0.000000)"><rect class="AnRectangle" fill-rule="evenodd" height="36px" width="49px" x="423px" y="185px" />

    
    </g></g>

    
    <g anclass="IntrusionActiveBackdrop" anpath=":PCCL01:EN:ZNB:SEC_02:SER_001" class="IntrusionActiveBackdrop ActiveBackdrop" cmn_acla="IntrusionActiveBackdrop" hv_id="B01ID004" id=":PCCL01:EN:ZNB:SEC_02:SER_001_59" style="fill:#CBCBCB; ">

      
      <g transform="matrix(1.000000, 0.000000, 0.000000, 1.000000, 0.000000, 0.000000)"><rect class="AnRectangle" fill-rule="evenodd" height="36px" width="49px" x="292px" y="185px" />

    
    </g></g>

    
    <g anclass="IntrusionActiveBackdrop" anpath=":PCCL01:EN:ZNA:SEC_01:SER_001" class="IntrusionActiveBackdrop ActiveBackdrop" cmn_acla="IntrusionActiveBackdrop" hv_id="B01ID003" id=":PCCL01:EN:ZNA:SEC_01:SER_001_60" style="fill:#CBCBCB; ">

      
      <g transform="matrix(1.000000, 0.000000, 0.000000, 1.000000, 0.000000, 0.000000)"><rect class="AnRectangle" fill-rule="evenodd" height="36px" width="49px" x="238px" y="185px" />

    
    </g></g>

    
    <g anclass="IntrusionActiveBackdrop" anpath=":PCCL01:EN:ZNA:SEC_00:SER_002" class="IntrusionActiveBackdrop ActiveBackdrop" cmn_acla="IntrusionActiveBackdrop" hv_id="B01ID002" id=":PCCL01:EN:ZNA:SEC_00:SER_002_61" style="fill:#CBCBCB; ">

      
      <g transform="matrix(1.000000, 0.000000, 0.000000, 1.000000, 0.000000, 0.000000)"><rect class="AnRectangle" fill-rule="evenodd" height="36px" width="49px" x="98px" y="185px" />

    
    </g></g>

    
    <g anclass="IntrusionActiveBackdrop" anpath=":PCCL01:EN:ZNA:SEC_00:SER_001" class="IntrusionActiveBackdrop ActiveBackdrop" cmn_acla="IntrusionActiveBackdrop" hv_id="B01ID001" id=":PCCL01:EN:ZNA:SEC_00:SER_001_62" style="fill:#CBCBCB; ">

      
      <g transform="matrix(1.000000, 0.000000, 0.000000, 1.000000, 0.000000, 0.000000)"><rect class="AnRectangle" fill-rule="evenodd" height="36px" width="49px" x="44px" y="185px" />

    
    </g></g>

    
    <g anclass="FireZoneActiveBackdrop" anpath=":PCCL01:EN:ZNE:SEC_08" class="FireZoneActiveBackdrop ActiveBackdrop" cmn_acla="FireZoneActiveBackdrop" hv_id="B01FD008" id=":PCCL01:EN:ZNE:SEC_08_76" style="fill:#FF0000; ">

      
      <g transform="matrix(1.000000, 0.000000, 0.000000, 1.000000, 0.000000, 0.000000)"><polygon class="AnPolygon" fill-rule="evenodd" points="874,703 859,688 869,688 869,631 879,631 879,688 889,688 874,703 " />

    
    </g></g>

    
    <g anclass="FireZoneActiveBackdrop" anpath=":PCCL01:EN:ZND:SEC_07" class="FireZoneActiveBackdrop ActiveBackdrop" cmn_acla="FireZoneActiveBackdrop" hv_id="B01FD007" id=":PCCL01:EN:ZND:SEC_07_77" style="fill:#FF0000; ">

      
      <g transform="matrix(1.000000, 0.000000, 0.000000, 1.000000, 0.000000, 0.000000)"><polygon class="AnPolygon" fill-rule="evenodd" points="821,703 806,688 816,688 816,631 826,631 826,688 836,688 821,703 " />

    
    </g></g>

    
    <g anclass="IntrusionActiveBackdrop" anpath=":PCCL01:EN:ZNE:SEC_08:SER_001" class="IntrusionActiveBackdrop ActiveBackdrop" cmn_acla="IntrusionActiveBackdrop" hv_id="B01ID010" id=":PCCL01:EN:ZNE:SEC_08:SER_001_86" style="fill:#CBCBCB; ">

      
      <g transform="matrix(1.000000, 0.000000, 0.000000, 1.000000, 0.000000, 0.000000)"><rect class="AnRectangle" fill-rule="evenodd" height="36px" width="49px" x="850px" y="185px" />

    
    </g></g>

    
    <g anclass="IntrusionActiveBackdrop" anpath=":PCCL01:EN:ZND:SEC_07:SER_001" class="IntrusionActiveBackdrop ActiveBackdrop" cmn_acla="IntrusionActiveBackdrop" hv_id="B01ID009" id=":PCCL01:EN:ZND:SEC_07:SER_001_87" style="fill:#CBCBCB; ">

      
      <g transform="matrix(1.000000, 0.000000, 0.000000, 1.000000, 0.000000, 0.000000)"><rect class="AnRectangle" fill-rule="evenodd" height="36px" width="49px" x="796px" y="185px" />

    
    </g></g>

    
    <g anclass="IntrusionActiveBackdrop" anpath=":PCCL01:EN:ZNG:SEC_15:SER_002" class="IntrusionActiveBackdrop ActiveBackdrop" cmn_acla="IntrusionActiveBackdrop" hv_id="B01ID017" id=":PCCL01:EN:ZNG:SEC_15:SER_002_99" style="fill:#CBCBCB; ">

      
      <g transform="matrix(1.000000, 0.000000, 0.000000, 1.000000, 0.000000, 0.000000)"><rect class="AnRectangle" fill-rule="evenodd" height="36px" width="49px" x="1791px" y="185px" />

    
    </g></g>

    
    <g anclass="IntrusionActiveBackdrop" anpath=":PCCL01:EN:ZNG:SEC_15:SER_001" class="IntrusionActiveBackdrop ActiveBackdrop" cmn_acla="IntrusionActiveBackdrop" hv_id="B01ID016" id=":PCCL01:EN:ZNG:SEC_15:SER_001_100" style="fill:#CBCBCB; ">

      
      <g transform="matrix(1.000000, 0.000000, 0.000000, 1.000000, 0.000000, 0.000000)"><rect class="AnRectangle" fill-rule="evenodd" height="36px" width="49px" x="1737px" y="185px" />

    
    </g></g>

    
    <g anclass="FireZoneActiveBackdrop" anpath=":PCCL01:EN:ZNG:SEC_15" class="FireZoneActiveBackdrop ActiveBackdrop" cmn_acla="FireZoneActiveBackdrop" hv_id="B01FD013" id=":PCCL01:EN:ZNG:SEC_15_101" style="fill:#FF0000; ">

      
      <g transform="matrix(1.000000, 0.000000, 0.000000, 1.000000, 0.000000, 0.000000)"><polygon class="AnPolygon" fill-rule="evenodd" points="1815,703 1800,688 1810,688 1810,631 1820,631 1820,688 1830,688 1815,703 " />

    
    </g></g>

    
    <g anclass="FireZoneActiveBackdrop" anpath=":PCCL01:EN:ZNG:SEC_15" class="FireZoneActiveBackdrop ActiveBackdrop" cmn_acla="FireZoneActiveBackdrop" hv_id="B01FD013" id=":PCCL01:EN:ZNG:SEC_15_102" style="fill:#FF0000; ">

      
      <g transform="matrix(1.000000, 0.000000, 0.000000, 1.000000, 0.000000, 0.000000)"><polygon class="AnPolygon" fill-rule="evenodd" points="1762,703 1747,688 1757,688 1757,631 1767,631 1767,688 1777,688 1762,703 " />

    
    </g></g>

    
    <g anclass="IntrusionActiveBackdrop" anpath=":PCCL01:EN:ZNF:SEC_12:SER_002" class="IntrusionActiveBackdrop ActiveBackdrop" cmn_acla="IntrusionActiveBackdrop" hv_id="B01ID013" id=":PCCL01:EN:ZNF:SEC_12:SER_002_107" style="fill:#CBCBCB; ">

      
      <g transform="matrix(1.000000, 0.000000, 0.000000, 1.000000, 0.000000, 0.000000)"><rect class="AnRectangle" fill-rule="evenodd" height="36px" width="49px" x="1323px" y="185px" />

    
    </g></g>

    
    <g anclass="FireZoneActiveBackdrop" anpath=":PCCL01:EN:ZNF:SEC_12" class="FireZoneActiveBackdrop ActiveBackdrop" cmn_acla="FireZoneActiveBackdrop" hv_id="B01FD011" id=":PCCL01:EN:ZNF:SEC_12_108" style="fill:#FF0000; ">

      
      <g transform="matrix(1.000000, 0.000000, 0.000000, 1.000000, 0.000000, 0.000000)"><polygon class="AnPolygon" fill-rule="evenodd" points="1374,703 1359,688 1369,688 1369,631 1379,631 1379,688 1389,688 1374,703 " />

    
    </g></g>

    
    <g anclass="FireZoneActiveBackdrop" anpath=":PCCL01:EN:ZNF:SEC_12" class="FireZoneActiveBackdrop ActiveBackdrop" cmn_acla="FireZoneActiveBackdrop" hv_id="B01FD011" id=":PCCL01:EN:ZNF:SEC_12_109" style="fill:#FF0000; ">

      
      <g transform="matrix(1.000000, 0.000000, 0.000000, 1.000000, 0.000000, 0.000000)"><polygon class="AnPolygon" fill-rule="evenodd" points="1320,703 1305,688 1315,688 1315,631 1325,631 1325,688 1335,688 1320,703 " />

    
    </g></g>

    
    <g anclass="IntrusionActiveBackdrop" anpath=":PCCL01:EN:ZNF:SEC_12:SER_003" class="IntrusionActiveBackdrop ActiveBackdrop" cmn_acla="IntrusionActiveBackdrop" hv_id="B01ID014" id=":PCCL01:EN:ZNF:SEC_12:SER_003_117" style="fill:#CBCBCB; ">

      
      <g transform="matrix(1.000000, 0.000000, 0.000000, 1.000000, 0.000000, 0.000000)"><rect class="AnRectangle" fill-rule="evenodd" height="36px" width="49px" x="1476px" y="185px" />

    
    </g></g>

    
    <g anclass="FireZoneActiveBackdrop" anpath=":PCCL01:EN:ZNF:SEC_12" class="FireZoneActiveBackdrop ActiveBackdrop" cmn_acla="FireZoneActiveBackdrop" hv_id="B01FD011" id=":PCCL01:EN:ZNF:SEC_12_118" style="fill:#FF0000; ">

      
      <g transform="matrix(1.000000, 0.000000, 0.000000, 1.000000, 0.000000, 0.000000)"><polygon class="AnPolygon" fill-rule="evenodd" points="1527,703 1512,688 1522,688 1522,631 1532,631 1532,688 1542,688 1527,703 " />

    
    </g></g>

    
    <g anclass="FireZoneActiveBackdrop" anpath=":PCCL01:EN:ZNF:SEC_12" class="FireZoneActiveBackdrop ActiveBackdrop" cmn_acla="FireZoneActiveBackdrop" hv_id="B01FD011" id=":PCCL01:EN:ZNF:SEC_12_119" style="fill:#FF0000; ">

      
      <g transform="matrix(1.000000, 0.000000, 0.000000, 1.000000, 0.000000, 0.000000)"><polygon class="AnPolygon" fill-rule="evenodd" points="1473,703 1458,688 1468,688 1468,631 1478,631 1478,688 1488,688 1473,703 " />

    
    </g></g>

    
    <g anclass="IntrusionActiveBackdrop" anpath=":PCCL01:EN:ZNG:SEC_13:SER_001" class="IntrusionActiveBackdrop ActiveBackdrop" cmn_acla="IntrusionActiveBackdrop" hv_id="B01ID015" id=":PCCL01:EN:ZNG:SEC_13:SER_001_126" style="fill:#CBCBCB; ">

      
      <g transform="matrix(1.000000, 0.000000, 0.000000, 1.000000, 0.000000, 0.000000)"><rect class="AnRectangle" fill-rule="evenodd" height="36px" width="49px" x="1587px" y="185px" />

    
    </g></g>

    
    <g anclass="FireZoneActiveBackdrop" anpath=":PCCL01:EN:ZNG:SEC_13" class="FireZoneActiveBackdrop ActiveBackdrop" cmn_acla="FireZoneActiveBackdrop" hv_id="B01FD012" id=":PCCL01:EN:ZNG:SEC_13_127" style="fill:#FF0000; ">

      
      <g transform="matrix(1.000000, 0.000000, 0.000000, 1.000000, 0.000000, 0.000000)"><polygon class="AnPolygon" fill-rule="evenodd" points="1638,703 1623,688 1633,688 1633,631 1643,631 1643,688 1653,688 1638,703 " />

    
    </g></g>

    
    <g anclass="FireZoneActiveBackdrop" anpath=":PCCL01:EN:ZNG:SEC_13" class="FireZoneActiveBackdrop ActiveBackdrop" cmn_acla="FireZoneActiveBackdrop" hv_id="B01FD012" id=":PCCL01:EN:ZNG:SEC_13_128" style="fill:#FF0000; ">

      
      <g transform="matrix(1.000000, 0.000000, 0.000000, 1.000000, 0.000000, 0.000000)"><polygon class="AnPolygon" fill-rule="evenodd" points="1584,703 1569,688 1579,688 1579,631 1589,631 1589,688 1599,688 1584,703 " />

    
    </g></g>

    
    </g>

</svg>