<svg id="fire"style="background-color:#1C1C20;"xmlns="http://www.w3.org/2000/svg"     height="200"     width="200"version="1.1" >
 <g id="symbol_fire" ><rect id="dummy_box" height="200" width="200" y="0" x="0" fill="red" opacity="0"/>
  <path stroke="#fe5100" stroke-miterlimit="4" stroke-width="6" fill="#fe5100" d="m91.16399,153.27773l-1.06225,1.35669l-0.71587,-1.57607c-0.39488,-0.86597 -0.86597,-2.64984 -1.04493,-3.95456l-0.32618,-2.37852l0.95834,-3.29643l0.95834,-3.29643l4.63579,-7.38957c2.5517,-4.06424 5.29971,-8.65964 6.11948,-10.27609c0.80823,-1.58183 1.95129,-4.28363 2.54593,-6.00401l1.07956,-3.1348v-4.0527v-4.05272l-1.27585,-4.08157c-0.69853,-2.24573 -1.33357,-4.17395 -1.40863,-4.28941c-0.07388,-0.11372 -5.05145,3.06552 -11.08434,7.04318l-10.91116,7.27409l-3.50426,3.74673l-3.50427,3.74673l-2.32078,3.97189c-1.27586,2.188 -2.80573,5.20734 -3.40035,6.69678l-1.07957,2.74222l-2.47089,-3.09436c-1.35667,-1.70308 -3.05974,-4.26054 -3.78715,-5.69228s-1.73769,-4.00653 -2.2515,-5.73268l-0.92947,-3.1348v-4.54919v-4.54919l0.64658,-2.70758l0.64658,-2.70758l2.7249,-5.77309l2.72491,-5.7731l3.66592,-4.8494l3.66591,-4.8494l1.07957,3.32529l1.07956,3.32531l1.25854,1.70306l1.25854,1.70305l1.89935,1.17195c1.04494,0.64658 3.18098,1.51254 4.75126,1.92821l2.85191,0.7505l3.07706,-3.55045c1.69152,-1.95131 3.88529,-4.8494 4.87249,-6.46587c0.98721,-1.5876 2.23419,-4.18549 2.77109,-5.77309l0.96988,-2.88654l-0.04965,-3.86797l-0.05022,-3.86797l-0.93525,-2.77108c-0.51496,-1.5241 -1.6511,-4.19704 -2.52284,-5.94629c-0.87173,-1.74348 -1.89935,-4.15086 -2.28614,-5.34011l-0.70432,-2.16491l0.3712,-1.69152l0.37122,-1.69151l2.32079,-2.63831l2.32078,-2.6383h0.72742h0.72741l0.687,2.29192c0.37813,1.26431 1.96863,4.83208 3.52734,7.96687l2.84038,5.64609l6.11948,8.08233l6.11949,8.08233l1.70882,3.46386l1.70883,3.46385l0.87753,3.44077l0.8775,3.44077v5.32278v5.3228l-0.5831,4.51456c-0.31981,2.48242 -0.70432,5.24197 -0.86018,6.11948l-0.27594,1.61647l4.75702,-2.59789l4.75702,-2.5979l3.04243,-2.67294l3.04242,-2.67294l1.20657,-2.36696l1.20657,-2.36697l0.55884,-6.63905l0.55882,-6.63906l0.54674,-1.4375c0.30077,-0.79092 0.63503,-1.33359 0.75049,-1.21235c0.11084,0.12354 0.86597,2.56325 1.67419,5.42093s1.91089,7.62048 2.44778,10.56476l0.98143,5.39207l-0.27826,6.75452l-0.27826,6.75452l-1.35091,3.41191l-1.35091,3.4119l-2.91541,2.95004l-2.91541,2.95006l-8.37099,3.65436c-4.60693,2.00905 -11.08435,5.08032 -14.43274,6.81226c-3.33684,1.74347 -8.14006,4.54919 -10.68022,6.23494l-4.61847,3.07127l-2.71336,2.79419c-1.49523,1.53563 -3.19252,3.40613 -3.7756,4.15086l-0.05138,0.1039z" id="path5365"/>   <path fill="#fefefe" d="m94.62784,164.24661l-1.70306,1.70306l-3.27912,-3.61974l-3.27911,-3.61972l-1.57028,-3.20984l-1.57028,-3.20985l-0.20206,-4.04117l-0.20205,-4.04115l1.43749,-3.81024l1.43751,-3.81024l2.2746,-3.69478c1.25276,-2.03214 3.56776,-5.7731 5.14383,-8.31325s3.47539,-6.06175 4.21436,-7.79369l1.34514,-3.1752l0.27768,-3.81601l0.27768,-3.81602l-0.51497,-0.3181l-0.51495,-0.31808l-6.3504,3.96034l-6.3504,3.96034l-3.27912,2.92117l-3.27911,2.92119l-2.74222,4.12776l-2.74222,4.12776l-2.39584,5.83083c-1.31626,3.20407 -2.58057,6.3504 -2.80572,6.9277l-0.41277,1.11421l-3.78138,-3.7121c-2.07831,-2.04367 -4.92445,-5.30547 -6.3504,-7.27409l-2.5517,-3.53891l-1.47215,-3.33107l-1.47213,-3.33107l-0.9006,-4.36447l-0.9006,-4.36446l0.38218,-3.7756c0.21014,-2.07831 0.77937,-5.33434 1.27008,-7.21637l0.88906,-3.46385l2.2515,-4.82631c1.24122,-2.65561 3.33685,-6.40813 4.66466,-8.37098c1.32781,-1.9513 3.91994,-5.3632 5.76154,-7.56275c1.84162,-2.22264 5.28239,-6.11948 7.62049,-8.65964l4.28941,-4.61848l-0.79669,4.90713c-0.43702,2.70181 -0.80246,6.17721 -0.80823,7.73595l-0.01155,2.81727l0.67545,2.25728l0.67546,2.25728l1.93975,1.70306l1.93976,1.70306h0.79668h0.79669l2.34965,-2.67294l2.34965,-2.67295l1.59338,-3.24448l1.59338,-3.24448l-0.01328,-4.32982l-0.01328,-4.32982l-2.75377,-6.00402l-2.75377,-6.00401l-0.34061,-2.4882l-0.34061,-2.4882l0.71009,-2.53439l0.7101,-2.53439l2.56902,-2.93273l2.56902,-2.93273l4.16241,-2.89809l4.16239,-2.89809l2.06676,6.46587l2.06679,6.46587l2.19376,4.31827l2.19379,4.31828l6.58133,8.83283l6.58131,8.83283l1.73193,3.6255l1.73193,3.6255l0.94101,3.98344l0.94102,3.98343l-0.02483,6.46587l-0.02541,6.46587h0.47455c0.26094,0 1.39709,-1.02184 2.52283,-2.26883l2.04947,-2.26883l0.61194,-2.20532l0.61195,-2.20532l0.00346,-2.92696c0.00172,-1.61069 0.28691,-4.45683 0.63503,-6.3504l0.62929,-3.40613l1.03915,-2.0379c0.57327,-1.11998 2.21107,-3.54468 3.64281,-5.38052l2.5979,-3.34262l1.77234,4.64734c0.97566,2.55748 2.4247,6.81226 3.22137,9.41014c0.79669,2.61522 1.9975,7.33184 2.67296,10.50704l1.22389,5.77309l0.06293,6.92772l0.06293,6.9277l-0.78514,3.1752c-0.43068,1.74347 -1.44905,4.60115 -2.26305,6.3504l-1.47791,3.1752l-3.48695,3.49849l-3.48695,3.49849l-6.63907,2.83459c-3.64859,1.55873 -9.92972,4.47415 -13.97089,6.46587l-7.33182,3.63705l-5.15536,3.44653l-5.1554,3.44653l-2.58633,2.875l-2.58634,2.875l-0.37987,1.51256l-0.37988,1.51254l0.95256,1.45482l0.95256,1.45482l-1.70306,1.70306l-0.00693,0.15126zm-3.3484,-10.27611c0.64082,-0.91792 2.47089,-2.97893 4.05849,-4.5723l2.89231,-2.89809l4.90714,-3.25024c2.70183,-1.78967 7.50502,-4.56076 10.68022,-6.17722c3.1752,-1.59915 9.5256,-4.60117 14.02863,-6.63907l8.25552,-3.75827l1.81851,-1.40288l1.81854,-1.40285l1.85315,-3.10016l1.85316,-3.10014l0.88907,-3.44077l0.88905,-3.44077v-5.77309v-5.7731l-1.1373,-6.00401c-0.62929,-3.29066 -1.80698,-8.14006 -2.6152,-10.79568l-1.47794,-4.83785h-0.46762h-0.46762l-0.62347,2.16491l-0.6235,2.16491l-0.37408,5.19578l-0.37411,5.19579l-0.87173,2.75377l-0.87173,2.75377l-2.69026,2.74799l-2.69026,2.748l-4.61847,2.66716l-4.61847,2.66718l-0.20438,-0.55537c-0.11258,-0.30539 0.08257,-2.9847 0.43298,-5.94629c0.35042,-2.97314 0.63504,-7.56274 0.63504,-10.16064v-4.77434l-0.94101,-3.78716l-0.94102,-3.78715l-1.62802,-3.25025l-1.62799,-3.25025l-5.11497,-6.86998c-2.81149,-3.76983 -5.88853,-8.0246 -6.86998,-9.46787c-0.96986,-1.43172 -2.53439,-4.15662 -3.48117,-6.06174s-2.19954,-4.89558 -2.78839,-6.63906s-1.28163,-3.42345 -1.53566,-3.72942l-0.46416,-0.55191l-2.87499,2.83459l-2.875,2.83459l-0.64082,1.93398l-0.64081,1.93398l0.37063,1.55874c0.20379,0.85442 1.55296,4.22591 2.99046,7.50502l2.62099,5.94629l0.46877,3.30798l0.46877,3.30798l-0.58308,2.88655l-0.58308,2.88654l-1.96863,3.75251l-1.96863,3.75251l-3.3484,3.81024l-3.34838,3.81024l-3.00202,-0.92369l-3.00201,-0.92369l-2.00903,-1.6107l-2.00903,-1.61069l-1.1373,-2.22842l-1.1373,-2.22842l-0.38103,-2.38428l-0.38103,-2.38428l-0.45377,0.16684c-0.2494,0.0918 -1.88202,1.96285 -3.6255,4.15663s-4.25478,5.88855 -5.57681,8.19778l-2.40738,4.20859l-1.50101,4.22012l-1.501,4.22014l-0.25113,5.54794l-0.25114,5.54794l0.98144,3.37149c0.5392,1.85316 1.63955,4.68198 2.44201,6.29268c0.80246,1.59914 2.53439,4.26053 3.84489,5.88853c1.31049,1.65112 2.58634,3.01357 2.82881,3.03088c0.24593,0.015 0.71587,-0.687 1.03915,-1.55873c0.3256,-0.87175 1.38554,-3.14635 2.3612,-5.05145c0.96988,-1.90514 3.15788,-5.32857 4.85517,-7.62048l3.0886,-4.13931l3.91416,-2.96738c2.15337,-1.63379 7.56275,-5.36897 12.06577,-8.31325l8.14006,-5.33434l1.22968,3.82756l1.22966,3.82756v4.0527v4.05272l-1.08533,3.14633c-0.59464,1.73193 -1.64534,4.24899 -2.32657,5.58836c-0.687,1.33934 -3.08861,5.33432 -5.34011,8.89055c-2.2515,3.53314 -4.76858,7.85141 -5.58835,9.64107l-1.49524,3.22716l-0.02135,3.48117l-0.02079,3.48119l1.1373,2.52284l1.1373,2.52284l1.16617,-1.67419l0.06177,-0.08141z" id="path5405"/>
 </g>
</svg>
