<?xml version='1.0' encoding='ISO-8859-1'?>
<svg xmlns="http://www.w3.org/2000/svg" height="1178" preserveAspectRatio="xMinYMin meet" style="background-color:#1B1B1F;" version="1.1" viewBox="0 0 1358 1178" width="1358">

  
  <g class="AnLayer" id="AnDefaultLayer">

    
    <g class="sub2 SubImage" id="sub2_1_1" transform="matrix(1,0,0,1,286,247)">

      
      <g anclass="sub1" anpath="a1" class="sub1 SubImage" id="a1_2" transform="matrix(1,0,0,1,-150,2)">

        
        <polyline class="AnPolyline" fill="none" points="0,0 500,0 500,300 0,300 0,0 " stroke="#97FB65" stroke-width="1px" />

        
        <text class="AnText" fill="#97FB65" font-size="12" font-style="normal" font-weight="normal" text-decoration="none" x="4px" y="13px">(0,0)</text>

        
        <text class="AnText" fill="#97FB65" font-family="helvetica" font-size="24" font-style="normal" font-weight="normal" text-decoration="none" transform="matrix(1.944440,0.000000,0.000000,1.923080,476.000000,140.000000)" x="0px" y="21px">300</text>

        
        <line class="AnLine" fill="none" stroke="#FFFFFF" stroke-width="4px" x1="250px" x2="250px" y1="300px" y2="0px" />

        
        <line class="AnLine" fill="none" stroke="#FFFFFF" stroke-width="1px" x1="201px" x2="300px" y1="151px" y2="151px" />

        
        <line class="AnLine" fill="none" stroke="#FF0000" stroke-width="1px" x1="315px" x2="315px" y1="170px" y2="185px" />

        
        <line class="AnLine" fill="none" stroke="#FF0000" stroke-width="1px" x1="308px" x2="322px" y1="177px" y2="177px" />

        
        <text class="AnText" fill="#97FB65" font-family="Courier New" font-size="14" font-style="normal" font-weight="bold" text-decoration="none" transform="matrix(1.944440,0.000000,0.000000,1.923080,225.000000,-2.000000)" x="0px" y="12px">500</text>

      
      </g>

      
      <g anclass="sub1" anpath="a2" class="sub1 SubImage" id="a2_3" transform="matrix(1,0,0,1,500,2)">

        
        <polyline class="AnPolyline" fill="none" points="0,0 500,0 500,300 0,300 0,0 " stroke="#97FB65" stroke-width="1px" />

        
        <text class="AnText" fill="#97FB65" font-size="12" font-style="normal" font-weight="normal" text-decoration="none" x="4px" y="13px">(0,0)</text>

        
        <text class="AnText" fill="#97FB65" font-family="helvetica" font-size="24" font-style="normal" font-weight="normal" text-decoration="none" transform="matrix(1.944440,0.000000,0.000000,1.923080,476.000000,140.000000)" x="0px" y="21px">300</text>

        
        <line class="AnLine" fill="none" stroke="#FFFFFF" stroke-width="4px" x1="250px" x2="250px" y1="300px" y2="0px" />

        
        <line class="AnLine" fill="none" stroke="#FFFFFF" stroke-width="1px" x1="201px" x2="300px" y1="151px" y2="151px" />

        
        <line class="AnLine" fill="none" stroke="#FF0000" stroke-width="1px" x1="315px" x2="315px" y1="170px" y2="185px" />

        
        <line class="AnLine" fill="none" stroke="#FF0000" stroke-width="1px" x1="308px" x2="322px" y1="177px" y2="177px" />

        
        <text class="AnText" fill="#97FB65" font-family="Courier New" font-size="14" font-style="normal" font-weight="bold" text-decoration="none" transform="matrix(1.944440,0.000000,0.000000,1.923080,225.000000,-2.000000)" x="0px" y="12px">500</text>

      
      </g>

      
      <g anclass="sub1" anpath="a3" class="sub1 SubImage" id="a3_4" transform="matrix(0.5,0,0,0.5,-149.5,400.5)">

        
        <polyline class="AnPolyline" fill="none" points="0,0 500,0 500,300 0,300 0,0 " stroke="#97FB65" stroke-width="1px" />

        
        <text class="AnText" fill="#97FB65" font-size="12" font-style="normal" font-weight="normal" text-decoration="none" x="4px" y="13px">(0,0)</text>

        
        <text class="AnText" fill="#97FB65" font-family="helvetica" font-size="24" font-style="normal" font-weight="normal" text-decoration="none" transform="matrix(1.944440,0.000000,0.000000,1.923080,476.000000,140.000000)" x="0px" y="21px">300</text>

        
        <line class="AnLine" fill="none" stroke="#FFFFFF" stroke-width="4px" x1="250px" x2="250px" y1="300px" y2="0px" />

        
        <line class="AnLine" fill="none" stroke="#FFFFFF" stroke-width="1px" x1="201px" x2="300px" y1="151px" y2="151px" />

        
        <line class="AnLine" fill="none" stroke="#FF0000" stroke-width="1px" x1="315px" x2="315px" y1="170px" y2="185px" />

        
        <line class="AnLine" fill="none" stroke="#FF0000" stroke-width="1px" x1="308px" x2="322px" y1="177px" y2="177px" />

        
        <text class="AnText" fill="#97FB65" font-family="Courier New" font-size="14" font-style="normal" font-weight="bold" text-decoration="none" transform="matrix(1.944440,0.000000,0.000000,1.923080,225.000000,-2.000000)" x="0px" y="12px">500</text>

      
      </g>

      
      <g anclass="sub1" anpath="a4" class="sub1 SubImage" id="a4_5" transform="matrix(1,0,0,1,500,402)">

        
        <polyline class="AnPolyline" fill="none" points="0,0 500,0 500,300 0,300 0,0 " stroke="#97FB65" stroke-width="1px" />

        
        <text class="AnText" fill="#97FB65" font-size="12" font-style="normal" font-weight="normal" text-decoration="none" x="4px" y="13px">(0,0)</text>

        
        <text class="AnText" fill="#97FB65" font-family="helvetica" font-size="24" font-style="normal" font-weight="normal" text-decoration="none" transform="matrix(1.944440,0.000000,0.000000,1.923080,476.000000,140.000000)" x="0px" y="21px">300</text>

        
        <line class="AnLine" fill="none" stroke="#FFFFFF" stroke-width="4px" x1="250px" x2="250px" y1="300px" y2="0px" />

        
        <line class="AnLine" fill="none" stroke="#FFFFFF" stroke-width="1px" x1="201px" x2="300px" y1="151px" y2="151px" />

        
        <line class="AnLine" fill="none" stroke="#FF0000" stroke-width="1px" x1="315px" x2="315px" y1="170px" y2="185px" />

        
        <line class="AnLine" fill="none" stroke="#FF0000" stroke-width="1px" x1="308px" x2="322px" y1="177px" y2="177px" />

        
        <text class="AnText" fill="#97FB65" font-family="Courier New" font-size="14" font-style="normal" font-weight="bold" text-decoration="none" transform="matrix(1.944440,0.000000,0.000000,1.923080,225.000000,-2.000000)" x="0px" y="12px">500</text>

      
      </g>

      
      <polyline class="AnPolyline" fill="none" points="-200,-50 400,-100 450,-100 1050,-50 1050,300 950,350 1050,400 1050,750 450,750 400,650 350,600 300,500 250,450 150,350 150,500 50,600 -100,650 -200,600 -200,0 " stroke="#C13723" stroke-dasharray=" 1 3" stroke-dashoffset="0" stroke-width="1px" />

    
    </g>

    
  <path class="AnClosedSpline" d="M724,1011 C724,928 585,882 395,882 205,882 65,928 65,1010 62,1091 205,1138 392,1139 585,1139 721,1091 724,1011 Z" fill="none" stroke="#0000FF" stroke-width="1px" />
    
    <line class="AnLine" fill="none" stroke="#00A083" stroke-dasharray=" 3 3" stroke-dashoffset="0" stroke-width="1px" x1="527px" x2="247px" y1="54px" y2="54px" />

    
    <line class="AnLine" fill="none" stroke="#00A083" stroke-dasharray=" 1 3" stroke-dashoffset="0" stroke-width="1px" x1="247px" x2="527px" y1="86px" y2="86px" />

    
    <line class="AnLine" fill="none" stroke="#00A083" stroke-dasharray=" 3 3 1 3" stroke-dashoffset="0" stroke-width="1px" x1="247px" x2="527px" y1="110px" y2="110px" />

    
    <line class="AnLine" fill="none" stroke="#00A083" stroke-dasharray=" 3 3 1 3 1 3" stroke-dashoffset="0" stroke-width="1px" x1="247px" x2="527px" y1="136px" y2="136px" />

    
    <line class="AnLine" fill="none" stroke="#00A083" stroke-dasharray=" 1 3" stroke-dashoffset="0" stroke-width="1px" x1="851px" x2="1051px" y1="48px" y2="48px" />

    
    <line class="AnLine" fill="none" stroke="#00A083" stroke-dasharray=" 4 4 4 12" stroke-dashoffset="0" stroke-width="1px" x1="851px" x2="1051px" y1="86px" y2="86px" />

    
    <line class="AnLine" fill="none" stroke="#00A083" stroke-dasharray=" 21 3" stroke-dashoffset="0" stroke-width="1px" x1="851px" x2="1051px" y1="120px" y2="120px" />

    
    <text class="AnText" fill="#00A083" font-family="Courier New" font-size="25" font-style="normal" font-weight="bold" text-decoration="none" x="155px" y="53px">dash</text>

    
    <text class="AnText" fill="#00A083" font-family="Courier New" font-size="25" font-style="normal" font-weight="bold" text-decoration="none" x="170px" y="83px">dot</text>

    
    <text class="AnText" fill="#00A083" font-family="Courier New" font-size="25" font-style="normal" font-weight="bold" text-decoration="none" x="110px" y="110px">dashdot</text>

    
    <text class="AnText" fill="#00A083" font-family="Courier New" font-size="25" font-style="normal" font-weight="bold" text-decoration="none" x="20px" y="140px">dashdoubledot</text>

    
    <text class="AnText" fill="#00A083" font-family="Courier New" font-size="25" font-style="normal" font-weight="bold" text-decoration="none" x="706px" y="56px">alternate</text>

    
    <text class="AnText" fill="#00A083" font-family="Courier New" font-size="25" font-style="normal" font-weight="bold" text-decoration="none" x="706px" y="86px">doubledot</text>

    
    <text class="AnText" fill="#00A083" font-family="Courier New" font-size="25" font-style="normal" font-weight="bold" text-decoration="none" x="721px" y="121px">longdash</text>

    
    <polyline class="AnPolyline" fill="none" points="0,0 1357,0 1357,1177 0,1177 0,0 " stroke="#FFFFFF" stroke-width="1px" />

  
  </g>

</svg>