<svg contentScriptType="text/ecmascript" xmlns:xlink="http://www.w3.org/1999/xlink" zoomAndPan="magnify" xmlns:svg="http://www.w3.org/2000/svg" contentStyleType="text/css" preserveAspectRatio="xMidYMid meet" xmlns="http://www.w3.org/2000/svg" version="1.0"><g id="_STRESSTEST_SYMBOLS_STRESSTEST_OSA_OSA_DEVICE-SCANNER_SVG">
  <defs id="defs3">
    <linearGradient xlink:actuate="onLoad" xlink:type="simple" id="linearGradient5293" xlink:show="other" xmlns:xlink="http://www.w3.org/1999/xlink">
      <stop style="stop-color:#888a85;stop-opacity:1" offset="0" id="stop5295"/>
      <stop style="stop-color:#6a6b67;stop-opacity:1" offset="1" id="stop5297"/>
    </linearGradient>
    <linearGradient xlink:actuate="onLoad" xlink:type="simple" id="linearGradient5277" xlink:show="other" xmlns:xlink="http://www.w3.org/1999/xlink">
      <stop style="stop-color:#a6a6a6;stop-opacity:1" offset="0" id="stop5279"/>
      <stop style="stop-color:#a6a6a6;stop-opacity:0" offset="1" id="stop5281"/>
    </linearGradient>
    <linearGradient xlink:actuate="onLoad" xlink:type="simple" id="linearGradient5255" xlink:show="other" xmlns:xlink="http://www.w3.org/1999/xlink">
      <stop style="stop-color:#8e8e8e;stop-opacity:1" offset="0" id="stop5257"/>
      <stop style="stop-color:#d0d0d0;stop-opacity:1" offset="1" id="stop5259"/>
    </linearGradient>
    <linearGradient xlink:actuate="onLoad" xlink:type="simple" id="linearGradient5236" xlink:show="other" xmlns:xlink="http://www.w3.org/1999/xlink">
      <stop style="stop-color:#000000;stop-opacity:1" offset="0" id="stop5238"/>
      <stop style="stop-color:#000000;stop-opacity:0" offset="1" id="stop5240"/>
    </linearGradient>
    <linearGradient xlink:actuate="onLoad" xlink:type="simple" id="linearGradient5214" xlink:show="other" xmlns:xlink="http://www.w3.org/1999/xlink">
      <stop style="stop-color:#7f8578;stop-opacity:1" offset="0" id="stop5216"/>
      <stop style="stop-color:#c8c8c8;stop-opacity:1" offset="0.25" id="stop5222"/>
      <stop style="stop-color:#c8c8c8;stop-opacity:1" offset="0.65909094" id="stop5224"/>
      <stop style="stop-color:#666666;stop-opacity:1" offset="1" id="stop5218"/>
    </linearGradient>
    <linearGradient xlink:actuate="onLoad" xlink:type="simple" id="linearGradient5190" xlink:show="other" xmlns:xlink="http://www.w3.org/1999/xlink">
      <stop style="stop-color:#000000;stop-opacity:1" offset="0" id="stop5192"/>
      <stop style="stop-color:#000000;stop-opacity:0" offset="1" id="stop5194"/>
    </linearGradient>
    <linearGradient xlink:actuate="onLoad" xlink:type="simple" id="linearGradient5176" xlink:show="other" xmlns:xlink="http://www.w3.org/1999/xlink">
      <stop style="stop-color:#ffffff;stop-opacity:1" offset="0" id="stop5178"/>
      <stop style="stop-color:#ffffff;stop-opacity:0" offset="1" id="stop5180"/>
    </linearGradient>
    <linearGradient xlink:actuate="onLoad" xlink:type="simple" id="linearGradient5166" xlink:show="other" xmlns:xlink="http://www.w3.org/1999/xlink">
      <stop style="stop-color:#000000;stop-opacity:1" offset="0" id="stop5168"/>
      <stop style="stop-color:#434c4f;stop-opacity:1" offset="1" id="stop5170"/>
    </linearGradient>
    <radialGradient gradientTransform="matrix(1,0,0,0.802632,0,6.5625)" xmlns:xlink="http://www.w3.org/1999/xlink" id="radialGradient2459" gradientUnits="userSpaceOnUse" xlink:show="other" xlink:type="simple" r="19" cx="23.5" fx="23.5" cy="33.25" fy="33.25" xlink:href="#linearGradient5236" xlink:actuate="onLoad"/>
    <linearGradient gradientTransform="translate(-2,0)" x1="43.870953" xmlns:xlink="http://www.w3.org/1999/xlink" y1="15.846735" x2="47.283165" xlink:href="#linearGradient5277" gradientUnits="userSpaceOnUse" y2="9.129221" xlink:type="simple" xlink:actuate="onLoad" id="linearGradient2461" xlink:show="other"/>
    <linearGradient gradientTransform="translate(-2,0)" x1="22.657747" xmlns:xlink="http://www.w3.org/1999/xlink" y1="14.85437" x2="22.657747" xlink:href="#linearGradient5214" gradientUnits="userSpaceOnUse" y2="41.054031" xlink:type="simple" xlink:actuate="onLoad" id="linearGradient2463" xlink:show="other"/>
    <linearGradient x1="19.483202" xmlns:xlink="http://www.w3.org/1999/xlink" y1="5.532073" x2="21.567848" xlink:href="#linearGradient5293" gradientUnits="userSpaceOnUse" y2="12.289182" xlink:type="simple" xlink:actuate="onLoad" id="linearGradient2465" xlink:show="other"/>
    <linearGradient gradientTransform="translate(-2,0)" x1="23.599689" xmlns:xlink="http://www.w3.org/1999/xlink" y1="17.461824" x2="23.599689" xlink:href="#linearGradient5166" gradientUnits="userSpaceOnUse" y2="33.902058" xlink:type="simple" xlink:actuate="onLoad" id="linearGradient2467" xlink:show="other"/>
    <radialGradient gradientTransform="matrix(1.968254,1.16303e-7,-9.004103e-8,1.52381,-24.68213,-14.68863)" xmlns:xlink="http://www.w3.org/1999/xlink" id="radialGradient2469" gradientUnits="userSpaceOnUse" xlink:show="other" xlink:type="simple" r="11.136932" cx="23.33452" fx="23.33452" cy="27.39226" fy="27.39226" xlink:href="#linearGradient5176" xlink:actuate="onLoad"/>
    <radialGradient gradientTransform="matrix(1,0,0,0.5,-2,9.681087)" xmlns:xlink="http://www.w3.org/1999/xlink" id="radialGradient2471" gradientUnits="userSpaceOnUse" xlink:show="other" xlink:type="simple" r="18.031223" cx="22.804193" fx="22.804193" cy="19.362175" fy="19.362175" xlink:href="#linearGradient5190" xlink:actuate="onLoad"/>
    <linearGradient gradientTransform="translate(-2,0)" x1="11.998403" xmlns:xlink="http://www.w3.org/1999/xlink" y1="36.5" x2="17" xlink:href="#linearGradient5255" gradientUnits="userSpaceOnUse" y2="36.5" xlink:type="simple" xlink:actuate="onLoad" id="linearGradient2473" xlink:show="other"/>
    <linearGradient gradientTransform="translate(-2,0)" x1="18" xmlns:xlink="http://www.w3.org/1999/xlink" y1="36.5" x2="23" xlink:href="#linearGradient5255" gradientUnits="userSpaceOnUse" y2="36.5" xlink:type="simple" xlink:actuate="onLoad" id="linearGradient2475" xlink:show="other"/>
    <linearGradient gradientTransform="matrix(0.6,0,0,0.6,3.8,14)" x1="14.03125" xmlns:xlink="http://www.w3.org/1999/xlink" y1="36.864582" x2="12" xlink:href="#linearGradient5255" gradientUnits="userSpaceOnUse" y2="36.854168" xlink:type="simple" xlink:actuate="onLoad" id="linearGradient2477" xlink:show="other"/>
    <linearGradient gradientTransform="matrix(0.6,0,0,0.6,9.8,14)" x1="14.03125" xmlns:xlink="http://www.w3.org/1999/xlink" y1="36.864582" x2="12" xlink:href="#linearGradient5255" gradientUnits="userSpaceOnUse" y2="36.854168" xlink:type="simple" xlink:actuate="onLoad" id="linearGradient2479" xlink:show="other"/>
  </defs>
  <g id="layer1">
    <g id="g2437" transform="matrix(2.1792671,0,0,2.1792671,20.515181,16.141726)">
      <path d="m 42.5,33.25 c 0,8.422342 -8.50659,15.25 -19,15.25 -10.49341,0 -19,-6.827658 -19,-15.25 0,-8.422342 8.50659,-15.25 19,-15.25 10.49341,0 19,6.827658 19,15.25 z" id="path5234" style="opacity:0.38333333;fill:url(#radialGradient2459);fill-opacity:1;fill-rule:evenodd;stroke:none;stroke-width:1;marker:none;visibility:visible;display:inline;overflow:visible" transform="matrix(1.151316,0,0,0.565573,-5.680921,18.56968)"/>
      <path style="fill:none;stroke:url(#linearGradient2461);stroke-width:1;stroke-linecap:round;stroke-linejoin:round;stroke-miterlimit:4;stroke-opacity:1;stroke-dasharray:none;stroke-dashoffset:0;marker:none;visibility:visible;display:inline;overflow:visible" d="m 25.046834,19.008622 c 0,0 8.529476,-5.08233 12.020816,-4.596194 3.49134,0.486136 2.993093,5.374038 6.187184,3.358757 3.271364,-2.064035 1.944544,-9.8994949 1.944544,-9.8994949" id="path5275"/>
      <path style="fill:url(#linearGradient2463);fill-opacity:1;fill-rule:evenodd;stroke:#555753;stroke-width:1;stroke-linecap:butt;stroke-linejoin:miter;stroke-miterlimit:4;stroke-opacity:1;stroke-dasharray:none;stroke-dashoffset:0;marker:none;visibility:visible;display:inline;overflow:visible" d="M 7.5459416,12.291107 2.1542523,33.769476 2.331029,39.514719 c 0,1.1875 0.8088204,2.18382 2.1213204,2.12132 l 34.0295136,0 c 1.18566,0.05178 2.209709,-0.618718 2.121321,-2.12132 L 40.691572,33.681088 34.681164,12.556273 7.5459416,12.291107 z" id="path4287"/>
      <path d="m 15.467961,13.882098 c 0,0.732233 -0.573806,1.325825 -1.281631,1.325825 -0.707825,0 -1.281631,-0.593592 -1.281631,-1.325825 0,-0.732233 0.573806,-1.325825 1.281631,-1.325825 0.707825,0 1.281631,0.593592 1.281631,1.325825 l 0,0 z" id="path5184" style="fill:#888a85;fill-opacity:1;fill-rule:evenodd;stroke:#555753;stroke-width:1.00000012;stroke-linecap:butt;stroke-linejoin:miter;stroke-miterlimit:4;stroke-opacity:1;stroke-dasharray:none;stroke-dashoffset:0;marker:none;visibility:visible;display:inline;overflow:visible" transform="translate(-1.646447,-0.441941)"/>
      <path d="m 15.467961,13.882098 c 0,0.732233 -0.573806,1.325825 -1.281631,1.325825 -0.707825,0 -1.281631,-0.593592 -1.281631,-1.325825 0,-0.732233 0.573806,-1.325825 1.281631,-1.325825 0.707825,0 1.281631,0.593592 1.281631,1.325825 l 0,0 z" id="path5186" style="fill:#888a85;fill-opacity:1;fill-rule:evenodd;stroke:#555753;stroke-width:1.00000012;stroke-linecap:butt;stroke-linejoin:miter;stroke-miterlimit:4;stroke-opacity:1;stroke-dasharray:none;stroke-dashoffset:0;marker:none;visibility:visible;display:inline;overflow:visible" transform="translate(16.35355,-0.441941)"/>
      <path style="opacity:0.38333333;fill:none;stroke:#ffffff;stroke-width:0.99999982;stroke-linecap:butt;stroke-linejoin:miter;stroke-miterlimit:4;stroke-opacity:1;stroke-dasharray:none;stroke-dashoffset:0;marker:none;visibility:visible;display:inline;overflow:visible" d="m 8.379527,13.172561 -5.1928106,20.563164 0.1661577,5.150126 c 0,1.116167 0.1352345,1.740138 1.3688927,1.681392 l 33.4228602,0 c 1.114438,0.04867 1.514472,-0.206551 1.431394,-1.618892 L 39.659099,33.715146 33.884736,13.421799 8.379527,13.172561 z" id="path5228"/>
      <path style="fill:url(#linearGradient2465);fill-opacity:1;fill-rule:evenodd;stroke:#555753;stroke-width:1.00000012;stroke-linecap:butt;stroke-linejoin:miter;stroke-miterlimit:4;stroke-opacity:1;stroke-dasharray:none;stroke-dashoffset:0;marker:none;visibility:visible;display:inline;overflow:visible" d="M 9.402097,13.437047 3.1265241,5.062044 C 2.6845824,4.5317139 3.3033006,3.4416435 4.4523491,3.5300318 l 34.2062909,0 c 0.795495,-0.088388 2.032932,1.0291737 1.237437,1.7362805 L 33.266951,13.539182 9.402097,13.437047 z" id="path4289"/>
      <path style="fill:url(#linearGradient2467);fill-opacity:1;fill-rule:evenodd;stroke:#363636;stroke-width:1;stroke-linecap:butt;stroke-linejoin:miter;stroke-miterlimit:4;stroke-opacity:1;stroke-dasharray:none;stroke-dashoffset:0;marker:none;visibility:visible;display:inline;overflow:visible" d="M 10.993087,16.533748 9.313709,28.73134 c -0.088388,0.419845 -0.044194,0.972272 0.53033,0.972272 l 23.422912,0 c 0.464039,0 0.729203,-0.331456 0.618718,-0.972272 l -2.209708,-12.197592 -20.682874,0 z" id="path4291"/>
      <path style="opacity:0.86666667;fill:url(#radialGradient2469);fill-opacity:1;fill-rule:evenodd;stroke:none;stroke-width:1;marker:none;visibility:visible;display:inline;overflow:visible" d="m 11.747529,17.464967 -0.700825,5.461995 c 6.540738,0.265165 11.700194,-2.505204 20.273864,-2.858757 l -0.524049,-2.655015 -19.04899,0.05178 z" id="path5174"/>
      <path style="opacity:0.40555558;fill:url(#radialGradient2471);fill-opacity:1;fill-rule:evenodd;stroke:none;stroke-width:1.00000012;marker:none;visibility:visible;display:inline;overflow:visible" d="m 9.625,12.3125 c -0.850553,0.337151 -1.128542,0.686534 -1.8446699,1.09375 l -2.5,10.0625 C 8.26835,26.384304 13.814131,28.375 20.8125,28.375 c 7.601006,0 13.568443,-2.357715 16.21967,-5.6875 l -2.5,-8.84375 C 33.807902,13.377305 33.515399,12.918304 32.625,12.53125 l -0.03125,0 L 9.625,12.3125 z" id="path5188"/>
      <path style="opacity:0.40555558;fill:#ffffff;fill-opacity:1;fill-rule:evenodd;stroke:none;stroke-width:1.00000012;marker:none;visibility:visible;display:inline;overflow:visible" d="m 10.020815,29.173282 22.804194,0 c 0.353553,-0.0221 0.640815,-0.265165 0.618718,-0.53033 l -2.032932,-11.402097 1.237437,11.048543 -22.627417,0.883884 z" id="path5204"/>
      <path style="opacity:0.40555558;fill:#ffffff;fill-opacity:1;fill-rule:evenodd;stroke:#ffffff;stroke-width:1;stroke-linecap:round;stroke-linejoin:round;stroke-miterlimit:4;stroke-opacity:1;stroke-dasharray:none;stroke-dashoffset:0;marker:none;visibility:visible;display:inline;overflow:visible" d="m 4.25,4.5624999 34.5625,0" id="path5226"/>
      <path style="opacity:0.40555558;fill:#ffffff;fill-opacity:1;fill-rule:evenodd;stroke:#ffffff;stroke-width:1;stroke-linecap:round;stroke-linejoin:round;stroke-miterlimit:4;stroke-opacity:1;stroke-dasharray:none;stroke-dashoffset:0;marker:none;visibility:visible;display:inline;overflow:visible" d="m 8.46363,34.5625 29.795388,0" id="path5230"/>
      <path d="m 7.5,34.375 c 0,0.552285 -0.4477153,1 -1,1 -0.5522847,0 -1,-0.447715 -1,-1 0,-0.552285 0.4477153,-1 1,-1 0.5522847,0 1,0.447715 1,1 z" id="path5232" style="opacity:0.38333333;fill:#ffffff;fill-opacity:1;fill-rule:evenodd;stroke:none;stroke-width:1;marker:none;visibility:visible;display:inline;overflow:visible" transform="translate(-0.5,-0.375)"/>
      <path style="fill:none;stroke:#fce94f;stroke-width:2.93673611;stroke-linecap:round;stroke-linejoin:round;stroke-miterlimit:4;stroke-opacity:0.39884392;stroke-dasharray:none;stroke-dashoffset:0;marker:none;visibility:visible;display:inline;overflow:visible" d="m 11.613399,24.562172 19.638587,0" id="path5246"/>
      <path style="fill:#ffffff;fill-opacity:1;fill-rule:evenodd;stroke:#ffffff;stroke-width:0.99999982;stroke-linecap:round;stroke-linejoin:round;stroke-miterlimit:4;stroke-opacity:1;stroke-dasharray:none;stroke-dashoffset:0;marker:none;visibility:visible;display:inline;overflow:visible" d="m 11.613399,24.5625 19.638587,0" id="path5244"/>
      <path style="fill:url(#linearGradient2473);fill-opacity:1;fill-rule:evenodd;stroke:none;stroke-width:1;marker:none;visibility:visible;display:inline;overflow:visible" d="m 10.002853,35 0,1.538783 c 0,0.06309 -0.00642,0.141533 0,0.202471 0.01072,0.08463 0.04527,0.204346 0.06749,0.28346 0.01359,0.0447 0.05047,0.119472 0.06749,0.161977 0.04461,0.104798 0.105177,0.235866 0.168726,0.323954 0.02611,0.03449 0.0725,0.09015 0.101236,0.121483 0.07341,0.07626 0.18263,0.148938 0.269962,0.202472 0.03542,0.02042 0.09773,0.06468 0.134981,0.08099 0.06593,0.02667 0.16569,0.06813 0.236216,0.08099 0.05078,0.0077 0.116147,0 0.168726,0 l 2.564638,0 c 0.05258,0 0.117944,0.0077 0.168726,0 0.07053,-0.01286 0.170289,-0.05432 0.236217,-0.08099 0.03725,-0.01631 0.09956,-0.06057 0.134981,-0.08099 0.08733,-0.05353 0.196555,-0.126213 0.269961,-0.202472 0.02874,-0.03133 0.07513,-0.087 0.101236,-0.121483 0.06355,-0.08809 0.124115,-0.219156 0.168726,-0.323954 0.01702,-0.04251 0.0539,-0.117279 0.06749,-0.161977 0.02222,-0.07911 0.05677,-0.198829 0.06749,-0.28346 0.0064,-0.06094 0,-0.139377 0,-0.202471 l 0,-1.538783 -4.994294,0 z" id="rect5248"/>
      <path style="fill:url(#linearGradient2475);fill-opacity:1;fill-rule:evenodd;stroke:none;stroke-width:1;marker:none;visibility:visible;display:inline;overflow:visible" d="m 16.002853,35 0,1.538783 c 0,0.06309 -0.0064,0.141533 0,0.202471 0.01072,0.08463 0.04527,0.204346 0.06749,0.28346 0.01359,0.0447 0.05047,0.119472 0.06749,0.161977 0.04461,0.104798 0.105177,0.235866 0.168726,0.323954 0.02611,0.03449 0.0725,0.09015 0.101236,0.121483 0.07341,0.07626 0.18263,0.148938 0.269962,0.202472 0.03542,0.02042 0.09773,0.06468 0.134981,0.08099 0.06593,0.02667 0.16569,0.06813 0.236216,0.08099 0.05078,0.0077 0.116147,0 0.168726,0 l 2.564638,0 c 0.05258,0 0.117944,0.0077 0.168726,0 0.07053,-0.01286 0.170289,-0.05432 0.236217,-0.08099 0.03725,-0.01631 0.09956,-0.06057 0.134981,-0.08099 0.08733,-0.05353 0.196555,-0.126213 0.269961,-0.202472 0.02874,-0.03133 0.07513,-0.087 0.101236,-0.121483 0.06355,-0.08809 0.124115,-0.219156 0.168726,-0.323954 0.01702,-0.04251 0.0539,-0.117279 0.06749,-0.161977 0.02222,-0.07911 0.05677,-0.198829 0.06749,-0.28346 0.0064,-0.06094 0,-0.139377 0,-0.202471 l 0,-1.538783 -4.994294,0 z" id="path5253"/>
      <path style="fill:url(#linearGradient2477);fill-opacity:1;fill-rule:evenodd;stroke:none;stroke-width:1;marker:none;visibility:visible;display:inline;overflow:visible" d="m 11.001712,35 0,0.92327 c 0,0.03786 -0.0039,0.08492 0,0.121482 0.0064,0.05078 0.02716,0.122608 0.04049,0.170076 0.0082,0.02682 0.03028,0.07168 0.04049,0.09719 0.02677,0.06288 0.06311,0.141519 0.101236,0.194372 0.01566,0.02069 0.0435,0.05409 0.06074,0.07289 0.04404,0.04575 0.109578,0.08936 0.161977,0.121483 0.02125,0.01225 0.05864,0.03881 0.08099,0.04859 0.03956,0.016 0.09941,0.04088 0.14173,0.04859 0.03047,0.0046 0.06969,0 0.101236,0 l 1.538782,0 c 0.03155,0 0.07077,0.0046 0.101236,0 0.04232,-0.0077 0.102173,-0.03259 0.14173,-0.04859 0.02235,-0.0098 0.05974,-0.03634 0.08099,-0.04859 0.0524,-0.03212 0.117933,-0.07573 0.161976,-0.121483 0.01724,-0.0188 0.04508,-0.0522 0.06074,-0.07289 0.03813,-0.05285 0.07447,-0.131494 0.101236,-0.194372 0.01021,-0.0255 0.03234,-0.07037 0.04049,-0.09719 0.01333,-0.04747 0.03407,-0.119297 0.04049,-0.170076 0.0039,-0.03656 0,-0.08363 0,-0.121482 l 0,-0.92327 -2.996576,0 z" id="path5265"/>
      <path style="fill:url(#linearGradient2479);fill-opacity:1;fill-rule:evenodd;stroke:none;stroke-width:1;marker:none;visibility:visible;display:inline;overflow:visible" d="m 17.001712,35 0,0.92327 c 0,0.03786 -0.0039,0.08492 0,0.121482 0.0064,0.05078 0.02716,0.122608 0.04049,0.170076 0.0082,0.02682 0.03028,0.07168 0.04049,0.09719 0.02677,0.06288 0.06311,0.141519 0.101236,0.194372 0.01566,0.02069 0.0435,0.05409 0.06074,0.07289 0.04404,0.04575 0.109578,0.08936 0.161977,0.121483 0.02125,0.01225 0.05864,0.03881 0.08099,0.04859 0.03956,0.016 0.09941,0.04088 0.14173,0.04859 0.03047,0.0046 0.06969,0 0.101236,0 l 1.538782,0 c 0.03155,0 0.07077,0.0046 0.101236,0 0.04232,-0.0077 0.102173,-0.03259 0.14173,-0.04859 0.02235,-0.0098 0.05974,-0.03634 0.08099,-0.04859 0.0524,-0.03212 0.117933,-0.07573 0.161976,-0.121483 0.01724,-0.0188 0.04508,-0.0522 0.06074,-0.07289 0.03813,-0.05285 0.07447,-0.131494 0.101236,-0.194372 0.01021,-0.0255 0.03234,-0.07037 0.04049,-0.09719 0.01333,-0.04747 0.03407,-0.119297 0.04049,-0.170076 0.0039,-0.03656 0,-0.08363 0,-0.121482 l 0,-0.92327 -2.996576,0 z" id="path5269"/>
    </g>
  </g>
</g></svg>