<svg contentScriptType="text/ecmascript" xmlns:rdf="http://www.w3.org/1999/02/22-rdf-syntax-ns#" xmlns:cc="http://creativecommons.org/ns#" xmlns:xlink="http://www.w3.org/1999/xlink" xmlns:dc="http://purl.org/dc/elements/1.1/" zoomAndPan="magnify" xmlns:svg="http://www.w3.org/2000/svg" contentStyleType="text/css" preserveAspectRatio="xMidYMid meet" xmlns="http://www.w3.org/2000/svg" version="1.0">
  <g id="ipd_symbolFault">
    <g id="_STRESSTEST_SYMBOLS_STRESSTEST_OSA_OSA_ICS_PLC_SVG" transform="translate(-69.40482 -62.662243)scale(1.0071307 1.0022957)">
      <title id="title3844">Industrial automation Programmable Logic Controller</title>
      <defs id="defs3">
        <linearGradient xlink:actuate="onLoad" xlink:type="simple" id="linearGradient5060" xlink:show="other" xmlns:xlink="http://www.w3.org/1999/xlink">
          <stop style="stop-color:#000000;stop-opacity:1" offset="0" id="stop5062" />
          <stop style="stop-color:#000000;stop-opacity:0" offset="1" id="stop5064" />
        </linearGradient>
        <linearGradient xlink:actuate="onLoad" xlink:type="simple" id="linearGradient5048" xlink:show="other" xmlns:xlink="http://www.w3.org/1999/xlink">
          <stop style="stop-color:#000000;stop-opacity:0" offset="0" id="stop5050" />
          <stop style="stop-color:#000000;stop-opacity:1" offset="0.5" id="stop5056" />
          <stop style="stop-color:#000000;stop-opacity:0" offset="1" id="stop5052" />
        </linearGradient>
        <linearGradient xlink:actuate="onLoad" xlink:type="simple" id="linearGradient4254" xlink:show="other" xmlns:xlink="http://www.w3.org/1999/xlink">
          <stop style="stop-color:#ffffff;stop-opacity:1" offset="0" id="stop4256" />
          <stop style="stop-color:#ffffff;stop-opacity:0" offset="1" id="stop4258" />
        </linearGradient>
        <linearGradient xlink:actuate="onLoad" xlink:type="simple" id="linearGradient4244" xlink:show="other" xmlns:xlink="http://www.w3.org/1999/xlink">
          <stop style="stop-color:#e4e4e4;stop-opacity:1" offset="0" id="stop4246" />
          <stop style="stop-color:#d3d3d3;stop-opacity:1" offset="1" id="stop4248" />
        </linearGradient>
        <linearGradient xlink:actuate="onLoad" xlink:type="simple" id="linearGradient4236" xlink:show="other" xmlns:xlink="http://www.w3.org/1999/xlink">
          <stop style="stop-color:#eeeeee;stop-opacity:1" offset="0" id="stop4238" />
          <stop style="stop-color:#eeeeee;stop-opacity:0" offset="1" id="stop4240" />
        </linearGradient>
        <linearGradient xlink:actuate="onLoad" xlink:type="simple" id="linearGradient4228" xlink:show="other" xmlns:xlink="http://www.w3.org/1999/xlink">
          <stop style="stop-color:#bbbbbb;stop-opacity:1" offset="0" id="stop4230" />
          <stop style="stop-color:#9f9f9f;stop-opacity:1" offset="1" id="stop4232" />
        </linearGradient>
        <linearGradient xlink:actuate="onLoad" xlink:type="simple" id="linearGradient4184" xlink:show="other" xmlns:xlink="http://www.w3.org/1999/xlink">
          <stop style="stop-color:#838383;stop-opacity:1" offset="0" id="stop4186" />
          <stop style="stop-color:#bbbbbb;stop-opacity:0" offset="1" id="stop4188" />
        </linearGradient>
        <linearGradient gradientTransform="matrix(0.00764833,2.6063737,-2.6063737,0.00764833,127.7914,-3.5035661)" x1="12.378357" xmlns:xlink="http://www.w3.org/1999/xlink" y1="4.433136" x2="44.0961" xlink:href="#linearGradient4254" gradientUnits="userSpaceOnUse" y2="47.620636" xlink:type="simple" xlink:actuate="onLoad" id="linearGradient2948" xlink:show="other" />
        <linearGradient gradientTransform="matrix(0.00764833,2.6063737,-2.6063737,0.00764833,127.7914,-3.5035661)" x1="12.277412" xmlns:xlink="http://www.w3.org/1999/xlink" y1="37.205811" x2="12.221823" xlink:href="#linearGradient4236" gradientUnits="userSpaceOnUse" y2="33.758667" xlink:type="simple" xlink:actuate="onLoad" id="linearGradient2957" xlink:show="other" />
        <linearGradient gradientTransform="matrix(2.6063849,0,0,2.6063849,-1.0551914,-131.25673)" x1="7.0625" xmlns:xlink="http://www.w3.org/1999/xlink" y1="35.28125" x2="24.6875" xlink:href="#linearGradient4184" gradientUnits="userSpaceOnUse" y2="35.28125" xlink:type="simple" xlink:actuate="onLoad" id="linearGradient2960" xlink:show="other" />
        <radialGradient gradientTransform="matrix(-2.0275595,3.358406,-3.0537259,-1.8436184,140.48432,-9.6771767)" xmlns:xlink="http://www.w3.org/1999/xlink" id="radialGradient2963" gradientUnits="userSpaceOnUse" xlink:show="other" xlink:type="simple" r="20.935818" cx="15.571491" fx="15.571491" cy="2.958519" fy="2.958519" xlink:href="#linearGradient4244" xlink:actuate="onLoad" />
        <linearGradient gradientTransform="matrix(0.00764833,2.6063737,-2.6063737,0.00764833,127.7914,-3.5035661)" x1="7.6046205" xmlns:xlink="http://www.w3.org/1999/xlink" y1="28.481176" x2="36.183067" xlink:href="#linearGradient4228" gradientUnits="userSpaceOnUse" y2="40.943935" xlink:type="simple" xlink:actuate="onLoad" id="linearGradient2966" xlink:show="other" />
        <linearGradient gradientTransform="matrix(2.774389,0,0,1.969706,-1892.179,-872.8854)" x1="302.85715" xmlns:xlink="http://www.w3.org/1999/xlink" y1="366.64789" x2="302.85715" xlink:href="#linearGradient5048" gradientUnits="userSpaceOnUse" y2="609.50507" xlink:type="simple" xlink:actuate="onLoad" id="linearGradient2973" xlink:show="other" />
        <radialGradient gradientTransform="matrix(2.774389,0,0,1.969706,-1891.633,-872.8854)" xmlns:xlink="http://www.w3.org/1999/xlink" id="radialGradient2975" gradientUnits="userSpaceOnUse" xlink:show="other" xlink:type="simple" r="117.14286" cx="605.71429" fx="605.71429" cy="486.64789" fy="486.64789" xlink:href="#linearGradient5060" xlink:actuate="onLoad" />
        <radialGradient gradientTransform="matrix(-2.774389,0,0,1.969706,112.7623,-872.8854)" xmlns:xlink="http://www.w3.org/1999/xlink" id="radialGradient2977" gradientUnits="userSpaceOnUse" xlink:show="other" xlink:type="simple" r="117.14286" cx="605.71429" fx="605.71429" cy="486.64789" fy="486.64789" xlink:href="#linearGradient5060" xlink:actuate="onLoad" />
      </defs>
      <g id="g6707" transform="matrix(0.04785348,-6.2070416e-4,2.9798572e-4,0.07215125,112.44243,98.491411)">
        <rect x="-1559.2523" width="1339.6335" height="478.35718" y="-150.69685" id="rect6709" style="opacity:0.40206185;fill:url(#linearGradient2973);fill-opacity:1;fill-rule:nonzero;stroke:none;stroke-width:1;marker:none;visibility:visible;display:inline;overflow:visible" />
        <path style="opacity:0.40206185;fill:url(#radialGradient2975);fill-opacity:1;fill-rule:nonzero;stroke:none;stroke-width:1;marker:none;visibility:visible;display:inline;overflow:visible" d="m -219.61876,-150.68038 c 0,0 0,478.33079 0,478.33079 142.874166,0.90045 345.40022,-107.16966 345.40014,-239.196175 0,-132.026537 -159.436816,-239.134595 -345.40014,-239.134615 z" id="path6711" />
        <path style="opacity:0.40206185;fill:url(#radialGradient2977);fill-opacity:1;fill-rule:nonzero;stroke:none;stroke-width:1;marker:none;visibility:visible;display:inline;overflow:visible" d="m -1559.2523,-150.68038 c 0,0 0,478.33079 0,478.33079 -142.8742,0.90045 -345.4002,-107.16966 -345.4002,-239.196175 0,-132.026537 159.4368,-239.134595 345.4002,-239.134615 z" id="path6713" />
      </g>
      <path style="fill:none;stroke:#535353;stroke-width:5.21276999;stroke-linecap:round;stroke-linejoin:round;stroke-miterlimit:4;stroke-opacity:1;stroke-dasharray:none" d="m 107.12413,25.97206 c -0.005,-1.628983 -0.7642,-2.685601 -2.20893,-3.332957 0,-3e-6 -44.627739,-16.729168 -44.627739,-16.729168 0,0 -1.752246,-0.6464571 -4.644515,-0.6379698 0,0 -25.151423,0.073806 -25.151423,0.073806 -2.821694,0.00828 -4.230331,1.7268634 -4.22269,4.329235 L 26.563772,110.18329 c 0.0075,2.56689 1.884035,4.14841 4.817691,4.1398 l 25.151423,-0.0738 c 0,0 2.008821,0.27029 3.420148,-0.25439 L 104.72425,96.351799 c 1.33281,-0.484857 2.57049,-1.66757 2.59778,-2.939819 l -0.1979,-67.43992 z" id="path4196" />
      <path style="fill:url(#linearGradient2966);fill-opacity:1;fill-rule:evenodd;stroke:none" d="m 57.452657,5.2351172 1.810019,1.9875445 0.124753,98.0253883 -0.800516,9.02675 -27.206715,0.0798 c -2.933654,0.009 -4.809052,-1.56802 -4.816585,-4.13492 L 26.268518,9.6580393 c -0.0076,-2.6023721 1.400077,-4.3355216 4.221771,-4.3438018 l 26.962368,-0.07912 z" id="path4170" />
      <path style="fill:url(#radialGradient2963);fill-opacity:1;fill-rule:evenodd;stroke:none" d="m 60.275924,5.9448755 c -3.82194,-1.8504961 -6.236685,0.016697 -6.228759,2.7177599 0,0 0.298285,101.6485746 0.298285,101.6485746 0.07062,2.91647 2.651516,4.80164 5.596015,3.707 L 104.74762,96.386635 c 1.33281,-0.484854 2.57035,-1.714112 2.59765,-2.986361 L 107.1475,26.006899 c -0.005,-1.628983 -0.79914,-2.697136 -2.24387,-3.344493 0,0 -44.627706,-16.7175305 -44.627706,-16.7175305 z" id="path3093" />
      <rect x="17.352409" y="-46.54921" transform="matrix(0.00293446,0.99999569,-0.99999569,0.00293446,0,0)" width="45.937534" style="fill:url(#linearGradient2960);fill-opacity:1;fill-rule:evenodd;stroke:none;stroke-width:2.40899992;marker:none;visibility:visible;display:inline;overflow:visible" id="rect4174" height="14.498016" />
      <path style="opacity:0.81142853;fill:url(#linearGradient2957);fill-opacity:1;fill-rule:evenodd;stroke:none" d="m 32.101984,17.258279 c 0,0 10.455429,-0.03068 10.455429,-0.03068 -8.272212,4.808386 -10.391975,21.654435 -10.356479,33.750634 0,0 -0.09895,-33.719953 -0.09895,-33.719953 z" id="path4194" />
      <path style="fill:#ffffff;fill-opacity:1;fill-rule:evenodd;stroke:none" d="m 61.336077,113.44799 c -3.257413,0.17512 -6.03911,-1.06134 -6.1188,-3.428 0,0 -0.291542,-99.351623 -0.291544,-99.351623 -0.0099,-3.3602203 0.832648,-4.8705035 2.246538,-5.4384543 -2.46058,0.246386 -4.292391,2.1650032 -4.282768,5.4444293 3e-6,0 0.291545,99.351618 0.291545,99.351618 0.09442,2.80423 3.724944,4.55758 7.815886,3.50134 l 0.339143,-0.0793 z" id="path4201" />
      <path style="fill:#ffffff;fill-opacity:0.45762706;fill-rule:evenodd;stroke:none;stroke-width:2;marker:none;visibility:visible;display:inline;overflow:visible" d="m 60.690538,19.270095 c -1.463163,0.0043 -2.653981,-1.59092 -2.659768,-3.563008 -0.0058,-1.972089 1.175648,-3.574264 2.638811,-3.578557 1.463164,-0.0043 2.653982,1.590919 2.659769,3.563008 0.0058,1.972089 -1.175648,3.574263 -2.638812,3.578557 z" id="path4224" />
      <path style="fill:#ffffff;fill-opacity:0.45762706;fill-rule:evenodd;stroke:none;stroke-width:2;marker:none;visibility:visible;display:inline;overflow:visible" d="m 61.180028,107.56987 c -1.463163,0.004 -2.653981,-1.59092 -2.659768,-3.56301 -0.0058,-1.97209 1.175648,-3.57426 2.638811,-3.57855 1.463164,-0.004 2.653982,1.59092 2.659769,3.563 0.0058,1.97209 -1.175648,3.57427 -2.638812,3.57856 z" id="path4226" />
      <path style="fill:none;stroke:url(#linearGradient2948);stroke-width:2.60638547;stroke-linecap:round;stroke-linejoin:round;stroke-miterlimit:4;stroke-opacity:1;stroke-dasharray:none" d="m 105.94593,26.905545 c -0.005,-1.568234 -0.73571,-2.585448 -2.12656,-3.208661 0,-2e-6 -43.290686,-16.5930345 -43.290686,-16.5930345 0,0 -1.686901,-0.6223489 -4.471311,-0.6141781 0,0 -24.213462,0.071054 -24.213462,0.071054 -3.530958,0.010362 -4.23691,1.1698192 -4.228111,4.1682646 l 0.288242,98.22616 c 0.01012,3.44856 0.836383,3.99658 4.800925,3.98494 l 24.213462,-0.071 c 0,0 1.933904,0.2602 3.292601,-0.24489 l 43.75223,-17.31287 c 1.2831,-0.466773 2.1493,-1.441524 2.17558,-2.666328 l -0.19291,-65.739407 z" id="path4252" />
      <path style="fill:none;stroke:#ffffff;stroke-width:2.60638618px;stroke-linecap:square;stroke-linejoin:miter;stroke-opacity:0.42372885" d="m 46.185006,102.29495 -13.086433,0.0384" id="path4282" />
      <path style="fill:none;stroke:#ffffff;stroke-width:2.60638618px;stroke-linecap:square;stroke-linejoin:miter;stroke-opacity:0.42372885" d="m 46.013908,97.082659 -13.086433,0.0384" id="path4284" />
      <path style="fill:none;stroke:#ffffff;stroke-width:2.60638618px;stroke-linecap:square;stroke-linejoin:miter;stroke-opacity:0.42372885" d="m 45.998611,91.869912 -13.086433,0.0384" id="path4286" />
      <path style="fill:none;stroke:#ffffff;stroke-width:2.60638618px;stroke-linecap:square;stroke-linejoin:miter;stroke-opacity:0.42372885" d="m 45.983315,86.657164 -13.086433,0.0384" id="path4288" />
      <path style="fill:none;stroke:#ffffff;stroke-width:2.60638618px;stroke-linecap:square;stroke-linejoin:miter;stroke-opacity:0.42372885" d="m 45.968018,81.444417 -13.086433,0.0384" id="path4290" />
      <path style="fill:none;stroke:#ffffff;stroke-width:2.60638618px;stroke-linecap:square;stroke-linejoin:miter;stroke-opacity:0.42372885" d="m 45.952721,76.23167 -13.086433,0.0384" id="path4292" />
      <path style="opacity:0.09714284;fill:none;stroke:#000000;stroke-width:2.60638618px;stroke-linecap:square;stroke-linejoin:miter;stroke-opacity:1" d="m 46.047302,99.688957 -13.086433,0.0384" id="path4294" />
      <path style="opacity:0.09714284;fill:none;stroke:#000000;stroke-width:2.60638618px;stroke-linecap:square;stroke-linejoin:miter;stroke-opacity:1" d="m 45.876204,94.476667 -13.086433,0.0384" id="path4296" />
      <path style="opacity:0.09714284;fill:none;stroke:#000000;stroke-width:2.60638618px;stroke-linecap:square;stroke-linejoin:miter;stroke-opacity:1" d="m 45.860907,89.26392 -13.086433,0.0384" id="path4298" />
      <path style="opacity:0.09714284;fill:none;stroke:#000000;stroke-width:2.60638618px;stroke-linecap:square;stroke-linejoin:miter;stroke-opacity:1" d="m 45.845611,84.051172 -13.086433,0.0384" id="path4300" />
      <path style="opacity:0.09714284;fill:none;stroke:#000000;stroke-width:2.60638618px;stroke-linecap:square;stroke-linejoin:miter;stroke-opacity:1" d="m 45.830314,78.838425 -13.086433,0.0384" id="path4302" />
      <path style="opacity:0.43999999;fill:#ffffff;fill-opacity:1;fill-rule:evenodd;stroke:none" d="m 46.565351,17.260159 -14.416505,0.0423 0.09608,32.74257 0.802488,-31.849258 13.517935,-0.935617 z" id="path4572" />
      <path style="fill:#ffffff;fill-opacity:0.45762706;fill-rule:evenodd;stroke:none;stroke-width:2;marker:none;visibility:visible;display:inline;overflow:visible" d="m 100.4524,33.6671 c -1.463159,0.0043 -2.653977,-1.59092 -2.659764,-3.563008 -0.0058,-1.972089 1.175648,-3.574264 2.638814,-3.578557 1.46316,-0.0043 2.65398,1.590919 2.65977,3.563008 0.006,1.972089 -1.17565,3.574263 -2.63882,3.578557 z" id="path4224-5" />
      <path style="fill:#ffffff;fill-opacity:0.45762706;fill-rule:evenodd;stroke:none;stroke-width:2;marker:none;visibility:visible;display:inline;overflow:visible" d="m 101.17761,92.409309 c -1.463158,0.0043 -2.653978,-1.59092 -2.659758,-3.563008 -0.006,-1.972089 1.17564,-3.574264 2.638808,-3.578557 1.46316,-0.0043 2.65398,1.590919 2.65977,3.563008 0.006,1.972089 -1.17565,3.574263 -2.63882,3.578557 z" id="path4224-6" />
      <path style="fill:#4e9a06;fill-opacity:1;fill-rule:nonzero;stroke:#ffffff;stroke-width:0.40000001;stroke-miterlimit:4;stroke-opacity:1;stroke-dasharray:none" d="m 43.826879,58.81792 a 2.2513492,2.2513492 0 1 1 0,-4.502698 2.2513492,2.2513492 0 1 1 0,4.502698 z" id="path22045" />
      <path style="fill:#a40000;fill-opacity:1;fill-rule:nonzero;stroke:#ffffff;stroke-width:0.40000001;stroke-miterlimit:4;stroke-opacity:1;stroke-dasharray:none;display:inline" d="m 38.873911,58.81792 a 2.2513492,2.2513492 0 1 1 0,-4.502698 2.2513492,2.2513492 0 1 1 0,4.502698 z" id="path22049" />
      <path style="fill:#4e9a06;fill-opacity:1;fill-rule:nonzero;stroke:#ffffff;stroke-width:0.40000001;stroke-miterlimit:4;stroke-opacity:1;stroke-dasharray:none;display:inline" d="m 33.770854,58.81792 a 2.2513492,2.2513492 0 1 1 0,-4.502698 2.2513492,2.2513492 0 1 1 0,4.502698 z" id="path22051" />
      <path style="fill:#4e9a06;fill-opacity:1;fill-rule:nonzero;stroke:#ffffff;stroke-width:0.40000001;stroke-miterlimit:4;stroke-opacity:1;stroke-dasharray:none" d="m 43.826879,64.982227 a 2.2513492,2.2513492 0 1 1 0,-4.502698 2.2513492,2.2513492 0 1 1 0,4.502698 z" id="path22045-7" />
      <path style="fill:#4e9a06;fill-opacity:1;fill-rule:nonzero;stroke:#ffffff;stroke-width:0.40000001;stroke-miterlimit:4;stroke-opacity:1;stroke-dasharray:none;display:inline" d="m 38.873911,64.982227 a 2.2513492,2.2513492 0 1 1 0,-4.502698 2.2513492,2.2513492 0 1 1 0,4.502698 z" id="path22049-4" />
      <path style="fill:#4e9a06;fill-opacity:1;fill-rule:nonzero;stroke:#ffffff;stroke-width:0.40000001;stroke-miterlimit:4;stroke-opacity:1;stroke-dasharray:none;display:inline" d="m 33.770854,64.982227 a 2.2513492,2.2513492 0 1 1 0,-4.502698 2.2513492,2.2513492 0 1 1 0,4.502698 z" id="path22051-1" />
    </g>
    <g id="_STRESSTEST_SYMBOLS_SKULL_AND_CROSSBONES_SVG" transform="translate(-57.094425 -46.0964)scale(0.14773168 0.14711109)">
      <path style="fill:#FFF;stroke:#000;stroke-width:12.5;stroke-linejoin:round" d="m 335.40299,412.269 0,0 63.276,32.886 c 14.986,13.044 11.24,21.924 21.647,29.973 10.268,9.436 16.79,10.962 22.895,2.082 4.857,-10.13 3.886,-20.26 5.413,-31.222 7.076,-6.799 12.905,-10.268 18.733,-17.067 6.383,-7.077 6.104,-14.154 -3.748,-19.149 -8.187,-3.33 -15.957,-4.996 -25.809,-2.082 -6.245,1.943 -12.905,3.053 -21.23,-0.416 l -68.272,-31.638 -194.088,-67.283 c -26.1,-12.756 -47.784,-22.274 -73.59,-36.501 -14.031,-11.186 -9.517,-23.844 -26.4917,-34.146 -7.4571,-3.728 -12.8536,-5.396 -18.8389,4.71 -3.8267,9.028 -3.5323,18.643 -4.121,27.965 -6.6721,7.162 -14.2273,11.382 -19.722,20.311 -7.9476997,12.756 4.1209,16.975 10.5968,18.545 18.4463,4.611 25.1183,-3.729 42.0928,-0.295 33.067,15.405 66.427,31.398 98.316,47.097 z" />
      <path style="fill:#FFF;stroke:#000;stroke-width:12.5;stroke-linejoin:round" d="m 349.55699,354.821 0,0 94.497,-44.542 c 17.9,-7.077 20.398,2.914 36.217,0 12.072,-0.139 22.063,-4.856 21.231,-16.234 -6.106,-9.021 -11.796,-14.71 -22.48,-24.562 0.555,-10.546 -1.388,-20.676 -5.412,-30.805 -4.163,-5.967 -11.656,-8.604 -22.895,2.081 -11.379,8.603 -7.772,20.121 -22.064,32.054 -23.312,11.517 -44.542,21.786 -70.352,34.552 l -196.487,67.855 c -22.757,12.072 -43.432,23.311 -69.519,33.302 -21.231,5.273 -20.398,-7.77 -46.2079,0.833 -7.3544,5.828 -7.2156,14.153 -1.2488,20.397 6.9382,6.8 11.795,11.102 17.9007,17.069 1.943,8.603 2.22,15.957 3.33,26.225 4.163,12.628 13.321,11.934 21.23,5.829 3.469,-4.302 7.771,-8.187 10.407,-12.905 3.608,-6.244 7.632,-13.321 12.489,-19.149 l 62.859,-33.303 z" />
      <path style="fill:#FFF;stroke:#000000;stroke-width:12.5" d="m 128.49799,221.561 c -19.136,-18.603 -32.51,-50.888 -34.366,-85.752 -2.015,-38.42 18.218,-76.570099 48.537,-98.319199 33.969,-23.9094 90.766,-30.522 126.082,-28.7375 23.921,0.0166 77.206,12.4202 96.015,26.4277 32.994,23.9901 50.688,58.04 51.914,96.849999 1.813,38.983 -14.606,68.675 -34.711,87.206" />
      <path style="fill:#FFF" d="m 130.4,215 c 0,0 -23.13,70.03 21.44,81.97 l 16.25,93.66 c 17.15,73.72 154.4,73.77 174.6,0 l 16.25,-93.66 c 45.7,-12.2 22.5,-82 22.5,-82 z" />
      <path style="fill:none;stroke:#000000;stroke-width:12.5" d="m 129.66199,112.267 c -7.752,6.782 -6.774,16.977 -5.378,32.192 1.102,11.56 8.478,22.939 8.866,33.5 2.712,22.285 -3.876,44.57 -6.977,62.786 -2.132,20.928 3.877,38.95 11.628,45.926 7.751,6.88 17.756,9.729 28.268,12.936 9.551,2.498 14.504,6.842 21.728,12.228 8.606,9.137 10.659,16.694 10.465,25.996" />
      <path style="fill:none;stroke:#000000;stroke-width:12.5" d="m 382.06079,111.68561 c 7.752,6.782 6.774,16.977 5.378,32.192 -1.102,11.56 -8.478,22.939 -8.866,33.5 -2.712,22.285 3.876,44.57 6.977,62.786 2.132,20.928 -3.877,38.95 -11.628,45.926 -7.751,6.88 -21.937,10.575 -28.268,12.936 -7.377,2.581 -14.92,7.258 -21.728,12.644 -8.19,7.888 -10.659,16.278 -10.465,25.58" />
      <path style="fill:none;stroke:#000000;stroke-width:12.5" d="m 151.82099,296.959 c 6.938,16.79 14.292,33.164 14.986,50.37 -3.191,13.876 -2.22,30.25 1.249,43.294 4.441,17.9 21.786,39.13 39.132,46.207 17.761,6.452 28.862,8.118 48.704,8.118" />
      <path style="fill:none;stroke:#000000;stroke-width:12.5" d="m 358.92279,296.95897 c -6.938,16.79 -14.292,33.164 -14.986,50.37 3.191,13.876 2.22,30.25 -1.249,43.294 -4.441,17.9 -21.994,38.506 -39.34,45.583 -17.345,7.077 -28.445,8.742 -48.288,8.742" />
      <path style="stroke:#000000;stroke-width:1pt" d="m 251.89499,245.711 c -9.696,7.373 -11.853,9.849 -17.211,18.008 -1.939,3.149 -5.56,10.508 -6.55,15.445 -0.989,4.936 -1.73,12.098 -1.727,15.891 0.012,12.853 4.103,20.916 8.571,20.635 3.992,-0.458 9.072,-4.621 16.77,-14.076" />
      <path style="stroke:#000000;stroke-width:1pt" d="m 258.87699,245.9191 c 9.696,7.373 11.853,9.849 17.211,18.008 1.939,3.149 5.56,10.508 6.55,15.445 0.989,4.936 1.73,12.098 1.727,15.891 -0.012,12.853 -4.103,20.916 -8.571,20.635 -3.992,-0.458 -9.072,-4.621 -16.77,-14.076" />
      <path style="stroke:#000000;stroke-width:1pt" d="m 169.47671,189.56097 c 13.46,-2.359 26.503,-3.885 39.963,-5.411 17.623,-4.441 26.504,15.68 21.647,30.805 -6.105,13.46 -14.708,25.255 -24.56,36.633 -7.632,8.603 -16.724,9.995 -25.394,7.076 -6.998,-1.94 -13.461,-6.243 -20.399,-16.234 -3.052,-8.604 -5.688,-13.045 -9.574,-23.729 -3.052,-9.852 1.695,-24.6 18.317,-29.14 z" />
      <path style="stroke:#000000;stroke-width:1pt" d="m 341.55879,189.56097 c -13.46,-2.359 -26.503,-3.885 -39.963,-5.411 -17.623,-4.441 -26.504,15.68 -21.647,30.805 6.105,13.46 14.708,25.255 24.56,36.633 7.632,8.603 16.724,9.995 25.394,7.076 6.998,-1.94 13.461,-6.243 20.399,-16.234 3.052,-8.604 5.688,-13.045 9.574,-23.729 3.052,-9.852 -1.695,-24.6 -18.317,-29.14 z" />
      <path style="fill:none;stroke:#000000;stroke-width:6.25" d="m 169.23199,304.53 c 5.69,13.344 7.45,18.415 11.553,31.718 3.496,12.289 4.781,19.794 6.941,37.258" />
      <path style="fill:none;stroke:#000000;stroke-width:6.25" d="m 341.08629,303.79411 c -5.69,13.344 -7.45,18.415 -11.553,31.718 -3.496,12.289 -4.781,19.794 -6.941,37.258" />
      <path style="fill:none;stroke:#000000;stroke-width:5" d="m 193.51599,335.732 c 14.718,9.027 40.161,10.419 62.956,10.009 25.394,-0.129 47.133,-1.963 61.409,-10.597" />
      <path style="fill:none;stroke:#000000;stroke-width:5" d="m 198.66699,359.282 c 16.238,10.204 35.334,13.708 57.326,12.878 22.842,-0.556 40.351,-2.478 56.001,-13.172" />
      <path style="fill:none;stroke:#000000;stroke-width:6.25" d="m 186.89299,371.644 c 17.367,20.948 41.608,24.585 69.173,25.315 29.519,1.077 59.166,-10.645 66.819,-25.314" />
      <path style="stroke:#000000;stroke-width:5" d="m 198.44399,340.256 -0.416,41.212" />
      <path style="stroke:#000000;stroke-width:5" d="m 211.97299,344.627 -0.208,44.126" />
      <path style="stroke:#000000;stroke-width:5" d="m 226.95899,346.5 -0.416,46.208" />
      <path style="stroke:#000000;stroke-width:5" d="m 240.48899,347.541 -0.209,46.832" />
      <path style="stroke:#000000;stroke-width:5" d="m 255.68299,347.957 0,46.832" />
      <path style="stroke:#000000;stroke-width:5" d="m 270.25299,347.749 0.208,46.832" />
      <path style="stroke:#000000;stroke-width:5" d="m 283.36573,346.49997 0.416,46" />
      <path style="stroke:#000000;stroke-width:5" d="m 298.55999,344.003 0.208,44.126" />
      <path style="stroke:#000000;stroke-width:5" d="m 312.29699,338.591 0.417,41.628" />
    </g>
  </g>
</svg>
