<svg contentScriptType="text/ecmascript" xmlns:xlink="http://www.w3.org/1999/xlink" zoomAndPan="magnify" contentStyleType="text/css" preserveAspectRatio="xMidYMid meet" xmlns="http://www.w3.org/2000/svg" version="1.0">
  <g id="rtu_Spy">
    <g id="_STRESSTEST_SYMBOLS_SPY_SVG" transform="translate(26.131191 -95.65115)scale(0.075096354 0.07495815)">
      <defs>
        <linearGradient xlink:actuate="onLoad" xlink:type="simple" id="linearGradient3416" xlink:show="other" xmlns:xlink="http://www.w3.org/1999/xlink">
          <stop stop-color="#d20000" offset="0" id="stop3418" />
          <stop stop-color="#6d0000" offset="1" id="stop3420" />
        </linearGradient>
        <linearGradient xlink:actuate="onLoad" xlink:type="simple" id="linearGradient3382" xlink:show="other" xmlns:xlink="http://www.w3.org/1999/xlink">
          <stop stop-color="#646464" offset="0" id="stop3384" />
          <stop stop-opacity="0" stop-color="#646464" id="stop3386" offset="1" />
        </linearGradient>
        <linearGradient xlink:actuate="onLoad" xlink:type="simple" id="linearGradient3374" xlink:show="other" xmlns:xlink="http://www.w3.org/1999/xlink">
          <stop stop-color="#646464" offset="0" id="stop3376" />
          <stop stop-color="#bcbcbc" offset="1" id="stop3378" />
        </linearGradient>
        <linearGradient xlink:actuate="onLoad" xlink:type="simple" id="linearGradient3154" xlink:show="other" xmlns:xlink="http://www.w3.org/1999/xlink">
          <stop stop-color="#ffe500" offset="0" id="stop3156" />
          <stop stop-color="#ff9b00" offset="1" id="stop3158" />
        </linearGradient>
        <radialGradient gradientTransform="matrix(1,0,0,0.989774227142334,26,1.2990751266479492)" xmlns:xlink="http://www.w3.org/1999/xlink" id="radialGradient3160" gradientUnits="userSpaceOnUse" spreadMethod="pad" xlink:show="other" xlink:type="simple" r="222.75591" cx="404.31665" fx="404.31665" fy="506.70181" cy="506.70181" xlink:href="#linearGradient3154" xlink:actuate="onLoad" />
        <linearGradient x1="-0.01921" xmlns:xlink="http://www.w3.org/1999/xlink" xlink:href="#linearGradient3374" x2="1.0605" y1="0.60833" y2="0.60833" xlink:type="simple" xlink:actuate="onLoad" id="linearGradient3380" xlink:show="other" />
        <linearGradient x1="-0.06876" xmlns:xlink="http://www.w3.org/1999/xlink" xlink:href="#linearGradient3382" x2="1.06874" y1="0.5" y2="0.5" xlink:type="simple" xlink:actuate="onLoad" id="linearGradient3388" xlink:show="other" />
        <linearGradient x1="0.38849" xmlns:xlink="http://www.w3.org/1999/xlink" xlink:href="#linearGradient3416" x2="1.52703" y1="0.45511" y2="0.45511" xlink:type="simple" xlink:actuate="onLoad" id="linearGradient3422" xlink:show="other" />
        <linearGradient x1="-0.04685" xmlns:xlink="http://www.w3.org/1999/xlink" xlink:href="#linearGradient3154" x2="1.04684" y1="0.5" y2="0.5" xlink:type="simple" xlink:actuate="onLoad" id="linearGradient3430" xlink:show="other" />
      </defs>
      <g>
        <title>Layer 1</title>
        <path fill="none" fill-rule="evenodd" d="m540.08899,734.79913c-13.9079,27.81573 -10.09546,35.62048 6.13037,37.93848c16.22583,2.31799 25.0014,-9.93188 4.13959,-16.8858c-20.86182,-6.95392 -34.24603,29.45746 -22.65613,45.68329c11.58984,16.22589 21.48352,7.71198 14.5296,-8.51385c-6.95398,-16.22583 -35.60419,-0.61078 -37.92218,22.56903c-2.31796,23.17975 23.18555,16.42963 12.93707,-3.76886c-8.49225,-16.73712 -49.01569,-26.02673 -49.01569,-26.02673l0,0l-16.22586,0" id="path3410" stroke="#000000" stroke-width="10" stroke-miterlimit="4" />
        <path fill="url(#linearGradient3388)" fill-rule="evenodd" d="m127.73879,323.77795c0,-67.41769 6.16796,-240.39487 3.5483,-249.56374c-2.36554,-8.27937 -3.5483,-24.8381 5.91382,-23.65533c9.46214,1.18277 16.55873,8.27937 9.46214,20.10703c-7.0966,11.82767 -1.18277,43.59425 -4.73106,114.72836c-3.06412,61.42749 -1.18277,115.91112 -3.54829,139.56645c-2.36554,23.65533 -9.46214,11.82767 -10.64491,-1.18277z" id="path3372" stroke="#000000" stroke-width="3" stroke-miterlimit="4" />
        <path fill="#af0000" fill-rule="evenodd" d="m518.05176,417.21652c63.73236,6.09741 117.09387,-16.55875 117.09387,-16.55875c0,0 -6.4682,109.50439 -28.38635,163.2218c-41.99554,102.92322 -85.45361,125.25763 -107.63177,182.14606c-24.64139,63.20679 17.74152,160.85626 17.74152,160.85626c0,0 -75.63083,-51.0318 -104.08347,-72.14874c-30.34799,-22.52368 -88.70749,-31.93469 -121.82498,-30.75195c-33.11746,1.18274 -79.24535,5.91382 -100.53516,18.92426c-21.28979,13.01044 -68.60046,15.37598 -70.96599,7.09662c-2.36554,-8.27936 -27.20364,-173.8667 -27.20364,-188.05988c0,-14.19324 -67.37029,-101.12653 21.28981,-197.52206c88.1161,-95.80408 264.93972,-43.76236 264.93972,-43.76236c0,0 74.66214,10.34921 139.56644,16.55875z" id="path3366" stroke="#000000" stroke-width="5" stroke-miterlimit="4" />
        <path fill="url(#linearGradient3422)" fill-rule="evenodd" d="m617.41693,431.96753c-30.3147,-10.58438 -50.11615,2.61673 -46.87378,56.72714c2.59247,43.26535 32.94421,4.9758 8.95142,104.70779c-25.57422,106.30585 -38.93604,41.96594 -55.16187,79.05359c-8.76501,20.0343 -18.69296,28.98956 2.16882,52.16931c20.86182,23.17981 52.82202,13.65704 64.38916,-2.25085c24.52875,-33.73352 36.50623,-71.27588 43.46014,-106.04559c6.95398,-34.76965 15.9054,-92.6001 13.58746,-118.09787c-2.31799,-25.49777 -0.83856,-55.89975 -30.52136,-66.26352z" id="path3390" stroke="#000000" stroke-width="7" stroke-miterlimit="4" />
        <path marker-mid="none" stroke-dashoffset="0" fill="url(#radialGradient3160)" fill-rule="evenodd" d="m595.46008,514.20868a215.25591,212.97806 0 1 1-430.51183,0a215.25591,212.97806 0 1 1430.51183,0z" id="path2382" stroke="#000000" marker-start="none" stroke-width="15" marker-end="none" stroke-miterlimit="4" />
        <path marker-mid="none" stroke-dashoffset="0" fill="#000000" fill-rule="evenodd" d="m444.56277,498.48895a25.23258,44.52368 0 1 1-50.46518,0a25.23258,44.52368 0 1 150.46518,0z" id="path3164" stroke="#000000" marker-start="none" stroke-width="0" marker-end="none" stroke-miterlimit="4" />
        <use x="0" y="0" transform="matrix(0.9081355,0,0,0.8958766,120.29696,27.291968)" width="744.09448" xmlns:xlink="http://www.w3.org/1999/xlink" xlink:href="#path3164" xlink:type="simple" xlink:actuate="onLoad" height="1052.3622" id="use3168" xlink:show="embed" />
        <path fill="#000000" fill-rule="evenodd" stroke-linejoin="round" d="m541.58704,621.02484c-28.83374,3.44696 -52.26346,19.71539 -75.34552,29.49811c-19.9772,8.46686 -89.39856,15.66382 -129.97348,-9.63409c-26.9577,-16.8078 -59.20511,-58.05273 -59.20511,-58.05273c0,0 -12.75549,6.63672 -26.37675,4.60394c-1.20595,-0.17993 -1.48236,-3.78436 -1.48236,-3.78436c0,0 31.72539,6.6167 44.73045,-23.51617c0.83063,-1.92456 3.44144,1.2005 3.04315,2.01123c-5.1261,10.43457 -16.1788,19.27972 -16.1788,19.27972c22.77838,27.33411 45.71771,48.28577 76.70535,57.08783c37.40805,10.62573 89.78278,6.17432 108.65918,-3.71747c21.73022,-11.38721 44.16504,-20.67444 82.18146,-25.23877c1.38647,-0.16644 -6.75757,11.46277 -6.75757,11.46277z" id="path3178" stroke="#000000" stroke-width="1px" />
        <path fill="#000000" d="m377.05734,458.71512c0,0 10.78265,-23.88852 32.00595,-29.79865c21.94379,-6.11078 33.98825,11.95804 37.5242,13.24384c-3.31097,-13.24384 -18.82367,-26.77054 -39.73151,-22.07306c-32.84332,7.37906 -29.79865,38.62787 -29.79865,38.62787z" id="path3236" stroke-width="1px" fill-rule="evenodd" stroke="#000000" />
        <path fill="#d20000" fill-rule="evenodd" d="m270.53772,703.15588c10.47244,-43.00568 50.19318,-67.74451 59.60776,-110.93622c5.94449,-27.27179 3.6434,-84.5824 3.6434,-84.5824c0,0 -46.69391,20.17828 -66.46658,26.53784c-51.28436,16.49493 -96.4991,2.41309 -129.47392,-18.44867c-45.98521,-51.61377 -22.62132,-80.60617 32.64192,-110.97766c-59.46512,8.65979 -102.42046,83.49268 -108.56454,127.16205c-9.59331,68.18494 3.7084,113.40167 7.6136,200.57031c3.17081,69.81586 -16.22585,150.66864 -16.22585,150.66864c0,0 64.7934,-26.61853 119.49477,-22.2348c53.52606,4.28955 103.88103,66.60925 103.88103,66.60925c0,0 -27.56235,-136.44397 -6.15158,-224.36835z" id="path3364" stroke="#000000" stroke-width="5" stroke-miterlimit="4" />
        <path fill="url(#linearGradient3380)" fill-rule="evenodd" d="m121.82496,433.77527c1.18277,-139.56647 -3.5483,-150.21136 14.1932,-150.21136c13.48561,0 9.46213,11.82767 7.0966,91.07303c-0.93214,30.76056 -0.73434,108.54233 -0.54831,143.21658c-13.77219,-8.46933 -14.45952,-15.8577 -20.91381,-24.18796c-2.01305,-29.90207 0.17232,-59.89029 0.17232,-59.89029z" id="path3370" stroke="#000000" stroke-width="3" stroke-miterlimit="4" />
        <use x="0" y="0" transform="matrix(0.865923,0,0,0.883375,135.63905,34.63086)" width="744.09448" xmlns:xlink="http://www.w3.org/1999/xlink" xlink:href="#path3236" xlink:type="simple" xlink:actuate="onLoad" height="1052.3622" id="use3368" xlink:show="embed" />
        <path fill="url(#linearGradient3430)" fill-rule="evenodd" d="m665.26813,545.18756c-10.43231,-18.20496 -39.94275,-28.10107 -58.25201,-23.78467c-14.68378,3.46167 -24.41107,18.0188 -23.63599,37.80847c0.60413,15.42596 -21.3819,37.02594 -17.30585,56.26764c3.66913,17.3208 55.0163,21.62122 67.34119,16.96967c11.06628,-4.17657 29.9024,-14.77979 34.53839,-33.32361c4.63593,-18.54382 7.86493,-35.526 -2.68573,-53.9375z" id="path3400" stroke="#000000" stroke-width="10" stroke-miterlimit="4" />
        <path stroke-linecap="round" fill="none" fill-rule="evenodd" d="m572.68451,588.34088c13.84509,-0.83911 27.27069,0 30.20752,1.25867c2.93689,1.25861 2.93689,1.25861 2.93689,1.25861" id="path3412" stroke="#000000" stroke-width="8" stroke-miterlimit="4" />
        <path stroke-linecap="round" fill="none" fill-rule="evenodd" d="m583.59277,559.81152c13.84515,-0.83905 27.27069,0 30.20758,1.25867c2.93683,1.25867 2.93683,1.25867 2.93683,1.25867" id="path3414" stroke="#000000" stroke-width="8" stroke-miterlimit="4" />
      </g>
    </g>
  </g>
</svg>
