<svg contentScriptType="text/ecmascript" xmlns:xlink="http://www.w3.org/1999/xlink" zoomAndPan="magnify" contentStyleType="text/css" preserveAspectRatio="xMidYMid meet" xmlns="http://www.w3.org/2000/svg" version="1.0">
  <g id="TTVF_D_Symbol_Exhaust_Blink">
    <g id="_SCADAGEN_SYMBOLS_ECT_SCADAGEN_ECT_TTVF_2_EXHAUST_DOWN_SVG" transform="translate(-101.0 -101.0)scale(1.0 1.0)">
      <rect x="23.0" fill="red" width="154.0" height="112.0" y="44.0" opacity="0" />
      <g id="ECT/SCADAgen_ECT_TTVF_2_Exhaust_Down" transform="matrix(1.000000, 0, 0, 1.000000, 100.000000, 100.000000)">
        <text x="0px" font-size="12" y="13px" transform="matrix(2.700000,0.000000,0.000000,2.700000,-76.800003,-52.120001)" text-decoration="none" fill="#000000" class="AnText" font-style="normal" font-weight="normal">Ex</text>
        <text x="0px" font-size="12" y="13px" transform="matrix(2.700000,0.000000,0.000000,2.700000,-73.800003,-5.120000)" text-decoration="none" fill="#000000" class="AnText" font-style="normal" font-weight="normal">In</text>
        <line fill="none" x1="-39px" x2="40px" y1="30px" y2="30px" class="AnLine" stroke="#218A21" stroke-width="2px" />
        <line fill="none" x1="-39px" x2="40px" y1="-31px" y2="-31px" class="AnLine" stroke="#218A21" stroke-width="2px" />
        <line fill="none" x1="-30px" x2="-30px" y1="30px" y2="-31px" class="AnLine" stroke="#218A21" stroke-width="2px" />
        <line fill="none" x1="32px" x2="32px" y1="30px" y2="-31px" class="AnLine" stroke="#218A21" stroke-width="2px" />
        <polygon fill="#218A21" class="AnPolygon" fill-rule="evenodd" points="-27,20 -27,-21 28,20 28,-21 -27,20 " />
        <polygon fill="#218A21" class="AnPolygon" fill-rule="evenodd" points="-29,-34 32,-34 1,-55 -29,-34 " />
        <polygon fill="#FF0000" class="AnPolygon" fill-rule="evenodd" points="32,34 -29,34 1,55 32,34 " />
      </g>
    </g>
  </g>
</svg>
