<svg contentScriptType="text/ecmascript" xmlns:xlink="http://www.w3.org/1999/xlink" zoomAndPan="magnify" contentStyleType="text/css" preserveAspectRatio="xMidYMid meet" xmlns="http://www.w3.org/2000/svg" version="1.0"><g id="_PRJ_GZ_COCC_SYMBOLS_SIGNAL_SIG_TRAIN_LEFT_SVG"><title>Ani2Svg: &quot;Sub/Symbol/SIG/SIG_Train_Left&quot; [03/23/2015, 03:35:50 PM]</title><desc>Generated from image &quot;Sub/Symbol/SIG/SIG_Train_Left&quot;, on 03/23/2015 (03:35:50 PM)</desc><g id="AnDefaultLayer">

    <circle r="4.00px" style="fill:#FF0000; fill-rule:evenodd; fill-opacity:1; stroke:#FF0000; stroke-width:0px; stroke-dashoffset:0" cx="1px" cy="14px"/>

    <circle r="4.00px" style="fill:#FF0000; fill-rule:evenodd; fill-opacity:1; stroke:#FF0000; stroke-width:0px; stroke-dashoffset:0" cx="-19px" cy="14px"/>

    <circle r="3.00px" style="fill:#557D9B; fill-rule:evenodd; fill-opacity:1; stroke:#557D9B; stroke-width:0px; stroke-dashoffset:0" cx="-19px" cy="14px"/>

    <circle r="3.00px" style="fill:#557D9B; fill-rule:evenodd; fill-opacity:1; stroke:#557D9B; stroke-width:0px; stroke-dashoffset:0" cx="1px" cy="14px"/>

    <circle r="4.00px" style="fill:#FF0000; fill-rule:evenodd; fill-opacity:1; stroke:#FF0000; stroke-width:0px; stroke-dashoffset:0" cx="41px" cy="14px"/>

    <circle r="3.00px" style="fill:#557D9B; fill-rule:evenodd; fill-opacity:1; stroke:#557D9B; stroke-width:0px; stroke-dashoffset:0" cx="41px" cy="14px"/>

    <circle r="4.00px" style="fill:#FF0000; fill-rule:evenodd; fill-opacity:1; stroke:#FF0000; stroke-width:0px; stroke-dashoffset:0" cx="62px" cy="14px"/>

    <circle r="3.00px" style="fill:#557D9B; fill-rule:evenodd; fill-opacity:1; stroke:#557D9B; stroke-width:0px; stroke-dashoffset:0" cx="62px" cy="14px"/>

    <polygon style="fill:#FF0000; fill-rule:evenodd; fill-opacity:1; stroke:#FF0000; stroke-width:1px; stroke-dashoffset:0" points="66,-19 68,-19 68,-14 68,9 55,9 56,10 55,11 68,11 68,14 61,14 56,15 45,15 41,14 34,14 34,11 48,11 47,10 48,9 -6,9 -5,10 -6,11 7,11 7,14 0,14 -5,15 -15,15 -20,14 -41,14 -41,12 -29,12 -24,11 -13,11 -14,10 -13,9 -20,9 -21,10 -28,11 -41,11 -42,9 -43,9 -43,7 -35,-10 -34,-12 -33,-14 -31,-16 -28,-18 -25,-19 -20,-19 -18,-19 -18,-20 -14,-20 -14,-19 -13,-19 -13,-20 -9,-20 -9,-19 -1,-19 55,-19 55,-20 59,-20 59,-19 60,-19 60,-20 64,-20 64,-19 66,-19 "/>

    <rect x="10px" width="28px" y="-19px" height="2px" style="fill:none; fill-rule:evenodd; fill-opacity:0; stroke:#000000; stroke-width:1px; stroke-dashoffset:0"/>

    <rect x="-20px" width="88px" y="-19px" height="28px" style="fill:none; fill-rule:evenodd; fill-opacity:0; stroke:#000000; stroke-width:1px; stroke-dashoffset:0"/>

    <line y2="-17px" style="fill:none; fill-rule:evenodd; fill-opacity:0; stroke:#000000; stroke-width:1px; stroke-dashoffset:0" x1="-20px" x2="68px" y1="-17px"/>

    <rect x="-20px" width="28px" y="-19px" height="2px" style="fill:none; fill-rule:evenodd; fill-opacity:0; stroke:#000000; stroke-width:1px; stroke-dashoffset:0"/>

    <rect x="-13px" width="4px" y="-20px" height="1px" style="fill:none; fill-rule:evenodd; fill-opacity:0; stroke:#000000; stroke-width:1px; stroke-dashoffset:0"/>

    <polyline style="fill:none; fill-rule:evenodd; fill-opacity:0; stroke:#000000; stroke-width:1px; stroke-dashoffset:0" points="-35,-10 -43,7 -43,9 -20,9 -20,-19 "/>

    <polyline style="fill:none; fill-rule:evenodd; fill-opacity:0; stroke:#000000; stroke-width:1px; stroke-dashoffset:0" points="7,11 -24,11 -29,12 -41,12 -41,14 -20,14 -15,15 -5,15 0,14 7,14 7,11 "/>

    <rect x="-18px" width="4px" y="-20px" height="1px" style="fill:none; fill-rule:evenodd; fill-opacity:0; stroke:#000000; stroke-width:1px; stroke-dashoffset:0"/>

    <polyline style="fill:none; fill-rule:evenodd; fill-opacity:0; stroke:#000000; stroke-width:1px; stroke-dashoffset:0" points="-20,-17 -23,-17 "/>

    <line y2="-14px" style="fill:none; fill-rule:evenodd; fill-opacity:0; stroke:#000000; stroke-width:1px; stroke-dashoffset:0" x1="-24px" x2="-20px" y1="-14px"/>

    <polyline style="fill:none; fill-rule:evenodd; fill-opacity:0; stroke:#000000; stroke-width:1px; stroke-dashoffset:0" points="-22,-11 -27,-10 -31,-6 "/>

    <polyline style="fill:none; fill-rule:evenodd; fill-opacity:0; stroke:#000000; stroke-width:1px; stroke-dashoffset:0" points="-38,4 -34,-1 -31,-6 "/>

    <polyline style="fill:none; fill-rule:evenodd; fill-opacity:0; stroke:#000000; stroke-width:1px; stroke-dashoffset:0" points="-38,4 -30,2 -22,-1 "/>

    <polyline style="fill:none; fill-rule:evenodd; fill-opacity:0; stroke:#000000; stroke-width:1px; stroke-dashoffset:0" points="-20,-19 -25,-19 -29,-17 -35,-10 "/>

    <polyline style="fill:none; fill-rule:evenodd; fill-opacity:0; stroke:#000000; stroke-width:1px; stroke-dashoffset:0" points="-23,-17 -30,-15 -35,-10 "/>

    <polyline style="fill:none; fill-rule:evenodd; fill-opacity:0; stroke:#000000; stroke-width:1px; stroke-dashoffset:0" points="-33,-10 -35,-8 -36,-6 -38,-3 "/>

    <polyline style="fill:none; fill-rule:evenodd; fill-opacity:0; stroke:#000000; stroke-width:1px; stroke-dashoffset:0" points="-24,-14 -29,-13 -33,-10 "/>

    <polyline style="fill:none; fill-rule:evenodd; fill-opacity:0; stroke:#000000; stroke-width:1px; stroke-dashoffset:0" points="-22,-11 -22,-1 "/>

    <polyline style="fill:none; fill-rule:evenodd; fill-opacity:0; stroke:#000000; stroke-width:1px; stroke-dashoffset:0" points="-20,9 -21,10 -28,11 -41,11 -42,9 -20,9 "/>

    <polyline style="fill:none; fill-rule:evenodd; fill-opacity:0; stroke:#000000; stroke-width:1px; stroke-dashoffset:0" points="-13,9 -14,10 -13,11 "/>

    <polyline style="fill:none; fill-rule:evenodd; fill-opacity:0; stroke:#000000; stroke-width:1px; stroke-dashoffset:0" points="-6,9 -5,10 -6,11 "/>

    <rect x="40px" width="28px" y="-19px" height="2px" style="fill:none; fill-rule:evenodd; fill-opacity:0; stroke:#000000; stroke-width:1px; stroke-dashoffset:0"/>

    <polyline style="fill:none; fill-rule:evenodd; fill-opacity:0; stroke:#000000; stroke-width:1px; stroke-dashoffset:0" points="68,11 34,11 34,14 41,14 45,15 56,15 61,14 68,14 68,11 "/>

    <rect x="60px" width="4px" y="-20px" height="1px" style="fill:none; fill-rule:evenodd; fill-opacity:0; stroke:#000000; stroke-width:1px; stroke-dashoffset:0"/>

    <rect x="55px" width="4px" y="-20px" height="1px" style="fill:none; fill-rule:evenodd; fill-opacity:0; stroke:#000000; stroke-width:1px; stroke-dashoffset:0"/>

    <polyline style="fill:none; fill-rule:evenodd; fill-opacity:0; stroke:#000000; stroke-width:1px; stroke-dashoffset:0" points="48,9 47,10 48,11 "/>

    <polyline style="fill:none; fill-rule:evenodd; fill-opacity:0; stroke:#000000; stroke-width:1px; stroke-dashoffset:0" points="55,9 56,10 55,11 "/>

    <polyline style="fill:none; fill-rule:evenodd; fill-opacity:0; stroke:#000000; stroke-width:1px; stroke-dashoffset:0" points="-43,7 -40,7 -36,6 "/>

    <polyline style="fill:none; fill-rule:evenodd; fill-opacity:0; stroke:#000000; stroke-width:1px; stroke-dashoffset:0" points="-36,6 -31,4 -25,2 "/>

    <polyline style="fill:none; fill-rule:evenodd; fill-opacity:0; stroke:#000000; stroke-width:1px; stroke-dashoffset:0" points="-20,1 -23,2 -25,2 "/>

  </g></g></svg>