<svg id="cam" 
    xmlns:rdf="http://www.w3.org/1999/02/22-rdf-syntax-ns#" 
    style="background-color:#1C1C20;" 
    xmlns="http://www.w3.org/2000/svg" 
    height="200" 
    width="200" 
    version="1.1" 
>
<g id="symbol_cam" stroke="#216ca8" stroke-linecap="square" stroke-miterlimit="4" stroke-width="4">
      <rect height="200" width="200" y="0" x="0" fill="red" opacity="0"/>
  <path fill="#e6e6e6" d="m118.70802,108.33167h10.03587c5.53023,0 10.03586,-5.30743 10.03586,-11.76684v-35.46508c0,-6.48409 -4.52667,-11.76683 -10.03586,-11.76683h-80.70804c-5.53025,0 -10.03587,5.30742 -10.03587,11.76683v35.3828c0,6.4841 4.52667,11.76684 10.03587,11.76684h10.03586" id="svg_10"/>
   <polygon fill="#216ca8" points="142.72866821289062,69.31507873535156 142.72866821289062,88.27049255371094 162,93.00934600830078 162,64.57622528076172 " id="svg_11"/>
   <path fill="none" d="m116.82294,116.86159c0,-15.63822 -12.63695,-28.27516 -28.27515,-28.27516s-28.27517,12.63694 -28.27517,28.27516s12.63694,28.27515 28.27517,28.27515" id="svg_12"/>
   <polygon fill="#216ca8" points="101.1057357788086,144.97877502441406 89.81146240234375,150.6654052734375 89.81146240234375,139.37112426757812 " id="svg_13"/>
   <polygon fill="#216ca8" points="117.29681396484375,128.78768920898438 111.61019134521484,117.49342346191406 122.90445709228516,117.49342346191406 " id="svg_14"/>
  
  </g>

</svg>
