<svg contentScriptType="text/ecmascript" xmlns:xlink="http://www.w3.org/1999/xlink" zoomAndPan="magnify" xmlns:svg="http://www.w3.org/2000/svg" contentStyleType="text/css" preserveAspectRatio="xMidYMid meet" xmlns="http://www.w3.org/2000/svg" version="1.0"><g id="_STRESSTEST_SYMBOLS_STRESSTEST_OSA_OSA_SITE-BRANCH_SVG">
  <defs id="defs3">
    <linearGradient xlink:actuate="onLoad" xlink:type="simple" id="linearGradient20210" xlink:show="other" xmlns:xlink="http://www.w3.org/1999/xlink">
      <stop style="stop-color:#000000;stop-opacity:0.51546389" offset="0" id="stop20212"/>
      <stop style="stop-color:#000000;stop-opacity:0.14432989" offset="0.55172414" id="stop20218"/>
      <stop style="stop-color:#000000;stop-opacity:0" offset="1" id="stop20214"/>
    </linearGradient>
    <linearGradient xlink:actuate="onLoad" xlink:type="simple" id="linearGradient2254" xlink:show="other" xmlns:xlink="http://www.w3.org/1999/xlink">
      <stop style="stop-color:#ffffff;stop-opacity:1" offset="0" id="stop2256"/>
      <stop style="stop-color:#ffffff;stop-opacity:0" offset="1" id="stop2258"/>
    </linearGradient>
    <linearGradient xlink:actuate="onLoad" xlink:type="simple" id="linearGradient5060" xlink:show="other" xmlns:xlink="http://www.w3.org/1999/xlink">
      <stop style="stop-color:#000000;stop-opacity:1" offset="0" id="stop5062"/>
      <stop style="stop-color:#000000;stop-opacity:0" offset="1" id="stop5064"/>
    </linearGradient>
    <linearGradient xlink:actuate="onLoad" xlink:type="simple" id="linearGradient5048" xlink:show="other" xmlns:xlink="http://www.w3.org/1999/xlink">
      <stop style="stop-color:#000000;stop-opacity:0" offset="0" id="stop5050"/>
      <stop style="stop-color:#000000;stop-opacity:1" offset="0.5" id="stop5056"/>
      <stop style="stop-color:#000000;stop-opacity:0" offset="1" id="stop5052"/>
    </linearGradient>
    <radialGradient gradientTransform="matrix(8.434833,0,0,1.6573179,-62.896089,-18.583678)" xmlns:xlink="http://www.w3.org/1999/xlink" id="radialGradient8165" gradientUnits="userSpaceOnUse" xlink:show="other" xlink:type="simple" r="7.8289828" cx="14.772334" fx="14.772334" cy="74.20993" fy="74.20993" xlink:href="#linearGradient20210" xlink:actuate="onLoad"/>
    <linearGradient gradientTransform="matrix(2.774389,0,0,1.969706,-1892.179,-872.8854)" x1="302.85715" xmlns:xlink="http://www.w3.org/1999/xlink" y1="366.64789" x2="302.85715" xlink:href="#linearGradient5048" gradientUnits="userSpaceOnUse" y2="609.50507" xlink:type="simple" xlink:actuate="onLoad" id="linearGradient8238" xlink:show="other"/>
    <radialGradient gradientTransform="matrix(2.774389,0,0,1.969706,-1891.633,-872.8854)" xmlns:xlink="http://www.w3.org/1999/xlink" id="radialGradient8240" gradientUnits="userSpaceOnUse" xlink:show="other" xlink:type="simple" r="117.14286" cx="605.71429" fx="605.71429" cy="486.64789" fy="486.64789" xlink:href="#linearGradient5060" xlink:actuate="onLoad"/>
    <radialGradient gradientTransform="matrix(-2.774389,0,0,1.969706,112.7623,-872.8854)" xmlns:xlink="http://www.w3.org/1999/xlink" id="radialGradient8242" gradientUnits="userSpaceOnUse" xlink:show="other" xlink:type="simple" r="117.14286" cx="605.71429" fx="605.71429" cy="486.64789" fy="486.64789" xlink:href="#linearGradient5060" xlink:actuate="onLoad"/>
    <radialGradient gradientTransform="matrix(3.0708221,0,0,2.5766766,46.58453,-43.148563)" xmlns:xlink="http://www.w3.org/1999/xlink" id="radialGradient10485" gradientUnits="userSpaceOnUse" xlink:show="other" xlink:type="simple" r="4.001883" cx="29.913452" fx="29.913452" cy="30.442923" fy="30.442923" xlink:href="#linearGradient2254" xlink:actuate="onLoad"/>
    <radialGradient gradientTransform="matrix(3.0708221,0,0,2.5766766,46.58453,-43.148563)" xmlns:xlink="http://www.w3.org/1999/xlink" id="radialGradient5782" gradientUnits="userSpaceOnUse" xlink:show="other" xlink:type="simple" r="4.001883" cx="29.913452" fx="29.913452" cy="30.442923" fy="30.442923" xlink:href="#linearGradient2254" xlink:actuate="onLoad"/>
    <radialGradient gradientTransform="matrix(3.0708221,0,0,2.5766766,46.58453,-43.148563)" xmlns:xlink="http://www.w3.org/1999/xlink" id="radialGradient5792" gradientUnits="userSpaceOnUse" xlink:show="other" xlink:type="simple" r="4.001883" cx="29.913452" fx="29.913452" cy="30.442923" fy="30.442923" xlink:href="#linearGradient2254" xlink:actuate="onLoad"/>
    <radialGradient gradientTransform="matrix(3.0708221,0,0,2.5766766,46.58453,-43.148563)" xmlns:xlink="http://www.w3.org/1999/xlink" id="radialGradient5802" gradientUnits="userSpaceOnUse" xlink:show="other" xlink:type="simple" r="4.001883" cx="29.913452" fx="29.913452" cy="30.442923" fy="30.442923" xlink:href="#linearGradient2254" xlink:actuate="onLoad"/>
    <radialGradient gradientTransform="matrix(3.0708221,0,0,2.5766766,46.58453,-43.148563)" xmlns:xlink="http://www.w3.org/1999/xlink" id="radialGradient5880" gradientUnits="userSpaceOnUse" xlink:show="other" xlink:type="simple" r="4.001883" cx="29.913452" fx="29.913452" cy="30.442923" fy="30.442923" xlink:href="#linearGradient2254" xlink:actuate="onLoad"/>
    <radialGradient gradientTransform="matrix(3.0708221,0,0,2.5766766,46.58453,-43.148563)" xmlns:xlink="http://www.w3.org/1999/xlink" id="radialGradient5882" gradientUnits="userSpaceOnUse" xlink:show="other" xlink:type="simple" r="4.001883" cx="29.913452" fx="29.913452" cy="30.442923" fy="30.442923" xlink:href="#linearGradient2254" xlink:actuate="onLoad"/>
    <radialGradient gradientTransform="matrix(3.0708221,0,0,2.5766766,46.58453,-43.148563)" xmlns:xlink="http://www.w3.org/1999/xlink" id="radialGradient5884" gradientUnits="userSpaceOnUse" xlink:show="other" xlink:type="simple" r="4.001883" cx="29.913452" fx="29.913452" cy="30.442923" fy="30.442923" xlink:href="#linearGradient2254" xlink:actuate="onLoad"/>
    <radialGradient gradientTransform="matrix(3.0708221,0,0,2.5766766,46.58453,-43.148563)" xmlns:xlink="http://www.w3.org/1999/xlink" id="radialGradient5886" gradientUnits="userSpaceOnUse" xlink:show="other" xlink:type="simple" r="4.001883" cx="29.913452" fx="29.913452" cy="30.442923" fy="30.442923" xlink:href="#linearGradient2254" xlink:actuate="onLoad"/>
    <radialGradient gradientTransform="matrix(4.0282167,0,0,5.7533935,-89.497634,-106.58108)" xmlns:xlink="http://www.w3.org/1999/xlink" id="radialGradient5953" gradientUnits="userSpaceOnUse" xlink:show="other" xlink:type="simple" r="4.001883" cx="29.913452" fx="29.913452" cy="30.442923" fy="30.442923" xlink:href="#linearGradient2254" xlink:actuate="onLoad"/>
    <radialGradient gradientTransform="matrix(3.0708221,0,0,2.5766766,46.58453,-43.148563)" xmlns:xlink="http://www.w3.org/1999/xlink" id="radialGradient5957" gradientUnits="userSpaceOnUse" xlink:show="other" xlink:type="simple" r="4.001883" cx="29.913452" fx="29.913452" cy="30.442923" fy="30.442923" xlink:href="#linearGradient2254" xlink:actuate="onLoad"/>
  </defs>
  <g id="g3252">
    <path style="opacity:0.8;fill:url(#radialGradient8165);fill-opacity:1;fill-rule:nonzero;stroke:none;stroke-width:2;marker:none;visibility:visible;display:inline;overflow:visible" d="m 127.74222,104.40581 c 0,7.16596 -29.56539,12.97512 -66.036151,12.97512 -36.470761,0 -66.0361518,-5.80916 -66.0361518,-12.97512 0,-7.16596 29.5653908,-12.975113 66.0361518,-12.975113 36.470761,0 66.036151,5.809153 66.036151,12.975113 z" id="path20208"/>
    <path d="m 126.96356,80.842102 c 0.006,15.743217 -28.185363,28.507108 -62.963561,28.507108 -34.778198,0 -62.9697594,-12.763891 -62.963561,-28.507108 -0.0062,-15.743217 28.185363,-28.507104 62.963561,-28.507104 34.778198,0 62.969761,12.763887 62.963561,28.507104 l 0,0 z" id="path7049" style="fill:#727e0a;fill-opacity:1;fill-rule:nonzero;stroke:#404604;stroke-width:1.5;stroke-linecap:round;stroke-linejoin:round;stroke-miterlimit:4;stroke-opacity:1;stroke-dasharray:none;stroke-dashoffset:0;marker:none;visibility:visible;display:inline;overflow:visible;enable-background:accumulate" transform="matrix(0.9965912,0,0,0.8879244,0.2181598,6.339786)"/>
    <g style="display:inline" id="layer1"/>
    <g style="display:inline" id="g7202" transform="matrix(0.05218049,0,0,0.02404604,111.40442,83.030952)">
      <rect x="-1559.2523" width="1339.6335" height="478.35718" y="-150.69685" id="rect7204" style="opacity:0.40206185;fill:url(#linearGradient8238);fill-opacity:1;fill-rule:nonzero;stroke:none;stroke-width:1;marker:none;visibility:visible;display:inline;overflow:visible"/>
      <path style="opacity:0.40206185;fill:url(#radialGradient8240);fill-opacity:1;fill-rule:nonzero;stroke:none;stroke-width:1;marker:none;visibility:visible;display:inline;overflow:visible" d="m -219.61876,-150.68038 c 0,0 0,478.33079 0,478.33079 142.874166,0.90045 345.40022,-107.16966 345.40014,-239.196175 0,-132.026537 -159.436816,-239.134595 -345.40014,-239.134615 z" id="path7206"/>
      <path style="opacity:0.40206185;fill:url(#radialGradient8242);fill-opacity:1;fill-rule:nonzero;stroke:none;stroke-width:1;marker:none;visibility:visible;display:inline;overflow:visible" d="m -1559.2523,-150.68038 c 0,0 0,478.33079 0,478.33079 -142.8742,0.90045 -345.4002,-107.16966 -345.4002,-239.196175 0,-132.026537 159.4368,-239.134595 345.4002,-239.134615 z" id="path7208"/>
    </g>
    <rect x="22.680233" y="27.118233" width="86.692299" style="fill:#eeeeee;fill-opacity:1;fill-rule:nonzero;stroke:#aaaaaa;stroke-width:2;stroke-linecap:round;stroke-linejoin:round;stroke-miterlimit:4;stroke-opacity:1;stroke-dasharray:none;stroke-dashoffset:0;marker:none;visibility:visible;display:inline;overflow:visible;enable-background:accumulate" rx="0.74524319" height="57.816307" ry="0.2132891" id="rect10235"/>
    <rect x="26.595551" y="65.424042" width="11.721827" style="fill:#d9bb7a;fill-opacity:1;fill-rule:nonzero;stroke:#666666;stroke-width:0.83734936;stroke-linecap:round;stroke-linejoin:round;stroke-miterlimit:4;stroke-opacity:1;stroke-dasharray:none;stroke-dashoffset:0;marker:none;visibility:visible;display:inline;overflow:visible;enable-background:accumulate" rx="0" height="18.914438" ry="0" id="rect15901"/>
    <path style="fill:#888888;fill-rule:evenodd;stroke:#aaaaaa;stroke-width:0.96050024;stroke-linecap:butt;stroke-linejoin:miter;stroke-miterlimit:4;stroke-opacity:1;stroke-dasharray:none" d="m 26.425881,37.926121 79.538729,0" id="path10265"/>
    <path style="fill:#816647;fill-rule:evenodd;stroke:#aaaaaa;stroke-width:0.95848292;stroke-linecap:butt;stroke-linejoin:miter;stroke-miterlimit:4;stroke-opacity:1;stroke-dasharray:none" d="m 26.930489,54.560082 79.204981,0" id="path10481"/>
    <g style="display:inline" id="g15805" transform="translate(129.25553,-1.5605821)"/>
    <g id="g5862">
      <g id="g10465" transform="matrix(1.1728767,0,0,1.1728767,-114.08543,25.921191)">
        <path style="opacity:0.31818183;fill:none;stroke:#ffffff;stroke-width:0.81855905;stroke-linecap:butt;stroke-linejoin:miter;stroke-miterlimit:4;stroke-opacity:1;stroke-dashoffset:0;marker:none;visibility:visible;display:inline;overflow:visible" d="m 135.89863,33.326889 7.39977,0 c 0.63078,0 1.13859,0.50781 1.13859,1.138589 l -0.007,7.431884 c 0,0.630778 -0.48812,1.036271 -1.1189,1.036271 l -7.41294,0 c -0.63078,0 -1.13859,-0.507812 -1.13859,-1.138591 l 0,-7.329564 c 0,-0.630779 0.50781,-1.138589 1.13859,-1.138589 z" id="path10467"/>
        <rect x="135.41202" y="33.977177" width="8.1866875" style="fill:#3465a4;fill-opacity:1;fill-rule:nonzero;stroke:#757575;stroke-width:0.81855911;stroke-linecap:butt;stroke-linejoin:miter;stroke-miterlimit:4;stroke-opacity:1;stroke-dasharray:none;stroke-dashoffset:0;marker:none;visibility:visible;display:inline;overflow:visible" rx="0.31210217" height="8.1548634" ry="0.31210217" id="rect10469"/>
        <path style="opacity:0.39772728;fill:url(#radialGradient10485);fill-opacity:1;fill-rule:nonzero;stroke:none;stroke-width:0.99999958;marker:none;visibility:visible;display:inline;overflow:visible" d="m 135.90263,38.801773 c 2.96153,0.271089 4.52477,-1.183395 7.25911,-1.27101 l 0.0202,-3.151038 -7.29468,-0.0049 0.0153,4.426984 z" id="path10471"/>
      </g>
      <g id="g5774" transform="matrix(1.1728767,0,0,1.1728767,-97.48032,25.921191)">
        <path style="opacity:0.31818183;fill:none;stroke:#ffffff;stroke-width:0.81855905;stroke-linecap:butt;stroke-linejoin:miter;stroke-miterlimit:4;stroke-opacity:1;stroke-dashoffset:0;marker:none;visibility:visible;display:inline;overflow:visible" d="m 135.89863,33.326889 7.39977,0 c 0.63078,0 1.13859,0.50781 1.13859,1.138589 l -0.007,7.431884 c 0,0.630778 -0.48812,1.036271 -1.1189,1.036271 l -7.41294,0 c -0.63078,0 -1.13859,-0.507812 -1.13859,-1.138591 l 0,-7.329564 c 0,-0.630779 0.50781,-1.138589 1.13859,-1.138589 z" id="path5776"/>
        <rect x="135.41202" y="33.977177" width="8.1866875" style="fill:#3465a4;fill-opacity:1;fill-rule:nonzero;stroke:#757575;stroke-width:0.81855911;stroke-linecap:butt;stroke-linejoin:miter;stroke-miterlimit:4;stroke-opacity:1;stroke-dasharray:none;stroke-dashoffset:0;marker:none;visibility:visible;display:inline;overflow:visible" rx="0.31210217" height="8.1548634" ry="0.31210217" id="rect5778"/>
        <path style="opacity:0.39772728;fill:url(#radialGradient5782);fill-opacity:1;fill-rule:nonzero;stroke:none;stroke-width:0.99999958;marker:none;visibility:visible;display:inline;overflow:visible" d="m 135.90263,38.801773 c 2.96153,0.271089 4.52477,-1.183395 7.25911,-1.27101 l 0.0202,-3.151038 -7.29468,-0.0049 0.0153,4.426984 z" id="path5780"/>
      </g>
      <g id="g5784" transform="matrix(1.1728767,0,0,1.1728767,-80.875213,25.921191)">
        <path style="opacity:0.31818183;fill:none;stroke:#ffffff;stroke-width:0.81855905;stroke-linecap:butt;stroke-linejoin:miter;stroke-miterlimit:4;stroke-opacity:1;stroke-dashoffset:0;marker:none;visibility:visible;display:inline;overflow:visible" d="m 135.89863,33.326889 7.39977,0 c 0.63078,0 1.13859,0.50781 1.13859,1.138589 l -0.007,7.431884 c 0,0.630778 -0.48812,1.036271 -1.1189,1.036271 l -7.41294,0 c -0.63078,0 -1.13859,-0.507812 -1.13859,-1.138591 l 0,-7.329564 c 0,-0.630779 0.50781,-1.138589 1.13859,-1.138589 z" id="path5786"/>
        <rect x="135.41202" y="33.977177" width="8.1866875" style="fill:#3465a4;fill-opacity:1;fill-rule:nonzero;stroke:#757575;stroke-width:0.81855911;stroke-linecap:butt;stroke-linejoin:miter;stroke-miterlimit:4;stroke-opacity:1;stroke-dasharray:none;stroke-dashoffset:0;marker:none;visibility:visible;display:inline;overflow:visible" rx="0.31210217" height="8.1548634" ry="0.31210217" id="rect5788"/>
        <path style="opacity:0.39772728;fill:url(#radialGradient5792);fill-opacity:1;fill-rule:nonzero;stroke:none;stroke-width:0.99999958;marker:none;visibility:visible;display:inline;overflow:visible" d="m 135.90263,38.801773 c 2.96153,0.271089 4.52477,-1.183395 7.25911,-1.27101 l 0.0202,-3.151038 -7.29468,-0.0049 0.0153,4.426984 z" id="path5790"/>
      </g>
      <g id="g5794" transform="matrix(1.1728767,0,0,1.1728767,-64.270102,25.921191)">
        <path style="opacity:0.31818183;fill:none;stroke:#ffffff;stroke-width:0.81855905;stroke-linecap:butt;stroke-linejoin:miter;stroke-miterlimit:4;stroke-opacity:1;stroke-dashoffset:0;marker:none;visibility:visible;display:inline;overflow:visible" d="m 135.89863,33.326889 7.39977,0 c 0.63078,0 1.13859,0.50781 1.13859,1.138589 l -0.007,7.431884 c 0,0.630778 -0.48812,1.036271 -1.1189,1.036271 l -7.41294,0 c -0.63078,0 -1.13859,-0.507812 -1.13859,-1.138591 l 0,-7.329564 c 0,-0.630779 0.50781,-1.138589 1.13859,-1.138589 z" id="path5796"/>
        <rect x="135.41202" y="33.977177" width="8.1866875" style="fill:#3465a4;fill-opacity:1;fill-rule:nonzero;stroke:#757575;stroke-width:0.81855911;stroke-linecap:butt;stroke-linejoin:miter;stroke-miterlimit:4;stroke-opacity:1;stroke-dasharray:none;stroke-dashoffset:0;marker:none;visibility:visible;display:inline;overflow:visible" rx="0.31210217" height="8.1548634" ry="0.31210217" id="rect5798"/>
        <path style="opacity:0.39772728;fill:url(#radialGradient5802);fill-opacity:1;fill-rule:nonzero;stroke:none;stroke-width:0.99999958;marker:none;visibility:visible;display:inline;overflow:visible" d="m 135.90263,38.801773 c 2.96153,0.271089 4.52477,-1.183395 7.25911,-1.27101 l 0.0202,-3.151038 -7.29468,-0.0049 0.0153,4.426984 z" id="path5800"/>
      </g>
    </g>
    <g id="g5844" transform="translate(0.25329,0)">
      <g id="g5804" transform="matrix(1.1728767,0,0,1.1728767,-114.33872,1.0404387)">
        <path style="opacity:0.31818183;fill:none;stroke:#ffffff;stroke-width:0.81855905;stroke-linecap:butt;stroke-linejoin:miter;stroke-miterlimit:4;stroke-opacity:1;stroke-dashoffset:0;marker:none;visibility:visible;display:inline;overflow:visible" d="m 135.89863,33.326889 7.39977,0 c 0.63078,0 1.13859,0.50781 1.13859,1.138589 l -0.007,7.431884 c 0,0.630778 -0.48812,1.036271 -1.1189,1.036271 l -7.41294,0 c -0.63078,0 -1.13859,-0.507812 -1.13859,-1.138591 l 0,-7.329564 c 0,-0.630779 0.50781,-1.138589 1.13859,-1.138589 z" id="path5806"/>
        <rect x="135.41202" y="33.977177" width="8.1866875" style="fill:#3465a4;fill-opacity:1;fill-rule:nonzero;stroke:#757575;stroke-width:0.81855911;stroke-linecap:butt;stroke-linejoin:miter;stroke-miterlimit:4;stroke-opacity:1;stroke-dasharray:none;stroke-dashoffset:0;marker:none;visibility:visible;display:inline;overflow:visible" rx="0.31210217" height="8.1548634" ry="0.31210217" id="rect5808"/>
        <path style="opacity:0.39772728;fill:url(#radialGradient5880);fill-opacity:1;fill-rule:nonzero;stroke:none;stroke-width:0.99999958;marker:none;visibility:visible;display:inline;overflow:visible" d="m 135.90263,38.801773 c 2.96153,0.271089 4.52477,-1.183395 7.25911,-1.27101 l 0.0202,-3.151038 -7.29468,-0.0049 0.0153,4.426984 z" id="path5810"/>
      </g>
      <g id="g5812" transform="matrix(1.1728767,0,0,1.1728767,-97.733612,1.0404387)">
        <path style="opacity:0.31818183;fill:none;stroke:#ffffff;stroke-width:0.81855905;stroke-linecap:butt;stroke-linejoin:miter;stroke-miterlimit:4;stroke-opacity:1;stroke-dashoffset:0;marker:none;visibility:visible;display:inline;overflow:visible" d="m 135.89863,33.326889 7.39977,0 c 0.63078,0 1.13859,0.50781 1.13859,1.138589 l -0.007,7.431884 c 0,0.630778 -0.48812,1.036271 -1.1189,1.036271 l -7.41294,0 c -0.63078,0 -1.13859,-0.507812 -1.13859,-1.138591 l 0,-7.329564 c 0,-0.630779 0.50781,-1.138589 1.13859,-1.138589 z" id="path5814"/>
        <rect x="135.41202" y="33.977177" width="8.1866875" style="fill:#3465a4;fill-opacity:1;fill-rule:nonzero;stroke:#757575;stroke-width:0.81855911;stroke-linecap:butt;stroke-linejoin:miter;stroke-miterlimit:4;stroke-opacity:1;stroke-dasharray:none;stroke-dashoffset:0;marker:none;visibility:visible;display:inline;overflow:visible" rx="0.31210217" height="8.1548634" ry="0.31210217" id="rect5816"/>
        <path style="opacity:0.39772728;fill:url(#radialGradient5882);fill-opacity:1;fill-rule:nonzero;stroke:none;stroke-width:0.99999958;marker:none;visibility:visible;display:inline;overflow:visible" d="m 135.90263,38.801773 c 2.96153,0.271089 4.52477,-1.183395 7.25911,-1.27101 l 0.0202,-3.151038 -7.29468,-0.0049 0.0153,4.426984 z" id="path5818"/>
      </g>
      <g id="g5820" transform="matrix(1.1728767,0,0,1.1728767,-81.128502,1.0404387)">
        <path style="opacity:0.31818183;fill:none;stroke:#ffffff;stroke-width:0.81855905;stroke-linecap:butt;stroke-linejoin:miter;stroke-miterlimit:4;stroke-opacity:1;stroke-dashoffset:0;marker:none;visibility:visible;display:inline;overflow:visible" d="m 135.89863,33.326889 7.39977,0 c 0.63078,0 1.13859,0.50781 1.13859,1.138589 l -0.007,7.431884 c 0,0.630778 -0.48812,1.036271 -1.1189,1.036271 l -7.41294,0 c -0.63078,0 -1.13859,-0.507812 -1.13859,-1.138591 l 0,-7.329564 c 0,-0.630779 0.50781,-1.138589 1.13859,-1.138589 z" id="path5822"/>
        <rect x="135.41202" y="33.977177" width="8.1866875" style="fill:#3465a4;fill-opacity:1;fill-rule:nonzero;stroke:#757575;stroke-width:0.81855911;stroke-linecap:butt;stroke-linejoin:miter;stroke-miterlimit:4;stroke-opacity:1;stroke-dasharray:none;stroke-dashoffset:0;marker:none;visibility:visible;display:inline;overflow:visible" rx="0.31210217" height="8.1548634" ry="0.31210217" id="rect5824"/>
        <path style="opacity:0.39772728;fill:url(#radialGradient5884);fill-opacity:1;fill-rule:nonzero;stroke:none;stroke-width:0.99999958;marker:none;visibility:visible;display:inline;overflow:visible" d="m 135.90263,38.801773 c 2.96153,0.271089 4.52477,-1.183395 7.25911,-1.27101 l 0.0202,-3.151038 -7.29468,-0.0049 0.0153,4.426984 z" id="path5826"/>
      </g>
      <g id="g5828" transform="matrix(1.1728767,0,0,1.1728767,-64.523392,1.0404387)">
        <path style="opacity:0.31818183;fill:none;stroke:#ffffff;stroke-width:0.81855905;stroke-linecap:butt;stroke-linejoin:miter;stroke-miterlimit:4;stroke-opacity:1;stroke-dashoffset:0;marker:none;visibility:visible;display:inline;overflow:visible" d="m 135.89863,33.326889 7.39977,0 c 0.63078,0 1.13859,0.50781 1.13859,1.138589 l -0.007,7.431884 c 0,0.630778 -0.48812,1.036271 -1.1189,1.036271 l -7.41294,0 c -0.63078,0 -1.13859,-0.507812 -1.13859,-1.138591 l 0,-7.329564 c 0,-0.630779 0.50781,-1.138589 1.13859,-1.138589 z" id="path5830"/>
        <rect x="135.41202" y="33.977177" width="8.1866875" style="fill:#3465a4;fill-opacity:1;fill-rule:nonzero;stroke:#757575;stroke-width:0.81855911;stroke-linecap:butt;stroke-linejoin:miter;stroke-miterlimit:4;stroke-opacity:1;stroke-dasharray:none;stroke-dashoffset:0;marker:none;visibility:visible;display:inline;overflow:visible" rx="0.31210217" height="8.1548634" ry="0.31210217" id="rect5832"/>
        <path style="opacity:0.39772728;fill:url(#radialGradient5886);fill-opacity:1;fill-rule:nonzero;stroke:none;stroke-width:0.99999958;marker:none;visibility:visible;display:inline;overflow:visible" d="m 135.90263,38.801773 c 2.96153,0.271089 4.52477,-1.183395 7.25911,-1.27101 l 0.0202,-3.151038 -7.29468,-0.0049 0.0153,4.426984 z" id="path5834"/>
      </g>
    </g>
    <path style="fill:#816647;fill-rule:evenodd;stroke:#aaaaaa;stroke-width:0.95848292;stroke-linecap:butt;stroke-linejoin:miter;stroke-miterlimit:4;stroke-opacity:1;stroke-dasharray:none" d="m 26.761625,62.480211 79.204985,0" id="path5888"/>
    <rect x="27.363899" y="66.152809" width="10.285391" style="fill:#cccccf;fill-opacity:1;fill-rule:nonzero;stroke:#888888;stroke-width:0.7539953;stroke-linecap:round;stroke-linejoin:round;stroke-miterlimit:4;stroke-opacity:1;stroke-dasharray:none;stroke-dashoffset:0;marker:none;visibility:visible;display:inline;overflow:visible;enable-background:accumulate" rx="0" height="17.478003" ry="0" id="rect5890"/>
    <path style="opacity:0.39772728;fill:url(#radialGradient5953);fill-opacity:1;fill-rule:nonzero;stroke:none;stroke-width:0.99999958;marker:none;visibility:visible;display:inline;overflow:visible" d="m 27.667297,76.403673 c 3.884851,0.605307 5.935465,-2.642371 9.522293,-2.838005 l 0.02655,-7.03587 -9.568953,-0.01102 0.02011,9.884896 z" id="path5900"/>
    <g id="g5902" transform="matrix(1.1728767,0,0,1.1728767,-130.66237,1.0404387)">
      <path style="opacity:0.31818183;fill:none;stroke:#ffffff;stroke-width:0.81855905;stroke-linecap:butt;stroke-linejoin:miter;stroke-miterlimit:4;stroke-opacity:1;stroke-dashoffset:0;marker:none;visibility:visible;display:inline;overflow:visible" d="m 135.89863,33.326889 7.39977,0 c 0.63078,0 1.13859,0.50781 1.13859,1.138589 l -0.007,7.431884 c 0,0.630778 -0.48812,1.036271 -1.1189,1.036271 l -7.41294,0 c -0.63078,0 -1.13859,-0.507812 -1.13859,-1.138591 l 0,-7.329564 c 0,-0.630779 0.50781,-1.138589 1.13859,-1.138589 z" id="path5904"/>
      <rect x="135.41202" y="33.977177" width="8.1866875" style="fill:#3465a4;fill-opacity:1;fill-rule:nonzero;stroke:#757575;stroke-width:0.81855911;stroke-linecap:butt;stroke-linejoin:miter;stroke-miterlimit:4;stroke-opacity:1;stroke-dasharray:none;stroke-dashoffset:0;marker:none;visibility:visible;display:inline;overflow:visible" rx="0.31210217" height="8.1548634" ry="0.31210217" id="rect5906"/>
      <path style="opacity:0.39772728;fill:url(#radialGradient5957);fill-opacity:1;fill-rule:nonzero;stroke:none;stroke-width:0.99999958;marker:none;visibility:visible;display:inline;overflow:visible" d="m 135.90263,38.801773 c 2.96153,0.271089 4.52477,-1.183395 7.25911,-1.27101 l 0.0202,-3.151038 -7.29468,-0.0049 0.0153,4.426984 z" id="path5908"/>
    </g>
    <rect x="18.326323" y="25.070301" width="95.062393" style="fill:#816647;fill-opacity:1;fill-rule:nonzero;stroke:#565248;stroke-width:1.50225008;stroke-linecap:round;stroke-linejoin:round;stroke-miterlimit:4;stroke-opacity:1;stroke-dasharray:none;stroke-dashoffset:0;marker:none;visibility:visible;display:inline;overflow:visible;enable-background:accumulate" rx="0.36798415" height="3.885699" ry="0.2054441" id="rect5959"/>
  </g>
</g></svg>