<svg contentScriptType="text/ecmascript" xmlns:xlink="http://www.w3.org/1999/xlink" zoomAndPan="magnify" xmlns:svg="http://www.w3.org/2000/svg" contentStyleType="text/css" preserveAspectRatio="xMidYMid meet" xmlns="http://www.w3.org/2000/svg" version="1.0"><g id="_STRESSTEST_SYMBOLS_STRESSTEST_OSA_OSA_VPN_SVG"><defs id="defs3">
    <linearGradient xlink:actuate="onLoad" xlink:type="simple" id="linearGradient5048" xlink:show="other" xmlns:xlink="http://www.w3.org/1999/xlink">
      <stop style="stop-color:#000000;stop-opacity:0" offset="0" id="stop5050"/>
      <stop style="stop-color:#000000;stop-opacity:1" offset="0.5" id="stop5056"/>
      <stop style="stop-color:#000000;stop-opacity:0" offset="1" id="stop5052"/>
    </linearGradient>
    <linearGradient xlink:actuate="onLoad" xlink:type="simple" id="linearGradient5060" xlink:show="other" xmlns:xlink="http://www.w3.org/1999/xlink">
      <stop style="stop-color:#000000;stop-opacity:1" offset="0" id="stop5062"/>
      <stop style="stop-color:#000000;stop-opacity:0" offset="1" id="stop5064"/>
    </linearGradient>
    <linearGradient xlink:actuate="onLoad" xlink:type="simple" id="linearGradient4254" xlink:show="other" xmlns:xlink="http://www.w3.org/1999/xlink">
      <stop style="stop-color:#616161;stop-opacity:1" offset="0" id="stop4256"/>
      <stop style="stop-color:#a0a0a0;stop-opacity:1" offset="1" id="stop4258"/>
    </linearGradient>
    <linearGradient xlink:actuate="onLoad" xlink:type="simple" id="linearGradient4228" xlink:show="other" xmlns:xlink="http://www.w3.org/1999/xlink">
      <stop style="stop-color:#bbbbbb;stop-opacity:1" offset="0" id="stop4230"/>
      <stop style="stop-color:#9f9f9f;stop-opacity:1" offset="1" id="stop4232"/>
    </linearGradient>
    <linearGradient xlink:actuate="onLoad" xlink:type="simple" id="linearGradient4244" xlink:show="other" xmlns:xlink="http://www.w3.org/1999/xlink">
      <stop style="stop-color:#e4e4e4;stop-opacity:1" offset="0" id="stop4246"/>
      <stop style="stop-color:#d3d3d3;stop-opacity:1" offset="1" id="stop4248"/>
    </linearGradient>
    <linearGradient gradientTransform="matrix(2.774389,0,0,1.969706,-1892.179,-872.8854)" x1="302.85715" xmlns:xlink="http://www.w3.org/1999/xlink" y1="366.64789" x2="302.85715" xlink:href="#linearGradient5048" gradientUnits="userSpaceOnUse" y2="609.50507" xlink:type="simple" xlink:actuate="onLoad" id="linearGradient6715" xlink:show="other"/>
    <radialGradient gradientTransform="matrix(2.774389,0,0,1.969706,-1891.633,-872.8854)" xmlns:xlink="http://www.w3.org/1999/xlink" id="radialGradient6717" gradientUnits="userSpaceOnUse" xlink:show="other" xlink:type="simple" r="117.14286" cx="605.71429" fx="605.71429" cy="486.64789" fy="486.64789" xlink:href="#linearGradient5060" xlink:actuate="onLoad"/>
    <radialGradient gradientTransform="matrix(-2.774389,0,0,1.969706,112.7623,-872.8854)" xmlns:xlink="http://www.w3.org/1999/xlink" id="radialGradient6719" gradientUnits="userSpaceOnUse" xlink:show="other" xlink:type="simple" r="117.14286" cx="605.71429" fx="605.71429" cy="486.64789" fy="486.64789" xlink:href="#linearGradient5060" xlink:actuate="onLoad"/>
    <linearGradient gradientTransform="matrix(2.5646484,0,0,1.8284958,3.0046676,26.372688)" x1="12.378357" xmlns:xlink="http://www.w3.org/1999/xlink" y1="4.433136" x2="44.0961" xlink:href="#linearGradient4254" gradientUnits="userSpaceOnUse" y2="47.620636" xlink:type="simple" xlink:actuate="onLoad" id="linearGradient18985" xlink:show="other"/>
    <radialGradient gradientTransform="matrix(3.1758355,1.2018439,-1.7549782,1.798161,-0.646306,22.849447)" xmlns:xlink="http://www.w3.org/1999/xlink" id="radialGradient19000" gradientUnits="userSpaceOnUse" xlink:show="other" xlink:type="simple" r="20.935818" cx="15.571491" fx="15.571491" cy="2.958519" fy="2.958519" xlink:href="#linearGradient4244" xlink:actuate="onLoad"/>
    <linearGradient gradientTransform="matrix(2.5551094,0,0,2.0216842,3.2352686,19.024775)" x1="7.6046205" xmlns:xlink="http://www.w3.org/1999/xlink" y1="28.481176" x2="36.183067" xlink:href="#linearGradient4228" gradientUnits="userSpaceOnUse" y2="40.943935" xlink:type="simple" xlink:actuate="onLoad" id="linearGradient19003" xlink:show="other"/>
  </defs><g style="display:inline" id="layer1"/><g style="display:inline" id="layer2">
    <path style="fill:url(#linearGradient19003);fill-opacity:1;fill-rule:evenodd;stroke:none" d="m 11.599653,73.603805 1.953642,-1.39944 96.096875,0.126356 8.84682,0.641477 0,21.103415 c 0,2.275545 -1.55099,3.726634 -4.0674,3.726634 l -98.583754,0 c -2.551187,0 -4.246183,-1.095855 -4.246183,-3.284558 l 0,-20.913884 z" id="path4170"/>
    <path style="fill:none;stroke:#535353;stroke-width:4.38836098;stroke-linecap:round;stroke-linejoin:round;stroke-miterlimit:4;stroke-opacity:1;stroke-dasharray:none" d="m 31.848533,40.136783 c -1.607726,0 -2.652747,0.5431 -3.295834,1.579165 -2e-6,0 -16.639968,32.01098 -16.639968,32.01098 0,0 -0.643091,1.256888 -0.643091,3.333784 0,0 0,18.060858 0,18.060858 0,2.026216 1.692063,3.04135 4.260475,3.041347 l 99.196705,0 c 2.53341,0 4.0997,-1.344146 4.0997,-3.450759 l 0,-18.060858 c 0,0 0.27258,-1.441922 -0.24116,-2.456472 L 101.30231,42.008387 c -0.47467,-0.958083 -1.638354,-1.849321 -2.893911,-1.871604 l -66.559866,0 z" id="path4196"/>
    <g id="g6707" transform="matrix(0.06267019,0,0,0.05331895,119.9796,90.615598)">
      <rect x="-1559.2523" width="1339.6335" height="478.35718" y="-150.69685" id="rect6709" style="opacity:0.40206185;fill:url(#linearGradient6715);fill-opacity:1;fill-rule:nonzero;stroke:none;stroke-width:1;marker:none;visibility:visible;display:inline;overflow:visible"/>
      <path style="opacity:0.40206185;fill:url(#radialGradient6717);fill-opacity:1;fill-rule:nonzero;stroke:none;stroke-width:1;marker:none;visibility:visible;display:inline;overflow:visible" d="m -219.61876,-150.68038 c 0,0 0,478.33079 0,478.33079 142.874166,0.90045 345.40022,-107.16966 345.40014,-239.196175 0,-132.026537 -159.436816,-239.134595 -345.40014,-239.134615 z" id="path6711"/>
      <path style="opacity:0.40206185;fill:url(#radialGradient6719);fill-opacity:1;fill-rule:nonzero;stroke:none;stroke-width:1;marker:none;visibility:visible;display:inline;overflow:visible" d="m -1559.2523,-150.68038 c 0,0 0,478.33079 0,478.33079 -142.8742,0.90045 -345.4002,-107.16966 -345.4002,-239.196175 0,-132.026537 159.4368,-239.134595 345.4002,-239.134615 z" id="path6713"/>
    </g>
    <path style="fill:url(#radialGradient19000);fill-opacity:1;fill-rule:evenodd;stroke:none" d="m 13.929746,70.190357 c -1.763629,2.251306 -0.0015,3.678965 2.557261,3.678965 0,0 96.294153,0 96.294153,0 2.76301,-0.03661 4.55603,-1.555781 3.52725,-3.294598 L 99.73029,44.113647 c -0.4556,-0.787045 -1.616653,-1.519181 -2.8218,-1.537485 l -63.843371,0 c -1.543177,0 -2.557263,0.466738 -3.174531,1.317844 0,0 -15.960842,26.296351 -15.960842,26.296351 z" id="path3093"/>
    <path d="m 8.5736699,25.593554 a 1.3700195,1.016466 0 1 1 -2.7400389,0 1.3700195,1.016466 0 1 1 2.7400389,0 z" id="path4224" style="fill:#ffffff;fill-opacity:0.45762706;fill-rule:evenodd;stroke:none;stroke-width:2;marker:none;visibility:visible;display:inline;overflow:visible" transform="matrix(2.5551094,0,0,2.5551094,7.4611107,-1.3091229)"/>
    <path d="m 8.5736699,25.593554 a 1.3700195,1.016466 0 1 1 -2.7400389,0 1.3700195,1.016466 0 1 1 2.7400389,0 z" id="path4226" style="fill:#ffffff;fill-opacity:0.45762706;fill-rule:evenodd;stroke:none;stroke-width:2;marker:none;visibility:visible;display:inline;overflow:visible" transform="matrix(2.5551094,0,0,2.5551094,86.024797,-1.5349638)"/>
    <path style="fill:none;stroke:url(#linearGradient18985);stroke-width:2.16551399;stroke-linecap:round;stroke-linejoin:round;stroke-miterlimit:4;stroke-opacity:1;stroke-dasharray:none" d="m 32.863624,41.760801 c -1.543128,0 -2.54616,0.510806 -3.163406,1.485264 -3e-6,0 -16.452257,30.336065 -16.452257,30.336065 0,0 -0.617252,1.182149 -0.617252,3.135546 0,0 0,16.986901 0,16.986901 0,2.477136 1.138848,2.974778 4.089291,2.974778 l 96.65365,0 c 3.39336,0 3.93499,-0.578531 3.93499,-3.359846 l 0,-16.986901 c 0,0 0.26161,-1.356179 -0.23147,-2.310402 L 100.16795,43.292552 c -0.455592,-0.901113 -1.412229,-1.510794 -2.61734,-1.531751 l -64.686986,0 z" id="path4252"/>
    <path style="fill:none;stroke:#ffffff;stroke-width:2.55511069px;stroke-linecap:square;stroke-linejoin:miter;stroke-opacity:0.42372885" d="m 106.7172,76.544153 0,12.829038" id="path4282"/>
    <path style="fill:none;stroke:#ffffff;stroke-width:2.55511069px;stroke-linecap:square;stroke-linejoin:miter;stroke-opacity:0.42372885" d="m 101.60698,76.696889 0,12.829039" id="path4284"/>
    <path style="fill:none;stroke:#ffffff;stroke-width:2.55511069px;stroke-linecap:square;stroke-linejoin:miter;stroke-opacity:0.42372885" d="m 96.496762,76.696889 0,12.829039" id="path4286"/>
    <path style="fill:none;stroke:#ffffff;stroke-width:2.55511069px;stroke-linecap:square;stroke-linejoin:miter;stroke-opacity:0.42372885" d="m 91.386543,76.696889 0,12.829039" id="path4288"/>
    <path style="fill:none;stroke:#ffffff;stroke-width:2.55511069px;stroke-linecap:square;stroke-linejoin:miter;stroke-opacity:0.42372885" d="m 86.276324,76.696889 0,12.829039" id="path4290"/>
    <path style="fill:none;stroke:#ffffff;stroke-width:2.55511069px;stroke-linecap:square;stroke-linejoin:miter;stroke-opacity:0.42372885" d="m 81.166105,76.696889 0,12.829039" id="path4292"/>
    <path style="opacity:0.09714284;fill:none;stroke:#000000;stroke-width:2.55511069px;stroke-linecap:square;stroke-linejoin:miter;stroke-opacity:1" d="m 104.16209,76.67165 0,12.829038" id="path4294"/>
    <path style="opacity:0.09714284;fill:none;stroke:#000000;stroke-width:2.55511069px;stroke-linecap:square;stroke-linejoin:miter;stroke-opacity:1" d="m 99.051871,76.824387 0,12.829038" id="path4296"/>
    <path style="opacity:0.09714284;fill:none;stroke:#000000;stroke-width:2.55511069px;stroke-linecap:square;stroke-linejoin:miter;stroke-opacity:1" d="m 93.941652,76.824387 0,12.829038" id="path4298"/>
    <path style="opacity:0.09714284;fill:none;stroke:#000000;stroke-width:2.55511069px;stroke-linecap:square;stroke-linejoin:miter;stroke-opacity:1" d="m 88.831434,76.824387 0,12.829038" id="path4300"/>
    <path style="opacity:0.09714284;fill:none;stroke:#000000;stroke-width:2.55511069px;stroke-linecap:square;stroke-linejoin:miter;stroke-opacity:1" d="m 83.721215,76.824387 0,12.829038" id="path4302"/>
    <g style="display:inline" id="g22031" transform="translate(67.840656,8.0673369)">
      <rect x="-4.6224236" width="5.0423279" height="3.5414283" y="69.945557" id="rect22033" style="fill:#2e3436;fill-opacity:1;fill-rule:nonzero;stroke:#363333;stroke-width:3.76234961;stroke-miterlimit:4;stroke-opacity:1;stroke-dasharray:none"/>
      <rect x="-4.6224236" width="5.0423279" height="3.5414283" y="69.945557" id="rect22035" style="fill:#2e3436;fill-opacity:1;fill-rule:nonzero;stroke:#363333;stroke-width:3.76234961;stroke-miterlimit:4;stroke-opacity:1;stroke-dasharray:none"/>
      <rect x="-5.6926928" width="7.1828671" height="5.6819677" y="68.87529" id="rect22037" style="fill:#2e3436;fill-opacity:1;fill-rule:nonzero;stroke:#ffffff;stroke-width:0.42145053;stroke-miterlimit:4;stroke-opacity:1;stroke-dasharray:none"/>
      <rect x="-4.6224232" width="5.0423279" height="3.5414283" y="78.200493" id="rect22039" style="fill:#2e3436;fill-opacity:1;fill-rule:nonzero;stroke:#363333;stroke-width:3.76234961;stroke-miterlimit:4;stroke-opacity:1;stroke-dasharray:none;display:inline"/>
      <rect x="-4.6224232" width="5.0423279" height="3.5414283" y="78.200493" id="rect22041" style="fill:#2e3436;fill-opacity:1;fill-rule:nonzero;stroke:#363333;stroke-width:3.76234961;stroke-miterlimit:4;stroke-opacity:1;stroke-dasharray:none;display:inline"/>
      <rect x="-5.6926923" width="7.1828671" height="5.6819677" y="77.130234" id="rect22043" style="fill:#2e3436;fill-opacity:1;fill-rule:nonzero;stroke:#ffffff;stroke-width:0.42145053;stroke-miterlimit:4;stroke-opacity:1;stroke-dasharray:none;display:inline"/>
    </g>
    <path d="m -25.215112,86.725266 a 2.2513492,2.2513492 0 1 1 -4.502698,0 2.2513492,2.2513492 0 1 1 4.502698,0 z" id="path22045" style="fill:#4e9a06;fill-opacity:1;fill-rule:nonzero;stroke:#ffffff;stroke-width:0.40000001;stroke-miterlimit:4;stroke-opacity:1;stroke-dasharray:none" transform="translate(102.88665,-8.405037)"/>
    <path d="m -25.215112,86.725266 a 2.2513492,2.2513492 0 1 1 -4.502698,0 2.2513492,2.2513492 0 1 1 4.502698,0 z" id="path22049" style="fill:#a40000;fill-opacity:1;fill-rule:nonzero;stroke:#ffffff;stroke-width:0.40000001;stroke-miterlimit:4;stroke-opacity:1;stroke-dasharray:none;display:inline" transform="translate(102.88665,-3.4520692)"/>
    <path d="m -25.215112,86.725266 a 2.2513492,2.2513492 0 1 1 -4.502698,0 2.2513492,2.2513492 0 1 1 4.502698,0 z" id="path22051" style="fill:#4e9a06;fill-opacity:1;fill-rule:nonzero;stroke:#ffffff;stroke-width:0.40000001;stroke-miterlimit:4;stroke-opacity:1;stroke-dasharray:none;display:inline" transform="translate(102.88665,1.6509881)"/>
  </g></g></svg>