<svg contentScriptType="text/ecmascript" xmlns:xlink="http://www.w3.org/1999/xlink" zoomAndPan="magnify" xmlns:svg="http://www.w3.org/2000/svg" contentStyleType="text/css" preserveAspectRatio="xMidYMid meet" xmlns="http://www.w3.org/2000/svg" version="1.0"><g id="_STRESSTEST_SYMBOLS_STRESSTEST_OSA_OSA_SITE-NEIGHBOURHOOD_SVG"><defs id="defs3">
    <linearGradient xlink:actuate="onLoad" xlink:type="simple" id="linearGradient20210" xlink:show="other" xmlns:xlink="http://www.w3.org/1999/xlink">
      <stop style="stop-color:#000000;stop-opacity:0.51546389" offset="0" id="stop20212"/>
      <stop style="stop-color:#000000;stop-opacity:0.14432989" offset="0.55172414" id="stop20218"/>
      <stop style="stop-color:#000000;stop-opacity:0" offset="1" id="stop20214"/>
    </linearGradient>
    <linearGradient xlink:actuate="onLoad" xlink:type="simple" id="linearGradient2406" xlink:show="other" xmlns:xlink="http://www.w3.org/1999/xlink">
      <stop style="stop-color:#7c7e79;stop-opacity:1" offset="0" id="stop2408"/>
      <stop style="stop-color:#848681;stop-opacity:1" offset="0.1724138" id="stop2414"/>
      <stop style="stop-color:#898c86;stop-opacity:1" offset="1" id="stop2410"/>
    </linearGradient>
    <linearGradient xlink:actuate="onLoad" xlink:type="simple" id="linearGradient2378" xlink:show="other" xmlns:xlink="http://www.w3.org/1999/xlink">
      <stop style="stop-color:#575757;stop-opacity:1" offset="0" id="stop2380"/>
      <stop style="stop-color:#575757;stop-opacity:0" offset="1" id="stop11457"/>
    </linearGradient>
    <linearGradient xlink:actuate="onLoad" xlink:type="simple" id="linearGradient2341" xlink:show="other" xmlns:xlink="http://www.w3.org/1999/xlink">
      <stop style="stop-color:#000000;stop-opacity:1" offset="0" id="stop2343"/>
      <stop style="stop-color:#000000;stop-opacity:0" offset="1" id="stop2345"/>
    </linearGradient>
    <linearGradient gradientTransform="matrix(0.354101,0,0,0.354101,1.638679,-0.08364921)" x1="64.387703" xmlns:xlink="http://www.w3.org/1999/xlink" y1="65.124001" x2="64.387703" gradientUnits="userSpaceOnUse" y2="35.569" xlink:type="simple" xlink:actuate="onLoad" id="XMLID_39_" xlink:show="other">
      <stop style="stop-color:#ffffff;stop-opacity:1" offset="0" id="stop336"/>
      <stop style="stop-color:#ff6200;stop-opacity:1" offset="0.85390002" id="stop338"/>
      <stop style="stop-color:#f25d00;stop-opacity:1" offset="1" id="stop340"/>
      
    </linearGradient>
    <linearGradient xlink:actuate="onLoad" xlink:type="simple" id="linearGradient2254" xlink:show="other" xmlns:xlink="http://www.w3.org/1999/xlink">
      <stop style="stop-color:#ffffff;stop-opacity:1" offset="0" id="stop2256"/>
      <stop style="stop-color:#ffffff;stop-opacity:0" offset="1" id="stop2258"/>
    </linearGradient>
    <linearGradient xlink:actuate="onLoad" xlink:type="simple" id="linearGradient5060" xlink:show="other" xmlns:xlink="http://www.w3.org/1999/xlink">
      <stop style="stop-color:#000000;stop-opacity:1" offset="0" id="stop5062"/>
      <stop style="stop-color:#000000;stop-opacity:0" offset="1" id="stop5064"/>
    </linearGradient>
    <linearGradient xlink:actuate="onLoad" xlink:type="simple" id="linearGradient5048" xlink:show="other" xmlns:xlink="http://www.w3.org/1999/xlink">
      <stop style="stop-color:#000000;stop-opacity:0" offset="0" id="stop5050"/>
      <stop style="stop-color:#000000;stop-opacity:1" offset="0.5" id="stop5056"/>
      <stop style="stop-color:#000000;stop-opacity:0" offset="1" id="stop5052"/>
    </linearGradient>
    <linearGradient xlink:actuate="onLoad" xlink:type="simple" id="linearGradient2329" xlink:show="other" xmlns:xlink="http://www.w3.org/1999/xlink">
      <stop style="stop-color:#ffffff;stop-opacity:1" offset="0" id="stop2331"/>
      <stop style="stop-color:#ffffff;stop-opacity:0" offset="1" id="stop2333"/>
    </linearGradient>
    <linearGradient gradientTransform="matrix(2.774389,0,0,1.969706,-1892.179,-872.8854)" x1="302.85715" xmlns:xlink="http://www.w3.org/1999/xlink" y1="366.64789" x2="302.85715" xlink:href="#linearGradient5048" gradientUnits="userSpaceOnUse" y2="609.50507" xlink:type="simple" xlink:actuate="onLoad" id="linearGradient7070" xlink:show="other"/>
    <radialGradient gradientTransform="matrix(2.774389,0,0,1.969706,-1891.633,-872.8854)" xmlns:xlink="http://www.w3.org/1999/xlink" id="radialGradient7072" gradientUnits="userSpaceOnUse" xlink:show="other" xlink:type="simple" r="117.14286" cx="605.71429" fx="605.71429" cy="486.64789" fy="486.64789" xlink:href="#linearGradient5060" xlink:actuate="onLoad"/>
    <radialGradient gradientTransform="matrix(-2.774389,0,0,1.969706,112.7623,-872.8854)" xmlns:xlink="http://www.w3.org/1999/xlink" id="radialGradient7074" gradientUnits="userSpaceOnUse" xlink:show="other" xlink:type="simple" r="117.14286" cx="605.71429" fx="605.71429" cy="486.64789" fy="486.64789" xlink:href="#linearGradient5060" xlink:actuate="onLoad"/>
    <radialGradient gradientTransform="matrix(3.0708221,0,0,2.5766766,-14.600817,-29.957918)" xmlns:xlink="http://www.w3.org/1999/xlink" id="radialGradient7093" gradientUnits="userSpaceOnUse" xlink:show="other" xlink:type="simple" r="4.001883" cx="29.913452" fx="29.913452" cy="30.442923" fy="30.442923" xlink:href="#linearGradient2254" xlink:actuate="onLoad"/>
    <radialGradient gradientTransform="matrix(3.3561646,0,0,-3.4390323,48.273531,110.06532)" xmlns:xlink="http://www.w3.org/1999/xlink" id="radialGradient7098" gradientUnits="userSpaceOnUse" xlink:show="other" xlink:type="simple" r="8.2452126" cx="11.68129" fx="11.68129" cy="19.554111" fy="19.554111" xlink:href="#linearGradient2341" xlink:actuate="onLoad"/>
    <radialGradient gradientTransform="matrix(3.3561646,0,0,3.4390323,31.724752,-40.462193)" xmlns:xlink="http://www.w3.org/1999/xlink" id="radialGradient7101" gradientUnits="userSpaceOnUse" xlink:show="other" xlink:type="simple" r="8.2452126" cx="7.5326638" fx="7.5326638" cy="24.202574" fy="24.202574" xlink:href="#linearGradient2254" xlink:actuate="onLoad"/>
    <linearGradient gradientTransform="matrix(0.2898528,0,0,0.2898528,53.869849,23.758735)" x1="64.387703" xmlns:xlink="http://www.w3.org/1999/xlink" y1="65.124001" x2="64.387703" xlink:href="#XMLID_39_" gradientUnits="userSpaceOnUse" y2="35.569" xlink:type="simple" xlink:actuate="onLoad" id="linearGradient7105" xlink:show="other"/>
    <linearGradient gradientTransform="matrix(0.7275235,0,0,0.8916733,54.502032,22.579447)" x1="17.850183" xmlns:xlink="http://www.w3.org/1999/xlink" y1="28.939463" x2="19.040216" xlink:href="#linearGradient2406" gradientUnits="userSpaceOnUse" y2="41.03223" xlink:type="simple" xlink:actuate="onLoad" id="linearGradient7108" xlink:show="other"/>
    <radialGradient gradientTransform="matrix(0.9210948,-2.9348774e-8,3.4951011e-8,1.0969181,50.067326,24.936678)" xmlns:xlink="http://www.w3.org/1999/xlink" id="radialGradient7111" gradientUnits="userSpaceOnUse" xlink:show="other" xlink:type="simple" r="15.242914" cx="24.195112" fx="24.195112" cy="10.577631" fy="10.577631" xlink:href="#linearGradient2378" xlink:actuate="onLoad"/>
    <linearGradient gradientTransform="matrix(0.7357123,0,0,0.8774255,52.919785,22.123917)" x1="17.602522" xmlns:xlink="http://www.w3.org/1999/xlink" y1="26.057423" x2="17.682528" xlink:href="#linearGradient2329" gradientUnits="userSpaceOnUse" y2="32.654099" xlink:type="simple" xlink:actuate="onLoad" id="linearGradient7115" xlink:show="other"/>
    <linearGradient gradientTransform="matrix(2.774389,0,0,1.969706,-1892.179,-872.8854)" x1="302.85715" xmlns:xlink="http://www.w3.org/1999/xlink" y1="366.64789" x2="302.85715" xlink:href="#linearGradient5048" gradientUnits="userSpaceOnUse" y2="609.50507" xlink:type="simple" xlink:actuate="onLoad" id="linearGradient7180" xlink:show="other"/>
    <radialGradient gradientTransform="matrix(2.774389,0,0,1.969706,-1891.633,-872.8854)" xmlns:xlink="http://www.w3.org/1999/xlink" id="radialGradient7182" gradientUnits="userSpaceOnUse" xlink:show="other" xlink:type="simple" r="117.14286" cx="605.71429" fx="605.71429" cy="486.64789" fy="486.64789" xlink:href="#linearGradient5060" xlink:actuate="onLoad"/>
    <radialGradient gradientTransform="matrix(-2.774389,0,0,1.969706,112.7623,-872.8854)" xmlns:xlink="http://www.w3.org/1999/xlink" id="radialGradient7184" gradientUnits="userSpaceOnUse" xlink:show="other" xlink:type="simple" r="117.14286" cx="605.71429" fx="605.71429" cy="486.64789" fy="486.64789" xlink:href="#linearGradient5060" xlink:actuate="onLoad"/>
    <linearGradient gradientTransform="matrix(0.7357123,0,0,0.8774255,52.919785,22.123917)" x1="17.602522" xmlns:xlink="http://www.w3.org/1999/xlink" y1="26.057423" x2="17.682528" xlink:href="#linearGradient2329" gradientUnits="userSpaceOnUse" y2="32.654099" xlink:type="simple" xlink:actuate="onLoad" id="linearGradient7186" xlink:show="other"/>
    <radialGradient gradientTransform="matrix(0.9210948,-2.9348774e-8,3.4951011e-8,1.0969181,50.067326,24.936678)" xmlns:xlink="http://www.w3.org/1999/xlink" id="radialGradient7188" gradientUnits="userSpaceOnUse" xlink:show="other" xlink:type="simple" r="15.242914" cx="24.195112" fx="24.195112" cy="10.577631" fy="10.577631" xlink:href="#linearGradient2378" xlink:actuate="onLoad"/>
    <linearGradient gradientTransform="matrix(0.7275235,0,0,0.8916733,54.502032,22.579447)" x1="17.850183" xmlns:xlink="http://www.w3.org/1999/xlink" y1="28.939463" x2="19.040216" xlink:href="#linearGradient2406" gradientUnits="userSpaceOnUse" y2="41.03223" xlink:type="simple" xlink:actuate="onLoad" id="linearGradient7190" xlink:show="other"/>
    <linearGradient gradientTransform="matrix(0.2898528,0,0,0.2898528,53.869849,23.758735)" x1="64.387703" xmlns:xlink="http://www.w3.org/1999/xlink" y1="65.124001" x2="64.387703" xlink:href="#XMLID_39_" gradientUnits="userSpaceOnUse" y2="35.569" xlink:type="simple" xlink:actuate="onLoad" id="linearGradient7192" xlink:show="other"/>
    <radialGradient gradientTransform="matrix(3.3561646,0,0,3.4390323,31.724752,-40.462193)" xmlns:xlink="http://www.w3.org/1999/xlink" id="radialGradient7194" gradientUnits="userSpaceOnUse" xlink:show="other" xlink:type="simple" r="8.2452126" cx="7.5326638" fx="7.5326638" cy="24.202574" fy="24.202574" xlink:href="#linearGradient2254" xlink:actuate="onLoad"/>
    <radialGradient gradientTransform="matrix(3.3561646,0,0,-3.4390323,48.273531,110.06532)" xmlns:xlink="http://www.w3.org/1999/xlink" id="radialGradient7196" gradientUnits="userSpaceOnUse" xlink:show="other" xlink:type="simple" r="8.2452126" cx="11.68129" fx="11.68129" cy="19.554111" fy="19.554111" xlink:href="#linearGradient2341" xlink:actuate="onLoad"/>
    <radialGradient gradientTransform="matrix(3.0708221,0,0,2.5766766,-14.600817,-29.957918)" xmlns:xlink="http://www.w3.org/1999/xlink" id="radialGradient7198" gradientUnits="userSpaceOnUse" xlink:show="other" xlink:type="simple" r="4.001883" cx="29.913452" fx="29.913452" cy="30.442923" fy="30.442923" xlink:href="#linearGradient2254" xlink:actuate="onLoad"/>
    <linearGradient gradientTransform="matrix(2.774389,0,0,1.969706,-1892.179,-872.8854)" x1="302.85715" xmlns:xlink="http://www.w3.org/1999/xlink" y1="366.64789" x2="302.85715" xlink:href="#linearGradient5048" gradientUnits="userSpaceOnUse" y2="609.50507" xlink:type="simple" xlink:actuate="onLoad" id="linearGradient7236" xlink:show="other"/>
    <radialGradient gradientTransform="matrix(2.774389,0,0,1.969706,-1891.633,-872.8854)" xmlns:xlink="http://www.w3.org/1999/xlink" id="radialGradient7238" gradientUnits="userSpaceOnUse" xlink:show="other" xlink:type="simple" r="117.14286" cx="605.71429" fx="605.71429" cy="486.64789" fy="486.64789" xlink:href="#linearGradient5060" xlink:actuate="onLoad"/>
    <radialGradient gradientTransform="matrix(-2.774389,0,0,1.969706,112.7623,-872.8854)" xmlns:xlink="http://www.w3.org/1999/xlink" id="radialGradient7240" gradientUnits="userSpaceOnUse" xlink:show="other" xlink:type="simple" r="117.14286" cx="605.71429" fx="605.71429" cy="486.64789" fy="486.64789" xlink:href="#linearGradient5060" xlink:actuate="onLoad"/>
    <linearGradient gradientTransform="matrix(0.7357123,0,0,0.8774255,52.919785,22.123917)" x1="17.602522" xmlns:xlink="http://www.w3.org/1999/xlink" y1="26.057423" x2="17.682528" xlink:href="#linearGradient2329" gradientUnits="userSpaceOnUse" y2="32.654099" xlink:type="simple" xlink:actuate="onLoad" id="linearGradient7242" xlink:show="other"/>
    <radialGradient gradientTransform="matrix(0.9210948,-2.9348774e-8,3.4951011e-8,1.0969181,50.067326,24.936678)" xmlns:xlink="http://www.w3.org/1999/xlink" id="radialGradient7244" gradientUnits="userSpaceOnUse" xlink:show="other" xlink:type="simple" r="15.242914" cx="24.195112" fx="24.195112" cy="10.577631" fy="10.577631" xlink:href="#linearGradient2378" xlink:actuate="onLoad"/>
    <linearGradient gradientTransform="matrix(0.7275235,0,0,0.8916733,54.502032,22.579447)" x1="17.850183" xmlns:xlink="http://www.w3.org/1999/xlink" y1="28.939463" x2="19.040216" xlink:href="#linearGradient2406" gradientUnits="userSpaceOnUse" y2="41.03223" xlink:type="simple" xlink:actuate="onLoad" id="linearGradient7246" xlink:show="other"/>
    <linearGradient gradientTransform="matrix(0.2898528,0,0,0.2898528,53.869849,23.758735)" x1="64.387703" xmlns:xlink="http://www.w3.org/1999/xlink" y1="65.124001" x2="64.387703" xlink:href="#XMLID_39_" gradientUnits="userSpaceOnUse" y2="35.569" xlink:type="simple" xlink:actuate="onLoad" id="linearGradient7248" xlink:show="other"/>
    <radialGradient gradientTransform="matrix(3.3561646,0,0,3.4390323,31.724752,-40.462193)" xmlns:xlink="http://www.w3.org/1999/xlink" id="radialGradient7250" gradientUnits="userSpaceOnUse" xlink:show="other" xlink:type="simple" r="8.2452126" cx="7.5326638" fx="7.5326638" cy="24.202574" fy="24.202574" xlink:href="#linearGradient2254" xlink:actuate="onLoad"/>
    <radialGradient gradientTransform="matrix(3.3561646,0,0,-3.4390323,48.273531,110.06532)" xmlns:xlink="http://www.w3.org/1999/xlink" id="radialGradient7252" gradientUnits="userSpaceOnUse" xlink:show="other" xlink:type="simple" r="8.2452126" cx="11.68129" fx="11.68129" cy="19.554111" fy="19.554111" xlink:href="#linearGradient2341" xlink:actuate="onLoad"/>
    <radialGradient gradientTransform="matrix(3.0708221,0,0,2.5766766,-14.600817,-29.957918)" xmlns:xlink="http://www.w3.org/1999/xlink" id="radialGradient7254" gradientUnits="userSpaceOnUse" xlink:show="other" xlink:type="simple" r="4.001883" cx="29.913452" fx="29.913452" cy="30.442923" fy="30.442923" xlink:href="#linearGradient2254" xlink:actuate="onLoad"/>
    <linearGradient gradientTransform="matrix(2.774389,0,0,1.969706,-1892.179,-872.8854)" x1="302.85715" xmlns:xlink="http://www.w3.org/1999/xlink" y1="366.64789" x2="302.85715" xlink:href="#linearGradient5048" gradientUnits="userSpaceOnUse" y2="609.50507" xlink:type="simple" xlink:actuate="onLoad" id="linearGradient7292" xlink:show="other"/>
    <radialGradient gradientTransform="matrix(2.774389,0,0,1.969706,-1891.633,-872.8854)" xmlns:xlink="http://www.w3.org/1999/xlink" id="radialGradient7294" gradientUnits="userSpaceOnUse" xlink:show="other" xlink:type="simple" r="117.14286" cx="605.71429" fx="605.71429" cy="486.64789" fy="486.64789" xlink:href="#linearGradient5060" xlink:actuate="onLoad"/>
    <radialGradient gradientTransform="matrix(-2.774389,0,0,1.969706,112.7623,-872.8854)" xmlns:xlink="http://www.w3.org/1999/xlink" id="radialGradient7296" gradientUnits="userSpaceOnUse" xlink:show="other" xlink:type="simple" r="117.14286" cx="605.71429" fx="605.71429" cy="486.64789" fy="486.64789" xlink:href="#linearGradient5060" xlink:actuate="onLoad"/>
    <linearGradient gradientTransform="matrix(0.7357123,0,0,0.8774255,52.919785,22.123917)" x1="17.602522" xmlns:xlink="http://www.w3.org/1999/xlink" y1="26.057423" x2="17.682528" xlink:href="#linearGradient2329" gradientUnits="userSpaceOnUse" y2="32.654099" xlink:type="simple" xlink:actuate="onLoad" id="linearGradient7298" xlink:show="other"/>
    <radialGradient gradientTransform="matrix(0.9210948,-2.9348774e-8,3.4951011e-8,1.0969181,50.067326,24.936678)" xmlns:xlink="http://www.w3.org/1999/xlink" id="radialGradient7300" gradientUnits="userSpaceOnUse" xlink:show="other" xlink:type="simple" r="15.242914" cx="24.195112" fx="24.195112" cy="10.577631" fy="10.577631" xlink:href="#linearGradient2378" xlink:actuate="onLoad"/>
    <linearGradient gradientTransform="matrix(0.7275235,0,0,0.8916733,54.502032,22.579447)" x1="17.850183" xmlns:xlink="http://www.w3.org/1999/xlink" y1="28.939463" x2="19.040216" xlink:href="#linearGradient2406" gradientUnits="userSpaceOnUse" y2="41.03223" xlink:type="simple" xlink:actuate="onLoad" id="linearGradient7302" xlink:show="other"/>
    <linearGradient gradientTransform="matrix(0.2898528,0,0,0.2898528,53.869849,23.758735)" x1="64.387703" xmlns:xlink="http://www.w3.org/1999/xlink" y1="65.124001" x2="64.387703" xlink:href="#XMLID_39_" gradientUnits="userSpaceOnUse" y2="35.569" xlink:type="simple" xlink:actuate="onLoad" id="linearGradient7304" xlink:show="other"/>
    <radialGradient gradientTransform="matrix(3.3561646,0,0,3.4390323,31.724752,-40.462193)" xmlns:xlink="http://www.w3.org/1999/xlink" id="radialGradient7306" gradientUnits="userSpaceOnUse" xlink:show="other" xlink:type="simple" r="8.2452126" cx="7.5326638" fx="7.5326638" cy="24.202574" fy="24.202574" xlink:href="#linearGradient2254" xlink:actuate="onLoad"/>
    <radialGradient gradientTransform="matrix(3.3561646,0,0,-3.4390323,48.273531,110.06532)" xmlns:xlink="http://www.w3.org/1999/xlink" id="radialGradient7308" gradientUnits="userSpaceOnUse" xlink:show="other" xlink:type="simple" r="8.2452126" cx="11.68129" fx="11.68129" cy="19.554111" fy="19.554111" xlink:href="#linearGradient2341" xlink:actuate="onLoad"/>
    <radialGradient gradientTransform="matrix(3.0708221,0,0,2.5766766,-14.600817,-29.957918)" xmlns:xlink="http://www.w3.org/1999/xlink" id="radialGradient7310" gradientUnits="userSpaceOnUse" xlink:show="other" xlink:type="simple" r="4.001883" cx="29.913452" fx="29.913452" cy="30.442923" fy="30.442923" xlink:href="#linearGradient2254" xlink:actuate="onLoad"/>
    <radialGradient gradientTransform="matrix(8.434833,0,0,1.6573179,-62.896089,-20.583678)" xmlns:xlink="http://www.w3.org/1999/xlink" id="radialGradient2608" gradientUnits="userSpaceOnUse" xlink:show="other" xlink:type="simple" r="7.8289828" cx="14.772334" fx="14.772334" cy="74.20993" fy="74.20993" xlink:href="#linearGradient20210" xlink:actuate="onLoad"/>
  </defs><g id="g3380">
    <path style="opacity:0.8;fill:url(#radialGradient2608);fill-opacity:1;fill-rule:nonzero;stroke:none;stroke-width:2;marker:none;visibility:visible;display:inline;overflow:visible" d="m 127.74222,102.40581 c 0,7.16596 -29.56539,12.97512 -66.036151,12.97512 -36.470761,0 -66.0361518,-5.80916 -66.0361518,-12.97512 0,-7.165956 29.5653908,-12.975113 66.0361518,-12.975113 36.470761,0 66.036151,5.809157 66.036151,12.975113 z" id="path20208"/>
    <path style="fill:#727e0a;fill-opacity:1;fill-rule:nonzero;stroke:#404604;stroke-width:1.41103494;stroke-linecap:round;stroke-linejoin:round;stroke-miterlimit:4;stroke-opacity:1;stroke-dasharray:none;stroke-dashoffset:0;marker:none;visibility:visible;display:inline;overflow:visible;enable-background:accumulate" d="M 126.74893,78.121461 C 126.75511,92.100248 98.659642,103.43362 63.999996,103.43362 29.34035,103.43362 1.2448875,92.100248 1.2510648,78.121461 1.2448875,64.142675 29.34035,52.809308 63.999996,52.809308 c 34.659646,0 62.755114,11.333367 62.748934,25.312153 l 0,0 z" id="path7049"/>
    <g id="g7125">
      <g style="display:inline" id="g6993" transform="matrix(0.01766612,0,0,0.01522076,87.826835,57.91012)">
        <rect x="-1559.2523" width="1339.6335" height="478.35718" y="-150.69685" id="rect6995" style="opacity:0.40206185;fill:url(#linearGradient7070);fill-opacity:1;fill-rule:nonzero;stroke:none;stroke-width:1;marker:none;visibility:visible;display:inline;overflow:visible"/>
        <path style="opacity:0.40206185;fill:url(#radialGradient7072);fill-opacity:1;fill-rule:nonzero;stroke:none;stroke-width:1;marker:none;visibility:visible;display:inline;overflow:visible" d="m -219.61876,-150.68038 c 0,0 0,478.33079 0,478.33079 142.874166,0.90045 345.40022,-107.16966 345.40014,-239.196175 0,-132.026537 -159.436816,-239.134595 -345.40014,-239.134615 z" id="path6997"/>
        <path style="opacity:0.40206185;fill:url(#radialGradient7074);fill-opacity:1;fill-rule:nonzero;stroke:none;stroke-width:1;marker:none;visibility:visible;display:inline;overflow:visible" d="m -1559.2523,-150.68038 c 0,0 0,478.33079 0,478.33079 -142.8742,0.90045 -345.4002,-107.16966 -345.4002,-239.196175 0,-132.026537 159.4368,-239.134595 345.4002,-239.134615 z" id="path6999"/>
      </g>
      <path style="fill:#eeeeee;fill-opacity:1;fill-rule:nonzero;stroke:#757575;stroke-width:0.81856006;stroke-linecap:butt;stroke-linejoin:miter;stroke-miterlimit:4;stroke-opacity:1;stroke-dashoffset:0;marker:none;visibility:visible;display:inline;overflow:visible" d="m 70.225403,30.525785 4.876536,0 c 0.68737,0 11.366906,12.634736 11.366906,13.375803 l -0.363046,15.140687 c 0,0.741071 -0.553373,1.337672 -1.240742,1.337672 l -25.749657,0 c -0.687371,0 -1.240741,-0.596601 -1.240741,-1.337672 l 0.04623,-15.140687 c 0,-0.741067 11.617144,-13.375803 12.304514,-13.375803 z" id="path7001"/>
      <path style="fill:none" d="m 90.970978,61.264497 -37.101131,0 0,-37.101128 37.101131,0 0,37.101128 z" id="path7003"/>
      <path style="fill:url(#linearGradient7115);fill-opacity:1;fill-rule:evenodd" d="m 71.355363,47.565434 -0.03744,12.352834 -9.69403,0 -0.09124,-12.352834 9.822715,0 z" id="path7005"/>
      <path style="opacity:0.3125;fill:none;stroke:#ffffff;stroke-width:0.81855971;stroke-linecap:butt;stroke-linejoin:miter;stroke-miterlimit:4;stroke-opacity:1;stroke-dashoffset:0;marker:none;visibility:visible;display:inline;overflow:visible" d="m 70.357096,31.526238 4.550452,0 c 0.641408,0 10.641985,11.78692 10.641985,12.478263 l -0.28417,14.90786 c 0,0.375933 -0.117656,0.5349 -0.419408,0.5349 l -25.692295,0.01169 c -0.301752,0 -0.47801,-0.06542 -0.47801,-0.371257 l 0.176271,-15.083191 c 0,-0.691343 10.863769,-12.478263 11.505175,-12.478263 z" id="path7007"/>
      <path style="opacity:0.2;fill:url(#radialGradient7111);fill-opacity:1;fill-rule:evenodd" d="m 58.428285,46.70026 -0.04441,2.124321 15.035436,-10.788004 12.512825,9.130564 0.05837,-0.255157 L 72.590312,33.893506 58.428285,46.70026 z" id="path7009"/>
      <path style="fill:url(#linearGradient7108);fill-opacity:1;fill-rule:evenodd" d="m 70.536803,48.383994 0,11.534274 -8.030911,0 -0.154684,-11.534274 8.185595,0 z" id="path7011"/>
      <path style="fill:url(#linearGradient7105)" d="m 72.540431,33.289213 15.492927,14.054559 0.404923,0.320869 0.330434,-0.140289 -0.305219,-0.623475 -0.227241,-0.182896 -15.695824,-12.74686 -15.871473,12.886858 -0.194492,0.117971 -0.17739,0.578546 0.35478,0.105797 0.31478,-0.252462 15.573795,-14.118618 z" id="path7013"/>
      <path style="fill:#ef2929;stroke:#a40000;stroke-width:0.81855959" d="m 72.444184,25.686433 -17.911506,14.817022 -0.511378,5.865739 1.637067,1.689771 c 0,0 16.704657,-14.04426 16.882049,-14.18397 l 16.070404,14.360204 1.553971,-1.90233 -1.32262,-5.821083 -16.301755,-14.91086 -0.09623,0.08551 z" id="path7015"/>
      <path style="opacity:0.40909089;fill:url(#radialGradient7101);fill-opacity:1;fill-rule:nonzero;stroke:none;stroke-width:1;marker:none;visibility:visible;display:inline;overflow:visible" d="M 54.854302,40.700281 54.615647,46.1219 72.47615,31.177933 l -0.05757,-4.824042 -17.56428,14.34639 z" id="path7017"/>
      <path style="opacity:0.13636367;fill:url(#radialGradient7098);fill-opacity:1;fill-rule:nonzero;stroke:none;stroke-width:1;marker:none;visibility:visible;display:inline;overflow:visible" d="m 72.569911,30.990412 0.08141,-4.78129 15.821907,14.449176 1.221136,5.321302 -17.124457,-14.989188 z" id="path7019"/>
      <path style="opacity:0.31818183;fill:none;stroke:#ffffff;stroke-width:0.81855905;stroke-linecap:butt;stroke-linejoin:miter;stroke-miterlimit:4;stroke-opacity:1;stroke-dashoffset:0;marker:none;visibility:visible;display:inline;overflow:visible" d="m 74.713281,46.517534 7.399774,0 c 0.630778,0 1.13859,0.50781 1.13859,1.138589 l -0.0065,7.431884 c 0,0.630778 -0.488125,1.036271 -1.118904,1.036271 l -7.412943,0 c -0.63078,0 -1.13859,-0.507812 -1.13859,-1.138591 l 0,-7.329564 c 0,-0.630779 0.50781,-1.138589 1.13859,-1.138589 z" id="path7021"/>
      <rect x="74.226677" y="47.167824" width="8.1866875" style="fill:#3465a4;fill-opacity:1;fill-rule:nonzero;stroke:#757575;stroke-width:0.81855911;stroke-linecap:butt;stroke-linejoin:miter;stroke-miterlimit:4;stroke-opacity:1;stroke-dasharray:none;stroke-dashoffset:0;marker:none;visibility:visible;display:inline;overflow:visible" rx="0.31210217" height="8.1548634" ry="0.31210217" id="rect7023"/>
      <path style="opacity:0.39772728;fill:url(#radialGradient7093);fill-opacity:1;fill-rule:nonzero;stroke:none;stroke-width:0.99999958;marker:none;visibility:visible;display:inline;overflow:visible" d="m 74.717284,51.992418 c 2.961534,0.271089 4.524771,-1.183395 7.25911,-1.27101 l 0.02024,-3.151038 -7.294685,-0.0049 0.01533,4.426984 z" id="path7025"/>
    </g>
    <g style="display:inline" id="layer1"/>
    <g id="g7144" transform="translate(-38.866398,13.991902)">
      <g style="display:inline" id="g7146" transform="matrix(0.01766612,0,0,0.01522076,87.826835,57.91012)">
        <rect x="-1559.2523" width="1339.6335" height="478.35718" y="-150.69685" id="rect7148" style="opacity:0.40206185;fill:url(#linearGradient7180);fill-opacity:1;fill-rule:nonzero;stroke:none;stroke-width:1;marker:none;visibility:visible;display:inline;overflow:visible"/>
        <path style="opacity:0.40206185;fill:url(#radialGradient7182);fill-opacity:1;fill-rule:nonzero;stroke:none;stroke-width:1;marker:none;visibility:visible;display:inline;overflow:visible" d="m -219.61876,-150.68038 c 0,0 0,478.33079 0,478.33079 142.874166,0.90045 345.40022,-107.16966 345.40014,-239.196175 0,-132.026537 -159.436816,-239.134595 -345.40014,-239.134615 z" id="path7150"/>
        <path style="opacity:0.40206185;fill:url(#radialGradient7184);fill-opacity:1;fill-rule:nonzero;stroke:none;stroke-width:1;marker:none;visibility:visible;display:inline;overflow:visible" d="m -1559.2523,-150.68038 c 0,0 0,478.33079 0,478.33079 -142.8742,0.90045 -345.4002,-107.16966 -345.4002,-239.196175 0,-132.026537 159.4368,-239.134595 345.4002,-239.134615 z" id="path7152"/>
      </g>
      <path style="fill:#eeeeee;fill-opacity:1;fill-rule:nonzero;stroke:#757575;stroke-width:0.81856006;stroke-linecap:butt;stroke-linejoin:miter;stroke-miterlimit:4;stroke-opacity:1;stroke-dashoffset:0;marker:none;visibility:visible;display:inline;overflow:visible" d="m 70.225403,30.525785 4.876536,0 c 0.68737,0 11.366906,12.634736 11.366906,13.375803 l -0.363046,15.140687 c 0,0.741071 -0.553373,1.337672 -1.240742,1.337672 l -25.749657,0 c -0.687371,0 -1.240741,-0.596601 -1.240741,-1.337672 l 0.04623,-15.140687 c 0,-0.741067 11.617144,-13.375803 12.304514,-13.375803 z" id="path7154"/>
      <path style="fill:none" d="m 90.970978,61.264497 -37.101131,0 0,-37.101128 37.101131,0 0,37.101128 z" id="path7156"/>
      <path style="fill:url(#linearGradient7186);fill-opacity:1;fill-rule:evenodd" d="m 71.355363,47.565434 -0.03744,12.352834 -9.69403,0 -0.09124,-12.352834 9.822715,0 z" id="path7158"/>
      <path style="opacity:0.3125;fill:none;stroke:#ffffff;stroke-width:0.81855971;stroke-linecap:butt;stroke-linejoin:miter;stroke-miterlimit:4;stroke-opacity:1;stroke-dashoffset:0;marker:none;visibility:visible;display:inline;overflow:visible" d="m 70.357096,31.526238 4.550452,0 c 0.641408,0 10.641985,11.78692 10.641985,12.478263 l -0.28417,14.90786 c 0,0.375933 -0.117656,0.5349 -0.419408,0.5349 l -25.692295,0.01169 c -0.301752,0 -0.47801,-0.06542 -0.47801,-0.371257 l 0.176271,-15.083191 c 0,-0.691343 10.863769,-12.478263 11.505175,-12.478263 z" id="path7160"/>
      <path style="opacity:0.2;fill:url(#radialGradient7188);fill-opacity:1;fill-rule:evenodd" d="m 58.428285,46.70026 -0.04441,2.124321 15.035436,-10.788004 12.512825,9.130564 0.05837,-0.255157 L 72.590312,33.893506 58.428285,46.70026 z" id="path7162"/>
      <path style="fill:url(#linearGradient7190);fill-opacity:1;fill-rule:evenodd" d="m 70.536803,48.383994 0,11.534274 -8.030911,0 -0.154684,-11.534274 8.185595,0 z" id="path7164"/>
      <path style="fill:url(#linearGradient7192)" d="m 72.540431,33.289213 15.492927,14.054559 0.404923,0.320869 0.330434,-0.140289 -0.305219,-0.623475 -0.227241,-0.182896 -15.695824,-12.74686 -15.871473,12.886858 -0.194492,0.117971 -0.17739,0.578546 0.35478,0.105797 0.31478,-0.252462 15.573795,-14.118618 z" id="path7166"/>
      <path style="fill:#ef2929;stroke:#a40000;stroke-width:0.81855959" d="m 72.444184,25.686433 -17.911506,14.817022 -0.511378,5.865739 1.637067,1.689771 c 0,0 16.704657,-14.04426 16.882049,-14.18397 l 16.070404,14.360204 1.553971,-1.90233 -1.32262,-5.821083 -16.301755,-14.91086 -0.09623,0.08551 z" id="path7168"/>
      <path style="opacity:0.40909089;fill:url(#radialGradient7194);fill-opacity:1;fill-rule:nonzero;stroke:none;stroke-width:1;marker:none;visibility:visible;display:inline;overflow:visible" d="M 54.854302,40.700281 54.615647,46.1219 72.47615,31.177933 l -0.05757,-4.824042 -17.56428,14.34639 z" id="path7170"/>
      <path style="opacity:0.13636367;fill:url(#radialGradient7196);fill-opacity:1;fill-rule:nonzero;stroke:none;stroke-width:1;marker:none;visibility:visible;display:inline;overflow:visible" d="m 72.569911,30.990412 0.08141,-4.78129 15.821907,14.449176 1.221136,5.321302 -17.124457,-14.989188 z" id="path7172"/>
      <path style="opacity:0.31818183;fill:none;stroke:#ffffff;stroke-width:0.81855905;stroke-linecap:butt;stroke-linejoin:miter;stroke-miterlimit:4;stroke-opacity:1;stroke-dashoffset:0;marker:none;visibility:visible;display:inline;overflow:visible" d="m 74.713281,46.517534 7.399774,0 c 0.630778,0 1.13859,0.50781 1.13859,1.138589 l -0.0065,7.431884 c 0,0.630778 -0.488125,1.036271 -1.118904,1.036271 l -7.412943,0 c -0.63078,0 -1.13859,-0.507812 -1.13859,-1.138591 l 0,-7.329564 c 0,-0.630779 0.50781,-1.138589 1.13859,-1.138589 z" id="path7174"/>
      <rect x="74.226677" y="47.167824" width="8.1866875" style="fill:#3465a4;fill-opacity:1;fill-rule:nonzero;stroke:#757575;stroke-width:0.81855911;stroke-linecap:butt;stroke-linejoin:miter;stroke-miterlimit:4;stroke-opacity:1;stroke-dasharray:none;stroke-dashoffset:0;marker:none;visibility:visible;display:inline;overflow:visible" rx="0.31210217" height="8.1548634" ry="0.31210217" id="rect7176"/>
      <path style="opacity:0.39772728;fill:url(#radialGradient7198);fill-opacity:1;fill-rule:nonzero;stroke:none;stroke-width:0.99999958;marker:none;visibility:visible;display:inline;overflow:visible" d="m 74.717284,51.992418 c 2.961534,0.271089 4.524771,-1.183395 7.25911,-1.27101 l 0.02024,-3.151038 -7.294685,-0.0049 0.01533,4.426984 z" id="path7178"/>
    </g>
    <g id="g7200" transform="translate(-16.323888,36.793523)">
      <g style="display:inline" id="g7202" transform="matrix(0.01766612,0,0,0.01522076,87.826835,57.91012)">
        <rect x="-1559.2523" width="1339.6335" height="478.35718" y="-150.69685" id="rect7204" style="opacity:0.40206185;fill:url(#linearGradient7236);fill-opacity:1;fill-rule:nonzero;stroke:none;stroke-width:1;marker:none;visibility:visible;display:inline;overflow:visible"/>
        <path style="opacity:0.40206185;fill:url(#radialGradient7238);fill-opacity:1;fill-rule:nonzero;stroke:none;stroke-width:1;marker:none;visibility:visible;display:inline;overflow:visible" d="m -219.61876,-150.68038 c 0,0 0,478.33079 0,478.33079 142.874166,0.90045 345.40022,-107.16966 345.40014,-239.196175 0,-132.026537 -159.436816,-239.134595 -345.40014,-239.134615 z" id="path7206"/>
        <path style="opacity:0.40206185;fill:url(#radialGradient7240);fill-opacity:1;fill-rule:nonzero;stroke:none;stroke-width:1;marker:none;visibility:visible;display:inline;overflow:visible" d="m -1559.2523,-150.68038 c 0,0 0,478.33079 0,478.33079 -142.8742,0.90045 -345.4002,-107.16966 -345.4002,-239.196175 0,-132.026537 159.4368,-239.134595 345.4002,-239.134615 z" id="path7208"/>
      </g>
      <path style="fill:#eeeeee;fill-opacity:1;fill-rule:nonzero;stroke:#757575;stroke-width:0.81856006;stroke-linecap:butt;stroke-linejoin:miter;stroke-miterlimit:4;stroke-opacity:1;stroke-dashoffset:0;marker:none;visibility:visible;display:inline;overflow:visible" d="m 70.225403,30.525785 4.876536,0 c 0.68737,0 11.366906,12.634736 11.366906,13.375803 l -0.363046,15.140687 c 0,0.741071 -0.553373,1.337672 -1.240742,1.337672 l -25.749657,0 c -0.687371,0 -1.240741,-0.596601 -1.240741,-1.337672 l 0.04623,-15.140687 c 0,-0.741067 11.617144,-13.375803 12.304514,-13.375803 z" id="path7210"/>
      <path style="fill:none" d="m 90.970978,61.264497 -37.101131,0 0,-37.101128 37.101131,0 0,37.101128 z" id="path7212"/>
      <path style="fill:url(#linearGradient7242);fill-opacity:1;fill-rule:evenodd" d="m 71.355363,47.565434 -0.03744,12.352834 -9.69403,0 -0.09124,-12.352834 9.822715,0 z" id="path7214"/>
      <path style="opacity:0.3125;fill:none;stroke:#ffffff;stroke-width:0.81855971;stroke-linecap:butt;stroke-linejoin:miter;stroke-miterlimit:4;stroke-opacity:1;stroke-dashoffset:0;marker:none;visibility:visible;display:inline;overflow:visible" d="m 70.357096,31.526238 4.550452,0 c 0.641408,0 10.641985,11.78692 10.641985,12.478263 l -0.28417,14.90786 c 0,0.375933 -0.117656,0.5349 -0.419408,0.5349 l -25.692295,0.01169 c -0.301752,0 -0.47801,-0.06542 -0.47801,-0.371257 l 0.176271,-15.083191 c 0,-0.691343 10.863769,-12.478263 11.505175,-12.478263 z" id="path7216"/>
      <path style="opacity:0.2;fill:url(#radialGradient7244);fill-opacity:1;fill-rule:evenodd" d="m 58.428285,46.70026 -0.04441,2.124321 15.035436,-10.788004 12.512825,9.130564 0.05837,-0.255157 L 72.590312,33.893506 58.428285,46.70026 z" id="path7218"/>
      <path style="fill:url(#linearGradient7246);fill-opacity:1;fill-rule:evenodd" d="m 70.536803,48.383994 0,11.534274 -8.030911,0 -0.154684,-11.534274 8.185595,0 z" id="path7220"/>
      <path style="fill:url(#linearGradient7248)" d="m 72.540431,33.289213 15.492927,14.054559 0.404923,0.320869 0.330434,-0.140289 -0.305219,-0.623475 -0.227241,-0.182896 -15.695824,-12.74686 -15.871473,12.886858 -0.194492,0.117971 -0.17739,0.578546 0.35478,0.105797 0.31478,-0.252462 15.573795,-14.118618 z" id="path7222"/>
      <path style="fill:#ef2929;stroke:#a40000;stroke-width:0.81855959" d="m 72.444184,25.686433 -17.911506,14.817022 -0.511378,5.865739 1.637067,1.689771 c 0,0 16.704657,-14.04426 16.882049,-14.18397 l 16.070404,14.360204 1.553971,-1.90233 -1.32262,-5.821083 -16.301755,-14.91086 -0.09623,0.08551 z" id="path7224"/>
      <path style="opacity:0.40909089;fill:url(#radialGradient7250);fill-opacity:1;fill-rule:nonzero;stroke:none;stroke-width:1;marker:none;visibility:visible;display:inline;overflow:visible" d="M 54.854302,40.700281 54.615647,46.1219 72.47615,31.177933 l -0.05757,-4.824042 -17.56428,14.34639 z" id="path7226"/>
      <path style="opacity:0.13636367;fill:url(#radialGradient7252);fill-opacity:1;fill-rule:nonzero;stroke:none;stroke-width:1;marker:none;visibility:visible;display:inline;overflow:visible" d="m 72.569911,30.990412 0.08141,-4.78129 15.821907,14.449176 1.221136,5.321302 -17.124457,-14.989188 z" id="path7228"/>
      <path style="opacity:0.31818183;fill:none;stroke:#ffffff;stroke-width:0.81855905;stroke-linecap:butt;stroke-linejoin:miter;stroke-miterlimit:4;stroke-opacity:1;stroke-dashoffset:0;marker:none;visibility:visible;display:inline;overflow:visible" d="m 74.713281,46.517534 7.399774,0 c 0.630778,0 1.13859,0.50781 1.13859,1.138589 l -0.0065,7.431884 c 0,0.630778 -0.488125,1.036271 -1.118904,1.036271 l -7.412943,0 c -0.63078,0 -1.13859,-0.507812 -1.13859,-1.138591 l 0,-7.329564 c 0,-0.630779 0.50781,-1.138589 1.13859,-1.138589 z" id="path7230"/>
      <rect x="74.226677" y="47.167824" width="8.1866875" style="fill:#3465a4;fill-opacity:1;fill-rule:nonzero;stroke:#757575;stroke-width:0.81855911;stroke-linecap:butt;stroke-linejoin:miter;stroke-miterlimit:4;stroke-opacity:1;stroke-dasharray:none;stroke-dashoffset:0;marker:none;visibility:visible;display:inline;overflow:visible" rx="0.31210217" height="8.1548634" ry="0.31210217" id="rect7232"/>
      <path style="opacity:0.39772728;fill:url(#radialGradient7254);fill-opacity:1;fill-rule:nonzero;stroke:none;stroke-width:0.99999958;marker:none;visibility:visible;display:inline;overflow:visible" d="m 74.717284,51.992418 c 2.961534,0.271089 4.524771,-1.183395 7.25911,-1.27101 l 0.02024,-3.151038 -7.294685,-0.0049 0.01533,4.426984 z" id="path7234"/>
    </g>
    <g id="g7256" transform="translate(22.542509,23.319838)">
      <g style="display:inline" id="g7258" transform="matrix(0.01766612,0,0,0.01522076,87.826835,57.91012)">
        <rect x="-1559.2523" width="1339.6335" height="478.35718" y="-150.69685" id="rect7260" style="opacity:0.40206185;fill:url(#linearGradient7292);fill-opacity:1;fill-rule:nonzero;stroke:none;stroke-width:1;marker:none;visibility:visible;display:inline;overflow:visible"/>
        <path style="opacity:0.40206185;fill:url(#radialGradient7294);fill-opacity:1;fill-rule:nonzero;stroke:none;stroke-width:1;marker:none;visibility:visible;display:inline;overflow:visible" d="m -219.61876,-150.68038 c 0,0 0,478.33079 0,478.33079 142.874166,0.90045 345.40022,-107.16966 345.40014,-239.196175 0,-132.026537 -159.436816,-239.134595 -345.40014,-239.134615 z" id="path7262"/>
        <path style="opacity:0.40206185;fill:url(#radialGradient7296);fill-opacity:1;fill-rule:nonzero;stroke:none;stroke-width:1;marker:none;visibility:visible;display:inline;overflow:visible" d="m -1559.2523,-150.68038 c 0,0 0,478.33079 0,478.33079 -142.8742,0.90045 -345.4002,-107.16966 -345.4002,-239.196175 0,-132.026537 159.4368,-239.134595 345.4002,-239.134615 z" id="path7264"/>
      </g>
      <path style="fill:#eeeeee;fill-opacity:1;fill-rule:nonzero;stroke:#757575;stroke-width:0.81856006;stroke-linecap:butt;stroke-linejoin:miter;stroke-miterlimit:4;stroke-opacity:1;stroke-dashoffset:0;marker:none;visibility:visible;display:inline;overflow:visible" d="m 70.225403,30.525785 4.876536,0 c 0.68737,0 11.366906,12.634736 11.366906,13.375803 l -0.363046,15.140687 c 0,0.741071 -0.553373,1.337672 -1.240742,1.337672 l -25.749657,0 c -0.687371,0 -1.240741,-0.596601 -1.240741,-1.337672 l 0.04623,-15.140687 c 0,-0.741067 11.617144,-13.375803 12.304514,-13.375803 z" id="path7266"/>
      <path style="fill:none" d="m 90.970978,61.264497 -37.101131,0 0,-37.101128 37.101131,0 0,37.101128 z" id="path7268"/>
      <path style="fill:url(#linearGradient7298);fill-opacity:1;fill-rule:evenodd" d="m 71.355363,47.565434 -0.03744,12.352834 -9.69403,0 -0.09124,-12.352834 9.822715,0 z" id="path7270"/>
      <path style="opacity:0.3125;fill:none;stroke:#ffffff;stroke-width:0.81855971;stroke-linecap:butt;stroke-linejoin:miter;stroke-miterlimit:4;stroke-opacity:1;stroke-dashoffset:0;marker:none;visibility:visible;display:inline;overflow:visible" d="m 70.357096,31.526238 4.550452,0 c 0.641408,0 10.641985,11.78692 10.641985,12.478263 l -0.28417,14.90786 c 0,0.375933 -0.117656,0.5349 -0.419408,0.5349 l -25.692295,0.01169 c -0.301752,0 -0.47801,-0.06542 -0.47801,-0.371257 l 0.176271,-15.083191 c 0,-0.691343 10.863769,-12.478263 11.505175,-12.478263 z" id="path7272"/>
      <path style="opacity:0.2;fill:url(#radialGradient7300);fill-opacity:1;fill-rule:evenodd" d="m 58.428285,46.70026 -0.04441,2.124321 15.035436,-10.788004 12.512825,9.130564 0.05837,-0.255157 L 72.590312,33.893506 58.428285,46.70026 z" id="path7274"/>
      <path style="fill:url(#linearGradient7302);fill-opacity:1;fill-rule:evenodd" d="m 70.536803,48.383994 0,11.534274 -8.030911,0 -0.154684,-11.534274 8.185595,0 z" id="path7276"/>
      <path style="fill:url(#linearGradient7304)" d="m 72.540431,33.289213 15.492927,14.054559 0.404923,0.320869 0.330434,-0.140289 -0.305219,-0.623475 -0.227241,-0.182896 -15.695824,-12.74686 -15.871473,12.886858 -0.194492,0.117971 -0.17739,0.578546 0.35478,0.105797 0.31478,-0.252462 15.573795,-14.118618 z" id="path7278"/>
      <path style="fill:#ef2929;stroke:#a40000;stroke-width:0.81855959" d="m 72.444184,25.686433 -17.911506,14.817022 -0.511378,5.865739 1.637067,1.689771 c 0,0 16.704657,-14.04426 16.882049,-14.18397 l 16.070404,14.360204 1.553971,-1.90233 -1.32262,-5.821083 -16.301755,-14.91086 -0.09623,0.08551 z" id="path7280"/>
      <path style="opacity:0.40909089;fill:url(#radialGradient7306);fill-opacity:1;fill-rule:nonzero;stroke:none;stroke-width:1;marker:none;visibility:visible;display:inline;overflow:visible" d="M 54.854302,40.700281 54.615647,46.1219 72.47615,31.177933 l -0.05757,-4.824042 -17.56428,14.34639 z" id="path7282"/>
      <path style="opacity:0.13636367;fill:url(#radialGradient7308);fill-opacity:1;fill-rule:nonzero;stroke:none;stroke-width:1;marker:none;visibility:visible;display:inline;overflow:visible" d="m 72.569911,30.990412 0.08141,-4.78129 15.821907,14.449176 1.221136,5.321302 -17.124457,-14.989188 z" id="path7284"/>
      <path style="opacity:0.31818183;fill:none;stroke:#ffffff;stroke-width:0.81855905;stroke-linecap:butt;stroke-linejoin:miter;stroke-miterlimit:4;stroke-opacity:1;stroke-dashoffset:0;marker:none;visibility:visible;display:inline;overflow:visible" d="m 74.713281,46.517534 7.399774,0 c 0.630778,0 1.13859,0.50781 1.13859,1.138589 l -0.0065,7.431884 c 0,0.630778 -0.488125,1.036271 -1.118904,1.036271 l -7.412943,0 c -0.63078,0 -1.13859,-0.507812 -1.13859,-1.138591 l 0,-7.329564 c 0,-0.630779 0.50781,-1.138589 1.13859,-1.138589 z" id="path7286"/>
      <rect x="74.226677" y="47.167824" width="8.1866875" style="fill:#3465a4;fill-opacity:1;fill-rule:nonzero;stroke:#757575;stroke-width:0.81855911;stroke-linecap:butt;stroke-linejoin:miter;stroke-miterlimit:4;stroke-opacity:1;stroke-dasharray:none;stroke-dashoffset:0;marker:none;visibility:visible;display:inline;overflow:visible" rx="0.31210217" height="8.1548634" ry="0.31210217" id="rect7288"/>
      <path style="opacity:0.39772728;fill:url(#radialGradient7310);fill-opacity:1;fill-rule:nonzero;stroke:none;stroke-width:0.99999958;marker:none;visibility:visible;display:inline;overflow:visible" d="m 74.717284,51.992418 c 2.961534,0.271089 4.524771,-1.183395 7.25911,-1.27101 l 0.02024,-3.151038 -7.294685,-0.0049 0.01533,4.426984 z" id="path7290"/>
    </g>
  </g></g></svg>