<svg contentScriptType="text/ecmascript" xmlns:xlink="http://www.w3.org/1999/xlink" zoomAndPan="magnify" xmlns:svg="http://www.w3.org/2000/svg" contentStyleType="text/css" preserveAspectRatio="xMidYMid meet" xmlns="http://www.w3.org/2000/svg" version="1.0"><g id="_STRESSTEST_SYMBOLS_STRESSTEST_OSA_OSA_DATABASE_SVG">
  <defs id="defs3">
    <linearGradient x1="105.0923" xmlns:xlink="http://www.w3.org/1999/xlink" y1="75.109901" x2="124.8197" gradientUnits="userSpaceOnUse" y2="92.612297" xlink:type="simple" xlink:actuate="onLoad" id="aigrd11" xlink:show="other">
      <stop style="stop-color:#3fa6cc;stop-opacity:1" offset="0" id="stop12981"/>
      <stop style="stop-color:#00687a;stop-opacity:1" offset="1" id="stop12983"/>
    </linearGradient>
    <linearGradient xlink:actuate="onLoad" xlink:type="simple" id="linearGradient2456" xlink:show="other" xmlns:xlink="http://www.w3.org/1999/xlink">
      <stop style="stop-color:#000000;stop-opacity:1" offset="0" id="stop2458"/>
      <stop style="stop-color:#000000;stop-opacity:0" offset="1" id="stop2460"/>
    </linearGradient>
    <radialGradient gradientTransform="scale(1.164226,0.85894)" xmlns:xlink="http://www.w3.org/1999/xlink" id="radialGradient18302" gradientUnits="userSpaceOnUse" xlink:show="other" xlink:type="simple" r="13.804391" cx="28.283663" fx="28.283663" cy="47.400623" fy="47.400623" xlink:href="#linearGradient2456" xlink:actuate="onLoad"/>
    <linearGradient gradientTransform="matrix(2.3931406,0,0,1.2167111,10.086181,-9.1255997)" x1="-22.976406" xmlns:xlink="http://www.w3.org/1999/xlink" y1="18.516047" x2="-14.360273" xlink:href="#aigrd11" gradientUnits="userSpaceOnUse" y2="33.016045" xlink:type="simple" xlink:actuate="onLoad" id="linearGradient18304" xlink:show="other"/>
  </defs>
  <g style="display:inline" id="layer1"/>
  <g style="display:inline" id="layer2">
    <g id="g18295" transform="matrix(1.7223399,0,0,1.7223399,121.82836,7.7201135)">
      <path d="m 48.999998,40.714287 c 0,6.548519 -7.195424,11.857142 -16.071428,11.857142 -8.876005,0 -16.071429,-5.308623 -16.071429,-11.857142 0,-6.548519 7.195424,-11.857142 16.071428,-11.857142 8.876005,0 16.071429,5.308623 16.071429,11.857142 l 0,0 z" id="path1693" style="fill:url(#radialGradient18302);fill-opacity:1;fill-rule:evenodd;stroke:none" transform="matrix(2.3795895,0,0,1.2824084,-112.88539,-3.8358938)"/>
      <path d="m 54.800776,-7.9412799 c 0,9.4702139 -23.901978,17.1473392 -53.3865625,17.1473392 -29.4845845,0 -53.3865625,-7.6771253 -53.3865625,-17.1473392 0,-9.4702141 23.901978,-17.1473391 53.3865625,-17.1473391 29.4845845,0 53.3865625,7.677125 53.3865625,17.1473391 l 0,0 z" id="path11450" style="fill:#003366;fill-opacity:1;fill-rule:nonzero;stroke:#003366;stroke-width:10;stroke-miterlimit:4;stroke-opacity:1;stroke-dasharray:none;display:inline" transform="matrix(0.5350417,0,0,0.5350417,-35.152994,47.139656)"/>
      <rect x="-62.304111" width="55.815552" height="17.414896" y="23.003975" id="rect11448" style="fill:#003366;fill-opacity:1;fill-rule:nonzero;stroke:#003366;stroke-width:6.66293573;stroke-miterlimit:4;stroke-opacity:1;stroke-dasharray:none"/>
      <path d="m 54.800776,-7.9412799 c 0,9.4702139 -23.901978,17.1473392 -53.3865625,17.1473392 -29.4845845,0 -53.3865625,-7.6771253 -53.3865625,-17.1473392 0,-9.4702141 23.901978,-17.1473391 53.3865625,-17.1473391 29.4845845,0 53.3865625,7.677125 53.3865625,17.1473391 l 0,0 z" id="path11444" style="fill:#336699;fill-opacity:1;fill-rule:nonzero;stroke:#00a4ff;stroke-width:10;stroke-miterlimit:4;stroke-opacity:1;stroke-dasharray:none" transform="matrix(0.5350417,0,0,0.5350417,-35.152994,24.799556)"/>
      <path style="fill:url(#linearGradient18304);fill-opacity:1;fill-rule:nonzero;stroke:none" d="m -5.7331306,20.627303 c 0,5.342382 -12.8846504,9.67209 -28.7810944,9.67209 -15.896447,0 -28.782633,-4.329708 -28.782633,-9.67209 0,-5.342381 12.887723,-9.67209 28.782633,-9.67209 15.896444,0 28.7810944,4.329709 28.7810944,9.67209 l 0,0 z" id="path3935"/>
    </g>
  </g>
</g></svg>