<svg contentScriptType="text/ecmascript" xmlns:xlink="http://www.w3.org/1999/xlink" zoomAndPan="magnify" xmlns:svg="http://www.w3.org/2000/svg" contentStyleType="text/css" preserveAspectRatio="xMidYMid meet" xmlns="http://www.w3.org/2000/svg" version="1.0"><g id="_STRESSTEST_SYMBOLS_STRESSTEST_OSA_OSA_SERVER_MEDIA_SVG">
  <defs id="defs3">
    <linearGradient xlink:actuate="onLoad" xlink:type="simple" id="linearGradient4386" xlink:show="other" xmlns:xlink="http://www.w3.org/1999/xlink">
      <stop style="stop-color:#d2d2d2;stop-opacity:1" offset="0" id="stop4388"/>
      <stop style="stop-color:#dfdfdf;stop-opacity:1" offset="1" id="stop4390"/>
    </linearGradient>
    <linearGradient xlink:actuate="onLoad" xlink:type="simple" id="linearGradient4412" xlink:show="other" xmlns:xlink="http://www.w3.org/1999/xlink">
      <stop style="stop-color:#ffffff;stop-opacity:1" offset="0" id="stop4414"/>
      <stop style="stop-color:#ffffff;stop-opacity:0" offset="1" id="stop4416"/>
    </linearGradient>
    <linearGradient xlink:actuate="onLoad" xlink:type="simple" id="linearGradient4420" xlink:show="other" xmlns:xlink="http://www.w3.org/1999/xlink">
      <stop style="stop-color:#ffffff;stop-opacity:1" offset="0" id="stop4422"/>
      <stop style="stop-color:#ffffff;stop-opacity:0" offset="1" id="stop4424"/>
    </linearGradient>
    <linearGradient xlink:actuate="onLoad" xlink:type="simple" id="linearGradient4449" xlink:show="other" xmlns:xlink="http://www.w3.org/1999/xlink">
      <stop style="stop-color:#ffffff;stop-opacity:1" offset="0" id="stop4451"/>
      <stop style="stop-color:#ffffff;stop-opacity:0" offset="1" id="stop4453"/>
    </linearGradient>
    <linearGradient xlink:actuate="onLoad" xlink:type="simple" id="linearGradient4509" xlink:show="other" xmlns:xlink="http://www.w3.org/1999/xlink">
      <stop style="stop-color:#000000;stop-opacity:1" offset="0" id="stop4511"/>
      <stop style="stop-color:#000000;stop-opacity:0" offset="1" id="stop4513"/>
    </linearGradient>
    <linearGradient xlink:actuate="onLoad" xlink:type="simple" id="linearGradient5048" xlink:show="other" xmlns:xlink="http://www.w3.org/1999/xlink">
      <stop style="stop-color:#000000;stop-opacity:0" offset="0" id="stop5050"/>
      <stop style="stop-color:#000000;stop-opacity:1" offset="0.5" id="stop5056"/>
      <stop style="stop-color:#000000;stop-opacity:0" offset="1" id="stop5052"/>
    </linearGradient>
    <linearGradient xlink:actuate="onLoad" xlink:type="simple" id="linearGradient5060" xlink:show="other" xmlns:xlink="http://www.w3.org/1999/xlink">
      <stop style="stop-color:#000000;stop-opacity:1" offset="0" id="stop5062"/>
      <stop style="stop-color:#000000;stop-opacity:0" offset="1" id="stop5064"/>
    </linearGradient>
    <linearGradient gradientTransform="matrix(2.774389,0,0,1.969706,-1892.179,-872.8854)" x1="302.85715" xmlns:xlink="http://www.w3.org/1999/xlink" y1="366.64789" x2="302.85715" xlink:href="#linearGradient5048" gradientUnits="userSpaceOnUse" y2="609.50507" xlink:type="simple" xlink:actuate="onLoad" id="linearGradient25151" xlink:show="other"/>
    <radialGradient gradientTransform="matrix(2.774389,0,0,1.969706,-1891.633,-872.8854)" xmlns:xlink="http://www.w3.org/1999/xlink" id="radialGradient25153" gradientUnits="userSpaceOnUse" xlink:show="other" xlink:type="simple" r="117.14286" cx="605.71429" fx="605.71429" cy="486.64789" fy="486.64789" xlink:href="#linearGradient5060" xlink:actuate="onLoad"/>
    <radialGradient gradientTransform="matrix(-2.774389,0,0,1.969706,112.7623,-872.8854)" xmlns:xlink="http://www.w3.org/1999/xlink" id="radialGradient25155" gradientUnits="userSpaceOnUse" xlink:show="other" xlink:type="simple" r="117.14286" cx="605.71429" fx="605.71429" cy="486.64789" fy="486.64789" xlink:href="#linearGradient5060" xlink:actuate="onLoad"/>
    <linearGradient gradientTransform="matrix(2.8081147,0,0,2.8081175,49.651079,-1.6112485)" x1="16.36447" xmlns:xlink="http://www.w3.org/1999/xlink" y1="39.918777" x2="16.36447" xlink:href="#linearGradient4509" gradientUnits="userSpaceOnUse" y2="30.928421" xlink:type="simple" xlink:actuate="onLoad" id="linearGradient25284" xlink:show="other"/>
    <linearGradient gradientTransform="matrix(2.8081147,0,0,2.8081175,43.977592,-1.6112485)" x1="16.36447" xmlns:xlink="http://www.w3.org/1999/xlink" y1="39.918777" x2="16.36447" xlink:href="#linearGradient4509" gradientUnits="userSpaceOnUse" y2="30.928421" xlink:type="simple" xlink:actuate="onLoad" id="linearGradient25287" xlink:show="other"/>
    <linearGradient gradientTransform="matrix(2.8081147,0,0,2.8081175,38.304388,-1.6112485)" x1="16.36447" xmlns:xlink="http://www.w3.org/1999/xlink" y1="39.918777" x2="16.36447" xlink:href="#linearGradient4509" gradientUnits="userSpaceOnUse" y2="30.928421" xlink:type="simple" xlink:actuate="onLoad" id="linearGradient25290" xlink:show="other"/>
    <linearGradient gradientTransform="matrix(2.8081147,0,0,2.8081175,32.631137,-1.6112485)" x1="16.36447" xmlns:xlink="http://www.w3.org/1999/xlink" y1="39.918777" x2="16.36447" xlink:href="#linearGradient4509" gradientUnits="userSpaceOnUse" y2="30.928421" xlink:type="simple" xlink:actuate="onLoad" id="linearGradient25293" xlink:show="other"/>
    <linearGradient gradientTransform="matrix(2.8081147,0,0,2.8081175,26.957886,-1.6112485)" x1="16.36447" xmlns:xlink="http://www.w3.org/1999/xlink" y1="39.918777" x2="16.36447" xlink:href="#linearGradient4509" gradientUnits="userSpaceOnUse" y2="30.928421" xlink:type="simple" xlink:actuate="onLoad" id="linearGradient25296" xlink:show="other"/>
    <linearGradient gradientTransform="matrix(2.8081147,0,0,2.8081175,21.284601,-1.6112485)" x1="16.36447" xmlns:xlink="http://www.w3.org/1999/xlink" y1="39.918777" x2="16.36447" xlink:href="#linearGradient4509" gradientUnits="userSpaceOnUse" y2="30.928421" xlink:type="simple" xlink:actuate="onLoad" id="linearGradient25299" xlink:show="other"/>
    <linearGradient gradientTransform="matrix(2.8081147,0,0,2.8081175,52.487617,-1.6112485)" x1="16.36447" xmlns:xlink="http://www.w3.org/1999/xlink" y1="39.918777" x2="16.36447" xlink:href="#linearGradient4449" gradientUnits="userSpaceOnUse" y2="30.928421" xlink:type="simple" xlink:actuate="onLoad" id="linearGradient25302" xlink:show="other"/>
    <linearGradient gradientTransform="matrix(2.8081147,0,0,2.8081175,46.814366,-1.6112485)" x1="16.36447" xmlns:xlink="http://www.w3.org/1999/xlink" y1="39.918777" x2="16.36447" xlink:href="#linearGradient4449" gradientUnits="userSpaceOnUse" y2="30.928421" xlink:type="simple" xlink:actuate="onLoad" id="linearGradient25305" xlink:show="other"/>
    <linearGradient gradientTransform="matrix(2.8081147,0,0,2.8081175,41.140982,-1.6112485)" x1="16.36447" xmlns:xlink="http://www.w3.org/1999/xlink" y1="39.918777" x2="16.36447" xlink:href="#linearGradient4449" gradientUnits="userSpaceOnUse" y2="30.928421" xlink:type="simple" xlink:actuate="onLoad" id="linearGradient25308" xlink:show="other"/>
    <linearGradient gradientTransform="matrix(2.8081147,0,0,2.8081175,35.467734,-1.6112485)" x1="16.36447" xmlns:xlink="http://www.w3.org/1999/xlink" y1="39.918777" x2="16.36447" xlink:href="#linearGradient4449" gradientUnits="userSpaceOnUse" y2="30.928421" xlink:type="simple" xlink:actuate="onLoad" id="linearGradient25311" xlink:show="other"/>
    <linearGradient gradientTransform="matrix(2.8081147,0,0,2.8081175,29.794485,-1.6112485)" x1="16.36447" xmlns:xlink="http://www.w3.org/1999/xlink" y1="39.918777" x2="16.36447" xlink:href="#linearGradient4449" gradientUnits="userSpaceOnUse" y2="30.928421" xlink:type="simple" xlink:actuate="onLoad" id="linearGradient25314" xlink:show="other"/>
    <linearGradient gradientTransform="matrix(2.8081147,0,0,2.8081175,24.121262,-1.6112485)" x1="16.36447" xmlns:xlink="http://www.w3.org/1999/xlink" y1="39.918777" x2="16.36447" xlink:href="#linearGradient4449" gradientUnits="userSpaceOnUse" y2="30.928421" xlink:type="simple" xlink:actuate="onLoad" id="linearGradient25317" xlink:show="other"/>
    <linearGradient gradientTransform="matrix(2.7372324,0,0,2.2504624,16.555444,12.081191)" x1="27.324621" xmlns:xlink="http://www.w3.org/1999/xlink" y1="26.887815" x2="22.311644" xlink:href="#linearGradient4420" gradientUnits="userSpaceOnUse" y2="26.7868" xlink:type="simple" xlink:actuate="onLoad" id="linearGradient25327" xlink:show="other"/>
    <linearGradient gradientTransform="matrix(2.7372324,0,0,2.2504624,16.555444,12.081191)" x1="27.324621" xmlns:xlink="http://www.w3.org/1999/xlink" y1="26.887815" x2="22.311644" xlink:href="#linearGradient4412" gradientUnits="userSpaceOnUse" y2="26.7868" xlink:type="simple" xlink:actuate="onLoad" id="linearGradient25329" xlink:show="other"/>
    <linearGradient gradientTransform="matrix(2.8415131,0,0,2.83799,16.212165,-1.9889876)" x1="24.349752" xmlns:xlink="http://www.w3.org/1999/xlink" y1="34.463955" x2="23.233509" xlink:href="#linearGradient4386" gradientUnits="userSpaceOnUse" y2="10.018264" xlink:type="simple" xlink:actuate="onLoad" id="linearGradient25335" xlink:show="other"/>
    <linearGradient gradientTransform="translate(0,2)" x1="43.6875" xmlns:xlink="http://www.w3.org/1999/xlink" y1="32.133045" x2="26.625" xlink:href="#linearGradient7138" gradientUnits="userSpaceOnUse" y2="32.133045" xlink:type="simple" xlink:actuate="onLoad" id="linearGradient7144" xlink:show="other"/>
    <linearGradient x1="23.816254" xmlns:xlink="http://www.w3.org/1999/xlink" y1="12.75" x2="29.049412" xlink:href="#linearGradient7087" gradientUnits="userSpaceOnUse" y2="25.772396" xlink:type="simple" xlink:actuate="onLoad" id="linearGradient7093" xlink:show="other"/>
    <radialGradient gradientTransform="matrix(1,0,0,0.663934,0,9.061528)" xmlns:xlink="http://www.w3.org/1999/xlink" id="radialGradient7085" gradientUnits="userSpaceOnUse" xlink:show="other" xlink:type="simple" r="21.566757" cx="23.157747" fx="23.157747" cy="26.963573" fy="26.963573" xlink:href="#linearGradient7079" xlink:actuate="onLoad"/>
    <linearGradient gradientTransform="matrix(0.884878,0,0,0.884878,5.318113,5.943159)" x1="46.54464" xmlns:xlink="http://www.w3.org/1999/xlink" y1="35.24506" x2="40.820396" xlink:href="#linearGradient7069" gradientUnits="userSpaceOnUse" y2="34.140205" xlink:type="simple" xlink:actuate="onLoad" id="linearGradient7075" xlink:show="other"/>
    <linearGradient x1="21.03167" xmlns:xlink="http://www.w3.org/1999/xlink" y1="31.867859" x2="21.107563" xlink:href="#linearGradient7054" gradientUnits="userSpaceOnUse" y2="-4.5986342" xlink:type="simple" xlink:actuate="onLoad" id="linearGradient7060" xlink:show="other"/>
    <linearGradient xlink:actuate="onLoad" xlink:type="simple" id="linearGradient7054" xlink:show="other" xmlns:xlink="http://www.w3.org/1999/xlink">
      <stop style="stop-color:#ffffff;stop-opacity:1" offset="0" id="stop7056"/>
      <stop style="stop-color:#ffffff;stop-opacity:0" offset="1" id="stop7058"/>
    </linearGradient>
    <radialGradient gradientTransform="translate(1.971678,9.220141)" xmlns:xlink="http://www.w3.org/1999/xlink" id="radialGradient6540" gradientUnits="userSpaceOnUse" xlink:show="other" xlink:type="simple" r="14.1515" cx="20.655508" fx="20.655508" cy="24.735121" fy="24.735121" xlink:href="#aigrd4" xlink:actuate="onLoad"/>
    <radialGradient xmlns:xlink="http://www.w3.org/1999/xlink" gradientUnits="userSpaceOnUse" xlink:type="simple" cx="9.3417997" xlink:actuate="onLoad" r="14.1515" cy="22.6138" id="aigrd4" xlink:show="other" fx="9.3417997" fy="22.6138">
      <stop style="stop-color:#767676;stop-opacity:1" offset="0" id="stop6452"/>
      <stop style="stop-color:#484848;stop-opacity:1" offset="1" id="stop6454"/>
    </radialGradient>
    <linearGradient xlink:actuate="onLoad" xlink:type="simple" id="linearGradient7069" xlink:show="other" xmlns:xlink="http://www.w3.org/1999/xlink">
      <stop style="stop-color:#888a85;stop-opacity:1" offset="0" id="stop7071"/>
      <stop style="stop-color:#888a85;stop-opacity:0" offset="1" id="stop7073"/>
    </linearGradient>
    <linearGradient xlink:actuate="onLoad" xlink:type="simple" id="linearGradient7079" xlink:show="other" xmlns:xlink="http://www.w3.org/1999/xlink">
      <stop style="stop-color:#000000;stop-opacity:1" offset="0" id="stop7081"/>
      <stop style="stop-color:#000000;stop-opacity:0" offset="1" id="stop7083"/>
    </linearGradient>
    <linearGradient xlink:actuate="onLoad" xlink:type="simple" id="linearGradient7087" xlink:show="other" xmlns:xlink="http://www.w3.org/1999/xlink">
      <stop style="stop-color:#888a85;stop-opacity:1" offset="0" id="stop7089"/>
      <stop style="stop-color:#b8b9b6;stop-opacity:1" offset="1" id="stop7091"/>
    </linearGradient>
    <linearGradient xlink:actuate="onLoad" xlink:type="simple" id="linearGradient7138" xlink:show="other" xmlns:xlink="http://www.w3.org/1999/xlink">
      <stop style="stop-color:#ffffff;stop-opacity:1" offset="0" id="stop7140"/>
      <stop style="stop-color:#ffffff;stop-opacity:0" offset="1" id="stop7142"/>
    </linearGradient>
    <linearGradient gradientTransform="matrix(2.774389,0,0,1.969706,-1892.179,-872.8854)" x1="302.85715" xmlns:xlink="http://www.w3.org/1999/xlink" y1="366.64789" x2="302.85715" xlink:href="#linearGradient5048" gradientUnits="userSpaceOnUse" y2="609.50507" xlink:type="simple" xlink:actuate="onLoad" id="linearGradient9824" xlink:show="other"/>
    <radialGradient gradientTransform="matrix(2.774389,0,0,1.969706,-1891.633,-872.8854)" xmlns:xlink="http://www.w3.org/1999/xlink" id="radialGradient9826" gradientUnits="userSpaceOnUse" xlink:show="other" xlink:type="simple" r="117.14286" cx="605.71429" fx="605.71429" cy="486.64789" fy="486.64789" xlink:href="#linearGradient5060" xlink:actuate="onLoad"/>
    <radialGradient gradientTransform="matrix(-2.774389,0,0,1.969706,112.7623,-872.8854)" xmlns:xlink="http://www.w3.org/1999/xlink" id="radialGradient9828" gradientUnits="userSpaceOnUse" xlink:show="other" xlink:type="simple" r="117.14286" cx="605.71429" fx="605.71429" cy="486.64789" fy="486.64789" xlink:href="#linearGradient5060" xlink:actuate="onLoad"/>
    <radialGradient gradientTransform="matrix(1,0,0,0.398649,0,21.2728)" xmlns:xlink="http://www.w3.org/1999/xlink" id="radialGradient2078" gradientUnits="userSpaceOnUse" xlink:show="other" xlink:type="simple" r="18.5" cx="23.25" fx="23.25" cy="35.375" fy="35.375" xlink:href="#linearGradient2072" xlink:actuate="onLoad"/>
    <radialGradient gradientTransform="matrix(1,0,0,0.509804,0,16.05392)" xmlns:xlink="http://www.w3.org/1999/xlink" id="radialGradient1360" gradientUnits="userSpaceOnUse" xlink:show="other" xlink:type="simple" r="6.375" cx="4.3920336" fx="4.3920336" cy="32.307854" fy="32.307854" xlink:href="#linearGradient2315" xlink:actuate="onLoad"/>
    <radialGradient gradientTransform="matrix(1,0,0,0.509804,0,16.05392)" xmlns:xlink="http://www.w3.org/1999/xlink" id="radialGradient1358" gradientUnits="userSpaceOnUse" xlink:show="other" xlink:type="simple" r="6.375" cx="4.3920336" fx="4.3920336" cy="32.307854" fy="32.307854" xlink:href="#linearGradient2315" xlink:actuate="onLoad"/>
    <linearGradient xlink:actuate="onLoad" xlink:type="simple" id="linearGradient2315" xlink:show="other" xmlns:xlink="http://www.w3.org/1999/xlink">
      <stop style="stop-color:#ffffff;stop-opacity:1" offset="0" id="stop2317"/>
      <stop style="stop-color:#ffffff;stop-opacity:0" offset="1" id="stop2319"/>
    </linearGradient>
    <linearGradient xlink:actuate="onLoad" xlink:type="simple" id="linearGradient2072" xlink:show="other" xmlns:xlink="http://www.w3.org/1999/xlink">
      <stop style="stop-color:#000000;stop-opacity:1" offset="0" id="stop2074"/>
      <stop style="stop-color:#000000;stop-opacity:0" offset="1" id="stop2076"/>
    </linearGradient>
  </defs>
  <g style="display:inline" id="layer1"/>
  <g style="display:inline" id="layer2">
    <g style="display:inline" id="g6707" transform="matrix(0.04030136,0,0,0.05919351,119.8361,105.27309)">
      <rect x="-1559.2523" width="1339.6335" height="478.35718" y="-150.69685" id="rect6709" style="opacity:0.40206185;fill:url(#linearGradient25151);fill-opacity:1;fill-rule:nonzero;stroke:none;stroke-width:1;marker:none;visibility:visible;display:inline;overflow:visible"/>
      <path style="opacity:0.40206185;fill:url(#radialGradient25153);fill-opacity:1;fill-rule:nonzero;stroke:none;stroke-width:1;marker:none;visibility:visible;display:inline;overflow:visible" d="m -219.61876,-150.68038 c 0,0 0,478.33079 0,478.33079 142.874166,0.90045 345.40022,-107.16966 345.40014,-239.196175 0,-132.026537 -159.436816,-239.134595 -345.40014,-239.134615 z" id="path6711"/>
      <path style="opacity:0.40206185;fill:url(#radialGradient25155);fill-opacity:1;fill-rule:nonzero;stroke:none;stroke-width:1;marker:none;visibility:visible;display:inline;overflow:visible" d="m -1559.2523,-150.68038 c 0,0 0,478.33079 0,478.33079 -142.8742,0.90045 -345.4002,-107.16966 -345.4002,-239.196175 0,-132.026537 159.4368,-239.134595 345.4002,-239.134615 z" id="path6713"/>
    </g>
    <path style="fill:url(#linearGradient25335);fill-opacity:1;fill-rule:evenodd;stroke:#5e5e5e;stroke-width:2.83662605px;stroke-linecap:round;stroke-linejoin:round;stroke-opacity:1" d="m 51.636509,19.562416 0,95.177864 62.405741,0 0,-95.751224 -11.48144,-12.0405717 -40.016925,0 -10.907376,12.6139317 z" id="path3626"/>
    <path style="fill:#ffffff;fill-opacity:0.65536726;fill-rule:evenodd;stroke:none" d="m 63.122843,8.3667973 -10.068019,14.1831307 59.569116,0 L 101.71692,8.7839483 63.122843,8.3667973 z" id="path5791"/>
    <rect x="61.564693" width="45.386024" height="11.346502" y="28.223171" id="rect4553" style="opacity:0.34857142;fill:#ffffff;fill-opacity:1;fill-rule:evenodd;stroke:#ffffff;stroke-width:2.83662605;stroke-linecap:butt;stroke-linejoin:miter;stroke-miterlimit:4;stroke-opacity:1;stroke-dasharray:none;stroke-dashoffset:0;marker:none;visibility:visible;display:inline;overflow:visible"/>
    <path style="fill:none;stroke:#ffffff;stroke-width:2.83662724;stroke-linecap:butt;stroke-linejoin:miter;stroke-miterlimit:4;stroke-opacity:1;stroke-dasharray:none" d="m 54.473132,21.29705 0,90.60658 56.732538,0 0,-91.12985 -10.50603,-10.9886527 -36.245784,0 -9.980724,11.5119227 z" id="path4394"/>
    <rect x="75.747818" width="31.202894" height="11.346499" y="65.099304" id="rect4408" style="opacity:0.52571429;fill:url(#linearGradient25327);fill-opacity:1;fill-rule:evenodd;stroke:url(#linearGradient25329);stroke-width:2.83662701;stroke-linecap:butt;stroke-linejoin:miter;stroke-miterlimit:4;stroke-opacity:1;stroke-dasharray:none;stroke-dashoffset:0;marker:none;visibility:visible;display:inline;overflow:visible"/>
    <rect x="74.329491" width="31.202871" height="11.346502" y="63.680996" id="rect4398" style="fill:#c8c8c8;fill-opacity:1;fill-rule:evenodd;stroke:#acacac;stroke-width:2.83662534;stroke-linecap:butt;stroke-linejoin:miter;stroke-miterlimit:4;stroke-opacity:1;stroke-dasharray:none;stroke-dashoffset:0;marker:none;visibility:visible;display:inline;overflow:visible"/>
    <rect x="61.564709" width="45.386024" height="11.346502" y="45.242928" id="rect4551" style="opacity:0.34857142;fill:#ffffff;fill-opacity:1;fill-rule:evenodd;stroke:#ffffff;stroke-width:2.83662558;stroke-linecap:butt;stroke-linejoin:miter;stroke-miterlimit:4;stroke-opacity:1;stroke-dasharray:none;stroke-dashoffset:0;marker:none;visibility:visible;display:inline;overflow:visible"/>
    <rect x="60.146381" width="45.386032" height="11.346502" y="43.824615" id="rect4430" style="fill:#c8c8c8;fill-opacity:1;fill-rule:evenodd;stroke:#acacac;stroke-width:2.83662653;stroke-linecap:butt;stroke-linejoin:miter;stroke-miterlimit:4;stroke-opacity:1;stroke-dasharray:none;stroke-dashoffset:0;marker:none;visibility:visible;display:inline;overflow:visible"/>
    <rect x="60.146404" width="45.386032" height="11.346502" y="26.804861" id="rect4436" style="fill:#c8c8c8;fill-opacity:1;fill-rule:evenodd;stroke:#acacac;stroke-width:2.83662605;stroke-linecap:butt;stroke-linejoin:miter;stroke-miterlimit:4;stroke-opacity:1;stroke-dasharray:none;stroke-dashoffset:0;marker:none;visibility:visible;display:inline;overflow:visible"/>
    <path d="m 68.185294,26.231213 a 2.171828,2.171828 0 1 1 -4.343656,0 2.171828,2.171828 0 1 1 4.343656,0 z" id="path4396" style="fill:#d40000;fill-opacity:1;fill-rule:evenodd;stroke:#979797;stroke-width:1.44772947;stroke-linecap:butt;stroke-linejoin:miter;stroke-miterlimit:4;stroke-opacity:1;stroke-dasharray:none;stroke-dashoffset:0;marker:none;visibility:visible;display:inline;overflow:visible" transform="matrix(1.9593699,0,0,1.9593562,-64.942997,19.375822)"/>
    <path d="m 16.667518,25.574614 a 0.5050765,0.5050765 0 1 1 -1.010153,0 0.5050765,0.5050765 0 1 1 1.010153,0 z" id="path4445" style="fill:#f44800;fill-opacity:1;fill-rule:evenodd;stroke:none;stroke-width:1;marker:none;visibility:visible;display:inline;overflow:visible" transform="matrix(2.5342538,0,0,2.5342343,22.034079,5.0640409)"/>
    <rect x="70.07457" width="2.8366244" height="28.36627" y="82.119102" id="rect4457" style="fill:url(#linearGradient25317);fill-opacity:1;fill-rule:evenodd;stroke:none;stroke-width:1;marker:none;visibility:visible;display:inline;overflow:visible"/>
    <rect x="75.747795" width="2.8366244" height="28.36627" y="82.119102" id="rect4461" style="fill:url(#linearGradient25314);fill-opacity:1;fill-rule:evenodd;stroke:none;stroke-width:1;marker:none;visibility:visible;display:inline;overflow:visible"/>
    <rect x="81.421043" width="2.8366244" height="28.36627" y="82.119102" id="rect4465" style="fill:url(#linearGradient25311);fill-opacity:1;fill-rule:evenodd;stroke:none;stroke-width:1;marker:none;visibility:visible;display:inline;overflow:visible"/>
    <rect x="87.094292" width="2.8366244" height="28.36627" y="82.119102" id="rect4469" style="fill:url(#linearGradient25308);fill-opacity:1;fill-rule:evenodd;stroke:none;stroke-width:1;marker:none;visibility:visible;display:inline;overflow:visible"/>
    <rect x="92.767578" width="2.8366244" height="28.36627" y="82.119102" id="rect4473" style="fill:url(#linearGradient25305);fill-opacity:1;fill-rule:evenodd;stroke:none;stroke-width:1;marker:none;visibility:visible;display:inline;overflow:visible"/>
    <rect x="98.440826" width="2.8366244" height="28.36627" y="82.119102" id="rect4477" style="opacity:0.54285709;fill:url(#linearGradient25302);fill-opacity:1;fill-rule:evenodd;stroke:none;stroke-width:1;marker:none;visibility:visible;display:inline;overflow:visible"/>
    <rect x="67.237907" width="2.8366244" height="28.36627" y="82.119102" id="rect4481" style="opacity:0.16000001;fill:url(#linearGradient25299);fill-opacity:1;fill-rule:evenodd;stroke:none;stroke-width:1;marker:none;visibility:visible;display:inline;overflow:visible"/>
    <rect x="72.911194" width="2.8366244" height="28.36627" y="82.119102" id="rect4483" style="opacity:0.29142851;fill:url(#linearGradient25296);fill-opacity:1;fill-rule:evenodd;stroke:none;stroke-width:1;marker:none;visibility:visible;display:inline;overflow:visible"/>
    <rect x="78.58445" width="2.8366244" height="28.36627" y="82.119102" id="rect4485" style="opacity:0.29142851;fill:url(#linearGradient25293);fill-opacity:1;fill-rule:evenodd;stroke:none;stroke-width:1;marker:none;visibility:visible;display:inline;overflow:visible"/>
    <rect x="84.257698" width="2.8366244" height="28.36627" y="82.119102" id="rect4487" style="opacity:0.29142851;fill:url(#linearGradient25290);fill-opacity:1;fill-rule:evenodd;stroke:none;stroke-width:1;marker:none;visibility:visible;display:inline;overflow:visible"/>
    <rect x="89.930916" width="2.8366244" height="28.36627" y="82.119102" id="rect4489" style="opacity:0.29142851;fill:url(#linearGradient25287);fill-opacity:1;fill-rule:evenodd;stroke:none;stroke-width:1;marker:none;visibility:visible;display:inline;overflow:visible"/>
    <rect x="95.604164" width="2.8366244" height="28.36627" y="82.119102" id="rect4491" style="opacity:0.22857145;fill:url(#linearGradient25284);fill-opacity:1;fill-rule:evenodd;stroke:none;stroke-width:1;marker:none;visibility:visible;display:inline;overflow:visible"/>
    <g style="display:inline" id="g5022" transform="matrix(0.03166126,0,0,0.02033829,61.571452,116.3536)">
      <rect x="-1559.2523" width="1339.6335" height="478.35718" y="-150.69685" id="rect4173" style="opacity:0.40206185;fill:url(#linearGradient9824);fill-opacity:1;fill-rule:nonzero;stroke:none;stroke-width:1;marker:none;visibility:visible;display:inline;overflow:visible"/>
      <path style="opacity:0.40206185;fill:url(#radialGradient9826);fill-opacity:1;fill-rule:nonzero;stroke:none;stroke-width:1;marker:none;visibility:visible;display:inline;overflow:visible" d="m -219.61876,-150.68038 c 0,0 0,478.33079 0,478.33079 142.874166,0.90045 345.40022,-107.16966 345.40014,-239.196175 0,-132.026537 -159.436816,-239.134595 -345.40014,-239.134615 z" id="path5058"/>
      <path style="opacity:0.40206185;fill:url(#radialGradient9828);fill-opacity:1;fill-rule:nonzero;stroke:none;stroke-width:1;marker:none;visibility:visible;display:inline;overflow:visible" d="m -1559.2523,-150.68038 c 0,0 0,478.33079 0,478.33079 -142.8742,0.90045 -345.4002,-107.16966 -345.4002,-239.196175 0,-132.026537 159.4368,-239.134595 345.4002,-239.134615 z" id="path5018"/>
    </g>
    <g id="g9740" transform="matrix(1.4958269,0,0,1.4958269,7.6025117,58.12743)">
      <path d="m 44.724504,26.963573 a 21.566757,14.318913 0 1 1 -43.1335139,0 21.566757,14.318913 0 1 1 43.1335139,0 z" id="path7077" style="opacity:0.70329674;fill:url(#radialGradient7085);fill-opacity:1;fill-rule:evenodd;stroke:none;stroke-width:1;marker:none;visibility:visible;display:inline;overflow:visible" transform="translate(1.237437,0.762563)"/>
      <path d="M 40.5,21 A 14.75,8.25 0 1 1 11,21 14.75,8.25 0 1 1 40.5,21 z" id="path7028" style="fill:#a1a39f;fill-opacity:1;fill-rule:evenodd;stroke:#6d6f6a;stroke-width:0.7190817;stroke-linecap:round;stroke-linejoin:round;stroke-miterlimit:4;stroke-opacity:1;stroke-dasharray:none;stroke-dashoffset:0;marker:none;visibility:visible;display:inline;overflow:visible" transform="matrix(1.254237,0,0,1.541926,-9.79661,-6.279528)"/>
      <path d="M 40.5,21 A 14.75,8.25 0 1 1 11,21 14.75,8.25 0 1 1 40.5,21 z" id="path7042" style="fill:#555753;fill-opacity:1;fill-rule:evenodd;stroke:none;stroke-width:1.11522388;marker:none;visibility:visible;display:inline;overflow:visible" transform="matrix(0.764011,0,0,1.001814,2.310475,2.543083)"/>
      <path style="fill:url(#radialGradient6540);fill-rule:nonzero;stroke:#3b3d39;stroke-miterlimit:4;stroke-opacity:1" d="m 46.025804,41.226233 c 0,0 -8.323895,-3.737007 -13.655999,-3.266718 -5.683012,0.501239 -15.176777,0.837437 -18.898097,-5.03934 15.798097,4.764466 23.08699,-3.145748 33.779379,1.309515 0,0 -1.225283,6.996543 -1.225283,6.996543 z" id="path6456"/>
      <path d="M 40.5,21 A 14.75,8.25 0 1 1 11,21 14.75,8.25 0 1 1 40.5,21 z" id="path7026" style="fill:url(#linearGradient7093);fill-opacity:1;fill-rule:evenodd;stroke:#757972;stroke-width:1.23408842;stroke-linecap:round;stroke-linejoin:round;stroke-miterlimit:4;stroke-opacity:1;stroke-dasharray:none;stroke-dashoffset:0;marker:none;visibility:visible;display:inline;overflow:visible" transform="matrix(0.760969,0,0,0.986663,2.905048,0.584267)"/>
      <path style="fill:#d3d7cf;fill-opacity:1;fill-rule:evenodd;stroke:#888a85;stroke-width:1;stroke-linecap:round;stroke-linejoin:round;stroke-miterlimit:4;stroke-opacity:1;stroke-dasharray:none;stroke-dashoffset:0;marker:none;visibility:visible;display:inline;overflow:visible" d="M 21.09375,7.71875 C 11.536229,8.2444238 4.0000001,14.13337 4,21.25 4,28.711046 12.288003,34.781251 22.5,34.78125 32.711998,34.78125 41,28.711045 41,21.25 41,13.788954 32.711998,7.71875 22.5,7.71875 c -0.03989,0 -0.08517,-1.845e-4 -0.125,0 -0.238056,0.0011 -0.482906,-0.00764 -0.71875,0 -0.115158,0.00373 -0.22915,-0.00527 -0.34375,0 -0.0755,0.00347 -0.143494,-0.00414 -0.21875,0 z m -1.375,2.1875 c 0.06325,-0.00511 0.123591,0.00347 0.1875,0 0.134104,-0.00728 0.269544,0 0.40625,0 2.916392,2e-7 5.28125,1.702203 5.28125,3.78125 0,2.079047 -2.364859,3.75 -5.28125,3.75 -2.916391,0 -5.28125,-1.670953 -5.28125,-3.75 0,-1.935148 2.051954,-3.568463 4.6875,-3.78125 z m 11.5,4.59375 c 0.06665,-0.006 0.120185,0.0043 0.1875,0 0.116752,-0.0074 0.225136,0.0021 0.34375,0 0.0482,-8.73e-4 0.07651,0 0.125,0 3.103453,0 5.625,1.814203 5.625,4.03125 0,2.217046 -2.521546,4 -5.625,4 -3.103454,1e-6 -5.625,-1.782953 -5.625,-4 -1e-6,-2.048003 2.191783,-3.782807 4.96875,-4.03125 z M 12,17.65625 c 0.217826,-0.01782 0.463035,0 0.6875,0 3.192389,0 5.78125,1.842348 5.78125,4.125 0,2.282652 -2.588861,4.125 -5.78125,4.125 -3.1923882,0 -5.78125,-1.842348 -5.78125,-4.125 0,-2.122152 2.2136041,-3.889336 5.09375,-4.125 z m 11.53125,5.125 c 0.02398,-0.0028 0.03844,0.0026 0.0625,0 0.0027,-1.17e-4 0.0287,-3.3e-5 0.03125,0 0.0026,4.5e-5 0.02849,9.9e-5 0.03125,0 0.0062,1.06e-4 0.02806,1.15e-4 0.03125,0 0.02615,1.79e-4 0.06751,-3.83e-4 0.09375,0 0.0032,-7.7e-5 0.02502,-8.3e-5 0.03125,0 0.240976,-0.01978 0.47043,0 0.71875,0 3.531666,0 6.40625,2.029561 6.40625,4.5625 0,2.53294 -2.874584,4.59375 -6.40625,4.59375 -3.531666,0 -6.40625,-2.060811 -6.40625,-4.59375 0,-2.281969 2.361444,-4.208711 5.40625,-4.5625 z" id="path7012"/>
      <path d="m 40.65864,19.008621 a 18.473166,13.435029 0 1 1 -36.9463311,0 18.473166,13.435029 0 1 1 36.9463311,0 z" id="path7044" style="fill:none;stroke:url(#linearGradient7060);stroke-width:1.05932879;stroke-linecap:round;stroke-linejoin:round;stroke-miterlimit:4;stroke-opacity:1;stroke-dasharray:none;stroke-dashoffset:0;marker:none;visibility:visible;display:inline;overflow:visible" transform="matrix(0.950533,0,0,0.9375,1.450995,3.320621)"/>
      <path style="fill:url(#linearGradient7075);fill-opacity:1;fill-rule:evenodd;stroke:none;stroke-width:1;marker:none;visibility:visible;display:inline;overflow:visible" d="m 46.875,34.493906 -1.081562,6.04999 C 43.18442,39.668459 41.611389,38.97574 38.722272,38.287036 l 0.331829,-4.912647 c 1.898531,-0.201306 4.863279,0.141734 7.820899,1.119517 z" id="path7067"/>
      <path style="opacity:0.70329674;fill:url(#linearGradient7144);fill-opacity:1;fill-rule:evenodd;stroke:none;stroke-width:1;marker:none;visibility:visible;display:inline;overflow:visible" d="m 46.875,34.3125 -0.1875,0.875 c -8.104899,-3.028886 -15.566065,-0.226719 -23.375,0 10.611053,-0.882579 14.090243,-3.715657 23.5625,-0.875 z" id="path7136"/>
    </g>
    <g id="g9947" transform="matrix(1.3578066,0,0,1.3578066,-3.7752231,25.852642)">
      <path d="m 41.75,35.375 a 18.5,7.375 0 1 1 -37,0 18.5,7.375 0 1 1 37,0 z" id="path1344" style="opacity:0.3;fill:url(#radialGradient2078);fill-opacity:1;fill-rule:evenodd;stroke:none;stroke-width:2;marker:none;visibility:visible;display:inline;overflow:visible" transform="translate(0,2.834646)"/>
      <path style="fill:#9db029;fill-opacity:1;fill-rule:nonzero;stroke:#596616;stroke-width:1;stroke-linecap:round;stroke-linejoin:round;stroke-miterlimit:4;stroke-opacity:1;stroke-dashoffset:0;marker:none;visibility:visible;display:block" d="m 41.625,7.7951523 c 0,0 -23.0625,2.8346457 -23.0625,2.8346457 l 0,21.78125 c -1.645955,-0.557651 -3.931785,-0.703429 -6.4375,-0.1875 -4.356314,0.896969 -7.4778602,3.299487 -7,5.34375 0.4778601,2.044263 4.393685,2.99072 8.75,2.09375 4.116641,-0.84762 7.684123,-3.037802 7.602633,-5 l 0.15625,-19.03125 c 0,0 16.930457,-2.895306 16.930457,-2.895306 l 0,17.284614 c -10.25,-1.5 -13.292201,2.893236 -12.81434,4.9375 0.47786,2.044263 4.393686,2.990719 8.75,2.09375 3.865376,-0.795885 6.63241,-2.763211 6.90625,-4.625 L 41.625,7.7951523 z" id="path9950"/>
      <path style="opacity:0.51176471;fill:none;stroke:#ffffff;stroke-width:1;stroke-linecap:butt;stroke-linejoin:miter;stroke-miterlimit:4;stroke-opacity:1;stroke-dasharray:none;stroke-dashoffset:0;marker:none;visibility:visible;display:block" d="m 40.729036,8.8956383 c 0,0 -21.181769,2.8346457 -21.181769,2.8346457 l 0,21.838337 C 11.982012,31.663311 5.8141632,35.40303 6.2685944,37.347065 6.9730255,40.6661 20.646969,38.449299 20.569474,34.208305 l 0.148589,-19.473166 c 0,0 18.850374,-2.892332 18.850374,-2.892332 l 0,19.437166 c -7.566284,-1.926647 -13.265498,1.376384 -12.811066,3.32042 0.579431,3.194035 12.378226,2.113362 13.76364,-2.657146 L 40.729036,8.8956383 z" id="path2311"/>
      <path d="m 12.25,32.75 a 6.375,3.25 0 1 1 -12.75,0 6.375,3.25 0 1 1 12.75,0 z" id="path2313" style="opacity:0.51176471;fill:url(#radialGradient1358);fill-opacity:1;fill-rule:nonzero;stroke:none;stroke-width:1;marker:none;visibility:visible;display:block;overflow:visible" transform="matrix(0.734516,-0.111645,0.111645,0.734516,3.903362,12.22551)"/>
      <path d="m 12.25,32.75 a 6.375,3.25 0 1 1 -12.75,0 6.375,3.25 0 1 1 12.75,0 z" id="path2323" style="opacity:0.51176471;fill:url(#radialGradient1360);fill-opacity:1;fill-rule:nonzero;stroke:none;stroke-width:1;marker:none;visibility:visible;display:block;overflow:visible" transform="matrix(0.734516,-0.111645,0.111645,0.734516,23.74587,9.390864)"/>
    </g>
  </g>
</g></svg>