<svg contentScriptType="text/ecmascript" xmlns:xlink="http://www.w3.org/1999/xlink" zoomAndPan="magnify" xmlns:svg="http://www.w3.org/2000/svg" contentStyleType="text/css" preserveAspectRatio="xMidYMid meet" xmlns="http://www.w3.org/2000/svg" version="1.0"><g id="_STRESSTEST_SYMBOLS_STRESSTEST_OSA_OSA_USER_GREEN_OPERATIONS_SVG"><defs id="defs3">
    <linearGradient xlink:actuate="onLoad" xlink:type="simple" id="linearGradient4356" xlink:show="other" xmlns:xlink="http://www.w3.org/1999/xlink">
      <stop style="stop-color:#000000;stop-opacity:1" offset="0" id="stop4358"/>
      <stop style="stop-color:#000000;stop-opacity:0" offset="1" id="stop4360"/>
    </linearGradient>
    <linearGradient xlink:actuate="onLoad" xlink:type="simple" id="linearGradient4344" xlink:show="other" xmlns:xlink="http://www.w3.org/1999/xlink">
      <stop style="stop-color:#727e0a;stop-opacity:1" offset="0" id="stop4346"/>
      <stop style="stop-color:#5b6508;stop-opacity:1" offset="1" id="stop4348"/>
    </linearGradient>
    <linearGradient xlink:actuate="onLoad" xlink:type="simple" id="linearGradient4338" xlink:show="other" xmlns:xlink="http://www.w3.org/1999/xlink">
      <stop style="stop-color:#e9b15e;stop-opacity:1" offset="0" id="stop4340"/>
      <stop style="stop-color:#966416;stop-opacity:1" offset="1" id="stop4342"/>
    </linearGradient>
    <linearGradient xlink:actuate="onLoad" xlink:type="simple" id="linearGradient3816" xlink:show="other" xmlns:xlink="http://www.w3.org/1999/xlink">
      <stop style="stop-color:#000000;stop-opacity:1" offset="0" id="stop3818"/>
      <stop style="stop-color:#000000;stop-opacity:0" offset="1" id="stop3820"/>
    </linearGradient>
    <radialGradient xmlns:xlink="http://www.w3.org/1999/xlink" gradientUnits="userSpaceOnUse" xlink:href="#linearGradient3816" xlink:type="simple" cx="31.112698" r="8.6620579" xlink:actuate="onLoad" cy="19.008621" id="radialGradient4179" xlink:show="other" fx="31.112698" fy="19.008621"/>
    <radialGradient xmlns:xlink="http://www.w3.org/1999/xlink" gradientUnits="userSpaceOnUse" xlink:href="#linearGradient3816" xlink:type="simple" cx="31.112698" r="8.6620579" xlink:actuate="onLoad" cy="19.008621" id="radialGradient2339" xlink:show="other" fx="31.112698" fy="19.008621"/>
    <radialGradient gradientTransform="matrix(0.787998,0,0,0.787998,6.221198,3.617627)" xmlns:xlink="http://www.w3.org/1999/xlink" id="radialGradient2341" gradientUnits="userSpaceOnUse" xlink:show="other" xlink:type="simple" r="9.1620579" cx="29.344931" fx="29.344931" cy="17.064077" fy="17.064077" xlink:href="#linearGradient4338" xlink:actuate="onLoad"/>
    <radialGradient gradientTransform="matrix(2.8994389,0,0,1.9771767,22.402711,21.638858)" xmlns:xlink="http://www.w3.org/1999/xlink" id="radialGradient2383" gradientUnits="userSpaceOnUse" xlink:show="other" xlink:type="simple" r="13.56536" cx="16.214741" fx="16.214741" cy="19.836468" fy="19.836468" xlink:href="#linearGradient4344" xlink:actuate="onLoad"/>
    <linearGradient gradientTransform="matrix(-2.8512357,0.5265033,0.5265033,2.8512357,144.19823,-29.451171)" x1="20.661695" xmlns:xlink="http://www.w3.org/1999/xlink" y1="35.817974" x2="22.626925" xlink:href="#linearGradient4356" gradientUnits="userSpaceOnUse" y2="36.217758" xlink:type="simple" xlink:actuate="onLoad" id="linearGradient2387" xlink:show="other"/>
    <linearGradient gradientTransform="scale(1.104397,0.905471)" x1="10.390738" xmlns:xlink="http://www.w3.org/1999/xlink" y1="5.3817744" x2="32.536823" xlink:href="#linearGradient2253" gradientUnits="userSpaceOnUse" y2="31.246054" xlink:type="simple" xlink:actuate="onLoad" id="linearGradient1413" xlink:show="other"/>
    <linearGradient gradientTransform="scale(2.309851,0.432928)" x1="8.1134243" xmlns:xlink="http://www.w3.org/1999/xlink" y1="88.509071" x2="8.1134233" xlink:href="#linearGradient2752" gradientUnits="userSpaceOnUse" y2="100.20015" xlink:type="simple" xlink:actuate="onLoad" id="linearGradient1411" xlink:show="other"/>
    <linearGradient gradientTransform="scale(2.309851,0.432928)" x1="8.1134243" xmlns:xlink="http://www.w3.org/1999/xlink" y1="88.509071" x2="8.1134233" xlink:href="#linearGradient2752" gradientUnits="userSpaceOnUse" y2="100.20015" xlink:type="simple" xlink:actuate="onLoad" id="linearGradient1409" xlink:show="other"/>
    <linearGradient gradientTransform="scale(1.492875,0.669848)" x1="-23.8857" xmlns:xlink="http://www.w3.org/1999/xlink" y1="49.953003" x2="-23.8857" xlink:href="#linearGradient2985" gradientUnits="userSpaceOnUse" y2="44.878883" xlink:type="simple" xlink:actuate="onLoad" id="linearGradient2991" xlink:show="other"/>
    <linearGradient gradientTransform="scale(1.129863,0.885063)" x1="18.316999" xmlns:xlink="http://www.w3.org/1999/xlink" y1="48.643234" x2="18.176752" xlink:href="#linearGradient2245" gradientUnits="userSpaceOnUse" y2="52.536461" xlink:type="simple" xlink:actuate="onLoad" id="linearGradient2981" xlink:show="other"/>
    <linearGradient gradientTransform="scale(1.104397,0.905471)" x1="10.390738" xmlns:xlink="http://www.w3.org/1999/xlink" y1="5.3817744" x2="32.536823" xlink:href="#linearGradient2253" gradientUnits="userSpaceOnUse" y2="31.246054" xlink:type="simple" xlink:actuate="onLoad" id="linearGradient2979" xlink:show="other"/>
    <linearGradient gradientTransform="scale(2.309851,0.432928)" x1="8.1134243" xmlns:xlink="http://www.w3.org/1999/xlink" y1="88.509071" x2="8.1134233" xlink:href="#linearGradient2752" gradientUnits="userSpaceOnUse" y2="100.20015" xlink:type="simple" xlink:actuate="onLoad" id="linearGradient2758" xlink:show="other"/>
    <linearGradient gradientTransform="matrix(2.143634,0,0,0.466498,1,-0.508826)" x1="13.62871" xmlns:xlink="http://www.w3.org/1999/xlink" y1="101.2846" x2="8.6485014" xlink:href="#linearGradient2635" gradientUnits="userSpaceOnUse" y2="74.098007" xlink:type="simple" xlink:actuate="onLoad" id="linearGradient2741" xlink:show="other"/>
    <linearGradient x1="34.300991" xmlns:xlink="http://www.w3.org/1999/xlink" y1="3.9384086" x2="35.520542" xlink:href="#linearGradient2711" gradientUnits="userSpaceOnUse" y2="3.8451097" xlink:type="simple" xlink:actuate="onLoad" id="linearGradient2733" xlink:show="other"/>
    <linearGradient x1="34.300991" xmlns:xlink="http://www.w3.org/1999/xlink" y1="3.9384086" x2="35.520542" xlink:href="#linearGradient2711" gradientUnits="userSpaceOnUse" y2="3.8451097" xlink:type="simple" xlink:actuate="onLoad" id="linearGradient2729" xlink:show="other"/>
    <linearGradient x1="34.300991" xmlns:xlink="http://www.w3.org/1999/xlink" y1="3.9384086" x2="35.520542" xlink:href="#linearGradient2711" gradientUnits="userSpaceOnUse" y2="3.8451097" xlink:type="simple" xlink:actuate="onLoad" id="linearGradient2725" xlink:show="other"/>
    <linearGradient x1="34.300991" xmlns:xlink="http://www.w3.org/1999/xlink" y1="3.9384086" x2="35.520542" xlink:href="#linearGradient2711" gradientUnits="userSpaceOnUse" y2="3.8451097" xlink:type="simple" xlink:actuate="onLoad" id="linearGradient2721" xlink:show="other"/>
    <linearGradient x1="34.300991" xmlns:xlink="http://www.w3.org/1999/xlink" y1="3.9384086" x2="35.520542" xlink:href="#linearGradient2711" gradientUnits="userSpaceOnUse" y2="3.8451097" xlink:type="simple" xlink:actuate="onLoad" id="linearGradient2717" xlink:show="other"/>
    <linearGradient gradientTransform="scale(1.816345,0.550556)" x1="12.206709" xmlns:xlink="http://www.w3.org/1999/xlink" y1="53.535141" x2="12.127711" xlink:href="#linearGradient2701" gradientUnits="userSpaceOnUse" y2="64.892525" xlink:type="simple" xlink:actuate="onLoad" id="linearGradient2707" xlink:show="other"/>
    <linearGradient gradientTransform="matrix(5.705159,0,0,0.17528,1,-0.679373)" x1="3.7069976" xmlns:xlink="http://www.w3.org/1999/xlink" y1="171.29134" x2="3.7069974" xlink:href="#linearGradient2683" gradientUnits="userSpaceOnUse" y2="162.45061" xlink:type="simple" xlink:actuate="onLoad" id="linearGradient2689" xlink:show="other"/>
    <linearGradient gradientTransform="matrix(1.174139,0,0,0.945431,0.721825,-1.331524)" x1="19.150396" xmlns:xlink="http://www.w3.org/1999/xlink" y1="32.622238" x2="16.315819" xlink:href="#linearGradient2675" gradientUnits="userSpaceOnUse" y2="8.8666229" xlink:type="simple" xlink:actuate="onLoad" id="linearGradient2681" xlink:show="other"/>
    <linearGradient gradientTransform="matrix(1.238977,0,0,0.895955,0.590553,-1.331524)" x1="11.492236" xmlns:xlink="http://www.w3.org/1999/xlink" y1="1.6537577" x2="17.199417" xlink:href="#linearGradient2667" gradientUnits="userSpaceOnUse" y2="26.729263" xlink:type="simple" xlink:actuate="onLoad" id="linearGradient2673" xlink:show="other"/>
    <radialGradient gradientTransform="scale(1.925808,0.519262)" xmlns:xlink="http://www.w3.org/1999/xlink" id="radialGradient2659" gradientUnits="userSpaceOnUse" xlink:show="other" xlink:type="simple" r="8.7662792" cx="12.57571" fx="12.57571" cy="67.501709" fy="67.501709" xlink:href="#linearGradient2454" xlink:actuate="onLoad"/>
    <radialGradient gradientTransform="scale(1.925808,0.519262)" xmlns:xlink="http://www.w3.org/1999/xlink" id="radialGradient2464" gradientUnits="userSpaceOnUse" xlink:show="other" xlink:type="simple" r="8.7662792" cx="12.57571" fx="12.57571" cy="67.501709" fy="67.501709" xlink:href="#linearGradient2454" xlink:actuate="onLoad"/>
    <radialGradient gradientTransform="scale(1.925808,0.519262)" xmlns:xlink="http://www.w3.org/1999/xlink" id="radialGradient2460" gradientUnits="userSpaceOnUse" xlink:show="other" xlink:type="simple" r="8.7662792" cx="12.57571" fx="12.57571" cy="67.501709" fy="67.501709" xlink:href="#linearGradient2454" xlink:actuate="onLoad"/>
    <linearGradient gradientTransform="matrix(1.108069,0,0,0.902471,1,1)" x1="17.698339" xmlns:xlink="http://www.w3.org/1999/xlink" y1="13.004725" x2="34.974548" xlink:href="#linearGradient2415" gradientUnits="userSpaceOnUse" y2="55.200756" xlink:type="simple" xlink:actuate="onLoad" id="linearGradient2421" xlink:show="other"/>
    <linearGradient gradientTransform="matrix(1.129863,0,0,0.885063,-1.625,-1.304372)" x1="8.6116238" xmlns:xlink="http://www.w3.org/1999/xlink" y1="7.2293582" x2="34.784473" xlink:href="#linearGradient2245" gradientUnits="userSpaceOnUse" y2="33.339787" xlink:type="simple" xlink:actuate="onLoad" id="linearGradient2251" xlink:show="other"/>
    <linearGradient xlink:actuate="onLoad" xlink:type="simple" id="linearGradient2245" xlink:show="other" xmlns:xlink="http://www.w3.org/1999/xlink">
      <stop style="stop-color:#dde1d9;stop-opacity:1" offset="0" id="stop2247"/>
      <stop style="stop-color:#cacdc6;stop-opacity:1" offset="1" id="stop2249"/>
    </linearGradient>
    <linearGradient xlink:actuate="onLoad" xlink:type="simple" id="linearGradient2253" xlink:show="other" xmlns:xlink="http://www.w3.org/1999/xlink">
      <stop style="stop-color:#8f8f8f;stop-opacity:1" offset="0" id="stop2255"/>
      <stop style="stop-color:#494949;stop-opacity:1" offset="1" id="stop2257"/>
    </linearGradient>
    <linearGradient xlink:actuate="onLoad" xlink:type="simple" id="linearGradient2415" xlink:show="other" xmlns:xlink="http://www.w3.org/1999/xlink">
      <stop style="stop-color:#ffffff;stop-opacity:1" offset="0" id="stop2417"/>
      <stop style="stop-color:#ffffff;stop-opacity:0" offset="1" id="stop2419"/>
    </linearGradient>
    <linearGradient xlink:actuate="onLoad" xlink:type="simple" id="linearGradient2454" xlink:show="other" xmlns:xlink="http://www.w3.org/1999/xlink">
      <stop style="stop-color:#000000;stop-opacity:1" offset="0" id="stop2456"/>
      <stop style="stop-color:#000000;stop-opacity:0" offset="1" id="stop2458"/>
    </linearGradient>
    <linearGradient xlink:actuate="onLoad" xlink:type="simple" id="linearGradient2635" xlink:show="other" xmlns:xlink="http://www.w3.org/1999/xlink">
      <stop style="stop-color:#f9fff5;stop-opacity:1" offset="0" id="stop2637"/>
      <stop style="stop-color:#f9fff5;stop-opacity:0" offset="1" id="stop2639"/>
    </linearGradient>
    <linearGradient xlink:actuate="onLoad" xlink:type="simple" id="linearGradient2667" xlink:show="other" xmlns:xlink="http://www.w3.org/1999/xlink">
      <stop style="stop-color:#ffffff;stop-opacity:1" offset="0" id="stop2669"/>
      <stop style="stop-color:#fcfcff;stop-opacity:0" offset="1" id="stop2671"/>
    </linearGradient>
    <linearGradient xlink:actuate="onLoad" xlink:type="simple" id="linearGradient2675" xlink:show="other" xmlns:xlink="http://www.w3.org/1999/xlink">
      <stop style="stop-color:#5b5b97;stop-opacity:1" offset="0" id="stop2677"/>
      <stop style="stop-color:#1b1b43;stop-opacity:1" offset="1" id="stop2679"/>
    </linearGradient>
    <linearGradient xlink:actuate="onLoad" xlink:type="simple" id="linearGradient2683" xlink:show="other" xmlns:xlink="http://www.w3.org/1999/xlink">
      <stop style="stop-color:#000000;stop-opacity:1" offset="0" id="stop2685"/>
      <stop style="stop-color:#000000;stop-opacity:0" offset="1" id="stop2687"/>
    </linearGradient>
    <linearGradient xlink:actuate="onLoad" xlink:type="simple" id="linearGradient2701" xlink:show="other" xmlns:xlink="http://www.w3.org/1999/xlink">
      <stop style="stop-color:#585956;stop-opacity:1" offset="0" id="stop2703"/>
      <stop style="stop-color:#bbbeb8;stop-opacity:1" offset="1" id="stop2705"/>
    </linearGradient>
    <linearGradient xlink:actuate="onLoad" xlink:type="simple" id="linearGradient2711" xlink:show="other" xmlns:xlink="http://www.w3.org/1999/xlink">
      <stop style="stop-color:#909090;stop-opacity:1" offset="0" id="stop2713"/>
      <stop style="stop-color:#bebebe;stop-opacity:0" offset="1" id="stop2715"/>
    </linearGradient>
    <linearGradient xlink:actuate="onLoad" xlink:type="simple" id="linearGradient2752" xlink:show="other" xmlns:xlink="http://www.w3.org/1999/xlink">
      <stop style="stop-color:#9d9d9d;stop-opacity:1" offset="0" id="stop2754"/>
      <stop style="stop-color:#b9b9b9;stop-opacity:1" offset="1" id="stop2756"/>
    </linearGradient>
    <linearGradient xlink:actuate="onLoad" xlink:type="simple" id="linearGradient2985" xlink:show="other" xmlns:xlink="http://www.w3.org/1999/xlink">
      <stop style="stop-color:#d8dfd6;stop-opacity:1" offset="0" id="stop2987"/>
      <stop style="stop-color:#d8dfd6;stop-opacity:0" offset="1" id="stop2989"/>
    </linearGradient>
  </defs><g style="display:inline" id="layer1"/><g style="display:inline" id="layer2">
    <path d="m 39.774755,19.008621 a 8.6620579,8.6620579 0 1 1 -17.324115,0 8.6620579,8.6620579 0 1 1 17.324115,0 z" id="path4306" style="fill:url(#radialGradient4179);fill-opacity:1;fill-rule:evenodd;stroke:none;stroke-width:1px;marker:none;visibility:visible;display:inline;overflow:visible" transform="matrix(5.1479827,0,0,1.6932259,-85.430654,67.271375)"/>
    <path style="fill:url(#radialGradient2383);fill-opacity:1;fill-rule:evenodd;stroke:#404604;stroke-width:2.89943886px;stroke-linecap:round;stroke-linejoin:round;stroke-miterlimit:4;stroke-opacity:1;stroke-dasharray:none;stroke-dashoffset:0;marker:none;visibility:visible;display:inline;overflow:visible" d="m 59.692901,98.190612 30.7532,0 c 8.7134,0 17.340039,-3.19498 20.502119,-12.301276 3.00278,-8.647507 0.51256,-25.115108 -18.964459,-38.441492 l -36.39128,0 c -19.47703,12.301276 -21.91104,29.124374 -17.42681,38.954043 4.56834,10.014055 12.30127,11.788725 21.52723,11.788725 z" id="path2329"/>
    <path style="opacity:0.21518986;fill:none;stroke:#ffffff;stroke-width:2.89943814px;stroke-linecap:round;stroke-linejoin:round;stroke-miterlimit:4;stroke-opacity:1;stroke-dasharray:none;stroke-dashoffset:0;marker:none;visibility:visible;display:inline;overflow:visible" d="m 59.998691,95.105022 29.91256,0 c 7.65371,0 15.231219,-2.80642 18.008739,-10.805243 2.63758,-7.595834 -0.27465,-22.060711 -17.382949,-33.766392 l -33.41524,0 c -17.1083,10.805243 -19.97116,25.582384 -16.03229,34.216608 4.01276,8.796187 10.80525,10.355027 18.90918,10.355027 z" id="path3838"/>
    <path d="m 39.774755,19.008621 a 8.6620579,8.6620579 0 1 1 -17.324115,0 8.6620579,8.6620579 0 1 1 17.324115,0 z" id="path3814" style="fill:url(#radialGradient2339);fill-opacity:1;fill-rule:evenodd;stroke:none;stroke-width:1px;marker:none;visibility:visible;display:inline;overflow:visible" transform="matrix(2.8994389,0,0,2.8994389,-16.014849,-12.3825)"/>
    <path d="m 39.774755,19.008621 a 8.6620579,8.6620579 0 1 1 -17.324115,0 8.6620579,8.6620579 0 1 1 17.324115,0 z" id="path2327" style="fill:url(#radialGradient2341);fill-opacity:1;fill-rule:evenodd;stroke:#6f4709;stroke-width:1px;stroke-linecap:round;stroke-linejoin:round;stroke-miterlimit:4;stroke-opacity:1;stroke-dasharray:none;stroke-dashoffset:0;marker:none;visibility:visible;display:inline;overflow:visible" transform="matrix(2.8994389,0,0,2.8994389,-15.652419,-22.530536)"/>
    <path d="m 39.774755,19.008621 a 8.6620579,8.6620579 0 1 1 -17.324115,0 8.6620579,8.6620579 0 1 1 17.324115,0 z" id="path3834" style="opacity:0.12658231;fill:none;stroke:#ffffff;stroke-width:1.14012825px;stroke-linecap:round;stroke-linejoin:round;stroke-miterlimit:4;stroke-opacity:1;stroke-dasharray:none;stroke-dashoffset:0;marker:none;visibility:visible;display:inline;overflow:visible" transform="matrix(2.5430833,0,0,2.5430833,-4.5651786,-15.756673)"/>
    <path style="opacity:0.22784807;fill:url(#linearGradient2387);fill-opacity:1;fill-rule:evenodd;stroke:none;stroke-width:1px;marker:none;visibility:visible;display:inline;overflow:visible" d="m 98.908788,96.461792 c 3.617362,-1.5801 5.236372,-5.38796 5.236372,-5.38796 -2.43925,-11.79821 -10.785702,-20.43007 -10.785702,-20.43007 0,0 6.60875,18.58979 5.54933,25.81803 z" id="path2385"/>
    <g id="g2843" transform="matrix(1.3442815,0,0,1.3442815,2.3043024,60.255529)">
      <g id="g8242" transform="matrix(1.0581297,0,0,1.0581297,0.3766682,-4.390711)">
        <path d="m 41.10058,35.051105 a 16.882174,4.552 0 1 1 -33.7643469,0 16.882174,4.552 0 1 1 33.7643469,0 z" id="path2452" style="fill:url(#radialGradient2460);fill-opacity:1;fill-rule:evenodd;stroke:none;stroke-width:1;marker:none;visibility:visible;display:inline;overflow:visible" transform="matrix(1,0,0,1.368932,-1.978553,-13.61713)"/>
        <path d="m -26.263968,29.716238 a 9.3944187,3.939595 0 1 1 -18.788837,0 9.3944187,3.939595 0 1 1 18.788837,0 z" id="path2407" style="fill:#adb0aa;fill-opacity:1;fill-rule:evenodd;stroke:#4b4d4a;stroke-width:1;stroke-linecap:butt;stroke-linejoin:miter;stroke-miterlimit:4;stroke-opacity:1;stroke-dashoffset:0;marker:none;visibility:visible;display:inline;overflow:visible" transform="translate(57.53339,3.203427)"/>
        <path d="m -26.263968,29.716238 a 9.3944187,3.939595 0 1 1 -18.788837,0 9.3944187,3.939595 0 1 1 18.788837,0 z" id="path1825" style="fill:none;stroke:#7b7f7a;stroke-width:1;stroke-linecap:butt;stroke-linejoin:miter;stroke-miterlimit:4;stroke-opacity:1;stroke-dashoffset:0;marker:none;visibility:visible;display:inline;overflow:visible" transform="matrix(0.940273,0,0,0.940273,55.40361,4.271194)"/>
        <path d="m -26.263968,29.716238 a 9.3944187,3.939595 0 1 1 -18.788837,0 9.3944187,3.939595 0 1 1 18.788837,0 z" id="path2983" style="fill:none;stroke:url(#linearGradient2991);stroke-width:0.68065339;stroke-linecap:butt;stroke-linejoin:miter;stroke-miterlimit:4;stroke-opacity:1;stroke-dashoffset:0;marker:none;visibility:visible;display:inline;overflow:visible" transform="matrix(0.940273,0,0,0.940273,55.40361,3.521194)"/>
        <path style="fill:#d0d0d0;fill-opacity:1;fill-rule:evenodd;stroke:#979797;stroke-width:0.40000001;stroke-linecap:butt;stroke-linejoin:round;stroke-miterlimit:4;stroke-opacity:1" d="m 25.6875,28.766243 -0.0625,1 c 0,0 4.324108,3.599166 9,4.202507 2.337946,0.30167 4.753675,0.702412 6.75,1.1875 1.996325,0.485088 3.588356,1.119606 4.125,1.65625 0.310411,0.310411 0.451063,0.573639 0.5,0.78125 0.04894,0.207611 0.03822,0.354815 -0.09375,0.5625 -0.263933,0.41537 -1.079857,0.967652 -2.46875,1.40625 C 40.659715,40.439695 35.717076,41 28.875,41 l 0,1 c 6.895998,0 11.863665,-0.527671 14.84375,-1.46875 1.490042,-0.47054 2.524942,-1.015687 3.03125,-1.8125 C 47.003154,38.320344 47.107321,37.830301 47,37.375 46.892679,36.919699 46.615445,36.490445 46.21875,36.09375 45.34118,35.21618 43.681912,34.68731 41.625,34.1875 39.568088,33.68769 37.109264,33.273171 34.75,32.96875 30.031473,32.359908 25.6875,28.766243 25.6875,28.766243 z" id="path2411"/>
        <path d="m 41.10058,35.051105 a 16.882174,4.552 0 1 1 -33.7643469,0 16.882174,4.552 0 1 1 33.7643469,0 z" id="path2462" style="fill:url(#radialGradient2464);fill-opacity:1;fill-rule:evenodd;stroke:none;stroke-width:1;marker:none;visibility:visible;display:inline;overflow:visible" transform="matrix(1,0,0,1.368932,-1.978553,-19.02126)"/>
        <rect x="17.472397" width="9.0396729" height="2.7400389" y="30.703611" id="rect2699" style="fill:url(#linearGradient2707);fill-opacity:1;fill-rule:evenodd;stroke:none;stroke-width:0.60872948;marker:none;visibility:visible;display:inline;overflow:visible"/>
        <path style="fill:url(#linearGradient2251);fill-opacity:1;fill-rule:evenodd;stroke:url(#linearGradient2979);stroke-width:1;stroke-linecap:butt;stroke-linejoin:miter;stroke-miterlimit:4;stroke-opacity:1;stroke-dashoffset:0;marker:none;visibility:visible;display:inline;overflow:visible" d="m 7.0809024,1.6956221 29.5881946,0 c 0.911342,0 1.624147,0.5834818 1.666752,1.401587 l 1.332044,25.5781139 c 0.05821,1.117735 -0.901056,2.020305 -2.020305,2.020305 l -31.545176,0 c -1.1192491,0 -2.078514,-0.90257 -2.0203052,-2.020305 L 5.4141506,3.0972091 c 0.040284,-0.7735346 0.5475027,-1.401587 1.6667518,-1.401587 z" id="rect2404"/>
        <path style="fill:url(#linearGradient2681);fill-opacity:1;fill-rule:evenodd;stroke:#000079;stroke-width:0.5;stroke-linecap:butt;stroke-linejoin:round;stroke-miterlimit:4;stroke-opacity:1;stroke-dasharray:none" d="m 8.4105348,4.3058272 -1.242195,22.0453168 27.6503892,0 L 33.483712,4.3992558 8.4105348,4.3058272 z" id="path2377"/>
        <path style="fill:none;stroke:url(#linearGradient2689);stroke-width:0.99618119;stroke-linecap:round;stroke-linejoin:miter;stroke-miterlimit:4;stroke-opacity:0.24840764" d="m 6.1774331,28.735789 31.4284769,0" id="path2393"/>
        <path style="fill:none;stroke:url(#linearGradient2421);stroke-width:0.99999964;stroke-linecap:butt;stroke-linejoin:miter;stroke-miterlimit:4;stroke-opacity:0.70063692;stroke-dashoffset:0;marker:none;visibility:visible;display:inline;overflow:visible" d="M 6.9145985,2.7063396 36.760101,2.6685383 c 0.283697,-3.593e-4 0.559302,0.2372498 0.582105,0.6525438 L 38.704098,28.12433 c 0.05804,1.057031 -0.539749,1.785871 -1.598371,1.785871 l -30.5239687,0 c -1.0586228,0 -1.5930144,-0.728791 -1.5358714,-1.785871 L 6.3699773,3.6301633 C 6.4086732,2.9143326 6.5363627,2.7068187 6.9145985,2.7063396 z" id="path2397"/>
        <path style="opacity:0.53142856;fill:url(#linearGradient2673);fill-opacity:1;fill-rule:evenodd;stroke:none" d="M 8.7115364,4.7463626 7.9090069,22.616693 C 18.953645,20.216063 19.33047,12.124494 33.063039,9.4699426 L 32.901567,4.8124267 8.7115364,4.7463626 z" id="path2443"/>
        <path d="m 41.10058,35.051105 a 16.882174,4.552 0 1 1 -33.7643469,0 16.882174,4.552 0 1 1 33.7643469,0 z" id="path2657" style="fill:url(#radialGradient2659);fill-opacity:1;fill-rule:evenodd;stroke:none;stroke-width:1;marker:none;visibility:visible;display:inline;overflow:visible" transform="matrix(1.264398,0,0,1.291262,-6.216332,-4.000423)"/>
        <path style="fill:url(#linearGradient2981);fill-opacity:1;fill-rule:evenodd;stroke:url(#linearGradient1413);stroke-width:1;stroke-linecap:butt;stroke-linejoin:miter;stroke-miterlimit:4;stroke-opacity:1;stroke-dasharray:none;stroke-dashoffset:0;marker:none;visibility:visible;display:inline;overflow:visible" d="m 6.4621839,36.817452 31.0024061,0 c 1.119249,0 0.977355,0.271438 1.092227,0.612846 l 2.834646,8.42481 c 0.114872,0.341409 0.02702,0.612846 -1.092227,0.612846 l -36.6716978,0 c -1.1192491,0 -1.2070995,-0.271437 -1.0922275,-0.612846 l 2.8346457,-8.42481 c 0.114872,-0.341409 -0.027022,-0.612846 1.0922275,-0.612846 z" id="path2409"/>
        <path style="fill:#7a7d77;fill-opacity:1;fill-rule:evenodd;stroke:none" d="m 6.3916892,38.829113 -1.7677669,5.126525 5.4800777,0 0.53033,-2.032932 14.849242,0 0.549679,2.075114 6.167835,0 -1.679378,-5.168707 -24.1300188,0 z" id="path2611"/>
        <path style="fill:#777874;fill-opacity:1;fill-rule:evenodd;stroke:none" d="m 11.076272,42.27626 -0.441942,1.679379 14.760854,0 -0.441942,-1.767767 -13.87697,0.08839 z" id="path2613"/>
        <path style="fill:#777a75;fill-opacity:1;fill-rule:evenodd;stroke:none;stroke-width:0.25pt;marker:none;visibility:visible;display:inline;overflow:visible" d="m 37.592776,38.829114 1.679379,5.038136 -5.480078,-0.08839 -1.502602,-4.861359 5.303301,-0.08839 z" id="path2619"/>
        <path style="fill:url(#linearGradient2758);fill-opacity:1;fill-rule:evenodd;stroke:none;stroke-width:0.25pt;marker:none;visibility:visible;display:inline;overflow:visible" d="m 37.592776,38.298786 1.679379,5.038136 -5.480078,-0.08839 -1.502602,-4.861359 5.303301,-0.08839 z" id="path2615"/>
        <path style="fill:url(#linearGradient1411);fill-opacity:1;fill-rule:evenodd;stroke:none" d="m 6.3916892,38.210397 -1.7677669,5.126525 5.4800777,0 0.53033,-2.032932 14.849242,0 0.549679,2.075114 6.167835,0 -1.679378,-5.168707 -24.1300188,0 z" id="path2617"/>
        <path style="fill:url(#linearGradient1409);fill-opacity:1;fill-rule:evenodd;stroke:none;stroke-width:0.25pt;marker:none;visibility:visible;display:inline;overflow:visible" d="m 11.076272,41.745932 -0.441942,1.679379 14.760854,0 -0.441942,-1.767767 -13.87697,0.08839 z" id="path2621"/>
        <path style="fill:none;stroke:url(#linearGradient2741);stroke-width:0.5;stroke-linecap:butt;stroke-linejoin:round;stroke-miterlimit:4;stroke-opacity:1;stroke-dashoffset:0;marker:none;visibility:visible;display:inline;overflow:visible" d="m 6.1278189,37.578116 31.8258151,0 2.637179,8.092563 -37.2610701,0 2.798076,-8.092563 z" id="path2631"/>
        <path d="m 35.620504,3.9384086 a 0.83968931,0.83968931 0 1 1 -1.679378,0 0.83968931,0.83968931 0 1 1 1.679378,0 z" id="path2709" style="fill:url(#linearGradient2717);fill-opacity:1;fill-rule:evenodd;stroke:none;stroke-width:0.5;marker:none;visibility:visible;display:inline;overflow:visible" transform="matrix(1.331237,0,0,0.658449,-10.41933,2.853866)"/>
        <path d="m 35.620504,3.9384086 a 0.83968931,0.83968931 0 1 1 -1.679378,0 0.83968931,0.83968931 0 1 1 1.679378,0 z" id="path2719" style="fill:url(#linearGradient2721);fill-opacity:1;fill-rule:evenodd;stroke:none;stroke-width:0.5;marker:none;visibility:visible;display:inline;overflow:visible" transform="matrix(1.331237,0,0,0.658449,-10.30573,4.959651)"/>
        <path d="m 35.620504,3.9384086 a 0.83968931,0.83968931 0 1 1 -1.679378,0 0.83968931,0.83968931 0 1 1 1.679378,0 z" id="path2723" style="fill:url(#linearGradient2725);fill-opacity:1;fill-rule:evenodd;stroke:none;stroke-width:0.5;marker:none;visibility:visible;display:inline;overflow:visible" transform="matrix(1.331237,0,0,0.658449,-10.19213,6.959651)"/>
        <path d="m 35.620504,3.9384086 a 0.83968931,0.83968931 0 1 1 -1.679378,0 0.83968931,0.83968931 0 1 1 1.679378,0 z" id="path2727" style="fill:url(#linearGradient2729);fill-opacity:1;fill-rule:evenodd;stroke:none;stroke-width:0.5;marker:none;visibility:visible;display:inline;overflow:visible" transform="matrix(1.331237,0,0,0.658449,-10.07853,8.959651)"/>
        <path d="m 35.620504,3.9384086 a 0.83968931,0.83968931 0 1 1 -1.679378,0 0.83968931,0.83968931 0 1 1 1.679378,0 z" id="path2731" style="fill:url(#linearGradient2733);fill-opacity:1;fill-rule:evenodd;stroke:none;stroke-width:0.5;marker:none;visibility:visible;display:inline;overflow:visible" transform="matrix(1.331237,0,0,0.658449,-9.96493,10.95965)"/>
        <path style="font-size:0.9029026px;font-style:normal;font-variant:normal;font-weight:bold;font-stretch:normal;writing-mode:lr-tb;text-anchor:start;fill:#4a4a4a;fill-opacity:1;stroke:none;font-family:Bitstream Vera Sans" d="m 20,27.317666 0.281716,0 c 0.08376,1e-6 0.147985,0.01866 0.19266,0.05599 0.04497,0.03703 0.06745,0.08994 0.06745,0.158714 -1e-6,0.06907 -0.02248,0.122268 -0.06745,0.159595 -0.04467,0.03703 -0.108895,0.05555 -0.19266,0.05555 l -0.111981,0 0,0.22837 -0.169735,0 0,-0.658219 m 0.169735,0.123003 0,0.183843 0.0939,0 c 0.03292,0 0.05834,-0.0079 0.07627,-0.02381 0.01793,-0.01617 0.02689,-0.03894 0.02689,-0.06834 0,-0.02939 -0.009,-0.05202 -0.02689,-0.06789 -0.01793,-0.01587 -0.04335,-0.02381 -0.07627,-0.02381 l -0.0939,0 m 0.792244,-0.0119 c -0.05173,1e-6 -0.09185,0.01911 -0.120358,0.05731 -0.02851,0.03821 -0.04276,0.092 -0.04276,0.161359 0,0.06907 0.01425,0.122709 0.04276,0.160918 0.02851,0.03821 0.06863,0.05731 0.120358,0.05731 0.05202,0 0.09229,-0.0191 0.120799,-0.05731 0.02851,-0.03821 0.04276,-0.09185 0.04276,-0.160918 -1e-6,-0.06936 -0.01425,-0.123149 -0.04276,-0.161359 -0.02851,-0.03821 -0.06878,-0.05731 -0.120799,-0.05731 m 0,-0.123003 c 0.105808,10e-7 0.188692,0.03027 0.248651,0.09082 0.05996,0.06055 0.08994,0.144165 0.08994,0.250855 -10e-7,0.106397 -0.02998,0.189868 -0.08994,0.250414 -0.05996,0.06055 -0.142843,0.09082 -0.248651,0.09082 -0.105515,0 -0.188399,-0.03027 -0.248651,-0.09082 -0.05996,-0.06055 -0.08994,-0.144017 -0.08994,-0.250414 0,-0.10669 0.02998,-0.190309 0.08994,-0.250855 0.06025,-0.06055 0.143136,-0.09082 0.248651,-0.09082 m 0.466441,0.0119 0.189574,0 0.239393,0.451451 0,-0.451451 0.160918,0 0,0.658219 -0.189575,0 -0.239392,-0.451451 0,0.451451 -0.160918,0 0,-0.658219 m 0.663069,0 0.185606,0 0.149896,0.234543 0.149896,-0.234543 0.186048,0 -0.250856,0.380912 0,0.277307 -0.169735,0 0,-0.277307 -0.250855,-0.380912" id="text2735"/>
      </g>
    </g>
  </g></g></svg>