<svg contentScriptType="text/ecmascript" xmlns:xlink="http://www.w3.org/1999/xlink" zoomAndPan="magnify" xmlns:svg="http://www.w3.org/2000/svg" xml:space="preserve" contentStyleType="text/css" preserveAspectRatio="xMidYMid meet" xmlns="http://www.w3.org/2000/svg" version="1.0"><g id="_STRESSTEST_SYMBOLS_STRESSTEST_OSA_OSA_IMAGE-GENERIC_SVG"><defs id="defs81"><linearGradient x1="23.341299" xmlns:xlink="http://www.w3.org/1999/xlink" y1="24" x2="119.5405" gradientUnits="userSpaceOnUse" y2="114.0588" xlink:type="simple" xlink:actuate="onLoad" id="XMLID_7_" xlink:show="other">
		<stop style="stop-color:#f8f9f8;stop-opacity:1" offset="0" id="stop11"/>
		<stop style="stop-color:#e7e7e6;stop-opacity:1" offset="1" id="stop13"/>
	</linearGradient><radialGradient xmlns:xlink="http://www.w3.org/1999/xlink" gradientUnits="userSpaceOnUse" xlink:type="simple" cx="44" xlink:actuate="onLoad" r="94.8685" cy="46" id="XMLID_8_" xlink:show="other">
		<stop style="stop-color:#538ed4;stop-opacity:1" offset="0" id="stop22"/>
		<stop style="stop-color:#001940;stop-opacity:1" offset="1" id="stop24"/>
	</radialGradient><linearGradient x1="70.269501" xmlns:xlink="http://www.w3.org/1999/xlink" y1="26.521999" x2="57.2696" gradientUnits="userSpaceOnUse" y2="73.522003" xlink:type="simple" xlink:actuate="onLoad" id="XMLID_9_" xlink:show="other">
		<stop style="stop-color:#65a2dc;stop-opacity:1" offset="0" id="stop33"/>
		<stop style="stop-color:#4e83c2;stop-opacity:1" offset="0.56739998" id="stop35"/>
		<stop style="stop-color:#88aec2;stop-opacity:1" offset="1" id="stop37"/>
	</linearGradient><linearGradient x1="18.681601" xmlns:xlink="http://www.w3.org/1999/xlink" y1="75.538101" x2="49.125198" gradientUnits="userSpaceOnUse" y2="91.774696" xlink:type="simple" xlink:actuate="onLoad" id="XMLID_10_" xlink:show="other">
		<stop style="stop-color:#7c8271;stop-opacity:1" offset="0" id="stop42"/>
		<stop style="stop-color:#786755;stop-opacity:1" offset="1" id="stop44"/>
	</linearGradient><linearGradient gradientTransform="matrix(1,0,-0.1353,0.9324,11.5082,5.4565)" x1="85.463898" xmlns:xlink="http://www.w3.org/1999/xlink" y1="86.503899" x2="94.035202" gradientUnits="userSpaceOnUse" y2="86.503899" xlink:type="simple" xlink:actuate="onLoad" id="XMLID_11_" xlink:show="other">
		<stop style="stop-color:#7c8271;stop-opacity:1" offset="0" id="stop53"/>
		<stop style="stop-color:#786755;stop-opacity:1" offset="1" id="stop55"/>
	</linearGradient><linearGradient x1="41" xmlns:xlink="http://www.w3.org/1999/xlink" y1="47.785599" x2="101.25" gradientUnits="userSpaceOnUse" y2="47.785599" xlink:type="simple" xlink:actuate="onLoad" id="XMLID_12_" xlink:show="other">
		<stop style="stop-color:#6085b9;stop-opacity:1" offset="0" id="stop60"/>
		<stop style="stop-color:#37497a;stop-opacity:1" offset="1" id="stop62"/>
	</linearGradient></defs>
	
	
	<g id="g2421"><path style="opacity:0.2;fill:#1a1a1a" d="m 125,106 c 0,6.286 -2.713,9 -9,9 l -102,0 c -6.286,0 -9,-2.714 -9,-9 L 5,24 c 0,-6.287 2.714,-9 9,-9 l 102,0 c 6.287,0 9,2.713 9,9 l 0,82 z" id="path4"/><path style="opacity:0.2;fill:#1a1a1a" d="m 124.25,107 c 0,6.286 -2.68,9 -8.888,9 L 14.638,116 C 8.43,116 5.75,113.286 5.75,107 l 0,-82 c 0,-6.287 2.68,-9 8.888,-9 l 100.725,0 c 6.208,0 8.888,2.713 8.888,9 l 0,82 -0.001,0 z" id="path6"/><path style="opacity:0.4;fill:#1a1a1a" d="M 14,12 C 7.178,12 4,15.178 4,22 l 0,82 c 0,6.822 3.178,10 10,10 l 102,0 c 6.822,0 10,-3.178 10,-10 l 0,-82 c 0,-6.822 -3.178,-10 -10,-10 L 14,12 z" id="path8"/><path style="fill:url(#XMLID_7_)" d="m 125,104 c 0,6.286 -2.713,9 -9,9 l -102,0 c -6.286,0 -9,-2.714 -9,-9 L 5,22 c 0,-6.287 2.714,-9 9,-9 l 102,0 c 6.287,0 9,2.713 9,9 l 0,82 z" id="path15"/><rect x="16" width="98" height="52" y="36" id="rect17" style="fill:#003a8f"/><rect x="17" width="98" height="52" y="37" id="rect19" style="fill:#ffffff"/><rect x="16" width="98" height="38" y="50" id="rect26" style="fill:url(#XMLID_8_)"/><rect x="16" width="98" height="14" y="36" id="rect28" style="fill:#296096"/><path style="fill:#52463a" d="m 67,87.951 c -2.975,-3.135 -5.95,-6.269 -11.899,-6.269 -5.949,0 -20.823,-6.271 -20.823,-6.271 0,0 -11.899,-6.27 -17.849,-6.27 0,6.27 0,18.809 0,18.809 l 50.571,0 0,10e-4 z" id="path30"/><path style="fill:url(#XMLID_9_)" d="M 113,54.143 C 83,54.143 29,65.572 17,77 l 0,-40 96,0 0,17.143 z" id="path39"/><path style="fill:url(#XMLID_10_)" d="M 65.5,88 C 62.588,85.167 59.677,82.334 53.853,82.334 48.03,82.334 33.471,76.667 33.471,76.667 33.471,76.667 21.823,71 16,71 c 0,5.667 0,17 0,17 l 49.5,0 z" id="path46"/><path style="fill:#cbc7b8" d="m 17,77 c 1.74,-1.657 4.369,-3.314 7.675,-4.938 C 21.978,71.094 19.162,70.288 17,70.16 L 17,77 z" id="path48"/><path style="fill:#52463a" d="m 83.939,87.955 c 0,0 2.728,-4.596 6.291,-4.596 3.564,0 4.401,4.596 4.401,4.596 l -10.692,0 z" id="path50"/><path style="fill:url(#XMLID_11_)" d="m 85,87.955 c 0,0 2.187,-3.685 5.043,-3.685 2.857,0 3.528,3.685 3.528,3.685 l -8.571,0 z" id="path57"/><path style="fill:url(#XMLID_12_)" d="m 45.288,50.143 67.215,0 c -1.565,-2.777 -4.952,-4.714 -8.909,-4.714 l -49.395,0 c -3.958,0 -7.346,1.937 -8.911,4.714 z" id="path64"/><path style="fill:#bcac8d" d="m 27.793,76.766 c -1.633,-2.153 -4.843,-3.357 -5.856,-0.658 -1.012,2.697 -2.025,5.396 -2.025,5.396 l 6.983,4.161 0.898,-8.899 z" id="path66"/><path style="fill:#56573f" d="M 30.825,76.912 C 30.327,79.664 27,87 27,87 l -8,0 c 0,0 8.157,-11.922 9.991,-11.005 1.834,0.917 1.834,0.917 1.834,0.917 z" id="path68"/><path style="fill:#3a434c" d="m 30,86 c 0,0 5.228,-2.161 6.918,-3.625 1.69,-1.464 2.457,-3.311 2.457,-3.311 L 34.914,79.377 30,86 z" id="path70"/><path style="fill:#bcac8d" d="m 37,81 c -2,-1 -5,-1 -5,1 0,2 0,4 0,4 l 7,1 -2,-6 z" id="path72"/><path style="fill:#bcac8d" d="m 46,82.493 c -2,-0.751 -5,-0.751 -5,0.751 0,1.503 0,3.005 0,3.005 L 48,87 46,82.493 z" id="path74"/><path style="fill:#94876f" d="m 53.794,83.459 c -1.85,-0.699 -3.949,-0.699 -3.047,0.699 0.901,1.399 1.803,2.799 1.803,2.799 l 5.348,0.699 -4.104,-4.197 z" id="path76"/><path style="fill:#53634c" d="m 51,86 c 0,0 -4,-4 -6,-5 -2,-1 -4,-1 -4,-1 l 2,4 8,2 z" id="path78"/></g>
</g></svg>