<svg contentScriptType="text/ecmascript" xmlns:xlink="http://www.w3.org/1999/xlink" zoomAndPan="magnify" xmlns:svg="http://www.w3.org/2000/svg" contentStyleType="text/css" preserveAspectRatio="xMidYMid meet" xmlns="http://www.w3.org/2000/svg" version="1.0"><g id="_STRESSTEST_SYMBOLS_STRESSTEST_OSA_OSA_USER_GREEN_SERVICE_MANAGER_SVG"><defs id="defs3">
    <linearGradient xlink:actuate="onLoad" xlink:type="simple" id="linearGradient4356" xlink:show="other" xmlns:xlink="http://www.w3.org/1999/xlink">
      <stop style="stop-color:#000000;stop-opacity:1" offset="0" id="stop4358"/>
      <stop style="stop-color:#000000;stop-opacity:0" offset="1" id="stop4360"/>
    </linearGradient>
    <linearGradient xlink:actuate="onLoad" xlink:type="simple" id="linearGradient4344" xlink:show="other" xmlns:xlink="http://www.w3.org/1999/xlink">
      <stop style="stop-color:#727e0a;stop-opacity:1" offset="0" id="stop4346"/>
      <stop style="stop-color:#5b6508;stop-opacity:1" offset="1" id="stop4348"/>
    </linearGradient>
    <linearGradient xlink:actuate="onLoad" xlink:type="simple" id="linearGradient4338" xlink:show="other" xmlns:xlink="http://www.w3.org/1999/xlink">
      <stop style="stop-color:#e9b15e;stop-opacity:1" offset="0" id="stop4340"/>
      <stop style="stop-color:#966416;stop-opacity:1" offset="1" id="stop4342"/>
    </linearGradient>
    <linearGradient xlink:actuate="onLoad" xlink:type="simple" id="linearGradient3816" xlink:show="other" xmlns:xlink="http://www.w3.org/1999/xlink">
      <stop style="stop-color:#000000;stop-opacity:1" offset="0" id="stop3818"/>
      <stop style="stop-color:#000000;stop-opacity:0" offset="1" id="stop3820"/>
    </linearGradient>
    <radialGradient xmlns:xlink="http://www.w3.org/1999/xlink" gradientUnits="userSpaceOnUse" xlink:href="#linearGradient3816" xlink:type="simple" cx="31.112698" r="8.6620579" xlink:actuate="onLoad" cy="19.008621" id="radialGradient4179" xlink:show="other" fx="31.112698" fy="19.008621"/>
    <radialGradient xmlns:xlink="http://www.w3.org/1999/xlink" gradientUnits="userSpaceOnUse" xlink:href="#linearGradient3816" xlink:type="simple" cx="31.112698" r="8.6620579" xlink:actuate="onLoad" cy="19.008621" id="radialGradient2339" xlink:show="other" fx="31.112698" fy="19.008621"/>
    <radialGradient gradientTransform="matrix(0.787998,0,0,0.787998,6.221198,3.617627)" xmlns:xlink="http://www.w3.org/1999/xlink" id="radialGradient2341" gradientUnits="userSpaceOnUse" xlink:show="other" xlink:type="simple" r="9.1620579" cx="29.344931" fx="29.344931" cy="17.064077" fy="17.064077" xlink:href="#linearGradient4338" xlink:actuate="onLoad"/>
    <linearGradient gradientTransform="matrix(2.8512357,0.5265033,-0.5265033,2.8512357,-8.70906,-27.407511)" x1="20.661695" xmlns:xlink="http://www.w3.org/1999/xlink" y1="35.817974" x2="22.626925" xlink:href="#linearGradient4356" gradientUnits="userSpaceOnUse" y2="36.217758" xlink:type="simple" xlink:actuate="onLoad" id="linearGradient2374" xlink:show="other"/>
    <radialGradient gradientTransform="matrix(2.8994389,0,0,1.9771767,11.79611,24.952566)" xmlns:xlink="http://www.w3.org/1999/xlink" id="radialGradient2383" gradientUnits="userSpaceOnUse" xlink:show="other" xlink:type="simple" r="13.56536" cx="16.214741" fx="16.214741" cy="19.836468" fy="19.836468" xlink:href="#linearGradient4344" xlink:actuate="onLoad"/>
    <linearGradient gradientTransform="matrix(-2.8512357,0.5265033,0.5265033,2.8512357,133.59163,-26.137463)" x1="20.661695" xmlns:xlink="http://www.w3.org/1999/xlink" y1="35.817974" x2="22.626925" xlink:href="#linearGradient4356" gradientUnits="userSpaceOnUse" y2="36.217758" xlink:type="simple" xlink:actuate="onLoad" id="linearGradient2387" xlink:show="other"/>
    <linearGradient x1="-21.658581" xmlns:xlink="http://www.w3.org/1999/xlink" y1="15.649428" x2="-21.962101" xlink:href="#linearGradient6001" gradientUnits="userSpaceOnUse" y2="21.336346" xlink:type="simple" xlink:actuate="onLoad" id="linearGradient6019" xlink:show="other"/>
    <linearGradient x1="-22.822565" xmlns:xlink="http://www.w3.org/1999/xlink" y1="28.337734" x2="-22.113543" xlink:href="#linearGradient6001" gradientUnits="userSpaceOnUse" y2="22.661524" xlink:type="simple" xlink:actuate="onLoad" id="linearGradient6015" xlink:show="other"/>
    <linearGradient x1="-25.176178" xmlns:xlink="http://www.w3.org/1999/xlink" y1="30.057165" x2="-22.113543" xlink:href="#linearGradient6001" gradientUnits="userSpaceOnUse" y2="22.661524" xlink:type="simple" xlink:actuate="onLoad" id="linearGradient6011" xlink:show="other"/>
    <linearGradient x1="-25.176178" xmlns:xlink="http://www.w3.org/1999/xlink" y1="30.057165" x2="-22.252472" xlink:href="#linearGradient6001" gradientUnits="userSpaceOnUse" y2="21.041553" xlink:type="simple" xlink:actuate="onLoad" id="linearGradient6007" xlink:show="other"/>
    <radialGradient xmlns:xlink="http://www.w3.org/1999/xlink" gradientUnits="userSpaceOnUse" xlink:href="#linearGradient4825" xlink:type="simple" cx="12.071323" r="6.7175145" xlink:actuate="onLoad" cy="12.493138" id="radialGradient5989" xlink:show="other" fx="12.071323" fy="12.493138"/>
    <radialGradient xmlns:xlink="http://www.w3.org/1999/xlink" gradientUnits="userSpaceOnUse" xlink:href="#linearGradient4825" xlink:type="simple" cx="12.071323" r="6.7175145" xlink:actuate="onLoad" cy="12.493138" id="radialGradient5987" xlink:show="other" fx="12.071323" fy="12.493138"/>
    <radialGradient xmlns:xlink="http://www.w3.org/1999/xlink" gradientUnits="userSpaceOnUse" xlink:href="#linearGradient4825" xlink:type="simple" cx="12.071323" r="6.7175145" xlink:actuate="onLoad" cy="12.493138" id="radialGradient5985" xlink:show="other" fx="12.071323" fy="12.493138"/>
    <radialGradient xmlns:xlink="http://www.w3.org/1999/xlink" gradientUnits="userSpaceOnUse" xlink:href="#linearGradient4825" xlink:type="simple" cx="12.071323" r="6.7175145" xlink:actuate="onLoad" cy="12.493138" id="radialGradient5983" xlink:show="other" fx="12.071323" fy="12.493138"/>
    <radialGradient gradientTransform="scale(0.999989,1.000011)" xmlns:xlink="http://www.w3.org/1999/xlink" id="radialGradient4132" gradientUnits="userSpaceOnUse" xlink:show="other" xlink:type="simple" r="43.526714" cx="15.601279" fx="15.601279" cy="12.142302" fy="12.142302" xlink:href="#linearGradient4126" xlink:actuate="onLoad"/>
    <radialGradient gradientTransform="scale(1.64399,0.608276)" xmlns:xlink="http://www.w3.org/1999/xlink" id="radialGradient4120" gradientUnits="userSpaceOnUse" xlink:show="other" xlink:type="simple" r="12.289036" cx="15.115514" fx="15.115514" cy="63.965389" fy="63.965389" xlink:href="#linearGradient4114" xlink:actuate="onLoad"/>
    <radialGradient gradientTransform="scale(0.999989,1.000011)" xmlns:xlink="http://www.w3.org/1999/xlink" id="radialGradient3968" gradientUnits="userSpaceOnUse" xlink:show="other" xlink:type="simple" r="29.993349" cx="18.247644" fx="18.247644" cy="15.716079" fy="15.716079" xlink:href="#linearGradient3962" xlink:actuate="onLoad"/>
    <linearGradient xlink:actuate="onLoad" xlink:type="simple" id="linearGradient3962" xlink:show="other" xmlns:xlink="http://www.w3.org/1999/xlink">
      <stop style="stop-color:#d3e9ff;stop-opacity:1" offset="0" id="stop3964"/>
      <stop style="stop-color:#d3e9ff;stop-opacity:1" offset="0.15517241" id="stop4134"/>
      <stop style="stop-color:#4074ae;stop-opacity:1" offset="0.75" id="stop2829"/>
      <stop style="stop-color:#36486c;stop-opacity:1" offset="1" id="stop3966"/>
    </linearGradient>
    <linearGradient xlink:actuate="onLoad" xlink:type="simple" id="linearGradient4114" xlink:show="other" xmlns:xlink="http://www.w3.org/1999/xlink">
      <stop style="stop-color:#000000;stop-opacity:1" offset="0" id="stop4116"/>
      <stop style="stop-color:#000000;stop-opacity:0" offset="1" id="stop4118"/>
    </linearGradient>
    <linearGradient xlink:actuate="onLoad" xlink:type="simple" id="linearGradient4126" xlink:show="other" xmlns:xlink="http://www.w3.org/1999/xlink">
      <stop style="stop-color:#ffffff;stop-opacity:1" offset="0" id="stop4128"/>
      <stop style="stop-color:#ffffff;stop-opacity:0.16494845" offset="1" id="stop4130"/>
    </linearGradient>
    <linearGradient xlink:actuate="onLoad" xlink:type="simple" id="linearGradient4825" xlink:show="other" xmlns:xlink="http://www.w3.org/1999/xlink">
      <stop style="stop-color:#ffffff;stop-opacity:1" offset="0" id="stop4827"/>
      <stop style="stop-color:#ffffff;stop-opacity:0" offset="1" id="stop4829"/>
    </linearGradient>
    <linearGradient xlink:actuate="onLoad" xlink:type="simple" id="linearGradient6001" xlink:show="other" xmlns:xlink="http://www.w3.org/1999/xlink">
      <stop style="stop-color:#ffffff;stop-opacity:1" offset="0" id="stop6003"/>
      <stop style="stop-color:#ffffff;stop-opacity:0" offset="1" id="stop6005"/>
    </linearGradient>
  </defs><g style="display:inline" id="layer1"/><g style="display:inline" id="layer2">
    <path d="m 39.774755,19.008621 a 8.6620579,8.6620579 0 1 1 -17.324115,0 8.6620579,8.6620579 0 1 1 17.324115,0 z" id="path4306" style="fill:url(#radialGradient4179);fill-opacity:1;fill-rule:evenodd;stroke:none;stroke-width:1px;marker:none;visibility:visible;display:inline;overflow:visible" transform="matrix(5.1479827,0,0,1.6932259,-96.037255,70.585083)"/>
    <path style="fill:url(#radialGradient2383);fill-opacity:1;fill-rule:evenodd;stroke:#404604;stroke-width:2.89943886px;stroke-linecap:round;stroke-linejoin:round;stroke-miterlimit:4;stroke-opacity:1;stroke-dasharray:none;stroke-dashoffset:0;marker:none;visibility:visible;display:inline;overflow:visible" d="m 49.0863,101.50432 30.7532,0 c 8.7134,0 17.34004,-3.194983 20.50212,-12.301276 3.00278,-8.647507 0.51256,-25.115108 -18.96446,-38.441492 l -36.39128,0 C 25.50885,63.062828 23.07484,79.885926 27.55907,89.715595 32.12741,99.729647 39.86034,101.50432 49.0863,101.50432 z" id="path2329"/>
    <path style="fill:#9db029;fill-opacity:1;fill-rule:evenodd;stroke:none;stroke-width:1px;marker:none;visibility:visible;display:inline;overflow:visible" d="m 63.78992,58.449852 c 0,0 -6.23763,4.81404 -5.70028,10.613492 -5.91841,-5.221292 -6.08845,-15.226473 -6.08845,-15.226473 l 11.78873,4.612981 z" id="path3812"/>
    <path style="opacity:0.21518986;fill:none;stroke:#ffffff;stroke-width:2.89943814px;stroke-linecap:round;stroke-linejoin:round;stroke-miterlimit:4;stroke-opacity:1;stroke-dasharray:none;stroke-dashoffset:0;marker:none;visibility:visible;display:inline;overflow:visible" d="m 49.39209,98.41873 29.91256,0 c 7.65371,0 15.23122,-2.806422 18.00874,-10.805243 2.63758,-7.595834 -0.27465,-22.060711 -17.38295,-33.766392 l -33.41524,0 C 29.4069,64.652338 26.54404,79.429479 30.48291,88.063703 34.49567,96.859888 41.28816,98.41873 49.39209,98.41873 z" id="path3838"/>
    <path style="fill:#9db029;fill-opacity:1;fill-rule:evenodd;stroke:none;stroke-width:1px;marker:none;visibility:visible;display:inline;overflow:visible" d="m 64.62681,59.449852 c 0,0 6.23763,4.81404 5.70027,10.613492 5.91841,-5.221292 6.08845,-15.226473 6.08845,-15.226473 l -11.78872,4.612981 z" id="path3810"/>
    <path d="m 39.774755,19.008621 a 8.6620579,8.6620579 0 1 1 -17.324115,0 8.6620579,8.6620579 0 1 1 17.324115,0 z" id="path3814" style="fill:url(#radialGradient2339);fill-opacity:1;fill-rule:evenodd;stroke:none;stroke-width:1px;marker:none;visibility:visible;display:inline;overflow:visible" transform="matrix(2.8994389,0,0,2.8994389,-26.62145,-9.068792)"/>
    <path d="m 39.774755,19.008621 a 8.6620579,8.6620579 0 1 1 -17.324115,0 8.6620579,8.6620579 0 1 1 17.324115,0 z" id="path2327" style="fill:url(#radialGradient2341);fill-opacity:1;fill-rule:evenodd;stroke:#6f4709;stroke-width:1px;stroke-linecap:round;stroke-linejoin:round;stroke-miterlimit:4;stroke-opacity:1;stroke-dasharray:none;stroke-dashoffset:0;marker:none;visibility:visible;display:inline;overflow:visible" transform="matrix(2.8994389,0,0,2.8994389,-26.25902,-19.216828)"/>
    <path d="m 39.774755,19.008621 a 8.6620579,8.6620579 0 1 1 -17.324115,0 8.6620579,8.6620579 0 1 1 17.324115,0 z" id="path3834" style="opacity:0.12658231;fill:none;stroke:#ffffff;stroke-width:1.14012825px;stroke-linecap:round;stroke-linejoin:round;stroke-miterlimit:4;stroke-opacity:1;stroke-dasharray:none;stroke-dashoffset:0;marker:none;visibility:visible;display:inline;overflow:visible" transform="matrix(2.5430833,0,0,2.5430833,-15.17178,-12.442965)"/>
    <path style="opacity:0.22784807;fill:url(#linearGradient2374);fill-opacity:1;fill-rule:evenodd;stroke:none;stroke-width:1px;marker:none;visibility:visible;display:inline;overflow:visible" d="m 36.58038,98.505455 c -3.61736,-1.580104 -5.23637,-5.38796 -5.23637,-5.38796 2.43925,-11.798211 10.7857,-20.430073 10.7857,-20.430073 0,0 -6.60875,18.589793 -5.54933,25.818033 z" id="path4368"/>
    <path style="opacity:0.22784807;fill:url(#linearGradient2387);fill-opacity:1;fill-rule:evenodd;stroke:none;stroke-width:1px;marker:none;visibility:visible;display:inline;overflow:visible" d="m 88.302187,99.7755 c 3.61736,-1.5801 5.23637,-5.38796 5.23637,-5.38796 -2.43925,-11.79821 -10.7857,-20.43007 -10.7857,-20.43007 0,0 6.60875,18.58979 5.54933,25.81803 z" id="path2385"/>
    <g id="g2843" transform="matrix(1.3442815,0,0,1.3442815,2.3043024,60.255529)">
      <path d="m 45.052803,38.908627 a 20.203051,7.4751287 0 1 1 -40.4061012,0 20.203051,7.4751287 0 1 1 40.4061012,0 z" id="path4112" style="fill:url(#radialGradient4120);fill-opacity:1;stroke:none" transform="matrix(1,0,0,1.243244,0,-10.27241)"/>
      <path style="fill:url(#radialGradient3968);fill-opacity:1;fill-rule:nonzero;stroke:#39396c;stroke-miterlimit:4;stroke-opacity:1" d="m 43.959853,23.485499 c 0,10.709718 -8.682103,19.391723 -19.390348,19.391723 -10.709226,0 -19.3908387,-8.682103 -19.3908387,-19.391723 0,-10.709227 8.6816127,-19.3903473 19.3908387,-19.3903473 10.708245,0 19.390348,8.6811203 19.390348,19.3903473 l 0,0 z" id="path3214"/>
      <g style="fill:#204a87;fill-opacity:0.71345029;fill-rule:nonzero;stroke:none" id="g4136" transform="matrix(0.982371,0,0,0.982371,0.121079,0.232914)">
        <g style="fill:#204a87" id="g4138">
          <g style="fill:#204a87" id="g4142">
            <path style="fill:#204a87" d="m 44.0713,20.7144 c 0,0.2627 0,0 0,0 l -0.5449,0.6172 c -0.334,-0.3936 -0.709,-0.7246 -1.0898,-1.0703 l -0.8359,0.123 -0.7637,-0.8633 0,1.0684 0.6543,0.4951 0.4355,0.4932 0.582,-0.6582 c 0.1465,0.2744 0.291,0.5488 0.4365,0.8232 l 0,0.8223 -0.6553,0.7402 -1.1992,0.8232 -0.9082,0.9063 -0.582,-0.6602 0.291,-0.7402 -0.5811,-0.6582 -0.9814,-2.0977 -0.8359,-0.9453 -0.2188,0.2461 0.3281,1.1934 0.6172,0.6992 c 0.3525,1.0176 0.7012,1.9902 1.1641,2.9629 0.7178,0 1.3945,-0.0762 2.1074,-0.166 l 0,0.5762 -0.8721,2.1392 -0.7998,0.9043 -0.6543,1.4004 c 0,0.7676 0,1.5352 0,2.3027 l 0.2188,0.9063 -0.3633,0.4102 -0.8008,0.4941 -0.8359,0.6992 0.6914,0.7813 -0.9453,0.8242 0.1816,0.5332 -1.418,1.6055 -0.9443,0 -0.7998,0.4941 -0.5098,0 0,-0.6582 -0.2168,-1.3184 c -0.2813,-0.8262 -0.5742,-1.6465 -0.8721,-2.4668 0,-0.6055 0.0361,-1.2051 0.0723,-1.8105 l 0.3643,-0.8223 -0.5098,-0.9883 0.0371,-1.3574 -0.6914,-0.7813 0.3457,-1.1309 -0.5625,-0.6382 -0.9824,0 -0.3271,-0.3701 -0.9814,0.6177 -0.3994,-0.4536 -0.9092,0.7817 c -0.6172,-0.6997 -1.2354,-1.3989 -1.8535,-2.0981 l -0.7266,-1.7285 0.6543,-0.9863 -0.3633,-0.4111 0.7988,-1.8936 c 0.6563,-0.8164 1.3418,-1.5996 2.0352,-2.3857 l 1.2363,-0.3291 1.3809,-0.1641 0.9453,0.2471 1.3447,1.3564 0.4727,-0.5342 0.6533,-0.082 1.2363,0.4111 0.9453,0 0.6543,-0.5762 0.291,-0.4111 -0.6553,-0.4111 -1.0908,-0.082 c -0.3027,-0.4199 -0.584,-0.8613 -0.9434,-1.2344 l -0.3643,0.1641 -0.1455,1.0703 -0.6543,-0.7402 -0.1445,-0.8242 -0.7266,-0.5742 -0.292,0 0.7275,0.8223 -0.291,0.7402 -0.5811,0.1641 0.3633,-0.7402 -0.6553,-0.3281 -0.5801,-0.6582 -1.0918,0.2461 -0.1445,0.3281 -0.6543,0.4121 -0.3633,0.9053 -0.9082,0.4521 -0.4004,-0.4521 -0.4355,0 0,-1.4814 0.9453,-0.4941 0.7266,0 -0.1465,-0.5752 -0.5801,-0.5762 0.9805,-0.2061 0.5449,-0.6162 0.4355,-0.7412 0.8008,0 -0.2188,-0.5752 0.5098,-0.3291 0,0.6582 1.0898,0.2461 1.0898,-0.9043 0.0732,-0.4121 0.9443,-0.6577 c -0.3418,0.0425 -0.6836,0.0737 -1.0176,0.1646 l 0,-0.7411 0.3633,-0.8228 -0.3633,0 -0.7984,0.7402 -0.2188,0.4116 0.2188,0.5767 -0.3643,0.9863 -0.5811,-0.3291 -0.5078,-0.5752 -0.8008,0.5752 -0.291,-1.3159 1.3809,-0.9048 0,-0.4941 0.873,-0.5757 1.3809,-0.3296 0.9453,0.3296 1.7441,0.3291 -0.4355,0.4932 -0.9453,0 0.9453,0.9873 0.7266,-0.8223 0.2207,-0.3618 c 0,0 2.7871,2.498 4.3799,5.2305 1.5928,2.7334 2.3408,5.9551 2.3408,6.6094 z" id="path4144"/>
          </g>
        </g>
        <g style="fill:#204a87" id="g4146">
          <g style="fill:#204a87" id="g4150">
            <path style="fill:#204a87" d="m 26.0703,9.2363 -0.0732,0.4932 0.5098,0.3291 0.8711,-0.5757 -0.4355,-0.4937 -0.582,0.3296 -0.29,-0.0825" id="path4152"/>
          </g>
        </g>
        <g style="fill:#204a87" id="g4154">
          <g style="fill:#204a87" id="g4158">
            <path style="fill:#204a87" d="m 26.8701,5.8633 -1.8906,-0.7407 -2.1797,0.2466 -2.6904,0.7402 -0.5088,0.4941 1.6719,1.1514 0,0.6582 -0.6543,0.6582 0.873,1.729 0.5801,-0.3301 0.7285,-1.1514 c 1.123,-0.3472 2.1299,-0.7407 3.1973,-1.2344 l 0.873,-2.2212" id="path4160"/>
          </g>
        </g>
        <g style="fill:#204a87" id="g4162">
          <g style="fill:#204a87" id="g4166">
            <path style="fill:#204a87" d="m 28.833,12.7749 -0.291,-0.7412 -0.5098,0.165 0.1465,0.9043 0.6543,-0.3281" id="path4168"/>
          </g>
        </g>
        <g style="fill:#204a87" id="g4170">
          <g style="fill:#204a87" id="g4174">
            <path style="fill:#204a87" d="m 29.123,12.6089 -0.1455,0.9883 0.7998,-0.165 0.5811,-0.5752 -0.5088,-0.4941 C 29.6787,11.9078 29.4824,11.483 29.2685,11.0465 l -0.4355,0 0,0.4932 0.29,0.3291 0,0.7402" id="path4176"/>
          </g>
        </g>
        <g style="fill:#204a87" id="g4178">
          <g style="fill:#204a87" id="g4182">
            <path style="fill:#204a87" d="m 18.3652,28.2422 -0.582,-1.1523 -1.0903,-0.2466 -0.5815,-1.5625 -1.4536,0.1641 -1.2354,-0.9043 -1.3091,1.1514 0,0.1816 c -0.396,-0.1143 -0.8828,-0.1299 -1.2354,-0.3467 l -0.291,-0.8223 0,-0.9053 -0.8721,0.082 c 0.0728,-0.5762 0.145,-1.1514 0.2183,-1.7275 l -0.5093,0 -0.5083,0.6582 -0.5093,0.2461 -0.7271,-0.4102 -0.0728,-0.9053 0.1455,-0.9873 1.0908,-0.8223 0.8721,0 0.145,-0.4941 1.0903,0.2461 0.7998,0.9883 0.1455,-1.6465 1.3813,-1.1514 0.5088,-1.2344 1.0176,-0.4111 0.5815,-0.8223 1.3081,-0.248 0.6548,-0.9863 c -0.6543,0 -1.3086,0 -1.9629,0 l 1.2358,-0.5762 0.8716,0 1.2363,-0.4121 0.1455,-0.4922 -0.4365,-0.4121 -0.5088,-0.165 0.1455,-0.4932 -0.3633,-0.7402 -0.8726,0.3281 0.1455,-0.6577 -1.0176,-0.5762 -0.7993,1.3979 0.0723,0.4941 -0.7993,0.3301 -0.5093,1.0693 -0.2178,-0.9873 -1.3813,-0.5762 -0.2183,-0.7402 1.8174,-1.0703 0.7998,-0.7402 0.0728,-0.9048 -0.436,-0.2471 -0.5815,-0.0825 -0.3633,0.9053 c 0,0 -0.6079,0.1191 -0.7642,0.1577 -1.9961,1.8394 -6.0293,5.8101 -6.9663,13.3062 0.0371,0.1738 0.6792,1.1816 0.6792,1.1816 l 1.5264,0.9043 1.5264,0.4121 0.6548,0.8232 1.0171,0.7402 0.5815,-0.082 0.436,0.1963 0,0.1328 -0.5811,1.563 -0.4365,0.6582 0.1455,0.3301 -0.3633,1.2324 1.3086,2.3867 1.3081,1.1523 0.582,0.8223 -0.0732,1.7285 0.4365,0.9863 -0.4365,1.8926 c 0,0 -0.0342,-0.0117 0.0215,0.1777 0.0562,0.1895 2.3291,1.4512 2.4736,1.3438 0.144,-0.1094 0.2671,-0.2051 0.2671,-0.2051 l -0.145,-0.4102 0.5811,-0.5762 0.2183,-0.5762 0.9453,-0.3301 0.7266,-1.8105 -0.2178,-0.4922 0.5078,-0.7402 1.0908,-0.248 0.582,-1.3164 -0.1455,-1.6445 0.8721,-1.2344 0.1455,-1.2344 C 20.7331,29.4607 19.5495,28.8513 18.365,28.242" id="path4184"/>
          </g>
        </g>
        <g style="fill:#204a87" id="g4186">
          <g style="fill:#204a87" id="g4190">
            <path style="fill:#204a87" d="m 16.7656,9.5649 0.7266,0.4937 0.582,0 0,-0.5757 -0.7266,-0.3291 -0.582,0.4111" id="path4192"/>
          </g>
        </g>
        <g style="fill:#204a87" id="g4194">
          <g style="fill:#204a87" id="g4198">
            <path style="fill:#204a87" d="m 14.876,8.9072 -0.3638,0.9048 0.7271,0 0.3638,-0.8228 C 15.9166,8.7675 16.2286,8.5444 16.5479,8.331 l 0.7271,0.2471 c 0.4844,0.3291 0.9688,0.6582 1.4536,0.9868 L 19.4561,8.9072 18.6558,8.5781 18.292,7.8374 16.9111,7.6728 16.8383,7.2612 16.184,7.4262 15.8936,8.002 15.5298,7.2613 l -0.145,0.3291 0.0728,0.8228 -0.5816,0.494" id="path4200"/>
          </g>
        </g>
        <g style="fill:#204a87" id="g4202">
          <g style="opacity:0.75;fill:#204a87" id="g4204">
            <path style="fill:#204a87" d="" id="path4206"/>
          </g>
          <g style="fill:#204a87" id="g4208">
            <path style="fill:#204a87" d="" id="path4210"/>
          </g>
        </g>
        <g style="fill:#204a87" id="g4212">
          <g style="opacity:0.75;fill:#204a87" id="g4214">
            <path style="fill:#204a87" d="" id="path4216"/>
          </g>
          <g style="fill:#204a87" id="g4218">
            <path style="fill:#204a87" d="" id="path4220"/>
          </g>
        </g>
        <g style="fill:#204a87" id="g4222">
          <g style="fill:#204a87" id="g4226">
            <path style="fill:#204a87" d="M 17.4922,6.8496 17.856,6.521 18.5831,6.3564 c 0.498,-0.2422 0.998,-0.4053 1.5264,-0.5762 l -0.29,-0.4937 -0.9385,0.1348 -0.4434,0.4419 -0.731,0.106 -0.6499,0.3052 -0.3159,0.1528 -0.1929,0.2583 0.9443,0.1641" id="path4228"/>
          </g>
        </g>
        <g style="fill:#204a87" id="g4230">
          <g style="fill:#204a87" id="g4234">
            <path style="fill:#204a87" d="m 18.7285,14.6665 0.4365,-0.6582 -0.6548,-0.4932 0.2183,1.1514" id="path4236"/>
          </g>
        </g>
      </g>
      <path style="opacity:0.39560439;fill:none;stroke:url(#radialGradient4132);stroke-miterlimit:4;stroke-opacity:1" d="m 42.975093,23.485534 c 0,10.16582 -8.241178,18.406906 -18.4056,18.406906 -10.165354,0 -18.4060669,-8.241179 -18.4060669,-18.406906 0,-10.165354 8.2407129,-18.4056 18.4060669,-18.4056 10.164422,0 18.4056,8.240246 18.4056,18.4056 l 0,0 z" id="path4122"/>
      <path d="m -2.8284283,21.041553 a 15.733126,9.4575529 0 1 1 -31.4662517,0 15.733126,9.4575529 0 1 1 31.4662517,0 z" id="path5991" style="fill:none;stroke:url(#linearGradient6007);stroke-width:0.88164198;stroke-linecap:round;stroke-linejoin:round;stroke-miterlimit:4;stroke-opacity:1;stroke-dasharray:none;stroke-dashoffset:0;marker:none;visibility:visible;display:inline;overflow:visible" transform="matrix(1.131034,0.613097,-0.476556,0.879144,54.09058,16.04435)"/>
      <path d="m -2.8284283,21.041553 a 15.733126,9.4575529 0 1 1 -31.4662517,0 15.733126,9.4575529 0 1 1 31.4662517,0 z" id="path6009" style="fill:none;stroke:url(#linearGradient6011);stroke-width:0.88164198;stroke-linecap:round;stroke-linejoin:round;stroke-miterlimit:4;stroke-opacity:1;stroke-dasharray:none;stroke-dashoffset:0;marker:none;visibility:visible;display:inline;overflow:visible" transform="matrix(0.939326,-0.879086,0.683307,0.730131,32.31406,-4.451561)"/>
      <g id="g4933" transform="matrix(-1.045772,0.767251,0.767251,1.045772,35.61651,-22.14396)">
        <path d="m 18.788838,12.493138 a 6.7175145,6.7175145 0 1 1 -13.4350291,0 6.7175145,6.7175145 0 1 1 13.4350291,0 z" id="path4935" style="fill:url(#radialGradient5987);fill-opacity:1;fill-rule:evenodd;stroke:none;stroke-width:1;marker:none;visibility:visible;display:inline;overflow:visible" transform="translate(14.95026,22.93047)"/>
        <path d="m 18.788838,12.493138 a 6.7175145,6.7175145 0 1 1 -13.4350291,0 6.7175145,6.7175145 0 1 1 13.4350291,0 z" id="path4937" style="fill:#ffffff;fill-opacity:1;fill-rule:evenodd;stroke:none;stroke-width:1;marker:none;visibility:visible;display:inline;overflow:visible" transform="matrix(0.308271,0,0,0.308271,23.30035,31.57234)"/>
      </g>
      <path d="m -2.8284283,21.041553 a 15.733126,9.4575529 0 1 1 -31.4662517,0 15.733126,9.4575529 0 1 1 31.4662517,0 z" id="path6013" style="fill:none;stroke:url(#linearGradient6015);stroke-width:0.88164198;stroke-linecap:round;stroke-linejoin:round;stroke-miterlimit:4;stroke-opacity:1;stroke-dasharray:none;stroke-dashoffset:0;marker:none;visibility:visible;display:inline;overflow:visible" transform="matrix(-1.280316,-0.126159,0.09806226,-0.99518,-2.405125,40.52387)"/>
      <path d="m -2.8284283,21.041553 a 15.733126,9.4575529 0 1 1 -31.4662517,0 15.733126,9.4575529 0 1 1 31.4662517,0 z" id="path6017" style="fill:none;stroke:url(#linearGradient6019);stroke-width:0.90226138;stroke-linecap:round;stroke-linejoin:round;stroke-miterlimit:4;stroke-opacity:1;stroke-dasharray:none;stroke-dashoffset:0;marker:none;visibility:visible;display:inline;overflow:visible" transform="matrix(0.917874,-0.858983,0.667701,0.713433,27.63317,-6.909069)"/>
      <g id="g5075" transform="matrix(-0.806276,0.59154,0.59154,0.806276,12.38564,-18.02921)">
        <path d="m 18.788838,12.493138 a 6.7175145,6.7175145 0 1 1 -13.4350291,0 6.7175145,6.7175145 0 1 1 13.4350291,0 z" id="path5077" style="fill:url(#radialGradient5983);fill-opacity:1;fill-rule:evenodd;stroke:none;stroke-width:1;marker:none;visibility:visible;display:inline;overflow:visible" transform="translate(14.95026,22.93047)"/>
        <path d="m 18.788838,12.493138 a 6.7175145,6.7175145 0 1 1 -13.4350291,0 6.7175145,6.7175145 0 1 1 13.4350291,0 z" id="path5079" style="fill:#ffffff;fill-opacity:1;fill-rule:evenodd;stroke:none;stroke-width:1;marker:none;visibility:visible;display:inline;overflow:visible" transform="matrix(0.308271,0,0,0.308271,23.30035,31.57234)"/>
      </g>
      <g id="g4945" transform="matrix(-0.806276,0.59154,0.59154,0.806276,13.4991,-31.50022)">
        <path d="m 18.788838,12.493138 a 6.7175145,6.7175145 0 1 1 -13.4350291,0 6.7175145,6.7175145 0 1 1 13.4350291,0 z" id="path4947" style="fill:url(#radialGradient5985);fill-opacity:1;fill-rule:evenodd;stroke:none;stroke-width:1;marker:none;visibility:visible;display:inline;overflow:visible" transform="translate(14.95026,22.93047)"/>
        <path d="m 18.788838,12.493138 a 6.7175145,6.7175145 0 1 1 -13.4350291,0 6.7175145,6.7175145 0 1 1 13.4350291,0 z" id="path4949" style="fill:#ffffff;fill-opacity:1;fill-rule:evenodd;stroke:none;stroke-width:1;marker:none;visibility:visible;display:inline;overflow:visible" transform="matrix(0.308271,0,0,0.308271,23.30035,31.57234)"/>
      </g>
      <g id="g4939" transform="matrix(-0.870227,0.638572,0.638458,0.870381,25.20503,-35.31278)">
        <path d="m 18.788838,12.493138 a 6.7175145,6.7175145 0 1 1 -13.4350291,0 6.7175145,6.7175145 0 1 1 13.4350291,0 z" id="path4941" style="fill:url(#radialGradient5989);fill-opacity:1;fill-rule:evenodd;stroke:none;stroke-width:1;marker:none;visibility:visible;display:inline;overflow:visible" transform="translate(14.95026,22.93047)"/>
        <path d="m 18.788838,12.493138 a 6.7175145,6.7175145 0 1 1 -13.4350291,0 6.7175145,6.7175145 0 1 1 13.4350291,0 z" id="path4943" style="fill:#ffffff;fill-opacity:1;fill-rule:evenodd;stroke:none;stroke-width:1;marker:none;visibility:visible;display:inline;overflow:visible" transform="matrix(0.308271,0,0,0.308271,23.30035,31.57234)"/>
      </g>
    </g>
  </g></g></svg>